<meta message smpte_offset frame_rate=25 hours=32 minutes=0 seconds=3 frames=0 sub_frames=0 time=0> 
<meta message time_signature numerator=4 denominator=4 clocks_per_click=24 notated_32nd_notes_per_beat=8 time=0> 
<meta message key_signature key='C' time=0> 
<meta message set_tempo tempo=714286 time=0> 
<meta message end_of_track time=0> 
<meta message midi_port port=0 time=0> 
<meta message track_name name='**                  ' time=0> 
program_change channel=0 program=0 time=0 
control_change channel=0 control=10 value=64 time=0 
pitchwheel channel=0 pitch=0 time=0 
control_change channel=0 control=1 value=0 time=0 
control_change channel=0 control=64 value=0 time=0 
<meta message end_of_track time=0> 
<meta message midi_port port=0 time=0> 
<meta message track_name name='Unnamed             ' time=0> 
program_change channel=1 program=52 time=0 
control_change channel=1 control=10 value=64 time=0 
pitchwheel channel=1 pitch=0 time=0 
control_change channel=1 control=1 value=0 time=0 
control_change channel=1 control=64 value=0 time=0 
<meta message end_of_track time=0> 
<meta message midi_port port=0 time=0> 
<meta message track_name name='Unnamed             ' time=0> 
program_change channel=2 program=16 time=0 
control_change channel=2 control=10 value=64 time=0 
pitchwheel channel=2 pitch=0 time=0 
control_change channel=2 control=1 value=0 time=0 
control_change channel=2 control=64 value=0 time=0 
<meta message end_of_track time=0> 
<meta message midi_port port=0 time=0> 
<meta message track_name name='Bass                ' time=0> 
program_change channel=3 program=33 time=0 
control_change channel=3 control=7 value=75 time=0 
control_change channel=3 control=10 value=64 time=0 
control_change channel=3 control=0 value=0 time=0 
control_change channel=3 control=91 value=20 time=0 
control_change channel=3 control=93 value=12 time=0 
note_on channel=3 note=38 velocity=112 time=1532 
note_on channel=3 note=38 velocity=0 time=172 
note_on channel=3 note=33 velocity=112 time=24 
note_on channel=3 note=33 velocity=0 time=188 
note_on channel=3 note=38 velocity=112 time=4 
note_on channel=3 note=38 velocity=0 time=160 
note_on channel=3 note=33 velocity=112 time=32 
note_on channel=3 note=33 velocity=0 time=148 
note_on channel=3 note=35 velocity=112 time=44 
note_on channel=3 note=35 velocity=0 time=168 
note_on channel=3 note=30 velocity=112 time=24 
note_on channel=3 note=30 velocity=0 time=160 
note_on channel=3 note=35 velocity=112 time=32 
note_on channel=3 note=35 velocity=0 time=140 
note_on channel=3 note=35 velocity=112 time=52 
note_on channel=3 note=35 velocity=0 time=168 
note_on channel=3 note=33 velocity=112 time=24 
note_on channel=3 note=33 velocity=0 time=160 
note_on channel=3 note=28 velocity=112 time=32 
note_on channel=3 note=28 velocity=0 time=168 
note_on channel=3 note=33 velocity=112 time=24 
note_on channel=3 note=33 velocity=0 time=160 
note_on channel=3 note=28 velocity=112 time=32 
note_on channel=3 note=28 velocity=0 time=44 
note_on channel=3 note=33 velocity=112 time=52 
note_on channel=3 note=33 velocity=0 time=60 
note_on channel=3 note=43 velocity=112 time=36 
note_on channel=3 note=43 velocity=0 time=136 
note_on channel=3 note=43 velocity=112 time=56 
note_on channel=3 note=43 velocity=0 time=32 
note_on channel=3 note=40 velocity=112 time=64 
note_on channel=3 note=40 velocity=0 time=44 
note_on channel=3 note=38 velocity=112 time=48 
note_on channel=3 note=38 velocity=0 time=172 
note_on channel=3 note=33 velocity=112 time=24 
note_on channel=3 note=33 velocity=0 time=168 
note_on channel=3 note=38 velocity=112 time=24 
note_on channel=3 note=38 velocity=0 time=152 
note_on channel=3 note=33 velocity=112 time=36 
note_on channel=3 note=33 velocity=0 time=172 
note_on channel=3 note=38 velocity=112 time=20 
note_on channel=3 note=38 velocity=0 time=176 
note_on channel=3 note=33 velocity=112 time=16 
note_on channel=3 note=33 velocity=0 time=172 
note_on channel=3 note=38 velocity=112 time=20 
note_on channel=3 note=38 velocity=0 time=156 
note_on channel=3 note=33 velocity=112 time=40 
note_on channel=3 note=33 velocity=0 time=52 
note_on channel=3 note=42 velocity=112 time=44 
note_on channel=3 note=42 velocity=0 time=52 
note_on channel=3 note=35 velocity=112 time=44 
note_on channel=3 note=35 velocity=0 time=160 
note_on channel=3 note=42 velocity=112 time=32 
note_on channel=3 note=42 velocity=0 time=148 
note_on channel=3 note=35 velocity=112 time=44 
note_on channel=3 note=35 velocity=0 time=128 
note_on channel=3 note=35 velocity=112 time=64 
note_on channel=3 note=35 velocity=0 time=140 
note_on channel=3 note=33 velocity=112 time=52 
note_on channel=3 note=33 velocity=0 time=168 
note_on channel=3 note=40 velocity=112 time=24 
note_on channel=3 note=40 velocity=0 time=164 
note_on channel=3 note=33 velocity=112 time=28 
note_on channel=3 note=33 velocity=0 time=164 
note_on channel=3 note=40 velocity=112 time=28 
note_on channel=3 note=40 velocity=0 time=48 
note_on channel=3 note=33 velocity=112 time=48 
note_on channel=3 note=33 velocity=0 time=48 
note_on channel=3 note=31 velocity=112 time=48 
note_on channel=3 note=31 velocity=0 time=168 
note_on channel=3 note=42 velocity=112 time=20 
note_on channel=3 note=42 velocity=0 time=52 
note_on channel=3 note=40 velocity=112 time=52 
note_on channel=3 note=40 velocity=0 time=40 
note_on channel=3 note=38 velocity=112 time=52 
note_on channel=3 note=38 velocity=0 time=160 
note_on channel=3 note=33 velocity=112 time=32 
note_on channel=3 note=33 velocity=0 time=160 
note_on channel=3 note=38 velocity=112 time=32 
note_on channel=3 note=38 velocity=0 time=148 
note_on channel=3 note=33 velocity=112 time=44 
note_on channel=3 note=33 velocity=0 time=180 
note_on channel=3 note=38 velocity=112 time=12 
note_on channel=3 note=38 velocity=0 time=148 
note_on channel=3 note=42 velocity=112 time=44 
note_on channel=3 note=42 velocity=0 time=64 
note_on channel=3 note=45 velocity=112 time=32 
note_on channel=3 note=45 velocity=0 time=48 
note_on channel=3 note=33 velocity=112 time=48 
note_on channel=3 note=33 velocity=0 time=152 
note_on channel=3 note=40 velocity=112 time=40 
note_on channel=3 note=40 velocity=0 time=152 
note_on channel=3 note=33 velocity=112 time=40 
note_on channel=3 note=33 velocity=0 time=180 
note_on channel=3 note=40 velocity=112 time=12 
note_on channel=3 note=40 velocity=0 time=152 
note_on channel=3 note=35 velocity=112 time=40 
note_on channel=3 note=35 velocity=0 time=160 
note_on channel=3 note=42 velocity=112 time=32 
note_on channel=3 note=42 velocity=0 time=168 
note_on channel=3 note=35 velocity=112 time=24 
note_on channel=3 note=35 velocity=0 time=152 
note_on channel=3 note=35 velocity=112 time=40 
note_on channel=3 note=35 velocity=0 time=44 
note_on channel=3 note=42 velocity=112 time=52 
note_on channel=3 note=42 velocity=0 time=52 
note_on channel=3 note=43 velocity=112 time=44 
note_on channel=3 note=43 velocity=0 time=160 
note_on channel=3 note=38 velocity=112 time=32 
note_on channel=3 note=38 velocity=0 time=180 
note_on channel=3 note=43 velocity=112 time=12 
note_on channel=3 note=43 velocity=0 time=124 
note_on channel=3 note=43 velocity=112 time=68 
note_on channel=3 note=43 velocity=0 time=44 
note_on channel=3 note=40 velocity=112 time=56 
note_on channel=3 note=40 velocity=0 time=68 
note_on channel=3 note=38 velocity=112 time=24 
note_on channel=3 note=38 velocity=0 time=160 
note_on channel=3 note=33 velocity=112 time=32 
note_on channel=3 note=33 velocity=0 time=168 
note_on channel=3 note=38 velocity=112 time=24 
note_on channel=3 note=38 velocity=0 time=168 
note_on channel=3 note=42 velocity=112 time=24 
note_on channel=3 note=42 velocity=0 time=52 
note_on channel=3 note=43 velocity=112 time=44 
note_on channel=3 note=43 velocity=0 time=60 
note_on channel=3 note=45 velocity=112 time=36 
note_on channel=3 note=45 velocity=0 time=160 
note_on channel=3 note=40 velocity=112 time=32 
note_on channel=3 note=40 velocity=0 time=180 
note_on channel=3 note=45 velocity=112 time=12 
note_on channel=3 note=45 velocity=0 time=152 
note_on channel=3 note=40 velocity=112 time=40 
note_on channel=3 note=40 velocity=0 time=52 
note_on channel=3 note=42 velocity=112 time=44 
note_on channel=3 note=42 velocity=0 time=52 
note_on channel=3 note=43 velocity=112 time=44 
note_on channel=3 note=43 velocity=0 time=160 
note_on channel=3 note=38 velocity=112 time=32 
note_on channel=3 note=38 velocity=0 time=160 
note_on channel=3 note=43 velocity=112 time=32 
note_on channel=3 note=43 velocity=0 time=180 
note_on channel=3 note=42 velocity=112 time=12 
note_on channel=3 note=42 velocity=0 time=52 
note_on channel=3 note=40 velocity=112 time=44 
note_on channel=3 note=40 velocity=0 time=72 
note_on channel=3 note=38 velocity=112 time=20 
note_on channel=3 note=38 velocity=0 time=144 
note_on channel=3 note=33 velocity=112 time=52 
note_on channel=3 note=33 velocity=0 time=168 
note_on channel=3 note=38 velocity=112 time=24 
note_on channel=3 note=38 velocity=0 time=168 
note_on channel=3 note=33 velocity=112 time=24 
note_on channel=3 note=33 velocity=0 time=152 
note_on channel=3 note=38 velocity=112 time=40 
note_on channel=3 note=38 velocity=0 time=152 
note_on channel=3 note=33 velocity=112 time=40 
note_on channel=3 note=33 velocity=0 time=160 
note_on channel=3 note=38 velocity=112 time=32 
note_on channel=3 note=38 velocity=0 time=188 
note_on channel=3 note=33 velocity=112 time=4 
note_on channel=3 note=33 velocity=0 time=160 
note_on channel=3 note=35 velocity=112 time=32 
note_on channel=3 note=35 velocity=0 time=160 
note_on channel=3 note=42 velocity=112 time=32 
note_on channel=3 note=42 velocity=0 time=168 
note_on channel=3 note=35 velocity=112 time=24 
note_on channel=3 note=35 velocity=0 time=152 
note_on channel=3 note=38 velocity=112 time=40 
note_on channel=3 note=38 velocity=0 time=68 
note_on channel=3 note=35 velocity=112 time=28 
note_on channel=3 note=35 velocity=0 time=44 
note_on channel=3 note=33 velocity=112 time=52 
note_on channel=3 note=33 velocity=0 time=160 
note_on channel=3 note=40 velocity=112 time=32 
note_on channel=3 note=40 velocity=0 time=160 
note_on channel=3 note=33 velocity=112 time=28 
note_on channel=3 note=33 velocity=0 time=168 
note_on channel=3 note=40 velocity=112 time=28 
note_on channel=3 note=40 velocity=0 time=52 
note_on channel=3 note=33 velocity=112 time=48 
note_on channel=3 note=33 velocity=0 time=40 
note_on channel=3 note=31 velocity=112 time=52 
note_on channel=3 note=31 velocity=0 time=160 
note_on channel=3 note=42 velocity=112 time=32 
note_on channel=3 note=42 velocity=0 time=44 
note_on channel=3 note=40 velocity=112 time=52 
note_on channel=3 note=40 velocity=0 time=44 
note_on channel=3 note=38 velocity=112 time=52 
note_on channel=3 note=38 velocity=0 time=168 
note_on channel=3 note=33 velocity=112 time=24 
note_on channel=3 note=33 velocity=0 time=160 
note_on channel=3 note=38 velocity=112 time=32 
note_on channel=3 note=38 velocity=0 time=180 
note_on channel=3 note=33 velocity=112 time=12 
note_on channel=3 note=33 velocity=0 time=140 
note_on channel=3 note=38 velocity=112 time=52 
note_on channel=3 note=38 velocity=0 time=152 
note_on channel=3 note=33 velocity=112 time=36 
note_on channel=3 note=33 velocity=0 time=164 
note_on channel=3 note=38 velocity=112 time=32 
note_on channel=3 note=38 velocity=0 time=148 
note_on channel=3 note=33 velocity=112 time=40 
note_on channel=3 note=33 velocity=0 time=52 
note_on channel=3 note=42 velocity=112 time=48 
note_on channel=3 note=42 velocity=0 time=52 
note_on channel=3 note=35 velocity=112 time=44 
note_on channel=3 note=35 velocity=0 time=188 
note_on channel=3 note=42 velocity=112 time=4 
note_on channel=3 note=42 velocity=0 time=152 
note_on channel=3 note=35 velocity=112 time=36 
note_on channel=3 note=35 velocity=0 time=172 
note_on channel=3 note=42 velocity=112 time=24 
note_on channel=3 note=42 velocity=0 time=48 
note_on channel=3 note=35 velocity=112 time=48 
note_on channel=3 note=35 velocity=0 time=44 
note_on channel=3 note=33 velocity=112 time=52 
note_on channel=3 note=33 velocity=0 time=168 
note_on channel=3 note=40 velocity=112 time=24 
note_on channel=3 note=40 velocity=0 time=160 
note_on channel=3 note=33 velocity=112 time=32 
note_on channel=3 note=33 velocity=0 time=168 
note_on channel=3 note=40 velocity=112 time=24 
note_on channel=3 note=40 velocity=0 time=52 
note_on channel=3 note=33 velocity=112 time=44 
note_on channel=3 note=33 velocity=0 time=44 
note_on channel=3 note=31 velocity=112 time=48 
note_on channel=3 note=42 velocity=112 time=196 
note_on channel=3 note=31 velocity=0 time=4 
note_on channel=3 note=42 velocity=0 time=44 
note_on channel=3 note=40 velocity=112 time=44 
note_on channel=3 note=40 velocity=0 time=48 
note_on channel=3 note=38 velocity=112 time=52 
note_on channel=3 note=38 velocity=0 time=180 
note_on channel=3 note=33 velocity=112 time=12 
note_on channel=3 note=33 velocity=0 time=160 
note_on channel=3 note=38 velocity=112 time=32 
note_on channel=3 note=38 velocity=0 time=152 
note_on channel=3 note=33 velocity=112 time=40 
note_on channel=3 note=33 velocity=0 time=148 
note_on channel=3 note=38 velocity=112 time=40 
note_on channel=3 note=38 velocity=0 time=168 
note_on channel=3 note=42 velocity=112 time=28 
note_on channel=3 note=42 velocity=0 time=52 
note_on channel=3 note=43 velocity=112 time=44 
note_on channel=3 note=43 velocity=0 time=72 
note_on channel=3 note=45 velocity=112 time=24 
note_on channel=3 note=45 velocity=0 time=148 
note_on channel=3 note=40 velocity=112 time=44 
note_on channel=3 note=40 velocity=0 time=164 
note_on channel=3 note=45 velocity=112 time=28 
note_on channel=3 note=45 velocity=0 time=132 
note_on channel=3 note=30 velocity=112 time=56 
note_on channel=3 note=30 velocity=0 time=44 
note_on channel=3 note=33 velocity=112 time=56 
note_on channel=3 note=33 velocity=0 time=48 
note_on channel=3 note=35 velocity=112 time=48 
note_on channel=3 note=35 velocity=0 time=160 
note_on channel=3 note=42 velocity=112 time=32 
note_on channel=3 note=42 velocity=0 time=160 
note_on channel=3 note=35 velocity=112 time=32 
note_on channel=3 note=35 velocity=0 time=164 
note_on channel=3 note=42 velocity=112 time=28 
note_on channel=3 note=42 velocity=0 time=52 
note_on channel=3 note=45 velocity=112 time=44 
note_on channel=3 note=45 velocity=0 time=44 
note_on channel=3 note=43 velocity=112 time=52 
note_on channel=3 note=43 velocity=0 time=160 
note_on channel=3 note=38 velocity=112 time=32 
note_on channel=3 note=38 velocity=0 time=168 
note_on channel=3 note=43 velocity=112 time=24 
note_on channel=3 note=43 velocity=0 time=128 
note_on channel=3 note=43 velocity=112 time=64 
note_on channel=3 note=43 velocity=0 time=32 
note_on channel=3 note=40 velocity=112 time=64 
note_on channel=3 note=40 velocity=0 time=24 
note_on channel=3 note=38 velocity=112 time=72 
note_on channel=3 note=38 velocity=0 time=180 
note_on channel=3 note=33 velocity=112 time=12 
note_on channel=3 note=33 velocity=0 time=152 
note_on channel=3 note=38 velocity=112 time=40 
note_on channel=3 note=38 velocity=0 time=164 
note_on channel=3 note=42 velocity=112 time=28 
note_on channel=3 note=42 velocity=0 time=44 
note_on channel=3 note=43 velocity=112 time=56 
note_on channel=3 note=43 velocity=0 time=48 
note_on channel=3 note=45 velocity=112 time=44 
note_on channel=3 note=45 velocity=0 time=160 
note_on channel=3 note=40 velocity=112 time=32 
note_on channel=3 note=40 velocity=0 time=168 
note_on channel=3 note=45 velocity=112 time=24 
note_on channel=3 note=45 velocity=0 time=160 
note_on channel=3 note=40 velocity=112 time=32 
note_on channel=3 note=40 velocity=0 time=64 
note_on channel=3 note=45 velocity=112 time=32 
note_on channel=3 note=45 velocity=0 time=32 
note_on channel=3 note=43 velocity=112 time=64 
note_on channel=3 note=43 velocity=0 time=168 
note_on channel=3 note=38 velocity=112 time=24 
note_on channel=3 note=38 velocity=0 time=160 
note_on channel=3 note=43 velocity=112 time=32 
note_on channel=3 note=43 velocity=0 time=168 
note_on channel=3 note=42 velocity=112 time=24 
note_on channel=3 note=42 velocity=0 time=52 
note_on channel=3 note=40 velocity=112 time=44 
note_on channel=3 note=40 velocity=0 time=44 
note_on channel=3 note=38 velocity=112 time=48 
note_on channel=3 note=38 velocity=0 time=152 
note_on channel=3 note=33 velocity=112 time=44 
note_on channel=3 note=33 velocity=0 time=160 
note_on channel=3 note=38 velocity=112 time=32 
note_on channel=3 note=38 velocity=0 time=168 
note_on channel=3 note=33 velocity=112 time=24 
note_on channel=3 note=33 velocity=0 time=48 
note_on channel=3 note=34 velocity=112 time=48 
note_on channel=3 note=34 velocity=0 time=44 
note_on channel=3 note=35 velocity=112 time=52 
note_on channel=3 note=35 velocity=0 time=164 
note_on channel=3 note=42 velocity=112 time=28 
note_on channel=3 note=42 velocity=0 time=52 
note_on channel=3 note=35 velocity=112 time=44 
note_on channel=3 note=35 velocity=0 time=44 
note_on channel=3 note=33 velocity=112 time=52 
note_on channel=3 note=33 velocity=0 time=124 
note_on channel=3 note=33 velocity=112 time=68 
note_on channel=3 note=33 velocity=0 time=160 
note_on channel=3 note=38 velocity=112 time=32 
note_on channel=3 note=38 velocity=0 time=164 
note_on channel=3 note=45 velocity=112 time=28 
note_on channel=3 note=45 velocity=0 time=164 
note_on channel=3 note=38 velocity=112 time=28 
note_on channel=3 note=38 velocity=0 time=180 
note_on channel=3 note=40 velocity=112 time=8 
note_on channel=3 note=40 velocity=0 time=52 
note_on channel=3 note=42 velocity=112 time=48 
note_on channel=3 note=42 velocity=0 time=52 
note_on channel=3 note=43 velocity=112 time=40 
note_on channel=3 note=43 velocity=0 time=140 
note_on channel=3 note=43 velocity=112 time=56 
note_on channel=3 note=43 velocity=0 time=140 
note_on channel=3 note=38 velocity=112 time=52 
note_on channel=3 note=38 velocity=0 time=120 
note_on channel=3 note=38 velocity=112 time=72 
note_on channel=3 note=38 velocity=0 time=64 
note_on channel=3 note=42 velocity=112 time=32 
note_on channel=3 note=42 velocity=0 time=12 
note_on channel=3 note=45 velocity=112 time=32 
note_on channel=3 note=45 velocity=0 time=12 
note_on channel=3 note=33 velocity=112 time=40 
note_on channel=3 note=33 velocity=0 time=140 
note_on channel=3 note=40 velocity=112 time=52 
note_on channel=3 note=40 velocity=0 time=168 
note_on channel=3 note=45 velocity=112 time=24 
note_on channel=3 note=45 velocity=0 time=148 
note_on channel=3 note=33 velocity=112 time=44 
note_on channel=3 note=33 velocity=0 time=32 
note_on channel=3 note=34 velocity=112 time=64 
note_on channel=3 note=34 velocity=0 time=44 
note_on channel=3 note=35 velocity=112 time=52 
note_on channel=3 note=35 velocity=0 time=128 
note_on channel=3 note=35 velocity=112 time=64 
note_on channel=3 note=35 velocity=0 time=152 
note_on channel=3 note=36 velocity=112 time=40 
note_on channel=3 note=36 velocity=0 time=172 
note_on channel=3 note=40 velocity=112 time=20 
note_on channel=3 note=40 velocity=0 time=44 
note_on channel=3 note=43 velocity=112 time=52 
note_on channel=3 note=43 velocity=0 time=24 
note_on channel=3 note=43 velocity=112 time=72 
note_on channel=3 note=43 velocity=0 time=152 
note_on channel=3 note=42 velocity=112 time=40 
note_on channel=3 note=42 velocity=0 time=44 
note_on channel=3 note=40 velocity=112 time=52 
note_on channel=3 note=40 velocity=0 time=44 
note_on channel=3 note=38 velocity=112 time=48 
note_on channel=3 note=38 velocity=0 time=136 
note_on channel=3 note=38 velocity=112 time=60 
note_on channel=3 note=38 velocity=0 time=148 
note_on channel=3 note=45 velocity=112 time=44 
note_on channel=3 note=45 velocity=0 time=148 
note_on channel=3 note=40 velocity=112 time=44 
note_on channel=3 note=40 velocity=0 time=168 
note_on channel=3 note=45 velocity=112 time=20 
note_on channel=3 note=45 velocity=0 time=164 
note_on channel=3 note=40 velocity=112 time=32 
note_on channel=3 note=40 velocity=0 time=12 
note_on channel=3 note=40 velocity=112 time=84 
note_on channel=3 note=40 velocity=0 time=60 
note_on channel=3 note=45 velocity=112 time=36 
note_on channel=3 note=45 velocity=0 time=152 
note_on channel=3 note=40 velocity=112 time=36 
note_on channel=3 note=40 velocity=0 time=152 
note_on channel=3 note=45 velocity=112 time=44 
note_on channel=3 note=38 velocity=112 time=384 
note_on channel=3 note=45 velocity=0 time=20 
note_on channel=3 note=38 velocity=0 time=128 
note_on channel=3 note=33 velocity=112 time=44 
note_on channel=3 note=33 velocity=0 time=180 
note_on channel=3 note=38 velocity=112 time=12 
note_on channel=3 note=38 velocity=0 time=148 
note_on channel=3 note=42 velocity=112 time=44 
note_on channel=3 note=42 velocity=0 time=60 
note_on channel=3 note=45 velocity=112 time=36 
note_on channel=3 note=45 velocity=0 time=44 
note_on channel=3 note=33 velocity=112 time=52 
note_on channel=3 note=33 velocity=0 time=148 
note_on channel=3 note=40 velocity=112 time=44 
note_on channel=3 note=40 velocity=0 time=152 
note_on channel=3 note=33 velocity=112 time=40 
note_on channel=3 note=33 velocity=0 time=180 
note_on channel=3 note=40 velocity=112 time=12 
note_on channel=3 note=40 velocity=0 time=152 
note_on channel=3 note=35 velocity=112 time=40 
note_on channel=3 note=35 velocity=0 time=160 
note_on channel=3 note=42 velocity=112 time=32 
note_on channel=3 note=42 velocity=0 time=168 
note_on channel=3 note=35 velocity=112 time=24 
note_on channel=3 note=35 velocity=0 time=152 
note_on channel=3 note=35 velocity=112 time=40 
note_on channel=3 note=35 velocity=0 time=44 
note_on channel=3 note=42 velocity=112 time=52 
note_on channel=3 note=42 velocity=0 time=52 
note_on channel=3 note=43 velocity=112 time=44 
note_on channel=3 note=43 velocity=0 time=160 
note_on channel=3 note=38 velocity=112 time=32 
note_on channel=3 note=38 velocity=0 time=180 
note_on channel=3 note=43 velocity=112 time=12 
note_on channel=3 note=43 velocity=0 time=124 
note_on channel=3 note=43 velocity=112 time=68 
note_on channel=3 note=43 velocity=0 time=44 
note_on channel=3 note=40 velocity=112 time=52 
note_on channel=3 note=40 velocity=0 time=72 
note_on channel=3 note=38 velocity=112 time=24 
note_on channel=3 note=38 velocity=0 time=160 
note_on channel=3 note=33 velocity=112 time=32 
note_on channel=3 note=33 velocity=0 time=172 
note_on channel=3 note=38 velocity=112 time=20 
note_on channel=3 note=38 velocity=0 time=164 
note_on channel=3 note=42 velocity=112 time=28 
note_on channel=3 note=42 velocity=0 time=52 
note_on channel=3 note=43 velocity=112 time=48 
note_on channel=3 note=43 velocity=0 time=56 
note_on channel=3 note=45 velocity=112 time=36 
note_on channel=3 note=45 velocity=0 time=160 
note_on channel=3 note=40 velocity=112 time=32 
note_on channel=3 note=40 velocity=0 time=180 
note_on channel=3 note=45 velocity=112 time=12 
note_on channel=3 note=45 velocity=0 time=152 
note_on channel=3 note=40 velocity=112 time=40 
note_on channel=3 note=40 velocity=0 time=52 
note_on channel=3 note=42 velocity=112 time=44 
note_on channel=3 note=42 velocity=0 time=56 
note_on channel=3 note=43 velocity=112 time=44 
note_on channel=3 note=43 velocity=0 time=152 
note_on channel=3 note=38 velocity=112 time=36 
note_on channel=3 note=38 velocity=0 time=160 
note_on channel=3 note=43 velocity=112 time=32 
note_on channel=3 note=43 velocity=0 time=180 
note_on channel=3 note=42 velocity=112 time=12 
note_on channel=3 note=42 velocity=0 time=52 
note_on channel=3 note=40 velocity=112 time=44 
note_on channel=3 note=40 velocity=0 time=72 
note_on channel=3 note=38 velocity=112 time=24 
note_on channel=3 note=38 velocity=0 time=140 
note_on channel=3 note=33 velocity=112 time=52 
note_on channel=3 note=33 velocity=0 time=168 
note_on channel=3 note=38 velocity=112 time=20 
note_on channel=3 note=38 velocity=0 time=172 
note_on channel=3 note=33 velocity=112 time=24 
note_on channel=3 note=33 velocity=0 time=152 
note_on channel=3 note=38 velocity=112 time=40 
note_on channel=3 note=38 velocity=0 time=152 
note_on channel=3 note=33 velocity=112 time=40 
note_on channel=3 note=33 velocity=0 time=180 
note_on channel=3 note=38 velocity=112 time=12 
note_on channel=3 note=38 velocity=0 time=148 
note_on channel=3 note=42 velocity=112 time=44 
note_on channel=3 note=42 velocity=0 time=64 
note_on channel=3 note=45 velocity=112 time=32 
note_on channel=3 note=45 velocity=0 time=48 
note_on channel=3 note=33 velocity=112 time=48 
note_on channel=3 note=33 velocity=0 time=152 
note_on channel=3 note=40 velocity=112 time=40 
note_on channel=3 note=40 velocity=0 time=152 
note_on channel=3 note=33 velocity=112 time=40 
note_on channel=3 note=33 velocity=0 time=180 
note_on channel=3 note=40 velocity=112 time=8 
note_on channel=3 note=40 velocity=0 time=156 
note_on channel=3 note=35 velocity=112 time=40 
note_on channel=3 note=35 velocity=0 time=160 
note_on channel=3 note=42 velocity=112 time=32 
note_on channel=3 note=42 velocity=0 time=168 
note_on channel=3 note=35 velocity=112 time=24 
note_on channel=3 note=35 velocity=0 time=152 
note_on channel=3 note=35 velocity=112 time=40 
note_on channel=3 note=35 velocity=0 time=44 
note_on channel=3 note=42 velocity=112 time=52 
note_on channel=3 note=42 velocity=0 time=52 
note_on channel=3 note=43 velocity=112 time=44 
note_on channel=3 note=43 velocity=0 time=160 
note_on channel=3 note=38 velocity=112 time=32 
note_on channel=3 note=38 velocity=0 time=180 
note_on channel=3 note=43 velocity=112 time=12 
note_on channel=3 note=43 velocity=0 time=124 
note_on channel=3 note=43 velocity=112 time=64 
note_on channel=3 note=43 velocity=0 time=48 
note_on channel=3 note=40 velocity=112 time=52 
note_on channel=3 note=40 velocity=0 time=72 
note_on channel=3 note=38 velocity=112 time=24 
note_on channel=3 note=38 velocity=0 time=160 
note_on channel=3 note=33 velocity=112 time=32 
note_on channel=3 note=33 velocity=0 time=168 
note_on channel=3 note=38 velocity=112 time=20 
note_on channel=3 note=38 velocity=0 time=168 
note_on channel=3 note=42 velocity=112 time=28 
note_on channel=3 note=42 velocity=0 time=52 
note_on channel=3 note=43 velocity=112 time=44 
note_on channel=3 note=43 velocity=0 time=60 
note_on channel=3 note=45 velocity=112 time=36 
note_on channel=3 note=45 velocity=0 time=164 
note_on channel=3 note=40 velocity=112 time=28 
note_on channel=3 note=40 velocity=0 time=176 
note_on channel=3 note=45 velocity=112 time=16 
note_on channel=3 note=45 velocity=0 time=152 
note_on channel=3 note=40 velocity=112 time=40 
note_on channel=3 note=40 velocity=0 time=52 
note_on channel=3 note=42 velocity=112 time=48 
note_on channel=3 note=42 velocity=0 time=52 
note_on channel=3 note=43 velocity=112 time=40 
note_on channel=3 note=43 velocity=0 time=156 
note_on channel=3 note=38 velocity=112 time=36 
note_on channel=3 note=38 velocity=0 time=164 
note_on channel=3 note=43 velocity=112 time=28 
note_on channel=3 note=43 velocity=0 time=180 
note_on channel=3 note=42 velocity=112 time=12 
note_on channel=3 note=42 velocity=0 time=52 
note_on channel=3 note=40 velocity=112 time=44 
note_on channel=3 note=40 velocity=0 time=72 
note_on channel=3 note=38 velocity=112 time=20 
note_on channel=3 note=38 velocity=0 time=144 
note_on channel=3 note=33 velocity=112 time=52 
note_on channel=3 note=33 velocity=0 time=168 
note_on channel=3 note=38 velocity=112 time=24 
note_on channel=3 note=38 velocity=0 time=44 
note_on channel=3 note=38 velocity=112 time=52 
note_on channel=3 note=38 velocity=0 time=44 
note_on channel=3 note=37 velocity=112 time=52 
note_on channel=3 note=37 velocity=0 time=44 
note_on channel=3 note=35 velocity=112 time=56 
note_on channel=3 note=35 velocity=0 time=36 
note_on channel=3 note=33 velocity=112 time=56 
note_on channel=3 note=33 velocity=0 time=156 
note_on channel=3 note=40 velocity=112 time=36 
note_on channel=3 note=40 velocity=0 time=168 
note_on channel=3 note=45 velocity=112 time=24 
note_on channel=3 note=45 velocity=0 time=44 
note_on channel=3 note=33 velocity=112 time=52 
note_on channel=3 note=33 velocity=0 time=32 
note_on channel=3 note=35 velocity=112 time=64 
note_on channel=3 note=35 velocity=0 time=52 
note_on channel=3 note=37 velocity=112 time=44 
note_on channel=3 note=37 velocity=0 time=44 
note_on channel=3 note=38 velocity=112 time=52 
note_on channel=3 note=38 velocity=0 time=180 
note_on channel=3 note=45 velocity=112 time=12 
note_on channel=3 note=45 velocity=0 time=152 
note_on channel=3 note=38 velocity=112 time=40 
note_on channel=3 note=38 velocity=0 time=24 
note_on channel=3 note=38 velocity=112 time=72 
note_on channel=3 note=38 velocity=0 time=24 
note_on channel=3 note=37 velocity=112 time=72 
note_on channel=3 note=37 velocity=0 time=40 
note_on channel=3 note=35 velocity=112 time=56 
note_on channel=3 note=35 velocity=0 time=48 
note_on channel=3 note=33 velocity=112 time=48 
note_on channel=3 note=33 velocity=0 time=152 
note_on channel=3 note=40 velocity=112 time=40 
note_on channel=3 note=40 velocity=0 time=160 
note_on channel=3 note=33 velocity=112 time=32 
note_on channel=3 note=33 velocity=0 time=12 
note_on channel=3 note=33 velocity=112 time=84 
note_on channel=3 note=33 velocity=0 time=32 
note_on channel=3 note=35 velocity=112 time=64 
note_on channel=3 note=35 velocity=0 time=44 
note_on channel=3 note=37 velocity=112 time=52 
note_on channel=3 note=37 velocity=0 time=32 
note_on channel=3 note=38 velocity=112 time=64 
note_on channel=3 note=38 velocity=0 time=164 
note_on channel=3 note=33 velocity=112 time=28 
note_on channel=3 note=33 velocity=0 time=168 
note_on channel=3 note=38 velocity=112 time=24 
note_on channel=3 note=38 velocity=0 time=44 
note_on channel=3 note=33 velocity=112 time=52 
note_on channel=3 note=33 velocity=0 time=20 
note_on channel=3 note=38 velocity=109 time=76 
note_on channel=3 note=38 velocity=0 time=128 
<meta message end_of_track time=0> 
<meta message midi_port port=0 time=0> 
<meta message track_name name='Guitar              ' time=0> 
program_change channel=4 program=26 time=0 
control_change channel=4 control=7 value=71 time=0 
control_change channel=4 control=10 value=104 time=0 
control_change channel=4 control=0 value=0 time=0 
control_change channel=4 control=1 value=0 time=4 
control_change channel=4 control=91 value=100 time=4 
note_on channel=4 note=81 velocity=127 time=14776 
pitchwheel channel=4 pitch=-643 time=128 
pitchwheel channel=4 pitch=-1125 time=0 
pitchwheel channel=4 pitch=-1735 time=4 
pitchwheel channel=4 pitch=-2314 time=4 
pitchwheel channel=4 pitch=-2795 time=0 
pitchwheel channel=4 pitch=-3470 time=0 
pitchwheel channel=4 pitch=-4016 time=8 
pitchwheel channel=4 pitch=-4659 time=0 
pitchwheel channel=4 pitch=-5301 time=0 
pitchwheel channel=4 pitch=-6490 time=0 
pitchwheel channel=4 pitch=-7711 time=4 
pitchwheel channel=4 pitch=-8192 time=4 
note_on channel=4 note=81 velocity=0 time=24 
note_on channel=4 note=78 velocity=127 time=16 
pitchwheel channel=4 pitch=-7325 time=4 
pitchwheel channel=4 pitch=-5108 time=0 
pitchwheel channel=4 pitch=-3374 time=0 
pitchwheel channel=4 pitch=-579 time=0 
pitchwheel channel=4 pitch=0 time=4 
note_on channel=4 note=78 velocity=0 time=524 
note_on channel=4 note=78 velocity=127 time=44 
pitchwheel channel=4 pitch=-418 time=192 
pitchwheel channel=4 pitch=-675 time=4 
pitchwheel channel=4 pitch=-964 time=0 
pitchwheel channel=4 pitch=-1318 time=0 
pitchwheel channel=4 pitch=-1735 time=4 
pitchwheel channel=4 pitch=-2089 time=4 
pitchwheel channel=4 pitch=-2571 time=4 
pitchwheel channel=4 pitch=-2924 time=0 
pitchwheel channel=4 pitch=-3406 time=0 
pitchwheel channel=4 pitch=-3695 time=8 
pitchwheel channel=4 pitch=-4209 time=0 
pitchwheel channel=4 pitch=-4594 time=0 
pitchwheel channel=4 pitch=-4948 time=0 
pitchwheel channel=4 pitch=-5301 time=4 
pitchwheel channel=4 pitch=-5719 time=0 
pitchwheel channel=4 pitch=-6618 time=0 
pitchwheel channel=4 pitch=-7325 time=8 
pitchwheel channel=4 pitch=-8192 time=4 
note_on channel=4 note=78 velocity=0 time=416 
pitchwheel channel=4 pitch=-6554 time=28 
pitchwheel channel=4 pitch=-5141 time=4 
pitchwheel channel=4 pitch=-4273 time=4 
pitchwheel channel=4 pitch=-3181 time=4 
pitchwheel channel=4 pitch=-2217 time=0 
pitchwheel channel=4 pitch=-996 time=0 
pitchwheel channel=4 pitch=0 time=4 
note_on channel=4 note=74 velocity=127 time=28 
note_on channel=4 note=78 velocity=127 time=0 
note_on channel=4 note=78 velocity=0 time=48 
note_on channel=4 note=74 velocity=0 time=0 
note_on channel=4 note=73 velocity=127 time=0 
note_on channel=4 note=76 velocity=127 time=0 
note_on channel=4 note=76 velocity=0 time=96 
note_on channel=4 note=73 velocity=0 time=0 
note_on channel=4 note=72 velocity=127 time=0 
note_on channel=4 note=75 velocity=127 time=0 
note_on channel=4 note=75 velocity=0 time=96 
note_on channel=4 note=72 velocity=0 time=0 
note_on channel=4 note=71 velocity=127 time=0 
note_on channel=4 note=74 velocity=127 time=0 
note_on channel=4 note=74 velocity=0 time=360 
note_on channel=4 note=71 velocity=0 time=0 
note_on channel=4 note=74 velocity=127 time=24 
note_on channel=4 note=74 velocity=0 time=768 
note_on channel=4 note=69 velocity=127 time=0 
note_on channel=4 note=69 velocity=0 time=568 
note_on channel=4 note=74 velocity=127 time=8 
note_on channel=4 note=69 velocity=127 time=96 
note_on channel=4 note=74 velocity=0 time=12 
pitchwheel channel=4 pitch=353 time=116 
pitchwheel channel=4 pitch=546 time=0 
pitchwheel channel=4 pitch=803 time=0 
pitchwheel channel=4 pitch=1124 time=0 
pitchwheel channel=4 pitch=1445 time=8 
pitchwheel channel=4 pitch=1766 time=0 
pitchwheel channel=4 pitch=2056 time=0 
pitchwheel channel=4 pitch=2377 time=4 
pitchwheel channel=4 pitch=2698 time=4 
pitchwheel channel=4 pitch=3051 time=0 
pitchwheel channel=4 pitch=3437 time=0 
pitchwheel channel=4 pitch=3822 time=4 
pitchwheel channel=4 pitch=4208 time=4 
pitchwheel channel=4 pitch=4561 time=0 
pitchwheel channel=4 pitch=4818 time=4 
pitchwheel channel=4 pitch=5043 time=4 
pitchwheel channel=4 pitch=5236 time=0 
pitchwheel channel=4 pitch=5461 time=0 
pitchwheel channel=4 pitch=5654 time=8 
pitchwheel channel=4 pitch=5975 time=0 
pitchwheel channel=4 pitch=6553 time=0 
pitchwheel channel=4 pitch=6810 time=4 
pitchwheel channel=4 pitch=7067 time=4 
pitchwheel channel=4 pitch=7324 time=0 
pitchwheel channel=4 pitch=7645 time=0 
pitchwheel channel=4 pitch=7967 time=4 
pitchwheel channel=4 pitch=8191 time=4 
note_on channel=4 note=69 velocity=0 time=364 
pitchwheel channel=4 pitch=7196 time=20 
pitchwheel channel=4 pitch=5043 time=0 
pitchwheel channel=4 pitch=3533 time=0 
pitchwheel channel=4 pitch=1831 time=0 
pitchwheel channel=4 pitch=0 time=4 
note_on channel=4 note=74 velocity=127 time=100 
pitchwheel channel=4 pitch=-322 time=180 
pitchwheel channel=4 pitch=-386 time=4 
pitchwheel channel=4 pitch=-450 time=0 
pitchwheel channel=4 pitch=-515 time=0 
pitchwheel channel=4 pitch=-611 time=8 
pitchwheel channel=4 pitch=-643 time=0 
pitchwheel channel=4 pitch=-675 time=0 
pitchwheel channel=4 pitch=-707 time=4 
pitchwheel channel=4 pitch=-739 time=0 
pitchwheel channel=4 pitch=-900 time=0 
pitchwheel channel=4 pitch=-964 time=4 
pitchwheel channel=4 pitch=-1029 time=0 
pitchwheel channel=4 pitch=-1221 time=4 
pitchwheel channel=4 pitch=-1350 time=4 
pitchwheel channel=4 pitch=-1478 time=0 
pitchwheel channel=4 pitch=-1639 time=4 
pitchwheel channel=4 pitch=-1735 time=4 
pitchwheel channel=4 pitch=-1832 time=4 
pitchwheel channel=4 pitch=-1896 time=4 
pitchwheel channel=4 pitch=-1992 time=0 
pitchwheel channel=4 pitch=-2057 time=0 
pitchwheel channel=4 pitch=-2089 time=0 
pitchwheel channel=4 pitch=-2153 time=8 
pitchwheel channel=4 pitch=-2185 time=0 
pitchwheel channel=4 pitch=-2249 time=4 
pitchwheel channel=4 pitch=-2346 time=4 
pitchwheel channel=4 pitch=-2410 time=0 
pitchwheel channel=4 pitch=-2474 time=0 
pitchwheel channel=4 pitch=-2506 time=4 
pitchwheel channel=4 pitch=-2538 time=4 
pitchwheel channel=4 pitch=-2571 time=0 
pitchwheel channel=4 pitch=-2635 time=4 
pitchwheel channel=4 pitch=-2667 time=4 
pitchwheel channel=4 pitch=-2699 time=0 
pitchwheel channel=4 pitch=-2731 time=0 
pitchwheel channel=4 pitch=-2795 time=4 
pitchwheel channel=4 pitch=-2860 time=4 
pitchwheel channel=4 pitch=-2956 time=0 
pitchwheel channel=4 pitch=-3020 time=0 
pitchwheel channel=4 pitch=-3052 time=8 
pitchwheel channel=4 pitch=-3085 time=0 
pitchwheel channel=4 pitch=-3117 time=24 
pitchwheel channel=4 pitch=-3085 time=4 
pitchwheel channel=4 pitch=-3117 time=4 
pitchwheel channel=4 pitch=-3149 time=8 
pitchwheel channel=4 pitch=-3117 time=0 
pitchwheel channel=4 pitch=-3149 time=4 
pitchwheel channel=4 pitch=-3117 time=4 
pitchwheel channel=4 pitch=-3149 time=0 
pitchwheel channel=4 pitch=-3117 time=8 
pitchwheel channel=4 pitch=-3149 time=12 
pitchwheel channel=4 pitch=-3117 time=0 
pitchwheel channel=4 pitch=-3149 time=12 
pitchwheel channel=4 pitch=-3117 time=0 
pitchwheel channel=4 pitch=-3085 time=48 
pitchwheel channel=4 pitch=-3052 time=24 
pitchwheel channel=4 pitch=-3085 time=0 
pitchwheel channel=4 pitch=-3052 time=8 
pitchwheel channel=4 pitch=-3085 time=0 
pitchwheel channel=4 pitch=-3052 time=0 
pitchwheel channel=4 pitch=-3085 time=16 
pitchwheel channel=4 pitch=-3052 time=8 
pitchwheel channel=4 pitch=-3085 time=48 
pitchwheel channel=4 pitch=-3052 time=4 
pitchwheel channel=4 pitch=-3020 time=4 
pitchwheel channel=4 pitch=-3052 time=4 
pitchwheel channel=4 pitch=-3020 time=12 
pitchwheel channel=4 pitch=-3052 time=4 
pitchwheel channel=4 pitch=-3020 time=0 
pitchwheel channel=4 pitch=-2988 time=44 
pitchwheel channel=4 pitch=-2956 time=40 
pitchwheel channel=4 pitch=-2988 time=4 
pitchwheel channel=4 pitch=-2956 time=0 
pitchwheel channel=4 pitch=-2988 time=4 
pitchwheel channel=4 pitch=-2956 time=16 
pitchwheel channel=4 pitch=-2988 time=0 
pitchwheel channel=4 pitch=-2956 time=4 
pitchwheel channel=4 pitch=-2988 time=4 
pitchwheel channel=4 pitch=-2956 time=24 
pitchwheel channel=4 pitch=-2924 time=16 
pitchwheel channel=4 pitch=-2892 time=12 
note_on channel=4 note=74 velocity=0 time=4 
pitchwheel channel=4 pitch=-2860 time=0 
pitchwheel channel=4 pitch=-2828 time=0 
pitchwheel channel=4 pitch=-2795 time=4 
pitchwheel channel=4 pitch=-2731 time=0 
pitchwheel channel=4 pitch=-2667 time=4 
pitchwheel channel=4 pitch=-2603 time=4 
pitchwheel channel=4 pitch=-2474 time=4 
pitchwheel channel=4 pitch=-2089 time=0 
pitchwheel channel=4 pitch=-1767 time=0 
pitchwheel channel=4 pitch=-1382 time=0 
pitchwheel channel=4 pitch=-932 time=4 
pitchwheel channel=4 pitch=-482 time=0 
pitchwheel channel=4 pitch=0 time=4 
note_on channel=4 note=73 velocity=127 time=40 
pitchwheel channel=4 pitch=-354 time=168 
pitchwheel channel=4 pitch=-418 time=0 
pitchwheel channel=4 pitch=-643 time=0 
pitchwheel channel=4 pitch=-868 time=4 
pitchwheel channel=4 pitch=-1061 time=4 
pitchwheel channel=4 pitch=-1382 time=0 
pitchwheel channel=4 pitch=-1703 time=4 
pitchwheel channel=4 pitch=-1992 time=0 
pitchwheel channel=4 pitch=-2281 time=4 
pitchwheel channel=4 pitch=-2571 time=4 
pitchwheel channel=4 pitch=-2699 time=4 
pitchwheel channel=4 pitch=-2988 time=0 
pitchwheel channel=4 pitch=-3534 time=4 
pitchwheel channel=4 pitch=-3727 time=0 
pitchwheel channel=4 pitch=-4048 time=0 
pitchwheel channel=4 pitch=-4402 time=8 
pitchwheel channel=4 pitch=-4659 time=4 
pitchwheel channel=4 pitch=-4948 time=0 
pitchwheel channel=4 pitch=-5237 time=0 
pitchwheel channel=4 pitch=-5430 time=8 
pitchwheel channel=4 pitch=-5912 time=0 
pitchwheel channel=4 pitch=-6554 time=0 
pitchwheel channel=4 pitch=-6940 time=0 
pitchwheel channel=4 pitch=-7646 time=8 
pitchwheel channel=4 pitch=-8192 time=0 
note_on channel=4 note=73 velocity=0 time=444 
pitchwheel channel=4 pitch=-4691 time=8 
pitchwheel channel=4 pitch=-3245 time=4 
pitchwheel channel=4 pitch=-1671 time=0 
pitchwheel channel=4 pitch=0 time=8 
note_on channel=4 note=74 velocity=127 time=80 
note_on channel=4 note=74 velocity=0 time=88 
note_on channel=4 note=76 velocity=127 time=4 
note_on channel=4 note=78 velocity=127 time=100 
note_on channel=4 note=76 velocity=0 time=4 
note_on channel=4 note=78 velocity=0 time=528 
note_on channel=4 note=78 velocity=127 time=44 
pitchwheel channel=4 pitch=-322 time=72 
pitchwheel channel=4 pitch=-579 time=4 
pitchwheel channel=4 pitch=-900 time=0 
pitchwheel channel=4 pitch=-1221 time=4 
pitchwheel channel=4 pitch=-1510 time=0 
pitchwheel channel=4 pitch=-1800 time=8 
pitchwheel channel=4 pitch=-2089 time=0 
pitchwheel channel=4 pitch=-2538 time=0 
pitchwheel channel=4 pitch=-2763 time=4 
pitchwheel channel=4 pitch=-3245 time=4 
pitchwheel channel=4 pitch=-3631 time=0 
pitchwheel channel=4 pitch=-4273 time=4 
pitchwheel channel=4 pitch=-5237 time=4 
pitchwheel channel=4 pitch=-5976 time=0 
pitchwheel channel=4 pitch=-7197 time=4 
pitchwheel channel=4 pitch=-8192 time=0 
note_on channel=4 note=74 velocity=127 time=36 
note_on channel=4 note=78 velocity=0 time=4 
pitchwheel channel=4 pitch=-6875 time=12 
pitchwheel channel=4 pitch=-4948 time=0 
pitchwheel channel=4 pitch=-3374 time=4 
pitchwheel channel=4 pitch=-1029 time=0 
pitchwheel channel=4 pitch=0 time=0 
note_on channel=4 note=76 velocity=127 time=28 
note_on channel=4 note=74 velocity=0 time=16 
note_on channel=4 note=76 velocity=0 time=496 
note_on channel=4 note=78 velocity=127 time=64 
pitchwheel channel=4 pitch=-322 time=92 
pitchwheel channel=4 pitch=-482 time=0 
pitchwheel channel=4 pitch=-707 time=4 
pitchwheel channel=4 pitch=-996 time=4 
pitchwheel channel=4 pitch=-1864 time=4 
pitchwheel channel=4 pitch=-2153 time=4 
pitchwheel channel=4 pitch=-2538 time=4 
pitchwheel channel=4 pitch=-2763 time=0 
pitchwheel channel=4 pitch=-3117 time=0 
pitchwheel channel=4 pitch=-3502 time=8 
pitchwheel channel=4 pitch=-3759 time=0 
pitchwheel channel=4 pitch=-4273 time=0 
pitchwheel channel=4 pitch=-4594 time=0 
pitchwheel channel=4 pitch=-4948 time=4 
pitchwheel channel=4 pitch=-5301 time=4 
pitchwheel channel=4 pitch=-5719 time=0 
pitchwheel channel=4 pitch=-6490 time=4 
pitchwheel channel=4 pitch=-7132 time=0 
pitchwheel channel=4 pitch=-7903 time=4 
pitchwheel channel=4 pitch=-8192 time=0 
note_on channel=4 note=78 velocity=0 time=56 
note_on channel=4 note=74 velocity=127 time=0 
pitchwheel channel=4 pitch=-8032 time=4 
pitchwheel channel=4 pitch=-5430 time=4 
pitchwheel channel=4 pitch=-3406 time=0 
pitchwheel channel=4 pitch=-547 time=4 
pitchwheel channel=4 pitch=0 time=4 
note_on channel=4 note=74 velocity=0 time=488 
note_on channel=4 note=76 velocity=127 time=72 
pitchwheel channel=4 pitch=546 time=24 
pitchwheel channel=4 pitch=1188 time=4 
pitchwheel channel=4 pitch=1895 time=0 
pitchwheel channel=4 pitch=2602 time=4 
pitchwheel channel=4 pitch=3469 time=0 
pitchwheel channel=4 pitch=4433 time=8 
pitchwheel channel=4 pitch=5172 time=0 
pitchwheel channel=4 pitch=6039 time=0 
pitchwheel channel=4 pitch=7260 time=0 
pitchwheel channel=4 pitch=8191 time=8 
pitchwheel channel=4 pitch=6168 time=48 
pitchwheel channel=4 pitch=3051 time=4 
note_on channel=4 note=76 velocity=0 time=4 
pitchwheel channel=4 pitch=-354 time=0 
pitchwheel channel=4 pitch=0 time=0 
note_on channel=4 note=81 velocity=127 time=0 
note_on channel=4 note=81 velocity=0 time=64 
note_on channel=4 note=81 velocity=127 time=24 
pitchwheel channel=4 pitch=385 time=48 
pitchwheel channel=4 pitch=610 time=4 
pitchwheel channel=4 pitch=835 time=4 
pitchwheel channel=4 pitch=995 time=0 
pitchwheel channel=4 pitch=1188 time=4 
pitchwheel channel=4 pitch=1413 time=4 
pitchwheel channel=4 pitch=1670 time=0 
pitchwheel channel=4 pitch=1959 time=0 
pitchwheel channel=4 pitch=2377 time=8 
pitchwheel channel=4 pitch=2891 time=0 
pitchwheel channel=4 pitch=3501 time=0 
pitchwheel channel=4 pitch=4144 time=4 
pitchwheel channel=4 pitch=4658 time=0 
pitchwheel channel=4 pitch=4979 time=4 
pitchwheel channel=4 pitch=5268 time=0 
pitchwheel channel=4 pitch=5589 time=4 
pitchwheel channel=4 pitch=6168 time=0 
pitchwheel channel=4 pitch=6746 time=4 
pitchwheel channel=4 pitch=7003 time=4 
pitchwheel channel=4 pitch=7196 time=0 
pitchwheel channel=4 pitch=7581 time=4 
pitchwheel channel=4 pitch=7838 time=4 
pitchwheel channel=4 pitch=8191 time=0 
pitchwheel channel=4 pitch=4818 time=416 
pitchwheel channel=4 pitch=1991 time=0 
note_on channel=4 note=81 velocity=0 time=4 
pitchwheel channel=4 pitch=0 time=0 
note_on channel=4 note=83 velocity=127 time=56 
pitchwheel channel=4 pitch=160 time=48 
pitchwheel channel=4 pitch=417 time=4 
pitchwheel channel=4 pitch=803 time=0 
pitchwheel channel=4 pitch=1349 time=0 
pitchwheel channel=4 pitch=1927 time=4 
pitchwheel channel=4 pitch=2473 time=8 
pitchwheel channel=4 pitch=3084 time=0 
pitchwheel channel=4 pitch=3855 time=0 
pitchwheel channel=4 pitch=4626 time=4 
pitchwheel channel=4 pitch=5075 time=4 
pitchwheel channel=4 pitch=5654 time=0 
pitchwheel channel=4 pitch=6939 time=0 
pitchwheel channel=4 pitch=8031 time=4 
pitchwheel channel=4 pitch=8191 time=4 
note_on channel=4 note=86 velocity=127 time=112 
note_on channel=4 note=83 velocity=0 time=4 
pitchwheel channel=4 pitch=7196 time=0 
pitchwheel channel=4 pitch=3341 time=4 
pitchwheel channel=4 pitch=0 time=8 
note_on channel=4 note=86 velocity=0 time=456 
note_on channel=4 note=78 velocity=127 time=104 
pitchwheel channel=4 pitch=-804 time=48 
pitchwheel channel=4 pitch=-1800 time=0 
pitchwheel channel=4 pitch=-2667 time=0 
pitchwheel channel=4 pitch=-3566 time=4 
pitchwheel channel=4 pitch=-4498 time=4 
pitchwheel channel=4 pitch=-5301 time=0 
pitchwheel channel=4 pitch=-6683 time=4 
pitchwheel channel=4 pitch=-8192 time=4 
note_on channel=4 note=74 velocity=127 time=28 
note_on channel=4 note=78 velocity=0 time=4 
pitchwheel channel=4 pitch=-5333 time=4 
pitchwheel channel=4 pitch=-3888 time=4 
pitchwheel channel=4 pitch=-2346 time=0 
pitchwheel channel=4 pitch=-418 time=8 
pitchwheel channel=4 pitch=0 time=0 
note_on channel=4 note=76 velocity=127 time=32 
note_on channel=4 note=74 velocity=0 time=8 
pitchwheel channel=4 pitch=353 time=136 
pitchwheel channel=4 pitch=738 time=4 
pitchwheel channel=4 pitch=2280 time=4 
pitchwheel channel=4 pitch=2634 time=4 
pitchwheel channel=4 pitch=2987 time=4 
pitchwheel channel=4 pitch=3373 time=0 
pitchwheel channel=4 pitch=3855 time=0 
pitchwheel channel=4 pitch=4304 time=4 
pitchwheel channel=4 pitch=4658 time=4 
pitchwheel channel=4 pitch=4915 time=0 
pitchwheel channel=4 pitch=5172 time=4 
pitchwheel channel=4 pitch=5461 time=4 
pitchwheel channel=4 pitch=5782 time=0 
pitchwheel channel=4 pitch=6360 time=0 
pitchwheel channel=4 pitch=6810 time=8 
pitchwheel channel=4 pitch=7067 time=0 
pitchwheel channel=4 pitch=7453 time=0 
pitchwheel channel=4 pitch=7838 time=4 
pitchwheel channel=4 pitch=8159 time=0 
pitchwheel channel=4 pitch=8191 time=4 
note_on channel=4 note=76 velocity=0 time=360 
pitchwheel channel=4 pitch=4883 time=8 
pitchwheel channel=4 pitch=2441 time=8 
pitchwheel channel=4 pitch=-193 time=0 
pitchwheel channel=4 pitch=0 time=0 
note_on channel=4 note=78 velocity=127 time=56 
pitchwheel channel=4 pitch=-418 time=84 
pitchwheel channel=4 pitch=-964 time=4 
pitchwheel channel=4 pitch=-1478 time=0 
pitchwheel channel=4 pitch=-1992 time=8 
pitchwheel channel=4 pitch=-2538 time=0 
pitchwheel channel=4 pitch=-2988 time=4 
pitchwheel channel=4 pitch=-3502 time=4 
pitchwheel channel=4 pitch=-4948 time=0 
pitchwheel channel=4 pitch=-4498 time=0 
pitchwheel channel=4 pitch=-5398 time=4 
pitchwheel channel=4 pitch=-6040 time=4 
pitchwheel channel=4 pitch=-6940 time=0 
pitchwheel channel=4 pitch=-7968 time=4 
pitchwheel channel=4 pitch=-8192 time=4 
note_on channel=4 note=78 velocity=0 time=56 
pitchwheel channel=4 pitch=-6811 time=16 
pitchwheel channel=4 pitch=-4594 time=0 
note_on channel=4 note=74 velocity=127 time=0 
pitchwheel channel=4 pitch=-2603 time=4 
pitchwheel channel=4 pitch=0 time=0 
note_on channel=4 note=74 velocity=0 time=508 
note_on channel=4 note=74 velocity=127 time=64 
note_on channel=4 note=74 velocity=0 time=96 
note_on channel=4 note=76 velocity=127 time=0 
note_on channel=4 note=74 velocity=127 time=48 
note_on channel=4 note=76 velocity=0 time=16 
note_on channel=4 note=74 velocity=0 time=712 
note_on channel=4 note=86 velocity=127 time=1432 
pitchwheel channel=4 pitch=-322 time=104 
pitchwheel channel=4 pitch=-482 time=0 
pitchwheel channel=4 pitch=-707 time=4 
pitchwheel channel=4 pitch=-1029 time=4 
pitchwheel channel=4 pitch=-1382 time=0 
pitchwheel channel=4 pitch=-1767 time=4 
pitchwheel channel=4 pitch=-2089 time=0 
pitchwheel channel=4 pitch=-2538 time=4 
pitchwheel channel=4 pitch=-2763 time=0 
pitchwheel channel=4 pitch=-3245 time=4 
pitchwheel channel=4 pitch=-3631 time=0 
pitchwheel channel=4 pitch=-4177 time=4 
pitchwheel channel=4 pitch=-4562 time=0 
pitchwheel channel=4 pitch=-4980 time=4 
pitchwheel channel=4 pitch=-5365 time=4 
pitchwheel channel=4 pitch=-6169 time=0 
pitchwheel channel=4 pitch=-7068 time=0 
pitchwheel channel=4 pitch=-8192 time=8 
note_on channel=4 note=86 velocity=0 time=40 
pitchwheel channel=4 pitch=-6297 time=8 
note_on channel=4 note=83 velocity=127 time=0 
pitchwheel channel=4 pitch=-4434 time=4 
pitchwheel channel=4 pitch=-2603 time=0 
pitchwheel channel=4 pitch=-547 time=0 
pitchwheel channel=4 pitch=0 time=4 
note_on channel=4 note=83 velocity=0 time=612 
note_on channel=4 note=81 velocity=127 time=148 
note_on channel=4 note=81 velocity=0 time=168 
note_on channel=4 note=81 velocity=127 time=24 
note_on channel=4 note=81 velocity=0 time=320 
note_on channel=4 note=81 velocity=127 time=64 
pitchwheel channel=4 pitch=-354 time=104 
pitchwheel channel=4 pitch=-675 time=0 
pitchwheel channel=4 pitch=-1061 time=8 
pitchwheel channel=4 pitch=-1446 time=0 
pitchwheel channel=4 pitch=-1832 time=0 
pitchwheel channel=4 pitch=-2217 time=0 
pitchwheel channel=4 pitch=-2635 time=8 
pitchwheel channel=4 pitch=-2956 time=0 
pitchwheel channel=4 pitch=-3438 time=0 
pitchwheel channel=4 pitch=-3759 time=4 
pitchwheel channel=4 pitch=-4370 time=4 
pitchwheel channel=4 pitch=-4691 time=0 
pitchwheel channel=4 pitch=-5173 time=4 
pitchwheel channel=4 pitch=-5655 time=0 
pitchwheel channel=4 pitch=-6747 time=4 
pitchwheel channel=4 pitch=-7775 time=0 
pitchwheel channel=4 pitch=-8192 time=8 
note_on channel=4 note=81 velocity=0 time=24 
pitchwheel channel=4 pitch=-6940 time=24 
pitchwheel channel=4 pitch=-4659 time=0 
note_on channel=4 note=78 velocity=127 time=0 
pitchwheel channel=4 pitch=-2667 time=4 
pitchwheel channel=4 pitch=0 time=0 
note_on channel=4 note=78 velocity=0 time=428 
note_on channel=4 note=83 velocity=127 time=144 
pitchwheel channel=4 pitch=289 time=64 
pitchwheel channel=4 pitch=610 time=0 
pitchwheel channel=4 pitch=1028 time=4 
pitchwheel channel=4 pitch=1509 time=4 
pitchwheel channel=4 pitch=2023 time=0 
pitchwheel channel=4 pitch=2537 time=4 
pitchwheel channel=4 pitch=3051 time=0 
pitchwheel channel=4 pitch=3662 time=4 
pitchwheel channel=4 pitch=4272 time=0 
pitchwheel channel=4 pitch=4754 time=8 
pitchwheel channel=4 pitch=5075 time=0 
pitchwheel channel=4 pitch=5461 time=0 
pitchwheel channel=4 pitch=6103 time=8 
pitchwheel channel=4 pitch=6746 time=0 
pitchwheel channel=4 pitch=7131 time=0 
pitchwheel channel=4 pitch=7581 time=4 
pitchwheel channel=4 pitch=8191 time=0 
note_on channel=4 note=83 velocity=0 time=64 
pitchwheel channel=4 pitch=7131 time=4 
pitchwheel channel=4 pitch=3437 time=0 
pitchwheel channel=4 pitch=0 time=8 
note_on channel=4 note=86 velocity=127 time=16 
note_on channel=4 note=85 velocity=127 time=768 
note_on channel=4 note=86 velocity=0 time=8 
note_on channel=4 note=85 velocity=0 time=1256 
note_on channel=4 note=78 velocity=127 time=272 
note_on channel=4 note=78 velocity=0 time=532 
note_on channel=4 note=78 velocity=127 time=44 
pitchwheel channel=4 pitch=-322 time=72 
pitchwheel channel=4 pitch=-579 time=4 
pitchwheel channel=4 pitch=-900 time=4 
pitchwheel channel=4 pitch=-1221 time=0 
pitchwheel channel=4 pitch=-1510 time=4 
pitchwheel channel=4 pitch=-1800 time=0 
pitchwheel channel=4 pitch=-2089 time=4 
pitchwheel channel=4 pitch=-2538 time=0 
pitchwheel channel=4 pitch=-2763 time=4 
pitchwheel channel=4 pitch=-3245 time=4 
pitchwheel channel=4 pitch=-3631 time=0 
pitchwheel channel=4 pitch=-4273 time=8 
pitchwheel channel=4 pitch=-5237 time=0 
pitchwheel channel=4 pitch=-5976 time=0 
pitchwheel channel=4 pitch=-7197 time=0 
pitchwheel channel=4 pitch=-8192 time=4 
note_on channel=4 note=74 velocity=127 time=36 
note_on channel=4 note=78 velocity=0 time=4 
pitchwheel channel=4 pitch=-6875 time=12 
pitchwheel channel=4 pitch=-4948 time=0 
pitchwheel channel=4 pitch=-3374 time=4 
pitchwheel channel=4 pitch=-1029 time=0 
pitchwheel channel=4 pitch=0 time=4 
note_on channel=4 note=76 velocity=127 time=24 
note_on channel=4 note=74 velocity=0 time=16 
note_on channel=4 note=76 velocity=0 time=496 
note_on channel=4 note=78 velocity=127 time=64 
pitchwheel channel=4 pitch=-322 time=92 
pitchwheel channel=4 pitch=-482 time=0 
pitchwheel channel=4 pitch=-707 time=4 
pitchwheel channel=4 pitch=-996 time=4 
pitchwheel channel=4 pitch=-1864 time=0 
pitchwheel channel=4 pitch=-2153 time=8 
pitchwheel channel=4 pitch=-2538 time=0 
pitchwheel channel=4 pitch=-2763 time=4 
pitchwheel channel=4 pitch=-3117 time=0 
pitchwheel channel=4 pitch=-3502 time=8 
pitchwheel channel=4 pitch=-3759 time=0 
pitchwheel channel=4 pitch=-4273 time=0 
pitchwheel channel=4 pitch=-4594 time=0 
pitchwheel channel=4 pitch=-4948 time=0 
pitchwheel channel=4 pitch=-5301 time=4 
pitchwheel channel=4 pitch=-5719 time=4 
pitchwheel channel=4 pitch=-6490 time=4 
pitchwheel channel=4 pitch=-7132 time=4 
pitchwheel channel=4 pitch=-7903 time=0 
pitchwheel channel=4 pitch=-8192 time=0 
note_on channel=4 note=78 velocity=0 time=56 
note_on channel=4 note=74 velocity=127 time=0 
pitchwheel channel=4 pitch=-8032 time=4 
pitchwheel channel=4 pitch=-5430 time=4 
pitchwheel channel=4 pitch=-3406 time=0 
pitchwheel channel=4 pitch=-547 time=4 
pitchwheel channel=4 pitch=0 time=4 
note_on channel=4 note=74 velocity=0 time=488 
note_on channel=4 note=76 velocity=127 time=72 
pitchwheel channel=4 pitch=546 time=24 
pitchwheel channel=4 pitch=1188 time=0 
pitchwheel channel=4 pitch=1895 time=8 
pitchwheel channel=4 pitch=2602 time=0 
pitchwheel channel=4 pitch=3469 time=0 
pitchwheel channel=4 pitch=4433 time=8 
pitchwheel channel=4 pitch=5172 time=0 
pitchwheel channel=4 pitch=6039 time=0 
pitchwheel channel=4 pitch=7260 time=4 
pitchwheel channel=4 pitch=8191 time=4 
pitchwheel channel=4 pitch=6168 time=44 
note_on channel=4 note=81 velocity=127 time=4 
pitchwheel channel=4 pitch=3051 time=4 
note_on channel=4 note=76 velocity=0 time=4 
pitchwheel channel=4 pitch=-354 time=0 
pitchwheel channel=4 pitch=0 time=0 
note_on channel=4 note=81 velocity=0 time=56 
note_on channel=4 note=81 velocity=127 time=32 
pitchwheel channel=4 pitch=385 time=52 
pitchwheel channel=4 pitch=610 time=0 
pitchwheel channel=4 pitch=835 time=4 
pitchwheel channel=4 pitch=995 time=0 
pitchwheel channel=4 pitch=1188 time=8 
pitchwheel channel=4 pitch=1413 time=0 
pitchwheel channel=4 pitch=1670 time=0 
pitchwheel channel=4 pitch=1959 time=0 
pitchwheel channel=4 pitch=2377 time=4 
pitchwheel channel=4 pitch=2891 time=4 
pitchwheel channel=4 pitch=3501 time=0 
pitchwheel channel=4 pitch=4144 time=0 
pitchwheel channel=4 pitch=4658 time=4 
pitchwheel channel=4 pitch=4979 time=4 
pitchwheel channel=4 pitch=5268 time=0 
pitchwheel channel=4 pitch=5589 time=4 
pitchwheel channel=4 pitch=6168 time=0 
pitchwheel channel=4 pitch=6746 time=4 
pitchwheel channel=4 pitch=7003 time=4 
pitchwheel channel=4 pitch=7196 time=4 
pitchwheel channel=4 pitch=7581 time=0 
pitchwheel channel=4 pitch=7838 time=4 
pitchwheel channel=4 pitch=8191 time=0 
pitchwheel channel=4 pitch=4818 time=416 
pitchwheel channel=4 pitch=1991 time=0 
note_on channel=4 note=81 velocity=0 time=4 
pitchwheel channel=4 pitch=0 time=0 
note_on channel=4 note=83 velocity=127 time=56 
pitchwheel channel=4 pitch=160 time=52 
pitchwheel channel=4 pitch=417 time=0 
pitchwheel channel=4 pitch=803 time=0 
pitchwheel channel=4 pitch=1349 time=4 
pitchwheel channel=4 pitch=1927 time=4 
pitchwheel channel=4 pitch=2473 time=4 
pitchwheel channel=4 pitch=3084 time=0 
pitchwheel channel=4 pitch=3855 time=0 
pitchwheel channel=4 pitch=4626 time=4 
pitchwheel channel=4 pitch=5075 time=4 
pitchwheel channel=4 pitch=5654 time=0 
pitchwheel channel=4 pitch=6939 time=0 
pitchwheel channel=4 pitch=8031 time=4 
pitchwheel channel=4 pitch=8191 time=4 
note_on channel=4 note=86 velocity=127 time=112 
note_on channel=4 note=83 velocity=0 time=4 
pitchwheel channel=4 pitch=7196 time=0 
pitchwheel channel=4 pitch=3341 time=4 
pitchwheel channel=4 pitch=0 time=4 
note_on channel=4 note=86 velocity=0 time=460 
note_on channel=4 note=78 velocity=127 time=104 
pitchwheel channel=4 pitch=-804 time=44 
pitchwheel channel=4 pitch=-1800 time=4 
pitchwheel channel=4 pitch=-2667 time=0 
pitchwheel channel=4 pitch=-3566 time=4 
pitchwheel channel=4 pitch=-4498 time=0 
pitchwheel channel=4 pitch=-5301 time=0 
pitchwheel channel=4 pitch=-6683 time=8 
pitchwheel channel=4 pitch=-8192 time=4 
note_on channel=4 note=78 velocity=0 time=32 
note_on channel=4 note=74 velocity=127 time=0 
pitchwheel channel=4 pitch=-5333 time=4 
pitchwheel channel=4 pitch=-3888 time=4 
pitchwheel channel=4 pitch=-2346 time=8 
pitchwheel channel=4 pitch=-418 time=0 
pitchwheel channel=4 pitch=0 time=0 
note_on channel=4 note=76 velocity=127 time=32 
note_on channel=4 note=74 velocity=0 time=8 
pitchwheel channel=4 pitch=353 time=136 
pitchwheel channel=4 pitch=738 time=4 
pitchwheel channel=4 pitch=2280 time=4 
pitchwheel channel=4 pitch=2634 time=0 
pitchwheel channel=4 pitch=2987 time=8 
pitchwheel channel=4 pitch=3373 time=0 
pitchwheel channel=4 pitch=3855 time=0 
pitchwheel channel=4 pitch=4304 time=4 
pitchwheel channel=4 pitch=4658 time=4 
pitchwheel channel=4 pitch=4915 time=0 
pitchwheel channel=4 pitch=5172 time=4 
pitchwheel channel=4 pitch=5461 time=4 
pitchwheel channel=4 pitch=5782 time=0 
pitchwheel channel=4 pitch=6360 time=0 
pitchwheel channel=4 pitch=6810 time=8 
pitchwheel channel=4 pitch=7067 time=0 
pitchwheel channel=4 pitch=7453 time=0 
pitchwheel channel=4 pitch=7838 time=0 
pitchwheel channel=4 pitch=8159 time=4 
pitchwheel channel=4 pitch=8191 time=4 
note_on channel=4 note=76 velocity=0 time=360 
pitchwheel channel=4 pitch=4883 time=8 
pitchwheel channel=4 pitch=2441 time=8 
pitchwheel channel=4 pitch=-193 time=0 
pitchwheel channel=4 pitch=0 time=0 
note_on channel=4 note=78 velocity=127 time=56 
pitchwheel channel=4 pitch=-418 time=88 
pitchwheel channel=4 pitch=-964 time=0 
pitchwheel channel=4 pitch=-1478 time=0 
pitchwheel channel=4 pitch=-1992 time=4 
pitchwheel channel=4 pitch=-2538 time=4 
pitchwheel channel=4 pitch=-2988 time=4 
pitchwheel channel=4 pitch=-3502 time=4 
pitchwheel channel=4 pitch=-4948 time=0 
pitchwheel channel=4 pitch=-4498 time=0 
pitchwheel channel=4 pitch=-5398 time=8 
pitchwheel channel=4 pitch=-6040 time=0 
pitchwheel channel=4 pitch=-6940 time=0 
pitchwheel channel=4 pitch=-7968 time=4 
pitchwheel channel=4 pitch=-8192 time=0 
note_on channel=4 note=78 velocity=0 time=60 
pitchwheel channel=4 pitch=-6811 time=16 
pitchwheel channel=4 pitch=-4594 time=0 
note_on channel=4 note=74 velocity=127 time=0 
pitchwheel channel=4 pitch=-2603 time=4 
pitchwheel channel=4 pitch=0 time=0 
note_on channel=4 note=74 velocity=0 time=508 
note_on channel=4 note=74 velocity=127 time=64 
note_on channel=4 note=74 velocity=0 time=96 
note_on channel=4 note=76 velocity=127 time=0 
note_on channel=4 note=74 velocity=127 time=44 
note_on channel=4 note=76 velocity=0 time=20 
note_on channel=4 note=74 velocity=0 time=708 
note_on channel=4 note=78 velocity=127 time=284 
pitchwheel channel=4 pitch=-450 time=92 
pitchwheel channel=4 pitch=-804 time=0 
pitchwheel channel=4 pitch=-1253 time=4 
pitchwheel channel=4 pitch=-1767 time=4 
pitchwheel channel=4 pitch=-2763 time=0 
pitchwheel channel=4 pitch=-3470 time=4 
pitchwheel channel=4 pitch=-3952 time=4 
pitchwheel channel=4 pitch=-4562 time=4 
pitchwheel channel=4 pitch=-5076 time=0 
pitchwheel channel=4 pitch=-5430 time=0 
pitchwheel channel=4 pitch=-6361 time=8 
pitchwheel channel=4 pitch=-6940 time=0 
pitchwheel channel=4 pitch=-7711 time=0 
pitchwheel channel=4 pitch=-8192 time=4 
pitchwheel channel=4 pitch=-8096 time=92 
pitchwheel channel=4 pitch=-7325 time=0 
pitchwheel channel=4 pitch=-6683 time=0 
pitchwheel channel=4 pitch=-5912 time=0 
pitchwheel channel=4 pitch=-5398 time=4 
pitchwheel channel=4 pitch=-5173 time=4 
pitchwheel channel=4 pitch=-4851 time=0 
pitchwheel channel=4 pitch=-4627 time=4 
pitchwheel channel=4 pitch=-4434 time=4 
pitchwheel channel=4 pitch=-4080 time=0 
pitchwheel channel=4 pitch=-3695 time=4 
pitchwheel channel=4 pitch=-3470 time=0 
pitchwheel channel=4 pitch=-3085 time=4 
pitchwheel channel=4 pitch=-2731 time=0 
pitchwheel channel=4 pitch=-2506 time=4 
pitchwheel channel=4 pitch=-2153 time=0 
pitchwheel channel=4 pitch=-1896 time=4 
pitchwheel channel=4 pitch=-1671 time=4 
pitchwheel channel=4 pitch=-1350 time=4 
pitchwheel channel=4 pitch=-1061 time=0 
pitchwheel channel=4 pitch=-772 time=0 
pitchwheel channel=4 pitch=-579 time=8 
pitchwheel channel=4 pitch=-354 time=0 
pitchwheel channel=4 pitch=0 time=0 
note_on channel=4 note=78 velocity=0 time=232 
note_on channel=4 note=78 velocity=127 time=272 
pitchwheel channel=4 pitch=-482 time=32 
pitchwheel channel=4 pitch=-996 time=0 
pitchwheel channel=4 pitch=-1671 time=8 
pitchwheel channel=4 pitch=-2378 time=0 
pitchwheel channel=4 pitch=-2988 time=0 
pitchwheel channel=4 pitch=-3663 time=0 
pitchwheel channel=4 pitch=-4434 time=4 
pitchwheel channel=4 pitch=-5076 time=4 
pitchwheel channel=4 pitch=-5847 time=0 
pitchwheel channel=4 pitch=-7068 time=0 
pitchwheel channel=4 pitch=-8192 time=4 
pitchwheel channel=4 pitch=-6683 time=76 
pitchwheel channel=4 pitch=-4755 time=0 
pitchwheel channel=4 pitch=-3342 time=0 
pitchwheel channel=4 pitch=-1639 time=0 
note_on channel=4 note=78 velocity=0 time=8 
pitchwheel channel=4 pitch=0 time=0 
note_on channel=4 note=74 velocity=127 time=0 
pitchwheel channel=4 pitch=353 time=88 
pitchwheel channel=4 pitch=1060 time=0 
pitchwheel channel=4 pitch=1959 time=0 
pitchwheel channel=4 pitch=2891 time=4 
pitchwheel channel=4 pitch=3790 time=0 
pitchwheel channel=4 pitch=4593 time=4 
pitchwheel channel=4 pitch=5075 time=0 
pitchwheel channel=4 pitch=5654 time=8 
pitchwheel channel=4 pitch=6939 time=0 
pitchwheel channel=4 pitch=7838 time=0 
pitchwheel channel=4 pitch=8191 time=0 
note_on channel=4 note=74 velocity=0 time=272 
pitchwheel channel=4 pitch=7645 time=16 
pitchwheel channel=4 pitch=4626 time=4 
pitchwheel channel=4 pitch=2248 time=0 
pitchwheel channel=4 pitch=-258 time=0 
pitchwheel channel=4 pitch=0 time=0 
note_on channel=4 note=78 velocity=127 time=236 
pitchwheel channel=4 pitch=-450 time=80 
pitchwheel channel=4 pitch=-836 time=0 
pitchwheel channel=4 pitch=-1286 time=4 
pitchwheel channel=4 pitch=-1671 time=4 
pitchwheel channel=4 pitch=-2057 time=0 
pitchwheel channel=4 pitch=-2538 time=0 
pitchwheel channel=4 pitch=-2828 time=8 
pitchwheel channel=4 pitch=-3406 time=0 
pitchwheel channel=4 pitch=-3759 time=4 
pitchwheel channel=4 pitch=-4755 time=4 
pitchwheel channel=4 pitch=-5655 time=4 
pitchwheel channel=4 pitch=-6683 time=0 
pitchwheel channel=4 pitch=-7389 time=4 
pitchwheel channel=4 pitch=-8192 time=0 
note_on channel=4 note=78 velocity=0 time=72 
pitchwheel channel=4 pitch=-7775 time=4 
note_on channel=4 note=74 velocity=127 time=4 
pitchwheel channel=4 pitch=-5430 time=4 
pitchwheel channel=4 pitch=-4080 time=4 
pitchwheel channel=4 pitch=-2506 time=0 
pitchwheel channel=4 pitch=-515 time=0 
pitchwheel channel=4 pitch=0 time=0 
note_on channel=4 note=74 velocity=0 time=452 
note_on channel=4 note=83 velocity=127 time=116 
pitchwheel channel=4 pitch=160 time=64 
pitchwheel channel=4 pitch=417 time=8 
pitchwheel channel=4 pitch=674 time=0 
pitchwheel channel=4 pitch=1092 time=0 
pitchwheel channel=4 pitch=1638 time=0 
pitchwheel channel=4 pitch=2280 time=8 
pitchwheel channel=4 pitch=2987 time=0 
pitchwheel channel=4 pitch=3822 time=0 
pitchwheel channel=4 pitch=4593 time=8 
pitchwheel channel=4 pitch=5075 time=0 
pitchwheel channel=4 pitch=5718 time=0 
pitchwheel channel=4 pitch=6810 time=0 
pitchwheel channel=4 pitch=7453 time=4 
pitchwheel channel=4 pitch=8159 time=4 
pitchwheel channel=4 pitch=8191 time=4 
note_on channel=4 note=83 velocity=0 time=72 
pitchwheel channel=4 pitch=6232 time=8 
pitchwheel channel=4 pitch=1863 time=4 
pitchwheel channel=4 pitch=0 time=0 
note_on channel=4 note=86 velocity=127 time=8 
note_on channel=4 note=86 velocity=0 time=488 
note_on channel=4 note=78 velocity=127 time=856 
pitchwheel channel=4 pitch=-450 time=80 
pitchwheel channel=4 pitch=-1061 time=0 
pitchwheel channel=4 pitch=-1800 time=0 
pitchwheel channel=4 pitch=-2571 time=0 
pitchwheel channel=4 pitch=-3342 time=8 
pitchwheel channel=4 pitch=-4080 time=0 
pitchwheel channel=4 pitch=-4819 time=0 
pitchwheel channel=4 pitch=-5462 time=0 
pitchwheel channel=4 pitch=-6875 time=8 
pitchwheel channel=4 pitch=-8192 time=0 
pitchwheel channel=4 pitch=-7389 time=88 
pitchwheel channel=4 pitch=-6490 time=8 
pitchwheel channel=4 pitch=-5430 time=0 
pitchwheel channel=4 pitch=-5012 time=4 
pitchwheel channel=4 pitch=-4594 time=0 
pitchwheel channel=4 pitch=-4241 time=0 
pitchwheel channel=4 pitch=-3759 time=4 
pitchwheel channel=4 pitch=-3502 time=0 
pitchwheel channel=4 pitch=-3245 time=8 
pitchwheel channel=4 pitch=-2956 time=0 
pitchwheel channel=4 pitch=-2699 time=0 
pitchwheel channel=4 pitch=-2571 time=0 
pitchwheel channel=4 pitch=-2281 time=4 
pitchwheel channel=4 pitch=-2089 time=4 
pitchwheel channel=4 pitch=-1800 time=0 
pitchwheel channel=4 pitch=-1543 time=4 
pitchwheel channel=4 pitch=-1221 time=0 
pitchwheel channel=4 pitch=-868 time=0 
pitchwheel channel=4 pitch=-547 time=4 
pitchwheel channel=4 pitch=-225 time=8 
pitchwheel channel=4 pitch=0 time=0 
note_on channel=4 note=78 velocity=0 time=280 
note_on channel=4 note=83 velocity=127 time=256 
pitchwheel channel=4 pitch=-418 time=88 
pitchwheel channel=4 pitch=-675 time=0 
pitchwheel channel=4 pitch=-1029 time=0 
pitchwheel channel=4 pitch=-1350 time=4 
pitchwheel channel=4 pitch=-1671 time=4 
pitchwheel channel=4 pitch=-2024 time=4 
pitchwheel channel=4 pitch=-3020 time=4 
pitchwheel channel=4 pitch=-3438 time=4 
pitchwheel channel=4 pitch=-3695 time=0 
pitchwheel channel=4 pitch=-4241 time=4 
pitchwheel channel=4 pitch=-4627 time=0 
pitchwheel channel=4 pitch=-5044 time=4 
pitchwheel channel=4 pitch=-5398 time=4 
pitchwheel channel=4 pitch=-6169 time=0 
pitchwheel channel=4 pitch=-6940 time=0 
pitchwheel channel=4 pitch=-7775 time=4 
pitchwheel channel=4 pitch=-8192 time=0 
note_on channel=4 note=79 velocity=127 time=68 
pitchwheel channel=4 pitch=-6490 time=4 
pitchwheel channel=4 pitch=-4691 time=0 
note_on channel=4 note=83 velocity=0 time=4 
pitchwheel channel=4 pitch=-3149 time=0 
pitchwheel channel=4 pitch=-1093 time=0 
pitchwheel channel=4 pitch=0 time=4 
note_on channel=4 note=79 velocity=0 time=460 
note_on channel=4 note=78 velocity=127 time=872 
pitchwheel channel=4 pitch=-386 time=72 
pitchwheel channel=4 pitch=-739 time=0 
pitchwheel channel=4 pitch=-1189 time=0 
pitchwheel channel=4 pitch=-1607 time=4 
pitchwheel channel=4 pitch=-1992 time=4 
pitchwheel channel=4 pitch=-2538 time=0 
pitchwheel channel=4 pitch=-2924 time=4 
pitchwheel channel=4 pitch=-3534 time=4 
pitchwheel channel=4 pitch=-4209 time=0 
pitchwheel channel=4 pitch=-4819 time=0 
pitchwheel channel=4 pitch=-5462 time=4 
pitchwheel channel=4 pitch=-6940 time=4 
pitchwheel channel=4 pitch=-8192 time=4 
note_on channel=4 note=78 velocity=0 time=36 
pitchwheel channel=4 pitch=-7068 time=4 
pitchwheel channel=4 pitch=-5012 time=4 
note_on channel=4 note=74 velocity=127 time=0 
pitchwheel channel=4 pitch=-3502 time=4 
pitchwheel channel=4 pitch=-1703 time=0 
pitchwheel channel=4 pitch=0 time=0 
note_on channel=4 note=74 velocity=0 time=40 
note_on channel=4 note=76 velocity=127 time=4 
note_on channel=4 note=76 velocity=0 time=464 
note_on channel=4 note=78 velocity=127 time=112 
pitchwheel channel=4 pitch=-418 time=88 
pitchwheel channel=4 pitch=-675 time=4 
pitchwheel channel=4 pitch=-996 time=4 
pitchwheel channel=4 pitch=-1382 time=0 
pitchwheel channel=4 pitch=-1735 time=4 
pitchwheel channel=4 pitch=-2538 time=0 
pitchwheel channel=4 pitch=-2828 time=4 
pitchwheel channel=4 pitch=-3374 time=0 
pitchwheel channel=4 pitch=-3695 time=8 
pitchwheel channel=4 pitch=-4273 time=0 
pitchwheel channel=4 pitch=-4691 time=0 
pitchwheel channel=4 pitch=-5141 time=8 
pitchwheel channel=4 pitch=-5462 time=0 
pitchwheel channel=4 pitch=-6297 time=0 
pitchwheel channel=4 pitch=-7004 time=4 
pitchwheel channel=4 pitch=-7903 time=0 
pitchwheel channel=4 pitch=-8192 time=4 
note_on channel=4 note=78 velocity=0 time=64 
pitchwheel channel=4 pitch=-5526 time=0 
note_on channel=4 note=74 velocity=127 time=0 
pitchwheel channel=4 pitch=-3952 time=4 
pitchwheel channel=4 pitch=-2249 time=0 
pitchwheel channel=4 pitch=-354 time=0 
pitchwheel channel=4 pitch=0 time=0 
note_on channel=4 note=74 velocity=0 time=436 
note_on channel=4 note=78 velocity=127 time=136 
pitchwheel channel=4 pitch=-450 time=64 
pitchwheel channel=4 pitch=-1029 time=8 
pitchwheel channel=4 pitch=-1703 time=0 
pitchwheel channel=4 pitch=-2474 time=0 
pitchwheel channel=4 pitch=-3085 time=4 
pitchwheel channel=4 pitch=-3888 time=0 
pitchwheel channel=4 pitch=-4916 time=4 
pitchwheel channel=4 pitch=-5847 time=0 
pitchwheel channel=4 pitch=-7454 time=8 
pitchwheel channel=4 pitch=-8192 time=0 
note_on channel=4 note=78 velocity=0 time=40 
pitchwheel channel=4 pitch=-5719 time=4 
pitchwheel channel=4 pitch=-4145 time=4 
pitchwheel channel=4 pitch=-2474 time=0 
pitchwheel channel=4 pitch=-643 time=8 
pitchwheel channel=4 pitch=0 time=0 
note_on channel=4 note=74 velocity=127 time=0 
note_on channel=4 note=74 velocity=0 time=40 
note_on channel=4 note=74 velocity=127 time=8 
pitchwheel channel=4 pitch=257 time=64 
pitchwheel channel=4 pitch=385 time=0 
pitchwheel channel=4 pitch=610 time=4 
pitchwheel channel=4 pitch=899 time=4 
pitchwheel channel=4 pitch=1220 time=0 
pitchwheel channel=4 pitch=1509 time=0 
pitchwheel channel=4 pitch=1863 time=4 
pitchwheel channel=4 pitch=2313 time=0 
pitchwheel channel=4 pitch=2859 time=4 
pitchwheel channel=4 pitch=3437 time=0 
pitchwheel channel=4 pitch=4079 time=8 
pitchwheel channel=4 pitch=4593 time=0 
pitchwheel channel=4 pitch=4947 time=0 
pitchwheel channel=4 pitch=5172 time=4 
pitchwheel channel=4 pitch=5364 time=4 
pitchwheel channel=4 pitch=5589 time=0 
pitchwheel channel=4 pitch=5846 time=4 
pitchwheel channel=4 pitch=6746 time=0 
pitchwheel channel=4 pitch=7131 time=4 
pitchwheel channel=4 pitch=7774 time=4 
pitchwheel channel=4 pitch=8191 time=4 
note_on channel=4 note=74 velocity=0 time=312 
pitchwheel channel=4 pitch=4947 time=24 
pitchwheel channel=4 pitch=2537 time=0 
pitchwheel channel=4 pitch=-258 time=4 
pitchwheel channel=4 pitch=0 time=4 
note_on channel=4 note=78 velocity=127 time=120 
pitchwheel channel=4 pitch=-418 time=76 
pitchwheel channel=4 pitch=-1093 time=0 
pitchwheel channel=4 pitch=-1928 time=4 
pitchwheel channel=4 pitch=-2795 time=4 
pitchwheel channel=4 pitch=-3759 time=4 
pitchwheel channel=4 pitch=-4755 time=0 
pitchwheel channel=4 pitch=-5526 time=0 
pitchwheel channel=4 pitch=-7132 time=8 
pitchwheel channel=4 pitch=-8192 time=0 
pitchwheel channel=4 pitch=-7711 time=72 
pitchwheel channel=4 pitch=-5430 time=0 
pitchwheel channel=4 pitch=-3823 time=0 
note_on channel=4 note=78 velocity=0 time=8 
pitchwheel channel=4 pitch=-1992 time=0 
pitchwheel channel=4 pitch=0 time=0 
<meta message end_of_track time=0> 
<meta message midi_port port=0 time=0> 
<meta message track_name name='Guitar              ' time=0> 
control_change channel=5 control=0 value=0 time=0 
control_change channel=5 control=32 value=0 time=0 
program_change channel=5 program=25 time=0 
control_change channel=5 control=7 value=100 time=0 
control_change channel=5 control=10 value=40 time=0 
control_change channel=5 control=1 value=0 time=12 
control_change channel=5 control=91 value=80 time=0 
control_change channel=5 control=93 value=0 time=0 
note_on channel=5 note=62 velocity=82 time=1620 
note_on channel=5 note=57 velocity=70 time=0 
note_on channel=5 note=66 velocity=71 time=0 
note_on channel=5 note=66 velocity=0 time=132 
note_on channel=5 note=57 velocity=0 time=4 
note_on channel=5 note=62 velocity=0 time=0 
note_on channel=5 note=57 velocity=73 time=56 
note_on channel=5 note=62 velocity=82 time=0 
note_on channel=5 note=66 velocity=74 time=0 
note_on channel=5 note=66 velocity=0 time=136 
note_on channel=5 note=62 velocity=0 time=4 
note_on channel=5 note=57 velocity=0 time=4 
note_on channel=5 note=66 velocity=68 time=44 
note_on channel=5 note=57 velocity=69 time=4 
note_on channel=5 note=62 velocity=75 time=0 
note_on channel=5 note=62 velocity=0 time=144 
note_on channel=5 note=57 velocity=0 time=0 
note_on channel=5 note=66 velocity=0 time=0 
note_on channel=5 note=57 velocity=67 time=48 
note_on channel=5 note=62 velocity=77 time=0 
note_on channel=5 note=66 velocity=71 time=0 
note_on channel=5 note=66 velocity=0 time=128 
note_on channel=5 note=62 velocity=0 time=8 
note_on channel=5 note=57 velocity=0 time=0 
note_on channel=5 note=62 velocity=78 time=56 
note_on channel=5 note=59 velocity=67 time=0 
note_on channel=5 note=66 velocity=65 time=0 
note_on channel=5 note=62 velocity=0 time=144 
note_on channel=5 note=66 velocity=0 time=8 
note_on channel=5 note=59 velocity=0 time=0 
note_on channel=5 note=62 velocity=76 time=40 
note_on channel=5 note=59 velocity=63 time=0 
note_on channel=5 note=66 velocity=67 time=0 
note_on channel=5 note=62 velocity=0 time=156 
note_on channel=5 note=66 velocity=0 time=4 
note_on channel=5 note=59 velocity=0 time=0 
note_on channel=5 note=59 velocity=61 time=32 
note_on channel=5 note=62 velocity=74 time=0 
note_on channel=5 note=66 velocity=66 time=0 
note_on channel=5 note=62 velocity=0 time=148 
note_on channel=5 note=66 velocity=0 time=4 
note_on channel=5 note=59 velocity=0 time=0 
note_on channel=5 note=59 velocity=63 time=40 
note_on channel=5 note=62 velocity=74 time=0 
note_on channel=5 note=66 velocity=66 time=0 
note_on channel=5 note=66 velocity=0 time=136 
note_on channel=5 note=62 velocity=0 time=0 
note_on channel=5 note=59 velocity=0 time=4 
note_on channel=5 note=61 velocity=75 time=52 
note_on channel=5 note=57 velocity=71 time=0 
note_on channel=5 note=64 velocity=77 time=0 
note_on channel=5 note=64 velocity=0 time=152 
note_on channel=5 note=61 velocity=0 time=4 
note_on channel=5 note=57 velocity=0 time=4 
note_on channel=5 note=61 velocity=79 time=32 
note_on channel=5 note=57 velocity=77 time=0 
note_on channel=5 note=64 velocity=81 time=0 
note_on channel=5 note=57 velocity=0 time=152 
note_on channel=5 note=64 velocity=0 time=8 
note_on channel=5 note=61 velocity=0 time=0 
note_on channel=5 note=57 velocity=75 time=32 
note_on channel=5 note=61 velocity=78 time=0 
note_on channel=5 note=64 velocity=81 time=0 
note_on channel=5 note=64 velocity=0 time=144 
note_on channel=5 note=57 velocity=0 time=0 
note_on channel=5 note=61 velocity=0 time=4 
note_on channel=5 note=57 velocity=72 time=44 
note_on channel=5 note=61 velocity=77 time=0 
note_on channel=5 note=64 velocity=73 time=0 
note_on channel=5 note=64 velocity=0 time=128 
note_on channel=5 note=57 velocity=0 time=0 
note_on channel=5 note=61 velocity=0 time=8 
note_on channel=5 note=59 velocity=65 time=56 
note_on channel=5 note=62 velocity=80 time=0 
note_on channel=5 note=67 velocity=80 time=0 
note_on channel=5 note=67 velocity=0 time=144 
note_on channel=5 note=62 velocity=0 time=0 
note_on channel=5 note=59 velocity=0 time=4 
note_on channel=5 note=62 velocity=77 time=44 
note_on channel=5 note=59 velocity=69 time=0 
note_on channel=5 note=67 velocity=79 time=0 
note_on channel=5 note=59 velocity=0 time=144 
note_on channel=5 note=62 velocity=0 time=0 
note_on channel=5 note=67 velocity=0 time=8 
note_on channel=5 note=57 velocity=70 time=36 
note_on channel=5 note=62 velocity=74 time=4 
note_on channel=5 note=66 velocity=72 time=0 
note_on channel=5 note=66 velocity=0 time=144 
note_on channel=5 note=57 velocity=0 time=0 
note_on channel=5 note=62 velocity=0 time=4 
note_on channel=5 note=57 velocity=70 time=44 
note_on channel=5 note=62 velocity=74 time=0 
note_on channel=5 note=66 velocity=71 time=0 
note_on channel=5 note=66 velocity=0 time=160 
note_on channel=5 note=62 velocity=0 time=8 
note_on channel=5 note=57 velocity=0 time=0 
note_on channel=5 note=62 velocity=82 time=24 
note_on channel=5 note=57 velocity=73 time=0 
note_on channel=5 note=66 velocity=76 time=0 
note_on channel=5 note=66 velocity=0 time=152 
note_on channel=5 note=62 velocity=0 time=0 
note_on channel=5 note=57 velocity=0 time=8 
note_on channel=5 note=57 velocity=70 time=32 
note_on channel=5 note=62 velocity=74 time=0 
note_on channel=5 note=66 velocity=71 time=0 
note_on channel=5 note=66 velocity=0 time=160 
note_on channel=5 note=57 velocity=0 time=4 
note_on channel=5 note=62 velocity=0 time=4 
note_on channel=5 note=57 velocity=73 time=24 
note_on channel=5 note=62 velocity=74 time=0 
note_on channel=5 note=66 velocity=76 time=0 
note_on channel=5 note=66 velocity=0 time=152 
note_on channel=5 note=62 velocity=0 time=8 
note_on channel=5 note=57 velocity=0 time=0 
note_on channel=5 note=57 velocity=72 time=32 
note_on channel=5 note=62 velocity=79 time=0 
note_on channel=5 note=66 velocity=74 time=0 
note_on channel=5 note=66 velocity=0 time=164 
note_on channel=5 note=62 velocity=0 time=0 
note_on channel=5 note=57 velocity=0 time=4 
note_on channel=5 note=62 velocity=77 time=24 
note_on channel=5 note=57 velocity=74 time=0 
note_on channel=5 note=66 velocity=74 time=0 
note_on channel=5 note=66 velocity=0 time=152 
note_on channel=5 note=62 velocity=0 time=4 
note_on channel=5 note=57 velocity=0 time=4 
note_on channel=5 note=62 velocity=80 time=32 
note_on channel=5 note=57 velocity=74 time=0 
note_on channel=5 note=66 velocity=77 time=0 
note_on channel=5 note=66 velocity=0 time=160 
note_on channel=5 note=57 velocity=0 time=0 
note_on channel=5 note=62 velocity=0 time=0 
note_on channel=5 note=59 velocity=75 time=32 
note_on channel=5 note=62 velocity=79 time=0 
note_on channel=5 note=66 velocity=71 time=0 
note_on channel=5 note=66 velocity=0 time=160 
note_on channel=5 note=62 velocity=0 time=0 
note_on channel=5 note=59 velocity=0 time=0 
note_on channel=5 note=66 velocity=71 time=28 
note_on channel=5 note=59 velocity=66 time=4 
note_on channel=5 note=62 velocity=76 time=0 
note_on channel=5 note=66 velocity=0 time=156 
note_on channel=5 note=62 velocity=0 time=4 
note_on channel=5 note=59 velocity=0 time=0 
note_on channel=5 note=62 velocity=82 time=28 
note_on channel=5 note=59 velocity=71 time=4 
note_on channel=5 note=66 velocity=72 time=0 
note_on channel=5 note=66 velocity=0 time=160 
note_on channel=5 note=59 velocity=0 time=0 
note_on channel=5 note=62 velocity=0 time=0 
note_on channel=5 note=62 velocity=78 time=28 
note_on channel=5 note=59 velocity=71 time=4 
note_on channel=5 note=66 velocity=74 time=0 
note_on channel=5 note=66 velocity=0 time=136 
note_on channel=5 note=59 velocity=0 time=0 
note_on channel=5 note=62 velocity=0 time=0 
note_on channel=5 note=61 velocity=70 time=56 
note_on channel=5 note=57 velocity=69 time=0 
note_on channel=5 note=64 velocity=74 time=0 
note_on channel=5 note=64 velocity=0 time=168 
note_on channel=5 note=57 velocity=0 time=4 
note_on channel=5 note=61 velocity=0 time=4 
note_on channel=5 note=61 velocity=77 time=12 
note_on channel=5 note=57 velocity=71 time=4 
note_on channel=5 note=64 velocity=77 time=0 
note_on channel=5 note=64 velocity=0 time=152 
note_on channel=5 note=61 velocity=0 time=4 
note_on channel=5 note=57 velocity=0 time=4 
note_on channel=5 note=61 velocity=73 time=32 
note_on channel=5 note=57 velocity=71 time=0 
note_on channel=5 note=64 velocity=73 time=0 
note_on channel=5 note=64 velocity=0 time=152 
note_on channel=5 note=61 velocity=0 time=0 
note_on channel=5 note=57 velocity=0 time=8 
note_on channel=5 note=57 velocity=71 time=28 
note_on channel=5 note=61 velocity=78 time=4 
note_on channel=5 note=64 velocity=76 time=0 
note_on channel=5 note=57 velocity=0 time=112 
note_on channel=5 note=64 velocity=0 time=8 
note_on channel=5 note=61 velocity=0 time=0 
note_on channel=5 note=59 velocity=65 time=72 
note_on channel=5 note=62 velocity=75 time=0 
note_on channel=5 note=67 velocity=78 time=0 
note_on channel=5 note=67 velocity=0 time=152 
note_on channel=5 note=62 velocity=0 time=0 
note_on channel=5 note=59 velocity=0 time=0 
note_on channel=5 note=59 velocity=68 time=40 
note_on channel=5 note=62 velocity=75 time=0 
note_on channel=5 note=67 velocity=73 time=0 
note_on channel=5 note=59 velocity=0 time=128 
note_on channel=5 note=62 velocity=0 time=8 
note_on channel=5 note=67 velocity=0 time=4 
note_on channel=5 note=62 velocity=73 time=48 
note_on channel=5 note=57 velocity=71 time=4 
note_on channel=5 note=66 velocity=73 time=0 
note_on channel=5 note=66 velocity=0 time=160 
note_on channel=5 note=57 velocity=0 time=0 
note_on channel=5 note=62 velocity=0 time=0 
note_on channel=5 note=57 velocity=72 time=32 
note_on channel=5 note=62 velocity=81 time=0 
note_on channel=5 note=66 velocity=75 time=0 
note_on channel=5 note=66 velocity=0 time=160 
note_on channel=5 note=62 velocity=0 time=0 
note_on channel=5 note=57 velocity=0 time=0 
note_on channel=5 note=62 velocity=78 time=28 
note_on channel=5 note=57 velocity=73 time=4 
note_on channel=5 note=66 velocity=73 time=0 
note_on channel=5 note=57 velocity=0 time=152 
note_on channel=5 note=66 velocity=0 time=4 
note_on channel=5 note=62 velocity=0 time=4 
note_on channel=5 note=62 velocity=82 time=32 
note_on channel=5 note=57 velocity=81 time=0 
note_on channel=5 note=66 velocity=79 time=0 
note_on channel=5 note=66 velocity=0 time=152 
note_on channel=5 note=57 velocity=0 time=0 
note_on channel=5 note=62 velocity=0 time=0 
note_on channel=5 note=57 velocity=76 time=40 
note_on channel=5 note=62 velocity=78 time=0 
note_on channel=5 note=66 velocity=77 time=0 
note_on channel=5 note=66 velocity=0 time=152 
note_on channel=5 note=62 velocity=0 time=0 
note_on channel=5 note=57 velocity=0 time=0 
note_on channel=5 note=66 velocity=75 time=36 
note_on channel=5 note=57 velocity=71 time=4 
note_on channel=5 note=62 velocity=79 time=0 
note_on channel=5 note=66 velocity=0 time=144 
note_on channel=5 note=62 velocity=0 time=8 
note_on channel=5 note=57 velocity=0 time=0 
note_on channel=5 note=61 velocity=79 time=40 
note_on channel=5 note=57 velocity=72 time=0 
note_on channel=5 note=64 velocity=75 time=0 
note_on channel=5 note=64 velocity=0 time=152 
note_on channel=5 note=57 velocity=0 time=4 
note_on channel=5 note=61 velocity=0 time=0 
note_on channel=5 note=57 velocity=74 time=36 
note_on channel=5 note=61 velocity=74 time=0 
note_on channel=5 note=64 velocity=80 time=0 
note_on channel=5 note=64 velocity=0 time=144 
note_on channel=5 note=61 velocity=0 time=0 
note_on channel=5 note=57 velocity=0 time=0 
note_on channel=5 note=64 velocity=78 time=44 
note_on channel=5 note=57 velocity=76 time=4 
note_on channel=5 note=61 velocity=82 time=0 
note_on channel=5 note=61 velocity=0 time=144 
note_on channel=5 note=57 velocity=0 time=0 
note_on channel=5 note=64 velocity=0 time=0 
note_on channel=5 note=64 velocity=77 time=44 
note_on channel=5 note=57 velocity=77 time=4 
note_on channel=5 note=61 velocity=77 time=0 
note_on channel=5 note=61 velocity=0 time=128 
note_on channel=5 note=57 velocity=0 time=0 
note_on channel=5 note=64 velocity=0 time=0 
note_on channel=5 note=59 velocity=71 time=64 
note_on channel=5 note=62 velocity=81 time=0 
note_on channel=5 note=66 velocity=79 time=0 
note_on channel=5 note=66 velocity=0 time=152 
note_on channel=5 note=62 velocity=0 time=0 
note_on channel=5 note=59 velocity=0 time=4 
note_on channel=5 note=59 velocity=72 time=36 
note_on channel=5 note=62 velocity=82 time=0 
note_on channel=5 note=66 velocity=79 time=0 
note_on channel=5 note=62 velocity=0 time=164 
note_on channel=5 note=66 velocity=0 time=4 
note_on channel=5 note=59 velocity=0 time=0 
note_on channel=5 note=66 velocity=78 time=20 
note_on channel=5 note=59 velocity=73 time=4 
note_on channel=5 note=62 velocity=82 time=0 
note_on channel=5 note=62 velocity=0 time=160 
note_on channel=5 note=59 velocity=0 time=0 
note_on channel=5 note=66 velocity=0 time=0 
note_on channel=5 note=59 velocity=72 time=28 
note_on channel=5 note=62 velocity=79 time=4 
note_on channel=5 note=66 velocity=75 time=0 
note_on channel=5 note=66 velocity=0 time=128 
note_on channel=5 note=62 velocity=0 time=0 
note_on channel=5 note=59 velocity=0 time=0 
note_on channel=5 note=59 velocity=67 time=64 
note_on channel=5 note=62 velocity=80 time=0 
note_on channel=5 note=67 velocity=79 time=0 
note_on channel=5 note=67 velocity=0 time=144 
note_on channel=5 note=62 velocity=0 time=8 
note_on channel=5 note=59 velocity=0 time=0 
note_on channel=5 note=62 velocity=82 time=36 
note_on channel=5 note=59 velocity=71 time=4 
note_on channel=5 note=67 velocity=77 time=0 
note_on channel=5 note=62 velocity=0 time=156 
note_on channel=5 note=67 velocity=0 time=4 
note_on channel=5 note=59 velocity=0 time=0 
note_on channel=5 note=59 velocity=73 time=32 
note_on channel=5 note=62 velocity=81 time=0 
note_on channel=5 note=67 velocity=78 time=0 
note_on channel=5 note=67 velocity=0 time=152 
note_on channel=5 note=62 velocity=0 time=0 
note_on channel=5 note=59 velocity=0 time=0 
note_on channel=5 note=59 velocity=68 time=36 
note_on channel=5 note=62 velocity=80 time=4 
note_on channel=5 note=67 velocity=77 time=0 
note_on channel=5 note=62 velocity=0 time=128 
note_on channel=5 note=59 velocity=0 time=0 
note_on channel=5 note=67 velocity=0 time=8 
note_on channel=5 note=57 velocity=71 time=56 
note_on channel=5 note=62 velocity=74 time=0 
note_on channel=5 note=66 velocity=73 time=0 
note_on channel=5 note=66 velocity=0 time=128 
note_on channel=5 note=57 velocity=0 time=8 
note_on channel=5 note=62 velocity=0 time=8 
note_on channel=5 note=62 velocity=76 time=48 
note_on channel=5 note=57 velocity=73 time=0 
note_on channel=5 note=66 velocity=67 time=0 
note_on channel=5 note=66 velocity=0 time=136 
note_on channel=5 note=62 velocity=0 time=0 
note_on channel=5 note=57 velocity=0 time=8 
note_on channel=5 note=57 velocity=74 time=44 
note_on channel=5 note=62 velocity=78 time=4 
note_on channel=5 note=66 velocity=74 time=0 
note_on channel=5 note=66 velocity=0 time=136 
note_on channel=5 note=62 velocity=0 time=8 
note_on channel=5 note=57 velocity=0 time=0 
note_on channel=5 note=66 velocity=73 time=44 
note_on channel=5 note=57 velocity=71 time=4 
note_on channel=5 note=62 velocity=81 time=0 
note_on channel=5 note=62 velocity=0 time=128 
note_on channel=5 note=57 velocity=0 time=0 
note_on channel=5 note=66 velocity=0 time=0 
note_on channel=5 note=57 velocity=73 time=64 
note_on channel=5 note=61 velocity=79 time=0 
note_on channel=5 note=64 velocity=75 time=0 
note_on channel=5 note=64 velocity=0 time=140 
note_on channel=5 note=57 velocity=0 time=4 
note_on channel=5 note=61 velocity=0 time=4 
note_on channel=5 note=61 velocity=81 time=44 
note_on channel=5 note=57 velocity=77 time=0 
note_on channel=5 note=64 velocity=78 time=0 
note_on channel=5 note=61 velocity=0 time=144 
note_on channel=5 note=64 velocity=0 time=4 
note_on channel=5 note=57 velocity=0 time=4 
note_on channel=5 note=61 velocity=75 time=40 
note_on channel=5 note=64 velocity=78 time=0 
note_on channel=5 note=57 velocity=74 time=4 
note_on channel=5 note=64 velocity=0 time=116 
note_on channel=5 note=61 velocity=0 time=8 
note_on channel=5 note=57 velocity=0 time=8 
note_on channel=5 note=57 velocity=75 time=56 
note_on channel=5 note=61 velocity=75 time=0 
note_on channel=5 note=64 velocity=74 time=0 
note_on channel=5 note=57 velocity=0 time=116 
note_on channel=5 note=64 velocity=0 time=4 
note_on channel=5 note=61 velocity=0 time=0 
note_on channel=5 note=62 velocity=78 time=72 
note_on channel=5 note=59 velocity=66 time=0 
note_on channel=5 note=67 velocity=71 time=0 
note_on channel=5 note=67 velocity=0 time=136 
note_on channel=5 note=59 velocity=0 time=8 
note_on channel=5 note=62 velocity=0 time=0 
note_on channel=5 note=59 velocity=71 time=48 
note_on channel=5 note=62 velocity=77 time=0 
note_on channel=5 note=67 velocity=81 time=0 
note_on channel=5 note=62 velocity=0 time=144 
note_on channel=5 note=59 velocity=0 time=0 
note_on channel=5 note=67 velocity=0 time=4 
note_on channel=5 note=59 velocity=71 time=40 
note_on channel=5 note=62 velocity=79 time=4 
note_on channel=5 note=67 velocity=80 time=0 
note_on channel=5 note=67 velocity=0 time=136 
note_on channel=5 note=62 velocity=0 time=0 
note_on channel=5 note=59 velocity=0 time=0 
note_on channel=5 note=59 velocity=74 time=56 
note_on channel=5 note=62 velocity=81 time=0 
note_on channel=5 note=67 velocity=79 time=0 
note_on channel=5 note=59 velocity=0 time=116 
note_on channel=5 note=67 velocity=0 time=4 
note_on channel=5 note=62 velocity=0 time=0 
note_on channel=5 note=57 velocity=77 time=72 
note_on channel=5 note=62 velocity=79 time=0 
note_on channel=5 note=66 velocity=74 time=0 
note_on channel=5 note=66 velocity=0 time=136 
note_on channel=5 note=62 velocity=0 time=0 
note_on channel=5 note=57 velocity=0 time=0 
note_on channel=5 note=57 velocity=68 time=56 
note_on channel=5 note=62 velocity=75 time=0 
note_on channel=5 note=66 velocity=76 time=0 
note_on channel=5 note=66 velocity=0 time=152 
note_on channel=5 note=62 velocity=0 time=0 
note_on channel=5 note=57 velocity=0 time=0 
note_on channel=5 note=57 velocity=79 time=40 
note_on channel=5 note=62 velocity=82 time=0 
note_on channel=5 note=66 velocity=75 time=0 
note_on channel=5 note=66 velocity=0 time=128 
note_on channel=5 note=57 velocity=0 time=0 
note_on channel=5 note=62 velocity=0 time=8 
note_on channel=5 note=57 velocity=76 time=56 
note_on channel=5 note=62 velocity=82 time=0 
note_on channel=5 note=66 velocity=75 time=0 
note_on channel=5 note=66 velocity=0 time=136 
note_on channel=5 note=62 velocity=0 time=0 
note_on channel=5 note=57 velocity=0 time=0 
note_on channel=5 note=57 velocity=71 time=56 
note_on channel=5 note=62 velocity=81 time=0 
note_on channel=5 note=66 velocity=68 time=0 
note_on channel=5 note=62 velocity=0 time=128 
note_on channel=5 note=57 velocity=0 time=0 
note_on channel=5 note=66 velocity=0 time=4 
note_on channel=5 note=57 velocity=64 time=60 
note_on channel=5 note=62 velocity=80 time=0 
note_on channel=5 note=66 velocity=77 time=0 
note_on channel=5 note=62 velocity=0 time=136 
note_on channel=5 note=66 velocity=0 time=8 
note_on channel=5 note=57 velocity=0 time=0 
note_on channel=5 note=57 velocity=70 time=48 
note_on channel=5 note=62 velocity=74 time=0 
note_on channel=5 note=66 velocity=66 time=0 
note_on channel=5 note=62 velocity=0 time=136 
note_on channel=5 note=66 velocity=0 time=8 
note_on channel=5 note=57 velocity=0 time=0 
note_on channel=5 note=57 velocity=71 time=48 
note_on channel=5 note=62 velocity=79 time=0 
note_on channel=5 note=66 velocity=71 time=0 
note_on channel=5 note=66 velocity=0 time=120 
note_on channel=5 note=62 velocity=0 time=0 
note_on channel=5 note=57 velocity=0 time=4 
note_on channel=5 note=62 velocity=80 time=68 
note_on channel=5 note=59 velocity=69 time=0 
note_on channel=5 note=66 velocity=69 time=0 
note_on channel=5 note=66 velocity=0 time=144 
note_on channel=5 note=59 velocity=0 time=0 
note_on channel=5 note=62 velocity=0 time=0 
note_on channel=5 note=59 velocity=63 time=48 
note_on channel=5 note=62 velocity=74 time=0 
note_on channel=5 note=66 velocity=67 time=0 
note_on channel=5 note=62 velocity=0 time=144 
note_on channel=5 note=59 velocity=0 time=0 
note_on channel=5 note=66 velocity=0 time=8 
note_on channel=5 note=59 velocity=71 time=36 
note_on channel=5 note=62 velocity=77 time=4 
note_on channel=5 note=66 velocity=73 time=0 
note_on channel=5 note=66 velocity=0 time=136 
note_on channel=5 note=62 velocity=0 time=4 
note_on channel=5 note=59 velocity=0 time=0 
note_on channel=5 note=59 velocity=71 time=52 
note_on channel=5 note=62 velocity=75 time=0 
note_on channel=5 note=66 velocity=72 time=0 
note_on channel=5 note=66 velocity=0 time=120 
note_on channel=5 note=62 velocity=0 time=0 
note_on channel=5 note=59 velocity=0 time=0 
note_on channel=5 note=57 velocity=65 time=72 
note_on channel=5 note=61 velocity=64 time=0 
note_on channel=5 note=64 velocity=74 time=0 
note_on channel=5 note=64 velocity=0 time=144 
note_on channel=5 note=57 velocity=0 time=4 
note_on channel=5 note=61 velocity=0 time=8 
note_on channel=5 note=57 velocity=72 time=36 
note_on channel=5 note=61 velocity=75 time=0 
note_on channel=5 note=64 velocity=73 time=0 
note_on channel=5 note=64 velocity=0 time=144 
note_on channel=5 note=57 velocity=0 time=0 
note_on channel=5 note=61 velocity=0 time=8 
note_on channel=5 note=61 velocity=66 time=40 
note_on channel=5 note=57 velocity=73 time=0 
note_on channel=5 note=64 velocity=77 time=0 
note_on channel=5 note=64 velocity=0 time=136 
note_on channel=5 note=57 velocity=0 time=0 
note_on channel=5 note=61 velocity=0 time=4 
note_on channel=5 note=57 velocity=69 time=52 
note_on channel=5 note=64 velocity=72 time=0 
note_on channel=5 note=61 velocity=75 time=4 
note_on channel=5 note=57 velocity=0 time=108 
note_on channel=5 note=61 velocity=0 time=8 
note_on channel=5 note=64 velocity=0 time=0 
note_on channel=5 note=59 velocity=67 time=68 
note_on channel=5 note=62 velocity=74 time=4 
note_on channel=5 note=67 velocity=76 time=0 
note_on channel=5 note=62 velocity=0 time=144 
note_on channel=5 note=67 velocity=0 time=8 
note_on channel=5 note=59 velocity=0 time=0 
note_on channel=5 note=62 velocity=79 time=40 
note_on channel=5 note=59 velocity=66 time=0 
note_on channel=5 note=67 velocity=77 time=0 
note_on channel=5 note=67 velocity=0 time=128 
note_on channel=5 note=59 velocity=0 time=8 
note_on channel=5 note=62 velocity=0 time=0 
note_on channel=5 note=62 velocity=76 time=56 
note_on channel=5 note=57 velocity=67 time=0 
note_on channel=5 note=66 velocity=72 time=0 
note_on channel=5 note=57 velocity=0 time=156 
note_on channel=5 note=66 velocity=0 time=4 
note_on channel=5 note=62 velocity=0 time=0 
note_on channel=5 note=57 velocity=71 time=32 
note_on channel=5 note=62 velocity=75 time=0 
note_on channel=5 note=66 velocity=73 time=0 
note_on channel=5 note=66 velocity=0 time=152 
note_on channel=5 note=62 velocity=0 time=0 
note_on channel=5 note=57 velocity=0 time=0 
note_on channel=5 note=57 velocity=67 time=40 
note_on channel=5 note=62 velocity=76 time=0 
note_on channel=5 note=66 velocity=71 time=0 
note_on channel=5 note=66 velocity=0 time=152 
note_on channel=5 note=57 velocity=0 time=4 
note_on channel=5 note=62 velocity=0 time=4 
note_on channel=5 note=62 velocity=73 time=32 
note_on channel=5 note=57 velocity=63 time=0 
note_on channel=5 note=66 velocity=71 time=0 
note_on channel=5 note=66 velocity=0 time=152 
note_on channel=5 note=62 velocity=0 time=0 
note_on channel=5 note=57 velocity=0 time=4 
note_on channel=5 note=62 velocity=77 time=32 
note_on channel=5 note=57 velocity=71 time=4 
note_on channel=5 note=66 velocity=72 time=0 
note_on channel=5 note=66 velocity=0 time=152 
note_on channel=5 note=57 velocity=0 time=0 
note_on channel=5 note=62 velocity=0 time=0 
note_on channel=5 note=57 velocity=67 time=40 
note_on channel=5 note=62 velocity=71 time=0 
note_on channel=5 note=66 velocity=63 time=0 
note_on channel=5 note=66 velocity=0 time=144 
note_on channel=5 note=62 velocity=0 time=0 
note_on channel=5 note=57 velocity=0 time=0 
note_on channel=5 note=57 velocity=67 time=44 
note_on channel=5 note=62 velocity=75 time=4 
note_on channel=5 note=66 velocity=73 time=0 
note_on channel=5 note=66 velocity=0 time=144 
note_on channel=5 note=62 velocity=0 time=0 
note_on channel=5 note=57 velocity=0 time=0 
note_on channel=5 note=57 velocity=71 time=48 
note_on channel=5 note=62 velocity=78 time=0 
note_on channel=5 note=66 velocity=69 time=0 
note_on channel=5 note=57 velocity=0 time=112 
note_on channel=5 note=66 velocity=0 time=8 
note_on channel=5 note=62 velocity=0 time=8 
note_on channel=5 note=62 velocity=79 time=60 
note_on channel=5 note=59 velocity=67 time=4 
note_on channel=5 note=66 velocity=73 time=0 
note_on channel=5 note=66 velocity=0 time=144 
note_on channel=5 note=59 velocity=0 time=0 
note_on channel=5 note=62 velocity=0 time=0 
note_on channel=5 note=59 velocity=72 time=48 
note_on channel=5 note=62 velocity=75 time=0 
note_on channel=5 note=66 velocity=75 time=0 
note_on channel=5 note=66 velocity=0 time=156 
note_on channel=5 note=62 velocity=0 time=0 
note_on channel=5 note=59 velocity=0 time=0 
note_on channel=5 note=59 velocity=69 time=36 
note_on channel=5 note=62 velocity=79 time=0 
note_on channel=5 note=66 velocity=72 time=0 
note_on channel=5 note=66 velocity=0 time=136 
note_on channel=5 note=59 velocity=0 time=0 
note_on channel=5 note=62 velocity=0 time=4 
note_on channel=5 note=59 velocity=66 time=52 
note_on channel=5 note=62 velocity=74 time=0 
note_on channel=5 note=66 velocity=72 time=0 
note_on channel=5 note=66 velocity=0 time=120 
note_on channel=5 note=59 velocity=0 time=4 
note_on channel=5 note=62 velocity=0 time=4 
note_on channel=5 note=57 velocity=71 time=64 
note_on channel=5 note=61 velocity=78 time=0 
note_on channel=5 note=64 velocity=77 time=0 
note_on channel=5 note=64 velocity=0 time=148 
note_on channel=5 note=57 velocity=0 time=0 
note_on channel=5 note=61 velocity=0 time=4 
note_on channel=5 note=57 velocity=72 time=40 
note_on channel=5 note=61 velocity=75 time=0 
note_on channel=5 note=64 velocity=77 time=0 
note_on channel=5 note=64 velocity=0 time=136 
note_on channel=5 note=61 velocity=0 time=8 
note_on channel=5 note=57 velocity=0 time=0 
note_on channel=5 note=57 velocity=71 time=48 
note_on channel=5 note=61 velocity=72 time=0 
note_on channel=5 note=64 velocity=74 time=0 
note_on channel=5 note=64 velocity=0 time=136 
note_on channel=5 note=61 velocity=0 time=4 
note_on channel=5 note=57 velocity=0 time=0 
note_on channel=5 note=57 velocity=76 time=52 
note_on channel=5 note=61 velocity=82 time=0 
note_on channel=5 note=64 velocity=76 time=0 
note_on channel=5 note=57 velocity=0 time=124 
note_on channel=5 note=61 velocity=0 time=4 
note_on channel=5 note=64 velocity=0 time=8 
note_on channel=5 note=59 velocity=73 time=56 
note_on channel=5 note=62 velocity=81 time=0 
note_on channel=5 note=67 velocity=82 time=0 
note_on channel=5 note=67 velocity=0 time=144 
note_on channel=5 note=62 velocity=0 time=0 
note_on channel=5 note=59 velocity=0 time=0 
note_on channel=5 note=59 velocity=75 time=48 
note_on channel=5 note=62 velocity=81 time=0 
note_on channel=5 note=67 velocity=81 time=0 
note_on channel=5 note=67 velocity=0 time=136 
note_on channel=5 note=59 velocity=0 time=0 
note_on channel=5 note=62 velocity=0 time=8 
note_on channel=5 note=57 velocity=78 time=48 
note_on channel=5 note=62 velocity=82 time=0 
note_on channel=5 note=66 velocity=74 time=0 
note_on channel=5 note=66 velocity=0 time=140 
note_on channel=5 note=62 velocity=0 time=4 
note_on channel=5 note=57 velocity=0 time=0 
note_on channel=5 note=57 velocity=75 time=48 
note_on channel=5 note=62 velocity=76 time=0 
note_on channel=5 note=66 velocity=73 time=0 
note_on channel=5 note=66 velocity=0 time=140 
note_on channel=5 note=57 velocity=0 time=0 
note_on channel=5 note=62 velocity=0 time=4 
note_on channel=5 note=57 velocity=73 time=48 
note_on channel=5 note=62 velocity=75 time=0 
note_on channel=5 note=66 velocity=71 time=0 
note_on channel=5 note=57 velocity=0 time=136 
note_on channel=5 note=66 velocity=0 time=4 
note_on channel=5 note=62 velocity=0 time=4 
note_on channel=5 note=57 velocity=78 time=48 
note_on channel=5 note=62 velocity=81 time=0 
note_on channel=5 note=66 velocity=77 time=0 
note_on channel=5 note=57 velocity=0 time=144 
note_on channel=5 note=66 velocity=0 time=4 
note_on channel=5 note=62 velocity=0 time=4 
note_on channel=5 note=57 velocity=79 time=40 
note_on channel=5 note=62 velocity=78 time=0 
note_on channel=5 note=66 velocity=71 time=0 
note_on channel=5 note=66 velocity=0 time=140 
note_on channel=5 note=57 velocity=0 time=0 
note_on channel=5 note=62 velocity=0 time=4 
note_on channel=5 note=57 velocity=79 time=48 
note_on channel=5 note=62 velocity=82 time=0 
note_on channel=5 note=66 velocity=78 time=0 
note_on channel=5 note=57 velocity=0 time=116 
note_on channel=5 note=66 velocity=0 time=4 
note_on channel=5 note=62 velocity=0 time=0 
note_on channel=5 note=61 velocity=82 time=72 
note_on channel=5 note=57 velocity=74 time=0 
note_on channel=5 note=64 velocity=79 time=0 
note_on channel=5 note=64 velocity=0 time=136 
note_on channel=5 note=57 velocity=0 time=0 
note_on channel=5 note=61 velocity=0 time=8 
note_on channel=5 note=57 velocity=82 time=48 
note_on channel=5 note=61 velocity=82 time=0 
note_on channel=5 note=64 velocity=78 time=0 
note_on channel=5 note=64 velocity=0 time=128 
note_on channel=5 note=61 velocity=0 time=8 
note_on channel=5 note=57 velocity=0 time=0 
note_on channel=5 note=57 velocity=81 time=56 
note_on channel=5 note=61 velocity=82 time=0 
note_on channel=5 note=64 velocity=81 time=0 
note_on channel=5 note=64 velocity=0 time=140 
note_on channel=5 note=57 velocity=0 time=4 
note_on channel=5 note=61 velocity=0 time=8 
note_on channel=5 note=57 velocity=81 time=40 
note_on channel=5 note=61 velocity=82 time=0 
note_on channel=5 note=64 velocity=79 time=0 
note_on channel=5 note=64 velocity=0 time=112 
note_on channel=5 note=61 velocity=0 time=8 
note_on channel=5 note=57 velocity=0 time=0 
note_on channel=5 note=59 velocity=71 time=72 
note_on channel=5 note=62 velocity=79 time=0 
note_on channel=5 note=66 velocity=75 time=0 
note_on channel=5 note=66 velocity=0 time=132 
note_on channel=5 note=62 velocity=0 time=0 
note_on channel=5 note=59 velocity=0 time=4 
note_on channel=5 note=59 velocity=79 time=56 
note_on channel=5 note=62 velocity=82 time=0 
note_on channel=5 note=66 velocity=79 time=0 
note_on channel=5 note=66 velocity=0 time=144 
note_on channel=5 note=62 velocity=0 time=0 
note_on channel=5 note=59 velocity=0 time=0 
note_on channel=5 note=59 velocity=73 time=48 
note_on channel=5 note=62 velocity=82 time=0 
note_on channel=5 note=66 velocity=80 time=0 
note_on channel=5 note=66 velocity=0 time=144 
note_on channel=5 note=62 velocity=0 time=0 
note_on channel=5 note=59 velocity=0 time=0 
note_on channel=5 note=62 velocity=82 time=48 
note_on channel=5 note=59 velocity=71 time=0 
note_on channel=5 note=66 velocity=74 time=0 
note_on channel=5 note=66 velocity=0 time=124 
note_on channel=5 note=59 velocity=0 time=4 
note_on channel=5 note=62 velocity=0 time=8 
note_on channel=5 note=59 velocity=66 time=56 
note_on channel=5 note=62 velocity=75 time=0 
note_on channel=5 note=67 velocity=78 time=0 
note_on channel=5 note=67 velocity=0 time=136 
note_on channel=5 note=62 velocity=0 time=8 
note_on channel=5 note=59 velocity=0 time=4 
note_on channel=5 note=62 velocity=77 time=40 
note_on channel=5 note=59 velocity=66 time=4 
note_on channel=5 note=67 velocity=79 time=0 
note_on channel=5 note=67 velocity=0 time=144 
note_on channel=5 note=59 velocity=0 time=0 
note_on channel=5 note=62 velocity=0 time=0 
note_on channel=5 note=62 velocity=76 time=48 
note_on channel=5 note=59 velocity=70 time=0 
note_on channel=5 note=67 velocity=81 time=0 
note_on channel=5 note=67 velocity=0 time=144 
note_on channel=5 note=59 velocity=0 time=0 
note_on channel=5 note=62 velocity=0 time=0 
note_on channel=5 note=59 velocity=69 time=48 
note_on channel=5 note=62 velocity=78 time=0 
note_on channel=5 note=67 velocity=81 time=0 
note_on channel=5 note=67 velocity=0 time=120 
note_on channel=5 note=62 velocity=0 time=8 
note_on channel=5 note=59 velocity=0 time=0 
note_on channel=5 note=57 velocity=74 time=64 
note_on channel=5 note=62 velocity=77 time=0 
note_on channel=5 note=66 velocity=73 time=0 
note_on channel=5 note=66 velocity=0 time=136 
note_on channel=5 note=62 velocity=0 time=0 
note_on channel=5 note=57 velocity=0 time=4 
note_on channel=5 note=57 velocity=74 time=52 
note_on channel=5 note=62 velocity=78 time=0 
note_on channel=5 note=66 velocity=74 time=0 
note_on channel=5 note=66 velocity=0 time=128 
note_on channel=5 note=62 velocity=0 time=8 
note_on channel=5 note=57 velocity=0 time=0 
note_on channel=5 note=57 velocity=81 time=52 
note_on channel=5 note=62 velocity=80 time=4 
note_on channel=5 note=66 velocity=73 time=0 
note_on channel=5 note=66 velocity=0 time=120 
note_on channel=5 note=62 velocity=0 time=8 
note_on channel=5 note=57 velocity=0 time=0 
note_on channel=5 note=57 velocity=73 time=64 
note_on channel=5 note=62 velocity=74 time=0 
note_on channel=5 note=66 velocity=72 time=0 
note_on channel=5 note=66 velocity=0 time=104 
note_on channel=5 note=62 velocity=0 time=8 
note_on channel=5 note=57 velocity=0 time=0 
note_on channel=5 note=61 velocity=74 time=80 
note_on channel=5 note=57 velocity=71 time=0 
note_on channel=5 note=64 velocity=75 time=0 
note_on channel=5 note=64 velocity=0 time=128 
note_on channel=5 note=57 velocity=0 time=0 
note_on channel=5 note=61 velocity=0 time=8 
note_on channel=5 note=57 velocity=82 time=56 
note_on channel=5 note=61 velocity=82 time=0 
note_on channel=5 note=64 velocity=80 time=0 
note_on channel=5 note=64 velocity=0 time=144 
note_on channel=5 note=57 velocity=0 time=0 
note_on channel=5 note=61 velocity=0 time=4 
note_on channel=5 note=57 velocity=73 time=40 
note_on channel=5 note=61 velocity=79 time=4 
note_on channel=5 note=64 velocity=77 time=0 
note_on channel=5 note=64 velocity=0 time=128 
note_on channel=5 note=57 velocity=0 time=8 
note_on channel=5 note=61 velocity=0 time=8 
note_on channel=5 note=61 velocity=82 time=48 
note_on channel=5 note=57 velocity=78 time=0 
note_on channel=5 note=64 velocity=80 time=0 
note_on channel=5 note=57 velocity=0 time=120 
note_on channel=5 note=61 velocity=0 time=0 
note_on channel=5 note=64 velocity=0 time=8 
note_on channel=5 note=59 velocity=65 time=64 
note_on channel=5 note=62 velocity=79 time=0 
note_on channel=5 note=67 velocity=75 time=0 
note_on channel=5 note=67 velocity=0 time=128 
note_on channel=5 note=62 velocity=0 time=0 
note_on channel=5 note=59 velocity=0 time=0 
note_on channel=5 note=59 velocity=72 time=64 
note_on channel=5 note=62 velocity=82 time=0 
note_on channel=5 note=67 velocity=82 time=0 
note_on channel=5 note=67 velocity=0 time=132 
note_on channel=5 note=62 velocity=0 time=4 
note_on channel=5 note=59 velocity=0 time=0 
note_on channel=5 note=59 velocity=73 time=52 
note_on channel=5 note=62 velocity=82 time=4 
note_on channel=5 note=67 velocity=82 time=0 
note_on channel=5 note=67 velocity=0 time=136 
note_on channel=5 note=62 velocity=0 time=0 
note_on channel=5 note=59 velocity=0 time=0 
note_on channel=5 note=59 velocity=71 time=56 
note_on channel=5 note=62 velocity=81 time=0 
note_on channel=5 note=67 velocity=81 time=0 
note_on channel=5 note=59 velocity=0 time=112 
note_on channel=5 note=67 velocity=0 time=8 
note_on channel=5 note=62 velocity=0 time=0 
note_on channel=5 note=62 velocity=80 time=68 
note_on channel=5 note=57 velocity=70 time=4 
note_on channel=5 note=66 velocity=72 time=0 
note_on channel=5 note=66 velocity=0 time=112 
note_on channel=5 note=57 velocity=0 time=12 
note_on channel=5 note=62 velocity=0 time=0 
note_on channel=5 note=57 velocity=74 time=68 
note_on channel=5 note=62 velocity=82 time=0 
note_on channel=5 note=66 velocity=69 time=0 
note_on channel=5 note=66 velocity=0 time=128 
note_on channel=5 note=57 velocity=0 time=8 
note_on channel=5 note=62 velocity=0 time=8 
note_on channel=5 note=57 velocity=76 time=48 
note_on channel=5 note=62 velocity=82 time=0 
note_on channel=5 note=66 velocity=77 time=0 
note_on channel=5 note=66 velocity=0 time=136 
note_on channel=5 note=62 velocity=0 time=8 
note_on channel=5 note=57 velocity=0 time=0 
note_on channel=5 note=66 velocity=82 time=44 
note_on channel=5 note=57 velocity=82 time=4 
note_on channel=5 note=62 velocity=82 time=0 
note_on channel=5 note=66 velocity=0 time=108 
note_on channel=5 note=62 velocity=0 time=4 
note_on channel=5 note=57 velocity=0 time=0 
note_on channel=5 note=59 velocity=67 time=80 
note_on channel=5 note=62 velocity=72 time=0 
note_on channel=5 note=66 velocity=72 time=0 
note_on channel=5 note=62 velocity=0 time=128 
note_on channel=5 note=66 velocity=0 time=4 
note_on channel=5 note=59 velocity=0 time=0 
note_on channel=5 note=59 velocity=82 time=60 
note_on channel=5 note=62 velocity=82 time=0 
note_on channel=5 note=66 velocity=82 time=0 
note_on channel=5 note=66 velocity=0 time=112 
note_on channel=5 note=62 velocity=0 time=8 
note_on channel=5 note=59 velocity=0 time=0 
note_on channel=5 note=57 velocity=69 time=72 
note_on channel=5 note=61 velocity=79 time=0 
note_on channel=5 note=64 velocity=80 time=0 
note_on channel=5 note=64 velocity=0 time=136 
note_on channel=5 note=57 velocity=0 time=8 
note_on channel=5 note=61 velocity=0 time=4 
note_on channel=5 note=57 velocity=77 time=44 
note_on channel=5 note=61 velocity=81 time=0 
note_on channel=5 note=64 velocity=78 time=0 
note_on channel=5 note=64 velocity=0 time=128 
note_on channel=5 note=57 velocity=0 time=0 
note_on channel=5 note=61 velocity=0 time=8 
note_on channel=5 note=57 velocity=77 time=56 
note_on channel=5 note=62 velocity=80 time=0 
note_on channel=5 note=66 velocity=73 time=0 
note_on channel=5 note=66 velocity=0 time=144 
note_on channel=5 note=62 velocity=0 time=0 
note_on channel=5 note=57 velocity=0 time=0 
note_on channel=5 note=57 velocity=79 time=48 
note_on channel=5 note=62 velocity=82 time=0 
note_on channel=5 note=66 velocity=79 time=0 
note_on channel=5 note=66 velocity=0 time=136 
note_on channel=5 note=62 velocity=0 time=0 
note_on channel=5 note=57 velocity=0 time=0 
note_on channel=5 note=66 velocity=79 time=52 
note_on channel=5 note=57 velocity=81 time=4 
note_on channel=5 note=62 velocity=82 time=0 
note_on channel=5 note=57 velocity=0 time=128 
note_on channel=5 note=66 velocity=0 time=0 
note_on channel=5 note=62 velocity=0 time=4 
note_on channel=5 note=57 velocity=77 time=60 
note_on channel=5 note=62 velocity=80 time=0 
note_on channel=5 note=66 velocity=79 time=0 
note_on channel=5 note=66 velocity=0 time=128 
note_on channel=5 note=57 velocity=0 time=0 
note_on channel=5 note=62 velocity=0 time=8 
note_on channel=5 note=62 velocity=80 time=56 
note_on channel=5 note=59 velocity=71 time=0 
note_on channel=5 note=67 velocity=80 time=0 
note_on channel=5 note=67 velocity=0 time=136 
note_on channel=5 note=62 velocity=0 time=0 
note_on channel=5 note=59 velocity=0 time=8 
note_on channel=5 note=59 velocity=71 time=44 
note_on channel=5 note=62 velocity=78 time=4 
note_on channel=5 note=67 velocity=81 time=0 
note_on channel=5 note=62 velocity=0 time=128 
note_on channel=5 note=59 velocity=0 time=0 
note_on channel=5 note=67 velocity=0 time=8 
note_on channel=5 note=66 velocity=78 time=52 
note_on channel=5 note=57 velocity=75 time=4 
note_on channel=5 note=62 velocity=82 time=0 
note_on channel=5 note=62 velocity=0 time=136 
note_on channel=5 note=57 velocity=0 time=0 
note_on channel=5 note=66 velocity=0 time=0 
note_on channel=5 note=57 velocity=77 time=56 
note_on channel=5 note=62 velocity=82 time=0 
note_on channel=5 note=66 velocity=73 time=0 
note_on channel=5 note=66 velocity=0 time=128 
note_on channel=5 note=62 velocity=0 time=0 
note_on channel=5 note=57 velocity=0 time=0 
note_on channel=5 note=57 velocity=74 time=64 
note_on channel=5 note=61 velocity=75 time=0 
note_on channel=5 note=64 velocity=72 time=0 
note_on channel=5 note=64 velocity=0 time=140 
note_on channel=5 note=57 velocity=0 time=4 
note_on channel=5 note=61 velocity=0 time=12 
note_on channel=5 note=61 velocity=78 time=32 
note_on channel=5 note=57 velocity=71 time=4 
note_on channel=5 note=64 velocity=73 time=0 
note_on channel=5 note=64 velocity=0 time=152 
note_on channel=5 note=57 velocity=0 time=0 
note_on channel=5 note=61 velocity=0 time=4 
note_on channel=5 note=61 velocity=79 time=32 
note_on channel=5 note=57 velocity=75 time=4 
note_on channel=5 note=64 velocity=77 time=0 
note_on channel=5 note=64 velocity=0 time=136 
note_on channel=5 note=57 velocity=0 time=0 
note_on channel=5 note=61 velocity=0 time=8 
note_on channel=5 note=57 velocity=78 time=48 
note_on channel=5 note=61 velocity=82 time=0 
note_on channel=5 note=64 velocity=81 time=0 
note_on channel=5 note=64 velocity=0 time=112 
note_on channel=5 note=57 velocity=0 time=0 
note_on channel=5 note=61 velocity=0 time=8 
note_on channel=5 note=59 velocity=74 time=72 
note_on channel=5 note=62 velocity=81 time=0 
note_on channel=5 note=66 velocity=74 time=0 
note_on channel=5 note=66 velocity=0 time=144 
note_on channel=5 note=62 velocity=0 time=0 
note_on channel=5 note=59 velocity=0 time=0 
note_on channel=5 note=59 velocity=71 time=48 
note_on channel=5 note=62 velocity=82 time=0 
note_on channel=5 note=66 velocity=77 time=0 
note_on channel=5 note=66 velocity=0 time=132 
note_on channel=5 note=59 velocity=0 time=0 
note_on channel=5 note=62 velocity=0 time=4 
note_on channel=5 note=55 velocity=76 time=56 
note_on channel=5 note=60 velocity=75 time=0 
note_on channel=5 note=64 velocity=76 time=0 
note_on channel=5 note=64 velocity=0 time=144 
note_on channel=5 note=60 velocity=0 time=0 
note_on channel=5 note=55 velocity=0 time=4 
note_on channel=5 note=55 velocity=70 time=44 
note_on channel=5 note=60 velocity=75 time=0 
note_on channel=5 note=64 velocity=76 time=0 
note_on channel=5 note=64 velocity=0 time=128 
note_on channel=5 note=60 velocity=0 time=4 
note_on channel=5 note=55 velocity=0 time=0 
note_on channel=5 note=55 velocity=72 time=56 
note_on channel=5 note=59 velocity=73 time=4 
note_on channel=5 note=62 velocity=76 time=0 
note_on channel=5 note=62 velocity=0 time=144 
note_on channel=5 note=59 velocity=0 time=0 
note_on channel=5 note=55 velocity=0 time=0 
note_on channel=5 note=55 velocity=73 time=44 
note_on channel=5 note=59 velocity=79 time=4 
note_on channel=5 note=62 velocity=81 time=0 
note_on channel=5 note=62 velocity=0 time=128 
note_on channel=5 note=59 velocity=0 time=0 
note_on channel=5 note=55 velocity=0 time=0 
note_on channel=5 note=62 velocity=80 time=64 
note_on channel=5 note=57 velocity=76 time=0 
note_on channel=5 note=66 velocity=74 time=0 
note_on channel=5 note=66 velocity=0 time=136 
note_on channel=5 note=62 velocity=0 time=0 
note_on channel=5 note=57 velocity=0 time=8 
note_on channel=5 note=62 velocity=82 time=48 
note_on channel=5 note=57 velocity=79 time=0 
note_on channel=5 note=66 velocity=79 time=0 
note_on channel=5 note=66 velocity=0 time=136 
note_on channel=5 note=57 velocity=0 time=0 
note_on channel=5 note=62 velocity=0 time=0 
note_on channel=5 note=64 velocity=80 time=52 
note_on channel=5 note=57 velocity=73 time=4 
note_on channel=5 note=61 velocity=82 time=0 
note_on channel=5 note=57 velocity=0 time=144 
note_on channel=5 note=64 velocity=0 time=0 
note_on channel=5 note=61 velocity=0 time=12 
note_on channel=5 note=61 velocity=73 time=36 
note_on channel=5 note=57 velocity=75 time=0 
note_on channel=5 note=64 velocity=76 time=0 
note_on channel=5 note=64 velocity=0 time=144 
note_on channel=5 note=61 velocity=0 time=0 
note_on channel=5 note=57 velocity=0 time=4 
note_on channel=5 note=57 velocity=82 time=44 
note_on channel=5 note=61 velocity=82 time=0 
note_on channel=5 note=64 velocity=80 time=0 
note_on channel=5 note=64 velocity=0 time=136 
note_on channel=5 note=61 velocity=0 time=8 
note_on channel=5 note=57 velocity=0 time=0 
note_on channel=5 note=61 velocity=82 time=44 
note_on channel=5 note=57 velocity=78 time=4 
note_on channel=5 note=64 velocity=82 time=0 
note_on channel=5 note=61 velocity=0 time=140 
note_on channel=5 note=64 velocity=0 time=4 
note_on channel=5 note=57 velocity=0 time=0 
note_on channel=5 note=57 velocity=82 time=48 
note_on channel=5 note=61 velocity=82 time=0 
note_on channel=5 note=64 velocity=82 time=0 
note_on channel=5 note=64 velocity=0 time=128 
note_on channel=5 note=57 velocity=0 time=0 
note_on channel=5 note=61 velocity=0 time=8 
note_on channel=5 note=57 velocity=82 time=56 
note_on channel=5 note=61 velocity=82 time=0 
note_on channel=5 note=64 velocity=82 time=0 
note_on channel=5 note=64 velocity=0 time=152 
note_on channel=5 note=57 velocity=0 time=0 
note_on channel=5 note=61 velocity=0 time=8 
note_on channel=5 note=57 velocity=82 time=32 
note_on channel=5 note=61 velocity=82 time=0 
note_on channel=5 note=64 velocity=82 time=0 
note_on channel=5 note=57 velocity=0 time=328 
note_on channel=5 note=64 velocity=0 time=4 
note_on channel=5 note=61 velocity=0 time=0 
note_on channel=5 note=57 velocity=73 time=52 
note_on channel=5 note=62 velocity=82 time=0 
note_on channel=5 note=66 velocity=73 time=0 
note_on channel=5 note=62 velocity=0 time=140 
note_on channel=5 note=66 velocity=0 time=4 
note_on channel=5 note=57 velocity=0 time=0 
note_on channel=5 note=57 velocity=71 time=48 
note_on channel=5 note=62 velocity=82 time=0 
note_on channel=5 note=66 velocity=72 time=0 
note_on channel=5 note=66 velocity=0 time=152 
note_on channel=5 note=62 velocity=0 time=0 
note_on channel=5 note=57 velocity=0 time=8 
note_on channel=5 note=62 velocity=82 time=32 
note_on channel=5 note=57 velocity=73 time=0 
note_on channel=5 note=66 velocity=78 time=0 
note_on channel=5 note=66 velocity=0 time=128 
note_on channel=5 note=62 velocity=0 time=0 
note_on channel=5 note=57 velocity=0 time=8 
note_on channel=5 note=57 velocity=72 time=56 
note_on channel=5 note=62 velocity=76 time=0 
note_on channel=5 note=66 velocity=72 time=0 
note_on channel=5 note=66 velocity=0 time=120 
note_on channel=5 note=62 velocity=0 time=0 
note_on channel=5 note=57 velocity=0 time=0 
note_on channel=5 note=57 velocity=76 time=72 
note_on channel=5 note=61 velocity=73 time=0 
note_on channel=5 note=64 velocity=77 time=0 
note_on channel=5 note=64 velocity=0 time=128 
note_on channel=5 note=61 velocity=0 time=0 
note_on channel=5 note=57 velocity=0 time=0 
note_on channel=5 note=57 velocity=79 time=64 
note_on channel=5 note=61 velocity=82 time=0 
note_on channel=5 note=64 velocity=81 time=0 
note_on channel=5 note=64 velocity=0 time=128 
note_on channel=5 note=61 velocity=0 time=0 
note_on channel=5 note=57 velocity=0 time=0 
note_on channel=5 note=61 velocity=82 time=64 
note_on channel=5 note=57 velocity=77 time=0 
note_on channel=5 note=64 velocity=82 time=0 
note_on channel=5 note=64 velocity=0 time=136 
note_on channel=5 note=61 velocity=0 time=0 
note_on channel=5 note=57 velocity=0 time=4 
note_on channel=5 note=57 velocity=74 time=52 
note_on channel=5 note=61 velocity=79 time=0 
note_on channel=5 note=64 velocity=74 time=0 
note_on channel=5 note=64 velocity=0 time=112 
note_on channel=5 note=61 velocity=0 time=8 
note_on channel=5 note=57 velocity=0 time=0 
note_on channel=5 note=59 velocity=71 time=72 
note_on channel=5 note=62 velocity=82 time=0 
note_on channel=5 note=66 velocity=82 time=0 
note_on channel=5 note=66 velocity=0 time=136 
note_on channel=5 note=62 velocity=0 time=0 
note_on channel=5 note=59 velocity=0 time=0 
note_on channel=5 note=59 velocity=77 time=56 
note_on channel=5 note=62 velocity=82 time=0 
note_on channel=5 note=66 velocity=81 time=0 
note_on channel=5 note=62 velocity=0 time=144 
note_on channel=5 note=66 velocity=0 time=4 
note_on channel=5 note=59 velocity=0 time=0 
note_on channel=5 note=59 velocity=77 time=44 
note_on channel=5 note=62 velocity=82 time=0 
note_on channel=5 note=66 velocity=82 time=0 
note_on channel=5 note=66 velocity=0 time=144 
note_on channel=5 note=62 velocity=0 time=0 
note_on channel=5 note=59 velocity=0 time=0 
note_on channel=5 note=59 velocity=73 time=48 
note_on channel=5 note=62 velocity=82 time=0 
note_on channel=5 note=66 velocity=78 time=0 
note_on channel=5 note=59 velocity=0 time=128 
note_on channel=5 note=66 velocity=0 time=4 
note_on channel=5 note=62 velocity=0 time=4 
note_on channel=5 note=62 velocity=80 time=56 
note_on channel=5 note=59 velocity=71 time=0 
note_on channel=5 note=67 velocity=82 time=0 
note_on channel=5 note=67 velocity=0 time=136 
note_on channel=5 note=62 velocity=0 time=4 
note_on channel=5 note=59 velocity=0 time=4 
note_on channel=5 note=67 velocity=79 time=44 
note_on channel=5 note=59 velocity=70 time=4 
note_on channel=5 note=62 velocity=81 time=0 
note_on channel=5 note=62 velocity=0 time=152 
note_on channel=5 note=59 velocity=0 time=0 
note_on channel=5 note=67 velocity=0 time=0 
note_on channel=5 note=59 velocity=71 time=40 
note_on channel=5 note=62 velocity=82 time=0 
note_on channel=5 note=67 velocity=80 time=0 
note_on channel=5 note=62 velocity=0 time=144 
note_on channel=5 note=67 velocity=0 time=4 
note_on channel=5 note=59 velocity=0 time=4 
note_on channel=5 note=62 velocity=79 time=40 
note_on channel=5 note=59 velocity=67 time=0 
note_on channel=5 note=67 velocity=71 time=0 
note_on channel=5 note=59 velocity=0 time=128 
note_on channel=5 note=67 velocity=0 time=8 
note_on channel=5 note=62 velocity=0 time=0 
note_on channel=5 note=57 velocity=71 time=56 
note_on channel=5 note=62 velocity=82 time=0 
note_on channel=5 note=66 velocity=72 time=0 
note_on channel=5 note=66 velocity=0 time=136 
note_on channel=5 note=62 velocity=0 time=8 
note_on channel=5 note=57 velocity=0 time=0 
note_on channel=5 note=57 velocity=68 time=48 
note_on channel=5 note=62 velocity=71 time=0 
note_on channel=5 note=66 velocity=67 time=0 
note_on channel=5 note=62 velocity=0 time=144 
note_on channel=5 note=57 velocity=0 time=0 
note_on channel=5 note=66 velocity=0 time=8 
note_on channel=5 note=57 velocity=75 time=36 
note_on channel=5 note=62 velocity=81 time=4 
note_on channel=5 note=66 velocity=71 time=0 
note_on channel=5 note=57 velocity=0 time=136 
note_on channel=5 note=66 velocity=0 time=8 
note_on channel=5 note=62 velocity=0 time=0 
note_on channel=5 note=57 velocity=74 time=48 
note_on channel=5 note=62 velocity=78 time=0 
note_on channel=5 note=66 velocity=77 time=0 
note_on channel=5 note=66 velocity=0 time=120 
note_on channel=5 note=62 velocity=0 time=0 
note_on channel=5 note=57 velocity=0 time=0 
note_on channel=5 note=61 velocity=71 time=72 
note_on channel=5 note=57 velocity=70 time=0 
note_on channel=5 note=64 velocity=77 time=0 
note_on channel=5 note=64 velocity=0 time=144 
note_on channel=5 note=57 velocity=0 time=0 
note_on channel=5 note=61 velocity=0 time=0 
note_on channel=5 note=57 velocity=73 time=48 
note_on channel=5 note=61 velocity=81 time=0 
note_on channel=5 note=64 velocity=79 time=0 
note_on channel=5 note=64 velocity=0 time=144 
note_on channel=5 note=57 velocity=0 time=0 
note_on channel=5 note=61 velocity=0 time=4 
note_on channel=5 note=57 velocity=70 time=44 
note_on channel=5 note=61 velocity=73 time=0 
note_on channel=5 note=64 velocity=76 time=0 
note_on channel=5 note=64 velocity=0 time=144 
note_on channel=5 note=57 velocity=0 time=0 
note_on channel=5 note=61 velocity=0 time=4 
note_on channel=5 note=57 velocity=71 time=44 
note_on channel=5 note=61 velocity=69 time=0 
note_on channel=5 note=64 velocity=78 time=0 
note_on channel=5 note=57 velocity=0 time=128 
note_on channel=5 note=64 velocity=0 time=8 
note_on channel=5 note=61 velocity=0 time=0 
note_on channel=5 note=59 velocity=67 time=56 
note_on channel=5 note=62 velocity=76 time=0 
note_on channel=5 note=67 velocity=81 time=0 
note_on channel=5 note=67 velocity=0 time=152 
note_on channel=5 note=62 velocity=0 time=0 
note_on channel=5 note=59 velocity=0 time=0 
note_on channel=5 note=62 velocity=78 time=40 
note_on channel=5 note=59 velocity=68 time=0 
note_on channel=5 note=67 velocity=79 time=0 
note_on channel=5 note=67 velocity=0 time=168 
note_on channel=5 note=62 velocity=0 time=0 
note_on channel=5 note=59 velocity=0 time=8 
note_on channel=5 note=59 velocity=74 time=12 
note_on channel=5 note=62 velocity=81 time=4 
note_on channel=5 note=67 velocity=82 time=0 
note_on channel=5 note=67 velocity=0 time=152 
note_on channel=5 note=62 velocity=0 time=0 
note_on channel=5 note=59 velocity=0 time=4 
note_on channel=5 note=62 velocity=81 time=36 
note_on channel=5 note=59 velocity=66 time=0 
note_on channel=5 note=67 velocity=76 time=0 
note_on channel=5 note=67 velocity=0 time=148 
note_on channel=5 note=62 velocity=0 time=4 
note_on channel=5 note=59 velocity=0 time=8 
note_on channel=5 note=57 velocity=71 time=32 
note_on channel=5 note=62 velocity=72 time=0 
note_on channel=5 note=66 velocity=71 time=0 
note_on channel=5 note=66 velocity=0 time=136 
note_on channel=5 note=62 velocity=0 time=8 
note_on channel=5 note=57 velocity=0 time=0 
note_on channel=5 note=57 velocity=73 time=48 
note_on channel=5 note=62 velocity=80 time=0 
note_on channel=5 note=66 velocity=73 time=0 
note_on channel=5 note=66 velocity=0 time=144 
note_on channel=5 note=62 velocity=0 time=8 
note_on channel=5 note=57 velocity=0 time=0 
note_on channel=5 note=62 velocity=82 time=40 
note_on channel=5 note=57 velocity=78 time=0 
note_on channel=5 note=66 velocity=78 time=0 
note_on channel=5 note=66 velocity=0 time=136 
note_on channel=5 note=57 velocity=0 time=8 
note_on channel=5 note=62 velocity=0 time=0 
note_on channel=5 note=57 velocity=78 time=48 
note_on channel=5 note=62 velocity=82 time=0 
note_on channel=5 note=66 velocity=77 time=0 
note_on channel=5 note=66 velocity=0 time=140 
note_on channel=5 note=62 velocity=0 time=4 
note_on channel=5 note=57 velocity=0 time=0 
note_on channel=5 note=57 velocity=73 time=48 
note_on channel=5 note=62 velocity=82 time=0 
note_on channel=5 note=66 velocity=76 time=0 
note_on channel=5 note=66 velocity=0 time=128 
note_on channel=5 note=62 velocity=0 time=0 
note_on channel=5 note=57 velocity=0 time=0 
note_on channel=5 note=57 velocity=76 time=64 
note_on channel=5 note=62 velocity=82 time=0 
note_on channel=5 note=66 velocity=77 time=0 
note_on channel=5 note=66 velocity=0 time=136 
note_on channel=5 note=57 velocity=0 time=0 
note_on channel=5 note=62 velocity=0 time=4 
note_on channel=5 note=62 velocity=80 time=52 
note_on channel=5 note=57 velocity=73 time=0 
note_on channel=5 note=66 velocity=78 time=0 
note_on channel=5 note=66 velocity=0 time=128 
note_on channel=5 note=57 velocity=0 time=8 
note_on channel=5 note=62 velocity=0 time=0 
note_on channel=5 note=57 velocity=77 time=56 
note_on channel=5 note=62 velocity=82 time=0 
note_on channel=5 note=66 velocity=79 time=0 
note_on channel=5 note=66 velocity=0 time=120 
note_on channel=5 note=62 velocity=0 time=0 
note_on channel=5 note=57 velocity=0 time=0 
note_on channel=5 note=57 velocity=82 time=72 
note_on channel=5 note=61 velocity=82 time=0 
note_on channel=5 note=64 velocity=82 time=0 
note_on channel=5 note=64 velocity=0 time=128 
note_on channel=5 note=57 velocity=0 time=0 
note_on channel=5 note=61 velocity=0 time=4 
note_on channel=5 note=61 velocity=82 time=56 
note_on channel=5 note=57 velocity=82 time=4 
note_on channel=5 note=64 velocity=82 time=0 
note_on channel=5 note=64 velocity=0 time=120 
note_on channel=5 note=57 velocity=0 time=8 
note_on channel=5 note=61 velocity=0 time=4 
note_on channel=5 note=57 velocity=77 time=60 
note_on channel=5 note=61 velocity=82 time=0 
note_on channel=5 note=64 velocity=72 time=0 
note_on channel=5 note=64 velocity=0 time=120 
note_on channel=5 note=61 velocity=0 time=0 
note_on channel=5 note=57 velocity=0 time=0 
note_on channel=5 note=57 velocity=82 time=68 
note_on channel=5 note=61 velocity=82 time=4 
note_on channel=5 note=64 velocity=79 time=0 
note_on channel=5 note=57 velocity=0 time=112 
note_on channel=5 note=64 velocity=0 time=4 
note_on channel=5 note=61 velocity=0 time=4 
note_on channel=5 note=59 velocity=77 time=72 
note_on channel=5 note=62 velocity=82 time=0 
note_on channel=5 note=66 velocity=81 time=0 
note_on channel=5 note=62 velocity=0 time=128 
note_on channel=5 note=59 velocity=0 time=0 
note_on channel=5 note=66 velocity=0 time=8 
note_on channel=5 note=59 velocity=67 time=56 
note_on channel=5 note=62 velocity=78 time=0 
note_on channel=5 note=66 velocity=80 time=0 
note_on channel=5 note=59 velocity=0 time=132 
note_on channel=5 note=62 velocity=0 time=4 
note_on channel=5 note=66 velocity=0 time=8 
note_on channel=5 note=59 velocity=74 time=48 
note_on channel=5 note=62 velocity=82 time=0 
note_on channel=5 note=66 velocity=71 time=0 
note_on channel=5 note=62 velocity=0 time=128 
note_on channel=5 note=59 velocity=0 time=0 
note_on channel=5 note=66 velocity=0 time=4 
note_on channel=5 note=59 velocity=67 time=60 
note_on channel=5 note=62 velocity=78 time=0 
note_on channel=5 note=66 velocity=75 time=0 
note_on channel=5 note=59 velocity=0 time=120 
note_on channel=5 note=66 velocity=0 time=8 
note_on channel=5 note=62 velocity=0 time=0 
note_on channel=5 note=59 velocity=75 time=64 
note_on channel=5 note=62 velocity=81 time=0 
note_on channel=5 note=67 velocity=79 time=0 
note_on channel=5 note=67 velocity=0 time=132 
note_on channel=5 note=62 velocity=0 time=12 
note_on channel=5 note=59 velocity=0 time=0 
note_on channel=5 note=62 velocity=77 time=48 
note_on channel=5 note=59 velocity=71 time=0 
note_on channel=5 note=67 velocity=81 time=0 
note_on channel=5 note=67 velocity=0 time=144 
note_on channel=5 note=62 velocity=0 time=0 
note_on channel=5 note=59 velocity=0 time=8 
note_on channel=5 note=62 velocity=80 time=40 
note_on channel=5 note=59 velocity=71 time=0 
note_on channel=5 note=67 velocity=82 time=0 
note_on channel=5 note=67 velocity=0 time=152 
note_on channel=5 note=62 velocity=0 time=0 
note_on channel=5 note=59 velocity=0 time=4 
note_on channel=5 note=59 velocity=68 time=36 
note_on channel=5 note=62 velocity=74 time=0 
note_on channel=5 note=67 velocity=77 time=0 
note_on channel=5 note=59 velocity=0 time=128 
note_on channel=5 note=67 velocity=0 time=8 
note_on channel=5 note=62 velocity=0 time=0 
note_on channel=5 note=57 velocity=75 time=56 
note_on channel=5 note=62 velocity=78 time=0 
note_on channel=5 note=66 velocity=75 time=0 
note_on channel=5 note=66 velocity=0 time=136 
note_on channel=5 note=62 velocity=0 time=8 
note_on channel=5 note=57 velocity=0 time=0 
note_on channel=5 note=57 velocity=67 time=48 
note_on channel=5 note=62 velocity=74 time=0 
note_on channel=5 note=66 velocity=74 time=0 
note_on channel=5 note=66 velocity=0 time=140 
note_on channel=5 note=62 velocity=0 time=4 
note_on channel=5 note=57 velocity=0 time=0 
note_on channel=5 note=62 velocity=75 time=48 
note_on channel=5 note=57 velocity=72 time=0 
note_on channel=5 note=66 velocity=74 time=0 
note_on channel=5 note=66 velocity=0 time=140 
note_on channel=5 note=62 velocity=0 time=0 
note_on channel=5 note=57 velocity=0 time=4 
note_on channel=5 note=66 velocity=79 time=44 
note_on channel=5 note=57 velocity=74 time=4 
note_on channel=5 note=62 velocity=82 time=0 
note_on channel=5 note=66 velocity=0 time=116 
note_on channel=5 note=62 velocity=0 time=8 
note_on channel=5 note=57 velocity=0 time=0 
note_on channel=5 note=57 velocity=73 time=68 
note_on channel=5 note=61 velocity=82 time=0 
note_on channel=5 note=64 velocity=77 time=0 
note_on channel=5 note=64 velocity=0 time=136 
note_on channel=5 note=61 velocity=0 time=0 
note_on channel=5 note=57 velocity=0 time=0 
note_on channel=5 note=61 velocity=82 time=56 
note_on channel=5 note=57 velocity=80 time=0 
note_on channel=5 note=64 velocity=76 time=0 
note_on channel=5 note=64 velocity=0 time=120 
note_on channel=5 note=57 velocity=0 time=8 
note_on channel=5 note=61 velocity=0 time=0 
note_on channel=5 note=57 velocity=82 time=64 
note_on channel=5 note=61 velocity=82 time=0 
note_on channel=5 note=64 velocity=82 time=0 
note_on channel=5 note=64 velocity=0 time=128 
note_on channel=5 note=61 velocity=0 time=0 
note_on channel=5 note=57 velocity=0 time=0 
note_on channel=5 note=61 velocity=82 time=64 
note_on channel=5 note=57 velocity=81 time=0 
note_on channel=5 note=64 velocity=82 time=0 
note_on channel=5 note=57 velocity=0 time=116 
note_on channel=5 note=61 velocity=0 time=0 
note_on channel=5 note=64 velocity=0 time=12 
note_on channel=5 note=59 velocity=74 time=64 
note_on channel=5 note=62 velocity=82 time=0 
note_on channel=5 note=67 velocity=82 time=0 
note_on channel=5 note=67 velocity=0 time=136 
note_on channel=5 note=62 velocity=0 time=0 
note_on channel=5 note=59 velocity=0 time=4 
note_on channel=5 note=59 velocity=74 time=52 
note_on channel=5 note=62 velocity=82 time=0 
note_on channel=5 note=67 velocity=82 time=0 
note_on channel=5 note=62 velocity=0 time=136 
note_on channel=5 note=67 velocity=0 time=8 
note_on channel=5 note=59 velocity=0 time=0 
note_on channel=5 note=67 velocity=82 time=44 
note_on channel=5 note=59 velocity=77 time=4 
note_on channel=5 note=62 velocity=82 time=0 
note_on channel=5 note=62 velocity=0 time=140 
note_on channel=5 note=59 velocity=0 time=4 
note_on channel=5 note=67 velocity=0 time=0 
note_on channel=5 note=62 velocity=82 time=48 
note_on channel=5 note=59 velocity=78 time=0 
note_on channel=5 note=67 velocity=82 time=0 
note_on channel=5 note=59 velocity=0 time=128 
note_on channel=5 note=62 velocity=0 time=0 
note_on channel=5 note=67 velocity=0 time=4 
note_on channel=5 note=57 velocity=82 time=56 
note_on channel=5 note=62 velocity=82 time=4 
note_on channel=5 note=66 velocity=79 time=0 
note_on channel=5 note=66 velocity=0 time=136 
note_on channel=5 note=57 velocity=0 time=0 
note_on channel=5 note=62 velocity=0 time=8 
note_on channel=5 note=57 velocity=79 time=48 
note_on channel=5 note=62 velocity=82 time=0 
note_on channel=5 note=66 velocity=79 time=0 
note_on channel=5 note=66 velocity=0 time=148 
note_on channel=5 note=62 velocity=0 time=4 
note_on channel=5 note=57 velocity=0 time=0 
note_on channel=5 note=57 velocity=80 time=36 
note_on channel=5 note=62 velocity=82 time=4 
note_on channel=5 note=66 velocity=77 time=0 
note_on channel=5 note=66 velocity=0 time=140 
note_on channel=5 note=62 velocity=0 time=4 
note_on channel=5 note=57 velocity=0 time=0 
note_on channel=5 note=62 velocity=82 time=48 
note_on channel=5 note=66 velocity=78 time=0 
note_on channel=5 note=57 velocity=82 time=4 
note_on channel=5 note=66 velocity=0 time=124 
note_on channel=5 note=62 velocity=0 time=0 
note_on channel=5 note=57 velocity=0 time=4 
note_on channel=5 note=61 velocity=82 time=60 
note_on channel=5 note=57 velocity=80 time=0 
note_on channel=5 note=64 velocity=77 time=0 
note_on channel=5 note=64 velocity=0 time=136 
note_on channel=5 note=57 velocity=0 time=4 
note_on channel=5 note=61 velocity=0 time=4 
note_on channel=5 note=61 velocity=78 time=48 
note_on channel=5 note=57 velocity=78 time=0 
note_on channel=5 note=64 velocity=78 time=0 
note_on channel=5 note=64 velocity=0 time=136 
note_on channel=5 note=57 velocity=0 time=8 
note_on channel=5 note=61 velocity=0 time=0 
note_on channel=5 note=61 velocity=82 time=44 
note_on channel=5 note=57 velocity=79 time=4 
note_on channel=5 note=64 velocity=82 time=0 
note_on channel=5 note=64 velocity=0 time=136 
note_on channel=5 note=57 velocity=0 time=4 
note_on channel=5 note=61 velocity=0 time=4 
note_on channel=5 note=61 velocity=82 time=48 
note_on channel=5 note=57 velocity=81 time=0 
note_on channel=5 note=64 velocity=80 time=0 
note_on channel=5 note=64 velocity=0 time=120 
note_on channel=5 note=57 velocity=0 time=0 
note_on channel=5 note=61 velocity=0 time=8 
note_on channel=5 note=62 velocity=80 time=64 
note_on channel=5 note=57 velocity=74 time=0 
note_on channel=5 note=66 velocity=70 time=0 
note_on channel=5 note=66 velocity=0 time=128 
note_on channel=5 note=57 velocity=0 time=8 
note_on channel=5 note=62 velocity=0 time=0 
note_on channel=5 note=57 velocity=78 time=56 
note_on channel=5 note=62 velocity=82 time=0 
note_on channel=5 note=66 velocity=76 time=0 
note_on channel=5 note=66 velocity=0 time=136 
note_on channel=5 note=57 velocity=0 time=4 
note_on channel=5 note=62 velocity=0 time=4 
note_on channel=5 note=57 velocity=74 time=48 
note_on channel=5 note=62 velocity=79 time=0 
note_on channel=5 note=66 velocity=77 time=0 
note_on channel=5 note=66 velocity=0 time=136 
note_on channel=5 note=62 velocity=0 time=0 
note_on channel=5 note=57 velocity=0 time=0 
note_on channel=5 note=57 velocity=79 time=56 
note_on channel=5 note=62 velocity=82 time=0 
note_on channel=5 note=66 velocity=76 time=0 
note_on channel=5 note=66 velocity=0 time=128 
note_on channel=5 note=62 velocity=0 time=0 
note_on channel=5 note=57 velocity=0 time=0 
note_on channel=5 note=57 velocity=75 time=64 
note_on channel=5 note=61 velocity=81 time=0 
note_on channel=5 note=64 velocity=76 time=0 
note_on channel=5 note=64 velocity=0 time=128 
note_on channel=5 note=61 velocity=0 time=8 
note_on channel=5 note=57 velocity=0 time=0 
note_on channel=5 note=57 velocity=82 time=56 
note_on channel=5 note=61 velocity=82 time=0 
note_on channel=5 note=64 velocity=78 time=0 
note_on channel=5 note=64 velocity=0 time=144 
note_on channel=5 note=57 velocity=0 time=0 
note_on channel=5 note=61 velocity=0 time=8 
note_on channel=5 note=57 velocity=82 time=40 
note_on channel=5 note=61 velocity=82 time=0 
note_on channel=5 note=64 velocity=79 time=0 
note_on channel=5 note=64 velocity=0 time=128 
note_on channel=5 note=61 velocity=0 time=8 
note_on channel=5 note=57 velocity=0 time=0 
note_on channel=5 note=61 velocity=82 time=56 
note_on channel=5 note=57 velocity=81 time=0 
note_on channel=5 note=64 velocity=80 time=0 
note_on channel=5 note=64 velocity=0 time=136 
note_on channel=5 note=57 velocity=0 time=4 
note_on channel=5 note=61 velocity=0 time=0 
note_on channel=5 note=57 velocity=75 time=52 
note_on channel=5 note=62 velocity=82 time=0 
note_on channel=5 note=66 velocity=79 time=0 
note_on channel=5 note=66 velocity=0 time=132 
note_on channel=5 note=62 velocity=0 time=4 
note_on channel=5 note=57 velocity=0 time=0 
note_on channel=5 note=57 velocity=80 time=56 
note_on channel=5 note=62 velocity=82 time=0 
note_on channel=5 note=66 velocity=77 time=0 
note_on channel=5 note=66 velocity=0 time=144 
note_on channel=5 note=62 velocity=0 time=8 
note_on channel=5 note=57 velocity=0 time=0 
note_on channel=5 note=57 velocity=82 time=36 
note_on channel=5 note=61 velocity=82 time=4 
note_on channel=5 note=64 velocity=78 time=0 
note_on channel=5 note=64 velocity=0 time=48 
note_on channel=5 note=61 velocity=0 time=0 
note_on channel=5 note=57 velocity=0 time=0 
note_on channel=5 note=57 velocity=79 time=48 
note_on channel=5 note=62 velocity=79 time=0 
note_on channel=5 note=66 velocity=81 time=0 
note_on channel=5 note=66 velocity=0 time=176 
note_on channel=5 note=57 velocity=0 time=0 
note_on channel=5 note=62 velocity=0 time=8 
<meta message end_of_track time=0> 
<meta message midi_port port=0 time=0> 
<meta message track_name name='***                 ' time=0> 
program_change channel=6 program=3 time=0 
control_change channel=6 control=10 value=64 time=0 
pitchwheel channel=6 pitch=0 time=0 
control_change channel=6 control=1 value=0 time=0 
control_change channel=6 control=64 value=0 time=0 
<meta message end_of_track time=0> 
<meta message midi_port port=0 time=0> 
<meta message track_name name='Violin              ' time=0> 
program_change channel=7 program=40 time=0 
control_change channel=7 control=7 value=77 time=0 
control_change channel=7 control=10 value=80 time=0 
control_change channel=7 control=0 value=0 time=0 
control_change channel=7 control=1 value=0 time=4 
control_change channel=7 control=91 value=127 time=0 
note_on channel=7 note=77 velocity=90 time=620 
note_on channel=7 note=78 velocity=88 time=48 
note_on channel=7 note=77 velocity=0 time=4 
note_on channel=7 note=81 velocity=89 time=44 
note_on channel=7 note=78 velocity=0 time=12 
note_on channel=7 note=77 velocity=82 time=468 
note_on channel=7 note=81 velocity=0 time=16 
note_on channel=7 note=78 velocity=90 time=28 
note_on channel=7 note=77 velocity=0 time=8 
note_on channel=7 note=81 velocity=90 time=40 
note_on channel=7 note=78 velocity=0 time=16 
note_on channel=7 note=81 velocity=0 time=72 
note_on channel=7 note=81 velocity=90 time=8 
pitchwheel channel=7 pitch=321 time=32 
pitchwheel channel=7 pitch=1060 time=4 
pitchwheel channel=7 pitch=1670 time=0 
pitchwheel channel=7 pitch=2184 time=4 
pitchwheel channel=7 pitch=2698 time=0 
pitchwheel channel=7 pitch=3437 time=4 
pitchwheel channel=7 pitch=4240 time=4 
pitchwheel channel=7 pitch=4979 time=0 
pitchwheel channel=7 pitch=5911 time=8 
pitchwheel channel=7 pitch=7196 time=0 
pitchwheel channel=7 pitch=8191 time=0 
pitchwheel channel=7 pitch=8031 time=80 
pitchwheel channel=7 pitch=3855 time=0 
note_on channel=7 note=81 velocity=0 time=4 
pitchwheel channel=7 pitch=-450 time=0 
pitchwheel channel=7 pitch=0 time=0 
note_on channel=7 note=78 velocity=97 time=8 
note_on channel=7 note=74 velocity=97 time=48 
note_on channel=7 note=78 velocity=0 time=24 
note_on channel=7 note=74 velocity=0 time=584 
note_on channel=7 note=66 velocity=94 time=64 
note_on channel=7 note=69 velocity=97 time=48 
note_on channel=7 note=66 velocity=0 time=4 
pitchwheel channel=7 pitch=160 time=56 
pitchwheel channel=7 pitch=321 time=4 
pitchwheel channel=7 pitch=514 time=0 
pitchwheel channel=7 pitch=771 time=4 
pitchwheel channel=7 pitch=1092 time=4 
pitchwheel channel=7 pitch=1413 time=4 
pitchwheel channel=7 pitch=1734 time=0 
pitchwheel channel=7 pitch=2023 time=0 
pitchwheel channel=7 pitch=2313 time=4 
pitchwheel channel=7 pitch=2570 time=4 
pitchwheel channel=7 pitch=2762 time=0 
pitchwheel channel=7 pitch=2891 time=0 
pitchwheel channel=7 pitch=3019 time=4 
pitchwheel channel=7 pitch=3116 time=0 
pitchwheel channel=7 pitch=3308 time=4 
pitchwheel channel=7 pitch=3662 time=8 
pitchwheel channel=7 pitch=3919 time=0 
pitchwheel channel=7 pitch=4208 time=0 
pitchwheel channel=7 pitch=4497 time=0 
pitchwheel channel=7 pitch=4786 time=4 
pitchwheel channel=7 pitch=5075 time=0 
pitchwheel channel=7 pitch=5332 time=4 
pitchwheel channel=7 pitch=5589 time=4 
pitchwheel channel=7 pitch=5975 time=4 
pitchwheel channel=7 pitch=6360 time=0 
pitchwheel channel=7 pitch=6682 time=0 
pitchwheel channel=7 pitch=6874 time=8 
pitchwheel channel=7 pitch=7067 time=0 
pitchwheel channel=7 pitch=7453 time=0 
pitchwheel channel=7 pitch=7774 time=4 
pitchwheel channel=7 pitch=8095 time=4 
pitchwheel channel=7 pitch=8191 time=0 
note_on channel=7 note=69 velocity=0 time=524 
pitchwheel channel=7 pitch=7131 time=4 
pitchwheel channel=7 pitch=3630 time=0 
pitchwheel channel=7 pitch=-258 time=0 
pitchwheel channel=7 pitch=0 time=4 
note_on channel=7 note=69 velocity=97 time=52 
note_on channel=7 note=69 velocity=0 time=52 
note_on channel=7 note=71 velocity=94 time=0 
pitchwheel channel=7 pitch=385 time=52 
pitchwheel channel=7 pitch=642 time=0 
pitchwheel channel=7 pitch=899 time=8 
pitchwheel channel=7 pitch=1156 time=0 
pitchwheel channel=7 pitch=1413 time=0 
pitchwheel channel=7 pitch=1702 time=4 
pitchwheel channel=7 pitch=2088 time=4 
pitchwheel channel=7 pitch=2473 time=0 
pitchwheel channel=7 pitch=2923 time=0 
pitchwheel channel=7 pitch=3341 time=4 
pitchwheel channel=7 pitch=3790 time=4 
pitchwheel channel=7 pitch=4176 time=0 
pitchwheel channel=7 pitch=4433 time=4 
pitchwheel channel=7 pitch=4690 time=4 
pitchwheel channel=7 pitch=4915 time=0 
pitchwheel channel=7 pitch=5107 time=0 
pitchwheel channel=7 pitch=5300 time=4 
pitchwheel channel=7 pitch=5461 time=0 
pitchwheel channel=7 pitch=5654 time=4 
pitchwheel channel=7 pitch=6232 time=0 
pitchwheel channel=7 pitch=6810 time=8 
pitchwheel channel=7 pitch=7131 time=0 
pitchwheel channel=7 pitch=7517 time=0 
pitchwheel channel=7 pitch=7967 time=8 
pitchwheel channel=7 pitch=8191 time=0 
pitchwheel channel=7 pitch=5332 time=520 
pitchwheel channel=7 pitch=3212 time=0 
note_on channel=7 note=71 velocity=0 time=4 
pitchwheel channel=7 pitch=963 time=4 
pitchwheel channel=7 pitch=0 time=0 
note_on channel=7 note=76 velocity=84 time=132 
note_on channel=7 note=76 velocity=0 time=48 
note_on channel=7 note=74 velocity=79 time=0 
pitchwheel channel=7 pitch=642 time=40 
pitchwheel channel=7 pitch=2505 time=4 
pitchwheel channel=7 pitch=4529 time=0 
pitchwheel channel=7 pitch=7067 time=0 
note_on channel=7 note=74 velocity=0 time=4 
note_on channel=7 note=69 velocity=96 time=0 
pitchwheel channel=7 pitch=8191 time=4 
pitchwheel channel=7 pitch=5300 time=72 
pitchwheel channel=7 pitch=1895 time=4 
pitchwheel channel=7 pitch=0 time=4 
note_on channel=7 note=69 velocity=0 time=8 
note_on channel=7 note=69 velocity=93 time=4 
note_on channel=7 note=69 velocity=0 time=24 
note_on channel=7 note=69 velocity=97 time=24 
note_on channel=7 note=66 velocity=97 time=48 
note_on channel=7 note=69 velocity=0 time=8 
note_on channel=7 note=66 velocity=0 time=80 
note_on channel=7 note=62 velocity=97 time=8 
note_on channel=7 note=62 velocity=0 time=144 
note_on channel=7 note=76 velocity=96 time=48 
note_on channel=7 note=76 velocity=0 time=48 
note_on channel=7 note=74 velocity=81 time=0 
pitchwheel channel=7 pitch=899 time=44 
pitchwheel channel=7 pitch=3212 time=0 
note_on channel=7 note=69 velocity=96 time=4 
note_on channel=7 note=74 velocity=0 time=4 
pitchwheel channel=7 pitch=5718 time=0 
pitchwheel channel=7 pitch=8191 time=0 
pitchwheel channel=7 pitch=7003 time=84 
pitchwheel channel=7 pitch=2987 time=4 
pitchwheel channel=7 pitch=0 time=0 
note_on channel=7 note=74 velocity=97 time=4 
note_on channel=7 note=69 velocity=0 time=8 
note_on channel=7 note=74 velocity=0 time=24 
note_on channel=7 note=69 velocity=97 time=16 
note_on channel=7 note=69 velocity=0 time=32 
note_on channel=7 note=78 velocity=97 time=16 
note_on channel=7 note=78 velocity=0 time=24 
note_on channel=7 note=64 velocity=90 time=120 
note_on channel=7 note=64 velocity=0 time=40 
note_on channel=7 note=66 velocity=94 time=8 
note_on channel=7 note=66 velocity=0 time=88 
note_on channel=7 note=62 velocity=97 time=8 
note_on channel=7 note=62 velocity=0 time=424 
note_on channel=7 note=76 velocity=85 time=1880 
note_on channel=7 note=76 velocity=0 time=48 
note_on channel=7 note=74 velocity=86 time=0 
note_on channel=7 note=74 velocity=0 time=48 
pitchwheel channel=7 pitch=289 time=4 
pitchwheel channel=7 pitch=803 time=0 
pitchwheel channel=7 pitch=1670 time=0 
note_on channel=7 note=69 velocity=94 time=0 
pitchwheel channel=7 pitch=2602 time=4 
pitchwheel channel=7 pitch=3726 time=4 
pitchwheel channel=7 pitch=4850 time=0 
pitchwheel channel=7 pitch=6553 time=4 
pitchwheel channel=7 pitch=8191 time=4 
pitchwheel channel=7 pitch=7517 time=56 
pitchwheel channel=7 pitch=3469 time=8 
pitchwheel channel=7 pitch=-322 time=0 
pitchwheel channel=7 pitch=0 time=4 
note_on channel=7 note=66 velocity=93 time=104 
note_on channel=7 note=69 velocity=0 time=16 
note_on channel=7 note=66 velocity=0 time=80 
note_on channel=7 note=62 velocity=97 time=0 
note_on channel=7 note=62 velocity=0 time=324 
note_on channel=7 note=67 velocity=90 time=156 
pitchwheel channel=7 pitch=963 time=20 
pitchwheel channel=7 pitch=2345 time=0 
pitchwheel channel=7 pitch=4272 time=0 
pitchwheel channel=7 pitch=7067 time=8 
pitchwheel channel=7 pitch=8191 time=0 
pitchwheel channel=7 pitch=7324 time=48 
note_on channel=7 note=67 velocity=0 time=4 
pitchwheel channel=7 pitch=3983 time=4 
pitchwheel channel=7 pitch=1252 time=0 
pitchwheel channel=7 pitch=0 time=4 
note_on channel=7 note=74 velocity=93 time=8 
note_on channel=7 note=74 velocity=0 time=60 
note_on channel=7 note=76 velocity=97 time=84 
note_on channel=7 note=76 velocity=0 time=68 
note_on channel=7 note=76 velocity=96 time=76 
pitchwheel channel=7 pitch=289 time=12 
pitchwheel channel=7 pitch=481 time=0 
pitchwheel channel=7 pitch=642 time=4 
pitchwheel channel=7 pitch=835 time=4 
pitchwheel channel=7 pitch=1060 time=0 
pitchwheel channel=7 pitch=1413 time=0 
pitchwheel channel=7 pitch=1799 time=4 
pitchwheel channel=7 pitch=2184 time=4 
pitchwheel channel=7 pitch=2505 time=0 
pitchwheel channel=7 pitch=2891 time=0 
pitchwheel channel=7 pitch=3212 time=8 
pitchwheel channel=7 pitch=3598 time=0 
pitchwheel channel=7 pitch=4047 time=0 
pitchwheel channel=7 pitch=4369 time=4 
pitchwheel channel=7 pitch=4754 time=4 
pitchwheel channel=7 pitch=4979 time=0 
pitchwheel channel=7 pitch=5236 time=4 
pitchwheel channel=7 pitch=5461 time=4 
pitchwheel channel=7 pitch=6039 time=0 
pitchwheel channel=7 pitch=6746 time=0 
pitchwheel channel=7 pitch=7131 time=8 
pitchwheel channel=7 pitch=7517 time=0 
pitchwheel channel=7 pitch=7967 time=0 
pitchwheel channel=7 pitch=8191 time=0 
pitchwheel channel=7 pitch=6553 time=172 
pitchwheel channel=7 pitch=4144 time=4 
pitchwheel channel=7 pitch=2023 time=8 
pitchwheel channel=7 pitch=353 time=0 
pitchwheel channel=7 pitch=0 time=0 
note_on channel=7 note=76 velocity=0 time=28 
note_on channel=7 note=76 velocity=93 time=112 
note_on channel=7 note=76 velocity=0 time=40 
note_on channel=7 note=69 velocity=96 time=4 
note_on channel=7 note=69 velocity=0 time=44 
note_on channel=7 note=73 velocity=87 time=8 
note_on channel=7 note=73 velocity=0 time=40 
note_on channel=7 note=76 velocity=83 time=4 
note_on channel=7 note=76 velocity=0 time=52 
note_on channel=7 note=69 velocity=97 time=0 
note_on channel=7 note=69 velocity=0 time=40 
note_on channel=7 note=73 velocity=93 time=4 
note_on channel=7 note=73 velocity=0 time=52 
note_on channel=7 note=76 velocity=80 time=0 
note_on channel=7 note=73 velocity=88 time=48 
note_on channel=7 note=76 velocity=0 time=8 
note_on channel=7 note=73 velocity=0 time=40 
note_on channel=7 note=69 velocity=97 time=0 
note_on channel=7 note=69 velocity=0 time=196 
note_on channel=7 note=66 velocity=93 time=236 
note_on channel=7 note=66 velocity=0 time=48 
note_on channel=7 note=69 velocity=90 time=0 
pitchwheel channel=7 pitch=257 time=20 
pitchwheel channel=7 pitch=738 time=0 
pitchwheel channel=7 pitch=1381 time=0 
pitchwheel channel=7 pitch=2088 time=4 
pitchwheel channel=7 pitch=3084 time=4 
pitchwheel channel=7 pitch=4593 time=0 
pitchwheel channel=7 pitch=6746 time=0 
pitchwheel channel=7 pitch=8191 time=4 
pitchwheel channel=7 pitch=5140 time=56 
pitchwheel channel=7 pitch=-193 time=4 
pitchwheel channel=7 pitch=0 time=0 
note_on channel=7 note=69 velocity=0 time=4 
note_on channel=7 note=74 velocity=88 time=4 
note_on channel=7 note=74 velocity=0 time=44 
note_on channel=7 note=71 velocity=76 time=0 
note_on channel=7 note=69 velocity=82 time=48 
note_on channel=7 note=71 velocity=0 time=8 
note_on channel=7 note=66 velocity=94 time=40 
note_on channel=7 note=69 velocity=0 time=4 
note_on channel=7 note=66 velocity=0 time=36 
note_on channel=7 note=69 velocity=94 time=8 
pitchwheel channel=7 pitch=257 time=20 
pitchwheel channel=7 pitch=771 time=0 
pitchwheel channel=7 pitch=1413 time=4 
pitchwheel channel=7 pitch=2023 time=0 
pitchwheel channel=7 pitch=2537 time=4 
pitchwheel channel=7 pitch=2987 time=0 
pitchwheel channel=7 pitch=3341 time=8 
pitchwheel channel=7 pitch=3790 time=0 
pitchwheel channel=7 pitch=4240 time=0 
pitchwheel channel=7 pitch=4658 time=0 
pitchwheel channel=7 pitch=4947 time=4 
pitchwheel channel=7 pitch=5332 time=0 
pitchwheel channel=7 pitch=5718 time=4 
pitchwheel channel=7 pitch=6489 time=8 
pitchwheel channel=7 pitch=7067 time=0 
pitchwheel channel=7 pitch=7645 time=0 
pitchwheel channel=7 pitch=8191 time=0 
pitchwheel channel=7 pitch=6425 time=144 
pitchwheel channel=7 pitch=3565 time=0 
pitchwheel channel=7 pitch=867 time=0 
pitchwheel channel=7 pitch=0 time=0 
note_on channel=7 note=69 velocity=0 time=8 
note_on channel=7 note=69 velocity=79 time=180 
pitchwheel channel=7 pitch=642 time=4 
pitchwheel channel=7 pitch=1863 time=0 
pitchwheel channel=7 pitch=3212 time=0 
pitchwheel channel=7 pitch=4915 time=4 
pitchwheel channel=7 pitch=7388 time=0 
pitchwheel channel=7 pitch=8191 time=4 
pitchwheel channel=7 pitch=4786 time=72 
pitchwheel channel=7 pitch=1702 time=0 
pitchwheel channel=7 pitch=0 time=4 
note_on channel=7 note=79 velocity=85 time=8 
note_on channel=7 note=69 velocity=0 time=12 
note_on channel=7 note=74 velocity=89 time=32 
note_on channel=7 note=79 velocity=0 time=12 
note_on channel=7 note=74 velocity=0 time=32 
note_on channel=7 note=76 velocity=86 time=8 
note_on channel=7 note=76 velocity=0 time=32 
note_on channel=7 note=76 velocity=94 time=16 
note_on channel=7 note=76 velocity=0 time=32 
note_on channel=7 note=76 velocity=90 time=16 
pitchwheel channel=7 pitch=-354 time=48 
pitchwheel channel=7 pitch=-450 time=4 
pitchwheel channel=7 pitch=-611 time=0 
pitchwheel channel=7 pitch=-675 time=0 
pitchwheel channel=7 pitch=-836 time=4 
pitchwheel channel=7 pitch=-964 time=0 
pitchwheel channel=7 pitch=-1093 time=0 
pitchwheel channel=7 pitch=-1318 time=4 
pitchwheel channel=7 pitch=-1575 time=8 
pitchwheel channel=7 pitch=-1832 time=0 
pitchwheel channel=7 pitch=-2057 time=0 
pitchwheel channel=7 pitch=-2410 time=0 
pitchwheel channel=7 pitch=-2635 time=8 
pitchwheel channel=7 pitch=-2860 time=0 
pitchwheel channel=7 pitch=-3181 time=0 
pitchwheel channel=7 pitch=-3470 time=4 
pitchwheel channel=7 pitch=-3663 time=4 
pitchwheel channel=7 pitch=-3856 time=4 
pitchwheel channel=7 pitch=-4241 time=0 
pitchwheel channel=7 pitch=-4434 time=0 
pitchwheel channel=7 pitch=-4594 time=4 
pitchwheel channel=7 pitch=-4787 time=0 
pitchwheel channel=7 pitch=-5012 time=4 
pitchwheel channel=7 pitch=-5205 time=4 
pitchwheel channel=7 pitch=-5430 time=0 
pitchwheel channel=7 pitch=-5783 time=0 
pitchwheel channel=7 pitch=-6297 time=4 
pitchwheel channel=7 pitch=-6747 time=4 
pitchwheel channel=7 pitch=-7004 time=0 
pitchwheel channel=7 pitch=-7389 time=8 
pitchwheel channel=7 pitch=-7775 time=0 
pitchwheel channel=7 pitch=-8160 time=0 
pitchwheel channel=7 pitch=-8192 time=0 
pitchwheel channel=7 pitch=-8032 time=104 
pitchwheel channel=7 pitch=-6875 time=0 
pitchwheel channel=7 pitch=-5783 time=4 
note_on channel=7 note=76 velocity=0 time=4 
pitchwheel channel=7 pitch=-5141 time=0 
pitchwheel channel=7 pitch=-4627 time=0 
pitchwheel channel=7 pitch=-3984 time=0 
pitchwheel channel=7 pitch=-3438 time=4 
pitchwheel channel=7 pitch=-2635 time=4 
pitchwheel channel=7 pitch=-1703 time=0 
pitchwheel channel=7 pitch=-611 time=4 
pitchwheel channel=7 pitch=0 time=0 
note_on channel=7 note=74 velocity=83 time=244 
note_on channel=7 note=74 velocity=0 time=36 
note_on channel=7 note=76 velocity=83 time=4 
note_on channel=7 note=74 velocity=82 time=100 
note_on channel=7 note=76 velocity=0 time=12 
note_on channel=7 note=76 velocity=88 time=36 
note_on channel=7 note=74 velocity=0 time=4 
note_on channel=7 note=74 velocity=91 time=92 
note_on channel=7 note=76 velocity=0 time=4 
note_on channel=7 note=74 velocity=0 time=32 
note_on channel=7 note=76 velocity=88 time=12 
pitchwheel channel=7 pitch=321 time=68 
pitchwheel channel=7 pitch=449 time=0 
pitchwheel channel=7 pitch=706 time=4 
pitchwheel channel=7 pitch=963 time=4 
pitchwheel channel=7 pitch=1285 time=0 
pitchwheel channel=7 pitch=1574 time=0 
pitchwheel channel=7 pitch=1863 time=0 
pitchwheel channel=7 pitch=2088 time=4 
pitchwheel channel=7 pitch=2345 time=4 
pitchwheel channel=7 pitch=2634 time=4 
pitchwheel channel=7 pitch=2923 time=0 
pitchwheel channel=7 pitch=3276 time=0 
pitchwheel channel=7 pitch=3758 time=4 
pitchwheel channel=7 pitch=4272 time=8 
pitchwheel channel=7 pitch=4754 time=0 
pitchwheel channel=7 pitch=5172 time=0 
pitchwheel channel=7 pitch=5589 time=0 
pitchwheel channel=7 pitch=6103 time=8 
pitchwheel channel=7 pitch=6810 time=0 
pitchwheel channel=7 pitch=7388 time=0 
pitchwheel channel=7 pitch=7967 time=4 
pitchwheel channel=7 pitch=8191 time=4 
pitchwheel channel=7 pitch=6682 time=208 
pitchwheel channel=7 pitch=3373 time=4 
pitchwheel channel=7 pitch=-386 time=0 
pitchwheel channel=7 pitch=0 time=0 
note_on channel=7 note=76 velocity=0 time=12 
note_on channel=7 note=71 velocity=74 time=92 
pitchwheel channel=7 pitch=835 time=4 
pitchwheel channel=7 pitch=2505 time=0 
pitchwheel channel=7 pitch=4304 time=4 
pitchwheel channel=7 pitch=6103 time=4 
pitchwheel channel=7 pitch=8191 time=0 
pitchwheel channel=7 pitch=7067 time=72 
pitchwheel channel=7 pitch=4047 time=0 
pitchwheel channel=7 pitch=1606 time=4 
pitchwheel channel=7 pitch=0 time=0 
note_on channel=7 note=71 velocity=0 time=8 
note_on channel=7 note=81 velocity=88 time=0 
note_on channel=7 note=76 velocity=72 time=48 
note_on channel=7 note=81 velocity=0 time=8 
note_on channel=7 note=78 velocity=77 time=40 
note_on channel=7 note=76 velocity=0 time=8 
note_on channel=7 note=81 velocity=82 time=36 
note_on channel=7 note=78 velocity=0 time=20 
note_on channel=7 note=76 velocity=72 time=32 
note_on channel=7 note=81 velocity=0 time=20 
note_on channel=7 note=76 velocity=0 time=28 
note_on channel=7 note=69 velocity=80 time=0 
note_on channel=7 note=69 velocity=0 time=48 
note_on channel=7 note=69 velocity=91 time=4 
note_on channel=7 note=69 velocity=0 time=284 
note_on channel=7 note=74 velocity=82 time=140 
note_on channel=7 note=74 velocity=0 time=48 
note_on channel=7 note=83 velocity=84 time=4 
note_on channel=7 note=74 velocity=81 time=48 
note_on channel=7 note=83 velocity=0 time=16 
note_on channel=7 note=71 velocity=83 time=32 
note_on channel=7 note=74 velocity=0 time=8 
note_on channel=7 note=71 velocity=0 time=32 
note_on channel=7 note=81 velocity=88 time=4 
note_on channel=7 note=81 velocity=0 time=36 
note_on channel=7 note=81 velocity=90 time=16 
pitchwheel channel=7 pitch=-964 time=52 
pitchwheel channel=7 pitch=-2153 time=0 
pitchwheel channel=7 pitch=-3438 time=0 
pitchwheel channel=7 pitch=-4691 time=0 
pitchwheel channel=7 pitch=-6554 time=8 
pitchwheel channel=7 pitch=-8192 time=0 
note_on channel=7 note=81 velocity=0 time=28 
pitchwheel channel=7 pitch=-5398 time=4 
pitchwheel channel=7 pitch=-3663 time=0 
note_on channel=7 note=79 velocity=97 time=4 
pitchwheel channel=7 pitch=-1157 time=4 
pitchwheel channel=7 pitch=0 time=0 
note_on channel=7 note=79 velocity=0 time=276 
note_on channel=7 note=67 velocity=76 time=152 
note_on channel=7 note=76 velocity=89 time=0 
pitchwheel channel=7 pitch=289 time=16 
pitchwheel channel=7 pitch=931 time=4 
pitchwheel channel=7 pitch=1959 time=0 
pitchwheel channel=7 pitch=3244 time=4 
pitchwheel channel=7 pitch=4915 time=4 
pitchwheel channel=7 pitch=7260 time=0 
pitchwheel channel=7 pitch=8191 time=0 
note_on channel=7 note=76 velocity=0 time=52 
note_on channel=7 note=67 velocity=0 time=0 
note_on channel=7 note=76 velocity=90 time=12 
note_on channel=7 note=67 velocity=83 time=4 
note_on channel=7 note=67 velocity=0 time=28 
note_on channel=7 note=76 velocity=0 time=4 
pitchwheel channel=7 pitch=5525 time=8 
pitchwheel channel=7 pitch=2377 time=4 
note_on channel=7 note=67 velocity=82 time=4 
note_on channel=7 note=76 velocity=91 time=0 
pitchwheel channel=7 pitch=546 time=4 
pitchwheel channel=7 pitch=0 time=0 
note_on channel=7 note=76 velocity=0 time=28 
note_on channel=7 note=67 velocity=0 time=0 
note_on channel=7 note=66 velocity=91 time=64 
note_on channel=7 note=74 velocity=93 time=0 
note_on channel=7 note=66 velocity=0 time=328 
note_on channel=7 note=74 velocity=0 time=8 
note_on channel=7 note=67 velocity=90 time=6672 
pitchwheel channel=7 pitch=963 time=20 
pitchwheel channel=7 pitch=2345 time=0 
pitchwheel channel=7 pitch=4272 time=0 
pitchwheel channel=7 pitch=7067 time=8 
pitchwheel channel=7 pitch=8191 time=0 
note_on channel=7 note=67 velocity=0 time=52 
pitchwheel channel=7 pitch=7324 time=0 
pitchwheel channel=7 pitch=3983 time=4 
pitchwheel channel=7 pitch=1252 time=0 
pitchwheel channel=7 pitch=0 time=4 
note_on channel=7 note=74 velocity=93 time=8 
note_on channel=7 note=74 velocity=0 time=60 
note_on channel=7 note=76 velocity=97 time=84 
note_on channel=7 note=76 velocity=0 time=68 
note_on channel=7 note=76 velocity=96 time=76 
pitchwheel channel=7 pitch=289 time=12 
pitchwheel channel=7 pitch=481 time=0 
pitchwheel channel=7 pitch=642 time=0 
pitchwheel channel=7 pitch=835 time=8 
pitchwheel channel=7 pitch=1060 time=0 
pitchwheel channel=7 pitch=1413 time=0 
pitchwheel channel=7 pitch=1799 time=8 
pitchwheel channel=7 pitch=2184 time=0 
pitchwheel channel=7 pitch=2505 time=0 
pitchwheel channel=7 pitch=2891 time=4 
pitchwheel channel=7 pitch=3212 time=0 
pitchwheel channel=7 pitch=3598 time=4 
pitchwheel channel=7 pitch=4047 time=0 
pitchwheel channel=7 pitch=4369 time=4 
pitchwheel channel=7 pitch=4754 time=4 
pitchwheel channel=7 pitch=4979 time=0 
pitchwheel channel=7 pitch=5236 time=4 
pitchwheel channel=7 pitch=5461 time=4 
pitchwheel channel=7 pitch=6039 time=0 
pitchwheel channel=7 pitch=6746 time=0 
pitchwheel channel=7 pitch=7131 time=4 
pitchwheel channel=7 pitch=7517 time=4 
pitchwheel channel=7 pitch=7967 time=0 
pitchwheel channel=7 pitch=8191 time=0 
pitchwheel channel=7 pitch=6553 time=172 
pitchwheel channel=7 pitch=4144 time=4 
pitchwheel channel=7 pitch=2023 time=8 
pitchwheel channel=7 pitch=353 time=0 
pitchwheel channel=7 pitch=0 time=0 
note_on channel=7 note=76 velocity=0 time=28 
note_on channel=7 note=76 velocity=93 time=112 
note_on channel=7 note=76 velocity=0 time=40 
note_on channel=7 note=69 velocity=96 time=4 
note_on channel=7 note=69 velocity=0 time=44 
note_on channel=7 note=73 velocity=87 time=8 
note_on channel=7 note=73 velocity=0 time=40 
note_on channel=7 note=76 velocity=83 time=4 
note_on channel=7 note=76 velocity=0 time=52 
note_on channel=7 note=69 velocity=97 time=0 
note_on channel=7 note=69 velocity=0 time=40 
note_on channel=7 note=73 velocity=93 time=4 
note_on channel=7 note=73 velocity=0 time=52 
note_on channel=7 note=76 velocity=80 time=0 
note_on channel=7 note=73 velocity=88 time=44 
note_on channel=7 note=76 velocity=0 time=12 
note_on channel=7 note=73 velocity=0 time=40 
note_on channel=7 note=69 velocity=97 time=0 
note_on channel=7 note=69 velocity=0 time=200 
note_on channel=7 note=66 velocity=93 time=232 
note_on channel=7 note=66 velocity=0 time=48 
note_on channel=7 note=69 velocity=90 time=0 
pitchwheel channel=7 pitch=257 time=20 
pitchwheel channel=7 pitch=738 time=0 
pitchwheel channel=7 pitch=1381 time=0 
pitchwheel channel=7 pitch=2088 time=4 
pitchwheel channel=7 pitch=3084 time=4 
pitchwheel channel=7 pitch=4593 time=0 
pitchwheel channel=7 pitch=6746 time=0 
pitchwheel channel=7 pitch=8191 time=4 
pitchwheel channel=7 pitch=5140 time=56 
pitchwheel channel=7 pitch=-193 time=4 
pitchwheel channel=7 pitch=0 time=0 
note_on channel=7 note=69 velocity=0 time=4 
note_on channel=7 note=74 velocity=88 time=4 
note_on channel=7 note=74 velocity=0 time=44 
note_on channel=7 note=71 velocity=76 time=0 
note_on channel=7 note=69 velocity=82 time=48 
note_on channel=7 note=71 velocity=0 time=8 
note_on channel=7 note=66 velocity=94 time=36 
note_on channel=7 note=69 velocity=0 time=12 
note_on channel=7 note=66 velocity=0 time=32 
note_on channel=7 note=69 velocity=94 time=8 
pitchwheel channel=7 pitch=257 time=20 
pitchwheel channel=7 pitch=771 time=0 
pitchwheel channel=7 pitch=1413 time=0 
pitchwheel channel=7 pitch=2023 time=8 
pitchwheel channel=7 pitch=2537 time=0 
pitchwheel channel=7 pitch=2987 time=0 
pitchwheel channel=7 pitch=3341 time=4 
pitchwheel channel=7 pitch=3790 time=4 
pitchwheel channel=7 pitch=4240 time=0 
pitchwheel channel=7 pitch=4658 time=0 
pitchwheel channel=7 pitch=4947 time=4 
pitchwheel channel=7 pitch=5332 time=0 
pitchwheel channel=7 pitch=5718 time=4 
pitchwheel channel=7 pitch=6489 time=8 
pitchwheel channel=7 pitch=7067 time=0 
pitchwheel channel=7 pitch=7645 time=0 
pitchwheel channel=7 pitch=8191 time=0 
pitchwheel channel=7 pitch=6425 time=140 
pitchwheel channel=7 pitch=3565 time=0 
pitchwheel channel=7 pitch=867 time=4 
pitchwheel channel=7 pitch=0 time=0 
note_on channel=7 note=69 velocity=0 time=4 
note_on channel=7 note=69 velocity=79 time=184 
pitchwheel channel=7 pitch=642 time=4 
pitchwheel channel=7 pitch=1863 time=0 
pitchwheel channel=7 pitch=3212 time=0 
pitchwheel channel=7 pitch=4915 time=4 
pitchwheel channel=7 pitch=7388 time=0 
pitchwheel channel=7 pitch=8191 time=4 
pitchwheel channel=7 pitch=4786 time=68 
pitchwheel channel=7 pitch=1702 time=4 
pitchwheel channel=7 pitch=0 time=4 
note_on channel=7 note=79 velocity=85 time=8 
note_on channel=7 note=69 velocity=0 time=12 
note_on channel=7 note=74 velocity=89 time=32 
note_on channel=7 note=79 velocity=0 time=12 
note_on channel=7 note=74 velocity=0 time=32 
note_on channel=7 note=76 velocity=86 time=8 
note_on channel=7 note=76 velocity=0 time=32 
note_on channel=7 note=76 velocity=94 time=16 
note_on channel=7 note=76 velocity=0 time=32 
note_on channel=7 note=76 velocity=90 time=16 
pitchwheel channel=7 pitch=-354 time=48 
pitchwheel channel=7 pitch=-450 time=4 
pitchwheel channel=7 pitch=-611 time=0 
pitchwheel channel=7 pitch=-675 time=0 
pitchwheel channel=7 pitch=-836 time=0 
pitchwheel channel=7 pitch=-964 time=4 
pitchwheel channel=7 pitch=-1093 time=4 
pitchwheel channel=7 pitch=-1318 time=0 
pitchwheel channel=7 pitch=-1575 time=8 
pitchwheel channel=7 pitch=-1832 time=0 
pitchwheel channel=7 pitch=-2057 time=0 
pitchwheel channel=7 pitch=-2410 time=4 
pitchwheel channel=7 pitch=-2635 time=4 
pitchwheel channel=7 pitch=-2860 time=0 
pitchwheel channel=7 pitch=-3181 time=0 
pitchwheel channel=7 pitch=-3470 time=4 
pitchwheel channel=7 pitch=-3663 time=4 
pitchwheel channel=7 pitch=-3856 time=0 
pitchwheel channel=7 pitch=-4241 time=4 
pitchwheel channel=7 pitch=-4434 time=0 
pitchwheel channel=7 pitch=-4594 time=4 
pitchwheel channel=7 pitch=-4787 time=0 
pitchwheel channel=7 pitch=-5012 time=4 
pitchwheel channel=7 pitch=-5205 time=4 
pitchwheel channel=7 pitch=-5430 time=0 
pitchwheel channel=7 pitch=-5783 time=0 
pitchwheel channel=7 pitch=-6297 time=8 
pitchwheel channel=7 pitch=-6747 time=0 
pitchwheel channel=7 pitch=-7004 time=0 
pitchwheel channel=7 pitch=-7389 time=8 
pitchwheel channel=7 pitch=-7775 time=0 
pitchwheel channel=7 pitch=-8160 time=0 
pitchwheel channel=7 pitch=-8192 time=4 
pitchwheel channel=7 pitch=-8032 time=100 
pitchwheel channel=7 pitch=-6875 time=0 
pitchwheel channel=7 pitch=-5783 time=0 
note_on channel=7 note=76 velocity=0 time=8 
pitchwheel channel=7 pitch=-5141 time=0 
pitchwheel channel=7 pitch=-4627 time=0 
pitchwheel channel=7 pitch=-3984 time=0 
pitchwheel channel=7 pitch=-3438 time=4 
pitchwheel channel=7 pitch=-2635 time=0 
pitchwheel channel=7 pitch=-1703 time=0 
pitchwheel channel=7 pitch=-611 time=8 
pitchwheel channel=7 pitch=0 time=4 
note_on channel=7 note=74 velocity=83 time=236 
note_on channel=7 note=74 velocity=0 time=32 
note_on channel=7 note=76 velocity=83 time=8 
note_on channel=7 note=74 velocity=82 time=100 
note_on channel=7 note=76 velocity=0 time=12 
note_on channel=7 note=76 velocity=88 time=40 
note_on channel=7 note=74 velocity=0 time=4 
note_on channel=7 note=76 velocity=0 time=92 
note_on channel=7 note=74 velocity=91 time=0 
note_on channel=7 note=74 velocity=0 time=36 
note_on channel=7 note=76 velocity=88 time=8 
pitchwheel channel=7 pitch=321 time=72 
pitchwheel channel=7 pitch=449 time=0 
pitchwheel channel=7 pitch=706 time=0 
pitchwheel channel=7 pitch=963 time=4 
pitchwheel channel=7 pitch=1285 time=4 
pitchwheel channel=7 pitch=1574 time=0 
pitchwheel channel=7 pitch=1863 time=8 
pitchwheel channel=7 pitch=2088 time=0 
pitchwheel channel=7 pitch=2345 time=0 
pitchwheel channel=7 pitch=2634 time=0 
pitchwheel channel=7 pitch=2923 time=4 
pitchwheel channel=7 pitch=3276 time=0 
pitchwheel channel=7 pitch=3758 time=4 
pitchwheel channel=7 pitch=4272 time=8 
pitchwheel channel=7 pitch=4754 time=0 
pitchwheel channel=7 pitch=5172 time=0 
pitchwheel channel=7 pitch=5589 time=0 
pitchwheel channel=7 pitch=6103 time=4 
pitchwheel channel=7 pitch=6810 time=4 
pitchwheel channel=7 pitch=7388 time=0 
pitchwheel channel=7 pitch=7967 time=4 
pitchwheel channel=7 pitch=8191 time=0 
pitchwheel channel=7 pitch=6682 time=212 
pitchwheel channel=7 pitch=3373 time=4 
pitchwheel channel=7 pitch=-386 time=0 
pitchwheel channel=7 pitch=0 time=0 
note_on channel=7 note=76 velocity=0 time=8 
note_on channel=7 note=71 velocity=74 time=96 
pitchwheel channel=7 pitch=835 time=4 
pitchwheel channel=7 pitch=2505 time=0 
pitchwheel channel=7 pitch=4304 time=4 
pitchwheel channel=7 pitch=6103 time=4 
pitchwheel channel=7 pitch=8191 time=0 
pitchwheel channel=7 pitch=7067 time=72 
pitchwheel channel=7 pitch=4047 time=0 
pitchwheel channel=7 pitch=1606 time=4 
pitchwheel channel=7 pitch=0 time=0 
note_on channel=7 note=71 velocity=0 time=8 
note_on channel=7 note=81 velocity=88 time=0 
note_on channel=7 note=76 velocity=72 time=44 
note_on channel=7 note=81 velocity=0 time=12 
note_on channel=7 note=78 velocity=77 time=40 
note_on channel=7 note=76 velocity=0 time=8 
note_on channel=7 note=81 velocity=82 time=40 
note_on channel=7 note=78 velocity=0 time=16 
note_on channel=7 note=76 velocity=72 time=28 
note_on channel=7 note=81 velocity=0 time=28 
note_on channel=7 note=76 velocity=0 time=24 
note_on channel=7 note=69 velocity=80 time=0 
note_on channel=7 note=69 velocity=0 time=48 
note_on channel=7 note=69 velocity=91 time=0 
note_on channel=7 note=69 velocity=0 time=288 
note_on channel=7 note=74 velocity=82 time=144 
note_on channel=7 note=74 velocity=0 time=44 
note_on channel=7 note=83 velocity=84 time=4 
note_on channel=7 note=74 velocity=81 time=48 
note_on channel=7 note=83 velocity=0 time=16 
note_on channel=7 note=71 velocity=83 time=32 
note_on channel=7 note=74 velocity=0 time=8 
note_on channel=7 note=71 velocity=0 time=32 
note_on channel=7 note=81 velocity=88 time=4 
note_on channel=7 note=81 velocity=0 time=36 
note_on channel=7 note=81 velocity=90 time=16 
pitchwheel channel=7 pitch=-964 time=52 
pitchwheel channel=7 pitch=-2153 time=0 
pitchwheel channel=7 pitch=-3438 time=0 
pitchwheel channel=7 pitch=-4691 time=4 
pitchwheel channel=7 pitch=-6554 time=4 
pitchwheel channel=7 pitch=-8192 time=0 
note_on channel=7 note=81 velocity=0 time=28 
pitchwheel channel=7 pitch=-5398 time=0 
pitchwheel channel=7 pitch=-3663 time=4 
note_on channel=7 note=79 velocity=97 time=4 
pitchwheel channel=7 pitch=-1157 time=4 
pitchwheel channel=7 pitch=0 time=0 
note_on channel=7 note=79 velocity=0 time=276 
note_on channel=7 note=67 velocity=76 time=152 
note_on channel=7 note=76 velocity=89 time=0 
pitchwheel channel=7 pitch=289 time=16 
pitchwheel channel=7 pitch=931 time=4 
pitchwheel channel=7 pitch=1959 time=0 
pitchwheel channel=7 pitch=3244 time=4 
pitchwheel channel=7 pitch=4915 time=4 
pitchwheel channel=7 pitch=7260 time=0 
pitchwheel channel=7 pitch=8191 time=0 
note_on channel=7 note=76 velocity=0 time=52 
note_on channel=7 note=67 velocity=0 time=0 
note_on channel=7 note=67 velocity=83 time=16 
note_on channel=7 note=76 velocity=90 time=0 
note_on channel=7 note=67 velocity=0 time=28 
note_on channel=7 note=76 velocity=0 time=4 
pitchwheel channel=7 pitch=5525 time=12 
pitchwheel channel=7 pitch=2377 time=0 
note_on channel=7 note=67 velocity=82 time=4 
note_on channel=7 note=76 velocity=91 time=0 
pitchwheel channel=7 pitch=546 time=4 
pitchwheel channel=7 pitch=0 time=0 
note_on channel=7 note=76 velocity=0 time=28 
note_on channel=7 note=67 velocity=0 time=0 
note_on channel=7 note=66 velocity=91 time=64 
note_on channel=7 note=74 velocity=93 time=0 
note_on channel=7 note=66 velocity=0 time=328 
note_on channel=7 note=74 velocity=0 time=8 
note_on channel=7 note=67 velocity=90 time=6288 
pitchwheel channel=7 pitch=963 time=20 
pitchwheel channel=7 pitch=2345 time=0 
pitchwheel channel=7 pitch=4272 time=0 
pitchwheel channel=7 pitch=7067 time=4 
pitchwheel channel=7 pitch=8191 time=4 
pitchwheel channel=7 pitch=7324 time=48 
note_on channel=7 note=67 velocity=0 time=4 
pitchwheel channel=7 pitch=3983 time=4 
pitchwheel channel=7 pitch=1252 time=0 
pitchwheel channel=7 pitch=0 time=4 
note_on channel=7 note=74 velocity=93 time=8 
note_on channel=7 note=74 velocity=0 time=60 
note_on channel=7 note=76 velocity=97 time=80 
note_on channel=7 note=76 velocity=0 time=72 
note_on channel=7 note=76 velocity=96 time=76 
pitchwheel channel=7 pitch=289 time=12 
pitchwheel channel=7 pitch=481 time=0 
pitchwheel channel=7 pitch=642 time=4 
pitchwheel channel=7 pitch=835 time=0 
pitchwheel channel=7 pitch=1060 time=4 
pitchwheel channel=7 pitch=1413 time=0 
pitchwheel channel=7 pitch=1799 time=0 
pitchwheel channel=7 pitch=2184 time=4 
pitchwheel channel=7 pitch=2505 time=4 
pitchwheel channel=7 pitch=2891 time=4 
pitchwheel channel=7 pitch=3212 time=4 
pitchwheel channel=7 pitch=3598 time=0 
pitchwheel channel=7 pitch=4047 time=0 
pitchwheel channel=7 pitch=4369 time=4 
pitchwheel channel=7 pitch=4754 time=4 
pitchwheel channel=7 pitch=4979 time=0 
pitchwheel channel=7 pitch=5236 time=4 
pitchwheel channel=7 pitch=5461 time=4 
pitchwheel channel=7 pitch=6039 time=0 
pitchwheel channel=7 pitch=6746 time=0 
pitchwheel channel=7 pitch=7131 time=8 
pitchwheel channel=7 pitch=7517 time=0 
pitchwheel channel=7 pitch=7967 time=0 
pitchwheel channel=7 pitch=8191 time=0 
pitchwheel channel=7 pitch=6553 time=172 
pitchwheel channel=7 pitch=4144 time=8 
pitchwheel channel=7 pitch=2023 time=4 
pitchwheel channel=7 pitch=353 time=0 
pitchwheel channel=7 pitch=0 time=0 
note_on channel=7 note=76 velocity=0 time=28 
note_on channel=7 note=76 velocity=93 time=112 
note_on channel=7 note=76 velocity=0 time=40 
note_on channel=7 note=69 velocity=96 time=8 
note_on channel=7 note=69 velocity=0 time=40 
note_on channel=7 note=73 velocity=87 time=8 
note_on channel=7 note=73 velocity=0 time=40 
note_on channel=7 note=76 velocity=83 time=8 
note_on channel=7 note=76 velocity=0 time=48 
note_on channel=7 note=69 velocity=97 time=0 
note_on channel=7 note=69 velocity=0 time=40 
note_on channel=7 note=73 velocity=93 time=4 
note_on channel=7 note=73 velocity=0 time=52 
note_on channel=7 note=76 velocity=80 time=0 
note_on channel=7 note=73 velocity=88 time=48 
note_on channel=7 note=76 velocity=0 time=8 
note_on channel=7 note=73 velocity=0 time=40 
note_on channel=7 note=69 velocity=97 time=0 
note_on channel=7 note=69 velocity=0 time=200 
note_on channel=7 note=66 velocity=93 time=232 
note_on channel=7 note=66 velocity=0 time=48 
note_on channel=7 note=69 velocity=90 time=0 
pitchwheel channel=7 pitch=257 time=20 
pitchwheel channel=7 pitch=738 time=0 
pitchwheel channel=7 pitch=1381 time=0 
pitchwheel channel=7 pitch=2088 time=8 
pitchwheel channel=7 pitch=3084 time=0 
pitchwheel channel=7 pitch=4593 time=0 
pitchwheel channel=7 pitch=6746 time=0 
pitchwheel channel=7 pitch=8191 time=4 
pitchwheel channel=7 pitch=5140 time=56 
pitchwheel channel=7 pitch=-193 time=4 
pitchwheel channel=7 pitch=0 time=0 
note_on channel=7 note=69 velocity=0 time=4 
note_on channel=7 note=74 velocity=88 time=4 
note_on channel=7 note=74 velocity=0 time=44 
note_on channel=7 note=71 velocity=76 time=0 
note_on channel=7 note=69 velocity=82 time=48 
note_on channel=7 note=71 velocity=0 time=8 
note_on channel=7 note=66 velocity=94 time=40 
note_on channel=7 note=69 velocity=0 time=4 
note_on channel=7 note=66 velocity=0 time=36 
note_on channel=7 note=69 velocity=94 time=8 
pitchwheel channel=7 pitch=257 time=20 
pitchwheel channel=7 pitch=771 time=0 
pitchwheel channel=7 pitch=1413 time=0 
pitchwheel channel=7 pitch=2023 time=8 
pitchwheel channel=7 pitch=2537 time=0 
pitchwheel channel=7 pitch=2987 time=0 
pitchwheel channel=7 pitch=3341 time=8 
pitchwheel channel=7 pitch=3790 time=0 
pitchwheel channel=7 pitch=4240 time=0 
pitchwheel channel=7 pitch=4658 time=0 
pitchwheel channel=7 pitch=4947 time=0 
pitchwheel channel=7 pitch=5332 time=4 
pitchwheel channel=7 pitch=5718 time=4 
pitchwheel channel=7 pitch=6489 time=8 
pitchwheel channel=7 pitch=7067 time=0 
pitchwheel channel=7 pitch=7645 time=0 
pitchwheel channel=7 pitch=8191 time=0 
pitchwheel channel=7 pitch=6425 time=144 
pitchwheel channel=7 pitch=3565 time=0 
pitchwheel channel=7 pitch=867 time=0 
pitchwheel channel=7 pitch=0 time=0 
note_on channel=7 note=69 velocity=0 time=8 
note_on channel=7 note=69 velocity=79 time=180 
pitchwheel channel=7 pitch=642 time=4 
pitchwheel channel=7 pitch=1863 time=0 
pitchwheel channel=7 pitch=3212 time=0 
pitchwheel channel=7 pitch=4915 time=4 
pitchwheel channel=7 pitch=7388 time=0 
pitchwheel channel=7 pitch=8191 time=4 
pitchwheel channel=7 pitch=4786 time=72 
pitchwheel channel=7 pitch=1702 time=0 
pitchwheel channel=7 pitch=0 time=4 
note_on channel=7 note=79 velocity=85 time=8 
note_on channel=7 note=69 velocity=0 time=12 
note_on channel=7 note=74 velocity=89 time=32 
note_on channel=7 note=79 velocity=0 time=12 
note_on channel=7 note=74 velocity=0 time=32 
note_on channel=7 note=76 velocity=86 time=8 
note_on channel=7 note=76 velocity=0 time=32 
note_on channel=7 note=76 velocity=94 time=16 
note_on channel=7 note=76 velocity=0 time=24 
note_on channel=7 note=76 velocity=90 time=24 
pitchwheel channel=7 pitch=-354 time=44 
pitchwheel channel=7 pitch=-450 time=4 
pitchwheel channel=7 pitch=-611 time=4 
pitchwheel channel=7 pitch=-675 time=0 
pitchwheel channel=7 pitch=-836 time=4 
pitchwheel channel=7 pitch=-964 time=4 
pitchwheel channel=7 pitch=-1093 time=0 
pitchwheel channel=7 pitch=-1318 time=0 
pitchwheel channel=7 pitch=-1575 time=4 
pitchwheel channel=7 pitch=-1832 time=4 
pitchwheel channel=7 pitch=-2057 time=0 
pitchwheel channel=7 pitch=-2410 time=0 
pitchwheel channel=7 pitch=-2635 time=8 
pitchwheel channel=7 pitch=-2860 time=0 
pitchwheel channel=7 pitch=-3181 time=0 
pitchwheel channel=7 pitch=-3470 time=4 
pitchwheel channel=7 pitch=-3663 time=4 
pitchwheel channel=7 pitch=-3856 time=4 
pitchwheel channel=7 pitch=-4241 time=0 
pitchwheel channel=7 pitch=-4434 time=0 
pitchwheel channel=7 pitch=-4594 time=4 
pitchwheel channel=7 pitch=-4787 time=0 
pitchwheel channel=7 pitch=-5012 time=8 
pitchwheel channel=7 pitch=-5205 time=0 
pitchwheel channel=7 pitch=-5430 time=0 
pitchwheel channel=7 pitch=-5783 time=0 
pitchwheel channel=7 pitch=-6297 time=8 
pitchwheel channel=7 pitch=-6747 time=0 
pitchwheel channel=7 pitch=-7004 time=0 
pitchwheel channel=7 pitch=-7389 time=8 
pitchwheel channel=7 pitch=-7775 time=0 
pitchwheel channel=7 pitch=-8160 time=0 
pitchwheel channel=7 pitch=-8192 time=4 
pitchwheel channel=7 pitch=-8032 time=100 
pitchwheel channel=7 pitch=-6875 time=0 
pitchwheel channel=7 pitch=-5783 time=0 
note_on channel=7 note=76 velocity=0 time=8 
pitchwheel channel=7 pitch=-5141 time=0 
pitchwheel channel=7 pitch=-4627 time=0 
pitchwheel channel=7 pitch=-3984 time=8 
pitchwheel channel=7 pitch=-3438 time=0 
pitchwheel channel=7 pitch=-2635 time=0 
pitchwheel channel=7 pitch=-1703 time=0 
pitchwheel channel=7 pitch=-611 time=4 
pitchwheel channel=7 pitch=0 time=4 
note_on channel=7 note=74 velocity=83 time=236 
note_on channel=7 note=74 velocity=0 time=40 
note_on channel=7 note=76 velocity=83 time=4 
note_on channel=7 note=74 velocity=82 time=96 
note_on channel=7 note=76 velocity=0 time=12 
note_on channel=7 note=76 velocity=88 time=40 
note_on channel=7 note=74 velocity=0 time=4 
note_on channel=7 note=74 velocity=91 time=92 
note_on channel=7 note=76 velocity=0 time=4 
note_on channel=7 note=74 velocity=0 time=32 
note_on channel=7 note=76 velocity=88 time=12 
pitchwheel channel=7 pitch=321 time=68 
pitchwheel channel=7 pitch=449 time=0 
pitchwheel channel=7 pitch=706 time=4 
pitchwheel channel=7 pitch=963 time=0 
pitchwheel channel=7 pitch=1285 time=4 
pitchwheel channel=7 pitch=1574 time=0 
pitchwheel channel=7 pitch=1863 time=8 
pitchwheel channel=7 pitch=2088 time=0 
pitchwheel channel=7 pitch=2345 time=0 
pitchwheel channel=7 pitch=2634 time=0 
pitchwheel channel=7 pitch=2923 time=4 
pitchwheel channel=7 pitch=3276 time=4 
pitchwheel channel=7 pitch=3758 time=0 
pitchwheel channel=7 pitch=4272 time=8 
pitchwheel channel=7 pitch=4754 time=0 
pitchwheel channel=7 pitch=5172 time=0 
pitchwheel channel=7 pitch=5589 time=4 
pitchwheel channel=7 pitch=6103 time=0 
pitchwheel channel=7 pitch=6810 time=4 
pitchwheel channel=7 pitch=7388 time=0 
pitchwheel channel=7 pitch=7967 time=4 
pitchwheel channel=7 pitch=8191 time=4 
pitchwheel channel=7 pitch=6682 time=208 
pitchwheel channel=7 pitch=3373 time=4 
pitchwheel channel=7 pitch=-386 time=0 
pitchwheel channel=7 pitch=0 time=0 
note_on channel=7 note=76 velocity=0 time=12 
note_on channel=7 note=71 velocity=74 time=92 
pitchwheel channel=7 pitch=835 time=4 
pitchwheel channel=7 pitch=2505 time=0 
pitchwheel channel=7 pitch=4304 time=4 
pitchwheel channel=7 pitch=6103 time=4 
pitchwheel channel=7 pitch=8191 time=0 
pitchwheel channel=7 pitch=7067 time=72 
pitchwheel channel=7 pitch=4047 time=0 
pitchwheel channel=7 pitch=1606 time=4 
pitchwheel channel=7 pitch=0 time=0 
note_on channel=7 note=71 velocity=0 time=8 
note_on channel=7 note=81 velocity=88 time=0 
note_on channel=7 note=76 velocity=72 time=48 
note_on channel=7 note=81 velocity=0 time=8 
note_on channel=7 note=78 velocity=77 time=40 
note_on channel=7 note=76 velocity=0 time=8 
note_on channel=7 note=81 velocity=82 time=40 
note_on channel=7 note=78 velocity=0 time=16 
note_on channel=7 note=76 velocity=72 time=32 
note_on channel=7 note=81 velocity=0 time=24 
note_on channel=7 note=69 velocity=80 time=20 
note_on channel=7 note=76 velocity=0 time=4 
note_on channel=7 note=69 velocity=0 time=48 
note_on channel=7 note=69 velocity=91 time=0 
note_on channel=7 note=69 velocity=0 time=288 
note_on channel=7 note=74 velocity=82 time=144 
note_on channel=7 note=74 velocity=0 time=44 
note_on channel=7 note=83 velocity=84 time=4 
note_on channel=7 note=74 velocity=81 time=48 
note_on channel=7 note=83 velocity=0 time=16 
note_on channel=7 note=71 velocity=83 time=32 
note_on channel=7 note=74 velocity=0 time=8 
note_on channel=7 note=71 velocity=0 time=32 
note_on channel=7 note=81 velocity=88 time=4 
note_on channel=7 note=81 velocity=0 time=36 
note_on channel=7 note=81 velocity=90 time=16 
pitchwheel channel=7 pitch=-964 time=52 
pitchwheel channel=7 pitch=-2153 time=0 
pitchwheel channel=7 pitch=-3438 time=0 
pitchwheel channel=7 pitch=-4691 time=0 
pitchwheel channel=7 pitch=-6554 time=8 
pitchwheel channel=7 pitch=-8192 time=0 
note_on channel=7 note=81 velocity=0 time=28 
pitchwheel channel=7 pitch=-5398 time=0 
pitchwheel channel=7 pitch=-3663 time=4 
pitchwheel channel=7 pitch=-1157 time=0 
pitchwheel channel=7 pitch=0 time=0 
note_on channel=7 note=79 velocity=97 time=4 
note_on channel=7 note=79 velocity=0 time=280 
note_on channel=7 note=67 velocity=76 time=152 
note_on channel=7 note=76 velocity=89 time=0 
pitchwheel channel=7 pitch=289 time=20 
pitchwheel channel=7 pitch=931 time=0 
pitchwheel channel=7 pitch=1959 time=0 
pitchwheel channel=7 pitch=3244 time=8 
pitchwheel channel=7 pitch=4915 time=0 
pitchwheel channel=7 pitch=7260 time=0 
pitchwheel channel=7 pitch=8191 time=0 
note_on channel=7 note=76 velocity=0 time=52 
note_on channel=7 note=67 velocity=0 time=0 
note_on channel=7 note=67 velocity=83 time=16 
note_on channel=7 note=76 velocity=90 time=0 
note_on channel=7 note=67 velocity=0 time=28 
note_on channel=7 note=76 velocity=0 time=4 
pitchwheel channel=7 pitch=5525 time=12 
pitchwheel channel=7 pitch=2377 time=0 
note_on channel=7 note=76 velocity=91 time=4 
pitchwheel channel=7 pitch=546 time=4 
pitchwheel channel=7 pitch=0 time=0 
note_on channel=7 note=67 velocity=82 time=0 
note_on channel=7 note=67 velocity=0 time=28 
note_on channel=7 note=76 velocity=0 time=0 
note_on channel=7 note=66 velocity=91 time=64 
note_on channel=7 note=74 velocity=93 time=0 
note_on channel=7 note=66 velocity=0 time=328 
note_on channel=7 note=74 velocity=0 time=8 
note_on channel=7 note=67 velocity=90 time=144 
pitchwheel channel=7 pitch=963 time=20 
pitchwheel channel=7 pitch=2345 time=0 
pitchwheel channel=7 pitch=4272 time=0 
pitchwheel channel=7 pitch=7067 time=8 
pitchwheel channel=7 pitch=8191 time=0 
note_on channel=7 note=67 velocity=0 time=52 
pitchwheel channel=7 pitch=7324 time=0 
pitchwheel channel=7 pitch=3983 time=4 
pitchwheel channel=7 pitch=1252 time=0 
pitchwheel channel=7 pitch=0 time=4 
note_on channel=7 note=74 velocity=93 time=8 
note_on channel=7 note=74 velocity=0 time=60 
note_on channel=7 note=76 velocity=97 time=84 
note_on channel=7 note=76 velocity=0 time=68 
note_on channel=7 note=76 velocity=96 time=76 
pitchwheel channel=7 pitch=289 time=12 
pitchwheel channel=7 pitch=481 time=0 
pitchwheel channel=7 pitch=642 time=4 
pitchwheel channel=7 pitch=835 time=0 
pitchwheel channel=7 pitch=1060 time=4 
pitchwheel channel=7 pitch=1413 time=0 
pitchwheel channel=7 pitch=1799 time=8 
pitchwheel channel=7 pitch=2184 time=0 
pitchwheel channel=7 pitch=2505 time=0 
pitchwheel channel=7 pitch=2891 time=0 
pitchwheel channel=7 pitch=3212 time=4 
pitchwheel channel=7 pitch=3598 time=4 
pitchwheel channel=7 pitch=4047 time=0 
pitchwheel channel=7 pitch=4369 time=4 
pitchwheel channel=7 pitch=4754 time=0 
pitchwheel channel=7 pitch=4979 time=4 
pitchwheel channel=7 pitch=5236 time=4 
pitchwheel channel=7 pitch=5461 time=4 
pitchwheel channel=7 pitch=6039 time=0 
pitchwheel channel=7 pitch=6746 time=0 
pitchwheel channel=7 pitch=7131 time=8 
pitchwheel channel=7 pitch=7517 time=0 
pitchwheel channel=7 pitch=7967 time=0 
pitchwheel channel=7 pitch=8191 time=0 
pitchwheel channel=7 pitch=6553 time=172 
pitchwheel channel=7 pitch=4144 time=8 
pitchwheel channel=7 pitch=2023 time=4 
pitchwheel channel=7 pitch=353 time=0 
pitchwheel channel=7 pitch=0 time=0 
note_on channel=7 note=76 velocity=0 time=28 
note_on channel=7 note=76 velocity=93 time=112 
note_on channel=7 note=76 velocity=0 time=40 
note_on channel=7 note=69 velocity=96 time=4 
note_on channel=7 note=69 velocity=0 time=44 
note_on channel=7 note=73 velocity=87 time=8 
note_on channel=7 note=73 velocity=0 time=40 
note_on channel=7 note=76 velocity=83 time=8 
note_on channel=7 note=76 velocity=0 time=48 
note_on channel=7 note=69 velocity=97 time=0 
note_on channel=7 note=69 velocity=0 time=40 
note_on channel=7 note=73 velocity=93 time=4 
note_on channel=7 note=73 velocity=0 time=52 
note_on channel=7 note=76 velocity=80 time=0 
note_on channel=7 note=73 velocity=88 time=48 
note_on channel=7 note=76 velocity=0 time=8 
note_on channel=7 note=73 velocity=0 time=40 
note_on channel=7 note=69 velocity=97 time=0 
note_on channel=7 note=69 velocity=0 time=196 
note_on channel=7 note=66 velocity=93 time=236 
note_on channel=7 note=66 velocity=0 time=48 
note_on channel=7 note=69 velocity=90 time=0 
pitchwheel channel=7 pitch=257 time=20 
pitchwheel channel=7 pitch=738 time=0 
pitchwheel channel=7 pitch=1381 time=0 
pitchwheel channel=7 pitch=2088 time=4 
pitchwheel channel=7 pitch=3084 time=4 
pitchwheel channel=7 pitch=4593 time=0 
pitchwheel channel=7 pitch=6746 time=0 
pitchwheel channel=7 pitch=8191 time=4 
pitchwheel channel=7 pitch=5140 time=60 
pitchwheel channel=7 pitch=-193 time=0 
pitchwheel channel=7 pitch=0 time=0 
note_on channel=7 note=69 velocity=0 time=4 
note_on channel=7 note=74 velocity=88 time=4 
note_on channel=7 note=74 velocity=0 time=44 
note_on channel=7 note=71 velocity=76 time=0 
note_on channel=7 note=69 velocity=82 time=48 
note_on channel=7 note=71 velocity=0 time=8 
note_on channel=7 note=66 velocity=94 time=40 
note_on channel=7 note=69 velocity=0 time=8 
note_on channel=7 note=66 velocity=0 time=32 
note_on channel=7 note=69 velocity=94 time=8 
pitchwheel channel=7 pitch=257 time=20 
pitchwheel channel=7 pitch=771 time=0 
pitchwheel channel=7 pitch=1413 time=4 
pitchwheel channel=7 pitch=2023 time=4 
pitchwheel channel=7 pitch=2537 time=0 
pitchwheel channel=7 pitch=2987 time=0 
pitchwheel channel=7 pitch=3341 time=4 
pitchwheel channel=7 pitch=3790 time=4 
pitchwheel channel=7 pitch=4240 time=0 
pitchwheel channel=7 pitch=4658 time=0 
pitchwheel channel=7 pitch=4947 time=4 
pitchwheel channel=7 pitch=5332 time=0 
pitchwheel channel=7 pitch=5718 time=4 
pitchwheel channel=7 pitch=6489 time=8 
pitchwheel channel=7 pitch=7067 time=0 
pitchwheel channel=7 pitch=7645 time=0 
pitchwheel channel=7 pitch=8191 time=4 
pitchwheel channel=7 pitch=6425 time=140 
pitchwheel channel=7 pitch=3565 time=0 
pitchwheel channel=7 pitch=867 time=0 
pitchwheel channel=7 pitch=0 time=0 
note_on channel=7 note=69 velocity=0 time=8 
note_on channel=7 note=69 velocity=79 time=180 
pitchwheel channel=7 pitch=642 time=4 
pitchwheel channel=7 pitch=1863 time=0 
pitchwheel channel=7 pitch=3212 time=0 
pitchwheel channel=7 pitch=4915 time=0 
pitchwheel channel=7 pitch=7388 time=8 
pitchwheel channel=7 pitch=8191 time=0 
pitchwheel channel=7 pitch=4786 time=72 
pitchwheel channel=7 pitch=1702 time=0 
pitchwheel channel=7 pitch=0 time=4 
note_on channel=7 note=79 velocity=85 time=8 
note_on channel=7 note=69 velocity=0 time=12 
note_on channel=7 note=74 velocity=89 time=36 
note_on channel=7 note=79 velocity=0 time=8 
note_on channel=7 note=74 velocity=0 time=32 
note_on channel=7 note=76 velocity=86 time=8 
note_on channel=7 note=76 velocity=0 time=32 
note_on channel=7 note=76 velocity=94 time=16 
note_on channel=7 note=76 velocity=0 time=32 
note_on channel=7 note=76 velocity=90 time=16 
pitchwheel channel=7 pitch=-354 time=48 
pitchwheel channel=7 pitch=-450 time=4 
pitchwheel channel=7 pitch=-611 time=0 
pitchwheel channel=7 pitch=-675 time=0 
pitchwheel channel=7 pitch=-836 time=0 
pitchwheel channel=7 pitch=-964 time=8 
pitchwheel channel=7 pitch=-1093 time=0 
pitchwheel channel=7 pitch=-1318 time=0 
pitchwheel channel=7 pitch=-1575 time=4 
pitchwheel channel=7 pitch=-1832 time=4 
pitchwheel channel=7 pitch=-2057 time=0 
pitchwheel channel=7 pitch=-2410 time=0 
pitchwheel channel=7 pitch=-2635 time=4 
pitchwheel channel=7 pitch=-2860 time=4 
pitchwheel channel=7 pitch=-3181 time=0 
pitchwheel channel=7 pitch=-3470 time=0 
pitchwheel channel=7 pitch=-3663 time=8 
pitchwheel channel=7 pitch=-3856 time=8 
pitchwheel channel=7 pitch=-4241 time=0 
pitchwheel channel=7 pitch=-4434 time=0 
pitchwheel channel=7 pitch=-4594 time=0 
pitchwheel channel=7 pitch=-4787 time=0 
pitchwheel channel=7 pitch=-5012 time=8 
pitchwheel channel=7 pitch=-5205 time=0 
pitchwheel channel=7 pitch=-5430 time=0 
pitchwheel channel=7 pitch=-5783 time=4 
pitchwheel channel=7 pitch=-6297 time=4 
pitchwheel channel=7 pitch=-6747 time=0 
pitchwheel channel=7 pitch=-7004 time=0 
pitchwheel channel=7 pitch=-7389 time=8 
pitchwheel channel=7 pitch=-7775 time=0 
pitchwheel channel=7 pitch=-8160 time=0 
pitchwheel channel=7 pitch=-8192 time=4 
pitchwheel channel=7 pitch=-8032 time=100 
pitchwheel channel=7 pitch=-6875 time=0 
pitchwheel channel=7 pitch=-5783 time=4 
note_on channel=7 note=76 velocity=0 time=4 
pitchwheel channel=7 pitch=-5141 time=0 
pitchwheel channel=7 pitch=-4627 time=0 
pitchwheel channel=7 pitch=-3984 time=0 
pitchwheel channel=7 pitch=-3438 time=4 
pitchwheel channel=7 pitch=-2635 time=4 
pitchwheel channel=7 pitch=-1703 time=0 
pitchwheel channel=7 pitch=-611 time=4 
pitchwheel channel=7 pitch=0 time=4 
note_on channel=7 note=74 velocity=83 time=236 
note_on channel=7 note=74 velocity=0 time=40 
note_on channel=7 note=76 velocity=83 time=4 
note_on channel=7 note=74 velocity=82 time=96 
note_on channel=7 note=76 velocity=0 time=16 
note_on channel=7 note=76 velocity=88 time=36 
note_on channel=7 note=74 velocity=0 time=4 
note_on channel=7 note=76 velocity=0 time=92 
note_on channel=7 note=74 velocity=91 time=0 
note_on channel=7 note=74 velocity=0 time=36 
note_on channel=7 note=76 velocity=88 time=12 
pitchwheel channel=7 pitch=321 time=68 
pitchwheel channel=7 pitch=449 time=0 
pitchwheel channel=7 pitch=706 time=4 
pitchwheel channel=7 pitch=963 time=0 
pitchwheel channel=7 pitch=1285 time=4 
pitchwheel channel=7 pitch=1574 time=0 
pitchwheel channel=7 pitch=1863 time=8 
pitchwheel channel=7 pitch=2088 time=0 
pitchwheel channel=7 pitch=2345 time=0 
pitchwheel channel=7 pitch=2634 time=0 
pitchwheel channel=7 pitch=2923 time=4 
pitchwheel channel=7 pitch=3276 time=0 
pitchwheel channel=7 pitch=3758 time=4 
pitchwheel channel=7 pitch=4272 time=8 
pitchwheel channel=7 pitch=4754 time=0 
pitchwheel channel=7 pitch=5172 time=0 
pitchwheel channel=7 pitch=5589 time=4 
pitchwheel channel=7 pitch=6103 time=4 
pitchwheel channel=7 pitch=6810 time=0 
pitchwheel channel=7 pitch=7388 time=0 
pitchwheel channel=7 pitch=7967 time=4 
pitchwheel channel=7 pitch=8191 time=0 
pitchwheel channel=7 pitch=6682 time=212 
pitchwheel channel=7 pitch=3373 time=4 
pitchwheel channel=7 pitch=-386 time=4 
pitchwheel channel=7 pitch=0 time=0 
note_on channel=7 note=76 velocity=0 time=8 
note_on channel=7 note=71 velocity=74 time=92 
pitchwheel channel=7 pitch=835 time=4 
pitchwheel channel=7 pitch=2505 time=0 
pitchwheel channel=7 pitch=4304 time=0 
pitchwheel channel=7 pitch=6103 time=4 
pitchwheel channel=7 pitch=8191 time=4 
pitchwheel channel=7 pitch=7067 time=72 
pitchwheel channel=7 pitch=4047 time=0 
pitchwheel channel=7 pitch=1606 time=4 
pitchwheel channel=7 pitch=0 time=0 
note_on channel=7 note=71 velocity=0 time=8 
note_on channel=7 note=81 velocity=88 time=0 
note_on channel=7 note=76 velocity=72 time=44 
note_on channel=7 note=81 velocity=0 time=12 
note_on channel=7 note=78 velocity=77 time=40 
note_on channel=7 note=76 velocity=0 time=8 
note_on channel=7 note=81 velocity=82 time=40 
note_on channel=7 note=78 velocity=0 time=16 
note_on channel=7 note=76 velocity=72 time=32 
note_on channel=7 note=81 velocity=0 time=24 
note_on channel=7 note=76 velocity=0 time=24 
note_on channel=7 note=69 velocity=80 time=0 
note_on channel=7 note=69 velocity=0 time=48 
note_on channel=7 note=69 velocity=91 time=0 
note_on channel=7 note=69 velocity=0 time=288 
note_on channel=7 note=74 velocity=82 time=144 
note_on channel=7 note=74 velocity=0 time=44 
note_on channel=7 note=83 velocity=84 time=4 
note_on channel=7 note=74 velocity=81 time=44 
note_on channel=7 note=83 velocity=0 time=20 
note_on channel=7 note=71 velocity=83 time=32 
note_on channel=7 note=74 velocity=0 time=8 
note_on channel=7 note=71 velocity=0 time=32 
note_on channel=7 note=81 velocity=88 time=4 
note_on channel=7 note=81 velocity=0 time=36 
note_on channel=7 note=81 velocity=90 time=16 
pitchwheel channel=7 pitch=-964 time=52 
pitchwheel channel=7 pitch=-2153 time=0 
pitchwheel channel=7 pitch=-3438 time=0 
pitchwheel channel=7 pitch=-4691 time=4 
pitchwheel channel=7 pitch=-6554 time=0 
pitchwheel channel=7 pitch=-8192 time=4 
note_on channel=7 note=81 velocity=0 time=28 
pitchwheel channel=7 pitch=-5398 time=0 
pitchwheel channel=7 pitch=-3663 time=4 
note_on channel=7 note=79 velocity=97 time=4 
pitchwheel channel=7 pitch=-1157 time=4 
pitchwheel channel=7 pitch=0 time=0 
note_on channel=7 note=79 velocity=0 time=276 
note_on channel=7 note=67 velocity=76 time=152 
note_on channel=7 note=76 velocity=89 time=0 
pitchwheel channel=7 pitch=289 time=20 
pitchwheel channel=7 pitch=931 time=0 
pitchwheel channel=7 pitch=1959 time=0 
pitchwheel channel=7 pitch=3244 time=8 
pitchwheel channel=7 pitch=4915 time=0 
pitchwheel channel=7 pitch=7260 time=0 
pitchwheel channel=7 pitch=8191 time=0 
note_on channel=7 note=76 velocity=0 time=52 
note_on channel=7 note=67 velocity=0 time=0 
note_on channel=7 note=67 velocity=83 time=16 
note_on channel=7 note=76 velocity=90 time=0 
note_on channel=7 note=67 velocity=0 time=28 
note_on channel=7 note=76 velocity=0 time=4 
pitchwheel channel=7 pitch=5525 time=8 
pitchwheel channel=7 pitch=2377 time=4 
pitchwheel channel=7 pitch=546 time=4 
note_on channel=7 note=76 velocity=91 time=0 
pitchwheel channel=7 pitch=0 time=4 
note_on channel=7 note=67 velocity=82 time=0 
note_on channel=7 note=67 velocity=0 time=28 
note_on channel=7 note=76 velocity=0 time=0 
note_on channel=7 note=66 velocity=91 time=64 
note_on channel=7 note=74 velocity=93 time=0 
note_on channel=7 note=66 velocity=0 time=328 
note_on channel=7 note=74 velocity=0 time=8 
<meta message end_of_track time=0> 
<meta message midi_port port=0 time=0> 
<meta message track_name name='Melody              ' time=0> 
program_change channel=8 program=21 time=0 
control_change channel=8 control=7 value=102 time=0 
control_change channel=8 control=10 value=44 time=0 
control_change channel=8 control=1 value=0 time=0 
control_change channel=8 control=2 value=85 time=0 
control_change channel=8 control=91 value=100 time=4 
note_on channel=8 note=57 velocity=92 time=1724 
note_on channel=8 note=57 velocity=0 time=56 
note_on channel=8 note=57 velocity=87 time=40 
note_on channel=8 note=57 velocity=0 time=76 
note_on channel=8 note=59 velocity=92 time=20 
note_on channel=8 note=57 velocity=90 time=144 
note_on channel=8 note=59 velocity=0 time=8 
note_on channel=8 note=57 velocity=0 time=404 
note_on channel=8 note=59 velocity=92 time=20 
note_on channel=8 note=57 velocity=80 time=96 
note_on channel=8 note=59 velocity=0 time=4 
note_on channel=8 note=59 velocity=89 time=44 
note_on channel=8 note=57 velocity=0 time=24 
note_on channel=8 note=59 velocity=0 time=72 
note_on channel=8 note=62 velocity=89 time=0 
note_on channel=8 note=62 velocity=0 time=436 
note_on channel=8 note=64 velocity=92 time=92 
note_on channel=8 note=64 velocity=0 time=72 
note_on channel=8 note=64 velocity=88 time=24 
note_on channel=8 note=66 velocity=92 time=96 
note_on channel=8 note=64 velocity=0 time=16 
note_on channel=8 note=66 velocity=0 time=124 
note_on channel=8 note=64 velocity=86 time=4 
note_on channel=8 note=59 velocity=83 time=192 
note_on channel=8 note=59 velocity=0 time=24 
note_on channel=8 note=64 velocity=0 time=16 
note_on channel=8 note=59 velocity=92 time=8 
note_on channel=8 note=59 velocity=0 time=84 
note_on channel=8 note=57 velocity=86 time=12 
note_on channel=8 note=57 velocity=0 time=96 
note_on channel=8 note=59 velocity=88 time=0 
note_on channel=8 note=57 velocity=88 time=100 
note_on channel=8 note=59 velocity=0 time=12 
note_on channel=8 note=57 velocity=0 time=80 
note_on channel=8 note=62 velocity=92 time=0 
note_on channel=8 note=62 velocity=0 time=120 
note_on channel=8 note=62 velocity=92 time=24 
note_on channel=8 note=62 velocity=0 time=624 
note_on channel=8 note=57 velocity=92 time=192 
note_on channel=8 note=57 velocity=0 time=64 
note_on channel=8 note=57 velocity=89 time=32 
note_on channel=8 note=59 velocity=92 time=48 
note_on channel=8 note=57 velocity=0 time=24 
note_on channel=8 note=57 velocity=89 time=120 
note_on channel=8 note=59 velocity=0 time=24 
note_on channel=8 note=57 velocity=0 time=264 
note_on channel=8 note=59 velocity=92 time=0 
note_on channel=8 note=59 velocity=0 time=96 
note_on channel=8 note=62 velocity=92 time=0 
note_on channel=8 note=62 velocity=0 time=64 
note_on channel=8 note=62 velocity=92 time=32 
note_on channel=8 note=64 velocity=90 time=96 
note_on channel=8 note=62 velocity=0 time=20 
note_on channel=8 note=66 velocity=92 time=76 
note_on channel=8 note=64 velocity=0 time=4 
note_on channel=8 note=66 velocity=0 time=364 
note_on channel=8 note=64 velocity=92 time=16 
note_on channel=8 note=64 velocity=0 time=72 
note_on channel=8 note=64 velocity=92 time=24 
note_on channel=8 note=64 velocity=0 time=72 
note_on channel=8 note=64 velocity=92 time=24 
note_on channel=8 note=64 velocity=0 time=88 
note_on channel=8 note=64 velocity=85 time=8 
note_on channel=8 note=66 velocity=90 time=96 
note_on channel=8 note=64 velocity=0 time=4 
note_on channel=8 note=64 velocity=91 time=140 
note_on channel=8 note=66 velocity=0 time=8 
note_on channel=8 note=59 velocity=92 time=232 
note_on channel=8 note=64 velocity=0 time=8 
note_on channel=8 note=59 velocity=0 time=92 
note_on channel=8 note=62 velocity=92 time=0 
note_on channel=8 note=62 velocity=0 time=60 
note_on channel=8 note=62 velocity=92 time=32 
note_on channel=8 note=64 velocity=86 time=100 
note_on channel=8 note=62 velocity=0 time=4 
note_on channel=8 note=62 velocity=92 time=40 
note_on channel=8 note=64 velocity=0 time=16 
note_on channel=8 note=62 velocity=0 time=176 
note_on channel=8 note=62 velocity=92 time=48 
note_on channel=8 note=62 velocity=0 time=96 
note_on channel=8 note=64 velocity=92 time=0 
note_on channel=8 note=64 velocity=0 time=48 
note_on channel=8 note=66 velocity=92 time=0 
note_on channel=8 note=66 velocity=0 time=580 
note_on channel=8 note=64 velocity=88 time=44 
note_on channel=8 note=62 velocity=84 time=96 
note_on channel=8 note=64 velocity=0 time=8 
note_on channel=8 note=64 velocity=87 time=36 
note_on channel=8 note=62 velocity=0 time=4 
note_on channel=8 note=64 velocity=0 time=572 
note_on channel=8 note=66 velocity=84 time=52 
note_on channel=8 note=66 velocity=0 time=88 
note_on channel=8 note=64 velocity=75 time=8 
note_on channel=8 note=64 velocity=0 time=48 
note_on channel=8 note=62 velocity=91 time=0 
note_on channel=8 note=62 velocity=0 time=592 
note_on channel=8 note=66 velocity=92 time=32 
note_on channel=8 note=69 velocity=91 time=96 
note_on channel=8 note=66 velocity=0 time=12 
note_on channel=8 note=71 velocity=91 time=36 
note_on channel=8 note=69 velocity=0 time=12 
note_on channel=8 note=71 velocity=0 time=588 
note_on channel=8 note=71 velocity=90 time=24 
note_on channel=8 note=71 velocity=0 time=100 
note_on channel=8 note=66 velocity=88 time=4 
note_on channel=8 note=69 velocity=88 time=40 
note_on channel=8 note=66 velocity=0 time=8 
note_on channel=8 note=66 velocity=92 time=140 
note_on channel=8 note=69 velocity=0 time=4 
note_on channel=8 note=64 velocity=82 time=472 
note_on channel=8 note=66 velocity=0 time=20 
note_on channel=8 note=64 velocity=0 time=68 
note_on channel=8 note=62 velocity=79 time=12 
note_on channel=8 note=64 velocity=78 time=44 
note_on channel=8 note=62 velocity=0 time=8 
note_on channel=8 note=64 velocity=0 time=136 
note_on channel=8 note=66 velocity=89 time=0 
note_on channel=8 note=64 velocity=86 time=480 
note_on channel=8 note=66 velocity=0 time=8 
note_on channel=8 note=64 velocity=0 time=72 
note_on channel=8 note=62 velocity=87 time=16 
note_on channel=8 note=62 velocity=0 time=40 
note_on channel=8 note=62 velocity=71 time=4 
note_on channel=8 note=62 velocity=0 time=600 
note_on channel=8 note=62 velocity=86 time=28 
note_on channel=8 note=62 velocity=0 time=100 
note_on channel=8 note=64 velocity=79 time=0 
note_on channel=8 note=64 velocity=0 time=36 
note_on channel=8 note=62 velocity=78 time=4 
note_on channel=8 note=62 velocity=0 time=824 
note_on channel=8 note=57 velocity=84 time=188 
note_on channel=8 note=57 velocity=0 time=64 
note_on channel=8 note=57 velocity=80 time=32 
note_on channel=8 note=57 velocity=0 time=80 
note_on channel=8 note=59 velocity=92 time=16 
note_on channel=8 note=57 velocity=90 time=144 
note_on channel=8 note=59 velocity=0 time=24 
note_on channel=8 note=57 velocity=0 time=240 
note_on channel=8 note=59 velocity=89 time=168 
note_on channel=8 note=57 velocity=84 time=96 
note_on channel=8 note=59 velocity=0 time=4 
note_on channel=8 note=59 velocity=86 time=44 
note_on channel=8 note=57 velocity=0 time=16 
note_on channel=8 note=62 velocity=91 time=128 
note_on channel=8 note=59 velocity=0 time=4 
note_on channel=8 note=62 velocity=0 time=308 
note_on channel=8 note=64 velocity=92 time=168 
note_on channel=8 note=64 velocity=0 time=56 
note_on channel=8 note=64 velocity=91 time=40 
note_on channel=8 note=66 velocity=92 time=96 
note_on channel=8 note=64 velocity=0 time=16 
note_on channel=8 note=66 velocity=0 time=128 
note_on channel=8 note=64 velocity=91 time=0 
note_on channel=8 note=59 velocity=81 time=192 
note_on channel=8 note=64 velocity=0 time=8 
note_on channel=8 note=59 velocity=0 time=16 
note_on channel=8 note=59 velocity=89 time=28 
note_on channel=8 note=59 velocity=0 time=84 
note_on channel=8 note=57 velocity=84 time=8 
note_on channel=8 note=57 velocity=0 time=96 
note_on channel=8 note=59 velocity=84 time=0 
note_on channel=8 note=59 velocity=0 time=96 
note_on channel=8 note=57 velocity=89 time=0 
note_on channel=8 note=62 velocity=92 time=96 
note_on channel=8 note=57 velocity=0 time=4 
note_on channel=8 note=62 velocity=0 time=124 
note_on channel=8 note=62 velocity=92 time=16 
note_on channel=8 note=62 velocity=0 time=796 
note_on channel=8 note=57 velocity=92 time=20 
note_on channel=8 note=57 velocity=0 time=56 
note_on channel=8 note=57 velocity=78 time=40 
note_on channel=8 note=57 velocity=0 time=88 
note_on channel=8 note=59 velocity=88 time=8 
note_on channel=8 note=57 velocity=86 time=144 
note_on channel=8 note=59 velocity=0 time=24 
note_on channel=8 note=59 velocity=92 time=216 
note_on channel=8 note=57 velocity=0 time=8 
note_on channel=8 note=62 velocity=87 time=88 
note_on channel=8 note=59 velocity=0 time=4 
note_on channel=8 note=62 velocity=0 time=68 
note_on channel=8 note=62 velocity=76 time=24 
note_on channel=8 note=64 velocity=90 time=96 
note_on channel=8 note=62 velocity=0 time=16 
note_on channel=8 note=64 velocity=0 time=80 
note_on channel=8 note=66 velocity=92 time=0 
note_on channel=8 note=64 velocity=92 time=384 
note_on channel=8 note=66 velocity=0 time=8 
note_on channel=8 note=64 velocity=0 time=68 
note_on channel=8 note=64 velocity=92 time=20 
note_on channel=8 note=64 velocity=0 time=64 
note_on channel=8 note=64 velocity=92 time=32 
note_on channel=8 note=64 velocity=0 time=72 
note_on channel=8 note=64 velocity=92 time=24 
note_on channel=8 note=66 velocity=92 time=96 
note_on channel=8 note=64 velocity=0 time=16 
note_on channel=8 note=64 velocity=91 time=128 
note_on channel=8 note=66 velocity=0 time=16 
note_on channel=8 note=64 velocity=0 time=224 
note_on channel=8 note=59 velocity=84 time=0 
note_on channel=8 note=59 velocity=0 time=96 
note_on channel=8 note=62 velocity=92 time=0 
note_on channel=8 note=62 velocity=0 time=72 
note_on channel=8 note=62 velocity=92 time=24 
note_on channel=8 note=64 velocity=85 time=96 
note_on channel=8 note=62 velocity=0 time=8 
note_on channel=8 note=62 velocity=85 time=40 
note_on channel=8 note=64 velocity=0 time=16 
note_on channel=8 note=62 velocity=0 time=200 
note_on channel=8 note=62 velocity=92 time=24 
note_on channel=8 note=62 velocity=0 time=88 
note_on channel=8 note=64 velocity=92 time=8 
note_on channel=8 note=64 velocity=0 time=48 
note_on channel=8 note=66 velocity=92 time=0 
note_on channel=8 note=66 velocity=0 time=580 
note_on channel=8 note=64 velocity=88 time=44 
note_on channel=8 note=62 velocity=84 time=100 
note_on channel=8 note=64 velocity=0 time=4 
note_on channel=8 note=62 velocity=0 time=40 
note_on channel=8 note=64 velocity=87 time=0 
note_on channel=8 note=64 velocity=0 time=576 
note_on channel=8 note=66 velocity=84 time=48 
note_on channel=8 note=66 velocity=0 time=88 
note_on channel=8 note=64 velocity=75 time=12 
note_on channel=8 note=62 velocity=91 time=92 
note_on channel=8 note=64 velocity=0 time=20 
note_on channel=8 note=66 velocity=92 time=556 
note_on channel=8 note=62 velocity=0 time=16 
note_on channel=8 note=69 velocity=91 time=84 
note_on channel=8 note=66 velocity=0 time=8 
note_on channel=8 note=71 velocity=91 time=36 
note_on channel=8 note=69 velocity=0 time=12 
note_on channel=8 note=71 velocity=0 time=588 
note_on channel=8 note=71 velocity=90 time=24 
note_on channel=8 note=71 velocity=0 time=100 
note_on channel=8 note=66 velocity=88 time=0 
note_on channel=8 note=69 velocity=88 time=44 
note_on channel=8 note=66 velocity=0 time=8 
note_on channel=8 note=66 velocity=92 time=136 
note_on channel=8 note=69 velocity=0 time=8 
note_on channel=8 note=64 velocity=82 time=472 
note_on channel=8 note=66 velocity=0 time=16 
note_on channel=8 note=64 velocity=0 time=72 
note_on channel=8 note=62 velocity=79 time=12 
note_on channel=8 note=64 velocity=78 time=44 
note_on channel=8 note=62 velocity=0 time=8 
note_on channel=8 note=64 velocity=0 time=136 
note_on channel=8 note=66 velocity=89 time=4 
note_on channel=8 note=64 velocity=86 time=476 
note_on channel=8 note=66 velocity=0 time=8 
note_on channel=8 note=64 velocity=0 time=72 
note_on channel=8 note=62 velocity=87 time=20 
note_on channel=8 note=62 velocity=0 time=36 
note_on channel=8 note=62 velocity=71 time=4 
note_on channel=8 note=62 velocity=0 time=600 
note_on channel=8 note=62 velocity=86 time=28 
note_on channel=8 note=62 velocity=0 time=100 
note_on channel=8 note=64 velocity=79 time=0 
note_on channel=8 note=64 velocity=0 time=36 
note_on channel=8 note=62 velocity=78 time=8 
note_on channel=8 note=62 velocity=0 time=824 
note_on channel=8 note=62 velocity=92 time=88 
note_on channel=8 note=62 velocity=0 time=64 
note_on channel=8 note=62 velocity=92 time=32 
note_on channel=8 note=62 velocity=0 time=72 
note_on channel=8 note=62 velocity=92 time=28 
note_on channel=8 note=61 velocity=91 time=92 
note_on channel=8 note=62 velocity=0 time=8 
note_on channel=8 note=61 velocity=0 time=184 
note_on channel=8 note=62 velocity=91 time=0 
note_on channel=8 note=64 velocity=92 time=96 
note_on channel=8 note=62 velocity=0 time=4 
note_on channel=8 note=64 velocity=0 time=92 
note_on channel=8 note=66 velocity=92 time=0 
note_on channel=8 note=66 velocity=0 time=128 
note_on channel=8 note=66 velocity=91 time=16 
note_on channel=8 note=66 velocity=0 time=24 
note_on channel=8 note=66 velocity=91 time=24 
note_on channel=8 note=66 velocity=0 time=128 
note_on channel=8 note=66 velocity=92 time=16 
note_on channel=8 note=66 velocity=0 time=24 
note_on channel=8 note=66 velocity=86 time=24 
note_on channel=8 note=66 velocity=0 time=88 
note_on channel=8 note=62 velocity=90 time=8 
note_on channel=8 note=62 velocity=0 time=224 
note_on channel=8 note=62 velocity=92 time=16 
note_on channel=8 note=62 velocity=0 time=40 
note_on channel=8 note=67 velocity=90 time=8 
note_on channel=8 note=67 velocity=0 time=72 
note_on channel=8 note=67 velocity=92 time=24 
note_on channel=8 note=67 velocity=0 time=40 
note_on channel=8 note=67 velocity=92 time=4 
note_on channel=8 note=67 velocity=0 time=120 
note_on channel=8 note=67 velocity=92 time=28 
note_on channel=8 note=67 velocity=0 time=40 
note_on channel=8 note=67 velocity=92 time=4 
note_on channel=8 note=67 velocity=0 time=120 
note_on channel=8 note=66 velocity=88 time=28 
note_on channel=8 note=64 velocity=92 time=96 
note_on channel=8 note=66 velocity=0 time=8 
note_on channel=8 note=64 velocity=0 time=92 
note_on channel=8 note=62 velocity=85 time=0 
note_on channel=8 note=62 velocity=0 time=92 
note_on channel=8 note=64 velocity=88 time=0 
note_on channel=8 note=66 velocity=89 time=192 
note_on channel=8 note=64 velocity=0 time=8 
note_on channel=8 note=66 velocity=0 time=64 
note_on channel=8 note=66 velocity=92 time=24 
note_on channel=8 note=66 velocity=0 time=36 
note_on channel=8 note=64 velocity=76 time=12 
note_on channel=8 note=64 velocity=0 time=424 
note_on channel=8 note=66 velocity=91 time=12 
note_on channel=8 note=66 velocity=0 time=76 
note_on channel=8 note=66 velocity=92 time=16 
note_on channel=8 note=66 velocity=0 time=84 
note_on channel=8 note=66 velocity=92 time=12 
note_on channel=8 note=66 velocity=0 time=32 
note_on channel=8 note=66 velocity=92 time=16 
note_on channel=8 note=66 velocity=0 time=128 
note_on channel=8 note=64 velocity=92 time=16 
note_on channel=8 note=64 velocity=0 time=92 
note_on channel=8 note=64 velocity=92 time=4 
note_on channel=8 note=64 velocity=0 time=80 
note_on channel=8 note=64 velocity=92 time=16 
note_on channel=8 note=64 velocity=0 time=24 
note_on channel=8 note=64 velocity=92 time=24 
note_on channel=8 note=64 velocity=0 time=128 
note_on channel=8 note=62 velocity=92 time=16 
note_on channel=8 note=62 velocity=0 time=88 
note_on channel=8 note=62 velocity=92 time=8 
note_on channel=8 note=62 velocity=0 time=72 
note_on channel=8 note=62 velocity=92 time=24 
note_on channel=8 note=62 velocity=0 time=24 
note_on channel=8 note=62 velocity=92 time=24 
note_on channel=8 note=62 velocity=0 time=112 
note_on channel=8 note=62 velocity=92 time=32 
note_on channel=8 note=62 velocity=0 time=92 
note_on channel=8 note=62 velocity=92 time=4 
note_on channel=8 note=62 velocity=0 time=80 
note_on channel=8 note=62 velocity=92 time=16 
note_on channel=8 note=62 velocity=0 time=24 
note_on channel=8 note=62 velocity=92 time=20 
note_on channel=8 note=62 velocity=0 time=140 
note_on channel=8 note=64 velocity=92 time=8 
note_on channel=8 note=64 velocity=0 time=72 
note_on channel=8 note=66 velocity=81 time=24 
note_on channel=8 note=64 velocity=91 time=48 
note_on channel=8 note=66 velocity=0 time=16 
note_on channel=8 note=64 velocity=0 time=384 
note_on channel=8 note=64 velocity=92 time=32 
note_on channel=8 note=64 velocity=0 time=92 
note_on channel=8 note=66 velocity=92 time=8 
note_on channel=8 note=66 velocity=0 time=92 
note_on channel=8 note=67 velocity=92 time=0 
note_on channel=8 note=67 velocity=0 time=528 
note_on channel=8 note=62 velocity=92 time=48 
note_on channel=8 note=62 velocity=0 time=96 
note_on channel=8 note=64 velocity=86 time=0 
note_on channel=8 note=64 velocity=0 time=48 
note_on channel=8 note=66 velocity=92 time=0 
note_on channel=8 note=66 velocity=0 time=580 
note_on channel=8 note=64 velocity=88 time=44 
note_on channel=8 note=62 velocity=84 time=100 
note_on channel=8 note=64 velocity=0 time=4 
note_on channel=8 note=62 velocity=0 time=40 
note_on channel=8 note=64 velocity=87 time=0 
note_on channel=8 note=64 velocity=0 time=576 
note_on channel=8 note=66 velocity=84 time=48 
note_on channel=8 note=66 velocity=0 time=88 
note_on channel=8 note=64 velocity=75 time=8 
note_on channel=8 note=64 velocity=0 time=48 
note_on channel=8 note=62 velocity=91 time=0 
note_on channel=8 note=62 velocity=0 time=592 
note_on channel=8 note=66 velocity=92 time=32 
note_on channel=8 note=69 velocity=91 time=100 
note_on channel=8 note=66 velocity=0 time=8 
note_on channel=8 note=71 velocity=91 time=36 
note_on channel=8 note=69 velocity=0 time=12 
note_on channel=8 note=71 velocity=0 time=588 
note_on channel=8 note=71 velocity=90 time=24 
note_on channel=8 note=71 velocity=0 time=100 
note_on channel=8 note=66 velocity=88 time=0 
note_on channel=8 note=69 velocity=88 time=44 
note_on channel=8 note=66 velocity=0 time=8 
note_on channel=8 note=66 velocity=92 time=136 
note_on channel=8 note=69 velocity=0 time=8 
note_on channel=8 note=64 velocity=82 time=472 
note_on channel=8 note=66 velocity=0 time=16 
note_on channel=8 note=64 velocity=0 time=72 
note_on channel=8 note=62 velocity=79 time=12 
note_on channel=8 note=64 velocity=78 time=44 
note_on channel=8 note=62 velocity=0 time=8 
note_on channel=8 note=64 velocity=0 time=136 
note_on channel=8 note=66 velocity=89 time=4 
note_on channel=8 note=64 velocity=86 time=476 
note_on channel=8 note=66 velocity=0 time=8 
note_on channel=8 note=64 velocity=0 time=72 
note_on channel=8 note=62 velocity=87 time=20 
note_on channel=8 note=62 velocity=0 time=36 
note_on channel=8 note=62 velocity=71 time=4 
note_on channel=8 note=62 velocity=0 time=600 
note_on channel=8 note=62 velocity=86 time=28 
note_on channel=8 note=62 velocity=0 time=100 
note_on channel=8 note=64 velocity=79 time=0 
note_on channel=8 note=64 velocity=0 time=36 
note_on channel=8 note=62 velocity=78 time=8 
note_on channel=8 note=62 velocity=0 time=624 
note_on channel=8 note=62 velocity=83 time=0 
note_on channel=8 note=62 velocity=0 time=96 
note_on channel=8 note=64 velocity=83 time=0 
note_on channel=8 note=64 velocity=0 time=48 
note_on channel=8 note=66 velocity=92 time=0 
note_on channel=8 note=66 velocity=0 time=584 
note_on channel=8 note=64 velocity=88 time=40 
note_on channel=8 note=62 velocity=84 time=96 
note_on channel=8 note=64 velocity=0 time=8 
note_on channel=8 note=62 velocity=0 time=40 
note_on channel=8 note=64 velocity=87 time=0 
note_on channel=8 note=64 velocity=0 time=576 
note_on channel=8 note=66 velocity=84 time=48 
note_on channel=8 note=66 velocity=0 time=88 
note_on channel=8 note=64 velocity=75 time=8 
note_on channel=8 note=64 velocity=0 time=48 
note_on channel=8 note=62 velocity=91 time=0 
note_on channel=8 note=62 velocity=0 time=592 
note_on channel=8 note=66 velocity=92 time=32 
note_on channel=8 note=69 velocity=91 time=100 
note_on channel=8 note=66 velocity=0 time=8 
note_on channel=8 note=71 velocity=91 time=36 
note_on channel=8 note=69 velocity=0 time=8 
note_on channel=8 note=71 velocity=0 time=592 
note_on channel=8 note=71 velocity=90 time=24 
note_on channel=8 note=71 velocity=0 time=100 
note_on channel=8 note=66 velocity=88 time=0 
note_on channel=8 note=69 velocity=88 time=44 
note_on channel=8 note=66 velocity=0 time=8 
note_on channel=8 note=66 velocity=92 time=140 
note_on channel=8 note=69 velocity=0 time=4 
note_on channel=8 note=64 velocity=82 time=472 
note_on channel=8 note=66 velocity=0 time=16 
note_on channel=8 note=64 velocity=0 time=72 
note_on channel=8 note=62 velocity=79 time=12 
note_on channel=8 note=64 velocity=78 time=44 
note_on channel=8 note=62 velocity=0 time=8 
note_on channel=8 note=64 velocity=0 time=136 
note_on channel=8 note=66 velocity=89 time=0 
note_on channel=8 note=64 velocity=86 time=480 
note_on channel=8 note=66 velocity=0 time=8 
note_on channel=8 note=64 velocity=0 time=72 
note_on channel=8 note=62 velocity=87 time=20 
note_on channel=8 note=62 velocity=0 time=36 
note_on channel=8 note=62 velocity=71 time=4 
note_on channel=8 note=62 velocity=0 time=600 
note_on channel=8 note=62 velocity=86 time=28 
note_on channel=8 note=64 velocity=79 time=96 
note_on channel=8 note=62 velocity=0 time=4 
note_on channel=8 note=64 velocity=0 time=36 
note_on channel=8 note=62 velocity=78 time=4 
note_on channel=8 note=62 velocity=0 time=624 
note_on channel=8 note=64 velocity=80 time=4 
note_on channel=8 note=64 velocity=0 time=96 
note_on channel=8 note=62 velocity=80 time=4 
note_on channel=8 note=64 velocity=92 time=40 
note_on channel=8 note=62 velocity=0 time=8 
note_on channel=8 note=64 velocity=0 time=560 
note_on channel=8 note=62 velocity=89 time=60 
note_on channel=8 note=62 velocity=0 time=96 
note_on channel=8 note=64 velocity=92 time=0 
note_on channel=8 note=62 velocity=92 time=44 
note_on channel=8 note=64 velocity=0 time=12 
note_on channel=8 note=62 velocity=0 time=612 
note_on channel=8 note=64 velocity=86 time=4 
note_on channel=8 note=64 velocity=0 time=96 
note_on channel=8 note=62 velocity=73 time=0 
note_on channel=8 note=64 velocity=91 time=48 
note_on channel=8 note=62 velocity=0 time=16 
note_on channel=8 note=62 velocity=89 time=608 
note_on channel=8 note=64 velocity=0 time=8 
note_on channel=8 note=62 velocity=0 time=88 
note_on channel=8 note=64 velocity=84 time=0 
note_on channel=8 note=62 velocity=81 time=48 
note_on channel=8 note=64 velocity=0 time=16 
note_on channel=8 note=62 velocity=0 time=656 
<meta message end_of_track time=0> 
<meta message midi_port port=0 time=0> 
<meta message track_name name='Drums.....          ' time=0> 
program_change channel=9 program=32 time=0 
control_change channel=9 control=7 value=85 time=0 
control_change channel=9 control=0 value=0 time=0 
control_change channel=9 control=1 value=0 time=0 
control_change channel=9 control=91 value=100 time=0 
control_change channel=9 control=93 value=0 time=0 
note_on channel=9 note=35 velocity=87 time=20 
note_on channel=9 note=35 velocity=0 time=28 
note_on channel=9 note=35 velocity=87 time=140 
note_on channel=9 note=35 velocity=0 time=52 
note_on channel=9 note=35 velocity=87 time=144 
note_on channel=9 note=35 velocity=0 time=48 
note_on channel=9 note=35 velocity=87 time=144 
note_on channel=9 note=35 velocity=0 time=48 
note_on channel=9 note=35 velocity=87 time=144 
note_on channel=9 note=69 velocity=77 time=0 
note_on channel=9 note=69 velocity=0 time=48 
note_on channel=9 note=35 velocity=0 time=0 
note_on channel=9 note=69 velocity=59 time=0 
note_on channel=9 note=69 velocity=0 time=48 
note_on channel=9 note=69 velocity=75 time=0 
note_on channel=9 note=69 velocity=0 time=48 
note_on channel=9 note=69 velocity=62 time=0 
note_on channel=9 note=35 velocity=87 time=44 
note_on channel=9 note=69 velocity=0 time=4 
note_on channel=9 note=69 velocity=73 time=0 
note_on channel=9 note=69 velocity=0 time=48 
note_on channel=9 note=35 velocity=0 time=0 
note_on channel=9 note=69 velocity=66 time=0 
note_on channel=9 note=69 velocity=0 time=48 
note_on channel=9 note=69 velocity=75 time=0 
note_on channel=9 note=69 velocity=0 time=48 
note_on channel=9 note=69 velocity=66 time=0 
note_on channel=9 note=35 velocity=87 time=44 
note_on channel=9 note=69 velocity=0 time=4 
note_on channel=9 note=69 velocity=77 time=0 
note_on channel=9 note=69 velocity=0 time=48 
note_on channel=9 note=35 velocity=0 time=0 
note_on channel=9 note=69 velocity=64 time=0 
note_on channel=9 note=69 velocity=0 time=48 
note_on channel=9 note=69 velocity=81 time=0 
note_on channel=9 note=69 velocity=0 time=48 
note_on channel=9 note=69 velocity=70 time=0 
note_on channel=9 note=69 velocity=0 time=48 
note_on channel=9 note=35 velocity=87 time=0 
note_on channel=9 note=69 velocity=83 time=0 
note_on channel=9 note=69 velocity=0 time=48 
note_on channel=9 note=35 velocity=0 time=0 
note_on channel=9 note=69 velocity=71 time=0 
note_on channel=9 note=69 velocity=0 time=48 
note_on channel=9 note=69 velocity=88 time=0 
note_on channel=9 note=69 velocity=0 time=48 
note_on channel=9 note=69 velocity=72 time=0 
note_on channel=9 note=69 velocity=0 time=48 
note_on channel=9 note=35 velocity=87 time=0 
note_on channel=9 note=54 velocity=95 time=4 
note_on channel=9 note=69 velocity=77 time=0 
note_on channel=9 note=69 velocity=0 time=44 
note_on channel=9 note=35 velocity=0 time=0 
note_on channel=9 note=69 velocity=59 time=0 
note_on channel=9 note=69 velocity=0 time=48 
note_on channel=9 note=69 velocity=75 time=0 
note_on channel=9 note=69 velocity=0 time=48 
note_on channel=9 note=69 velocity=62 time=0 
note_on channel=9 note=69 velocity=0 time=48 
note_on channel=9 note=54 velocity=0 time=0 
note_on channel=9 note=35 velocity=87 time=0 
note_on channel=9 note=69 velocity=73 time=0 
note_on channel=9 note=54 velocity=95 time=0 
note_on channel=9 note=69 velocity=0 time=48 
note_on channel=9 note=35 velocity=0 time=0 
note_on channel=9 note=69 velocity=66 time=0 
note_on channel=9 note=69 velocity=0 time=48 
note_on channel=9 note=69 velocity=75 time=0 
note_on channel=9 note=69 velocity=0 time=48 
note_on channel=9 note=69 velocity=66 time=0 
note_on channel=9 note=69 velocity=0 time=48 
note_on channel=9 note=54 velocity=0 time=0 
note_on channel=9 note=35 velocity=87 time=0 
note_on channel=9 note=69 velocity=77 time=0 
note_on channel=9 note=54 velocity=95 time=0 
note_on channel=9 note=69 velocity=0 time=48 
note_on channel=9 note=35 velocity=0 time=0 
note_on channel=9 note=69 velocity=64 time=0 
note_on channel=9 note=69 velocity=0 time=48 
note_on channel=9 note=69 velocity=81 time=0 
note_on channel=9 note=69 velocity=0 time=48 
note_on channel=9 note=69 velocity=70 time=0 
note_on channel=9 note=69 velocity=0 time=48 
note_on channel=9 note=54 velocity=0 time=0 
note_on channel=9 note=35 velocity=87 time=0 
note_on channel=9 note=69 velocity=83 time=0 
note_on channel=9 note=54 velocity=95 time=0 
note_on channel=9 note=69 velocity=0 time=48 
note_on channel=9 note=35 velocity=0 time=0 
note_on channel=9 note=69 velocity=71 time=0 
note_on channel=9 note=69 velocity=0 time=48 
note_on channel=9 note=69 velocity=88 time=0 
note_on channel=9 note=69 velocity=0 time=48 
note_on channel=9 note=69 velocity=72 time=0 
note_on channel=9 note=69 velocity=0 time=48 
note_on channel=9 note=35 velocity=87 time=0 
note_on channel=9 note=69 velocity=77 time=0 
note_on channel=9 note=54 velocity=0 time=4 
note_on channel=9 note=54 velocity=95 time=0 
note_on channel=9 note=69 velocity=0 time=44 
note_on channel=9 note=35 velocity=0 time=0 
note_on channel=9 note=69 velocity=59 time=0 
note_on channel=9 note=69 velocity=0 time=48 
note_on channel=9 note=69 velocity=75 time=4 
note_on channel=9 note=69 velocity=0 time=44 
note_on channel=9 note=69 velocity=62 time=0 
note_on channel=9 note=69 velocity=0 time=48 
note_on channel=9 note=54 velocity=0 time=0 
note_on channel=9 note=35 velocity=87 time=0 
note_on channel=9 note=69 velocity=73 time=0 
note_on channel=9 note=54 velocity=95 time=0 
note_on channel=9 note=69 velocity=0 time=48 
note_on channel=9 note=35 velocity=0 time=0 
note_on channel=9 note=69 velocity=66 time=0 
note_on channel=9 note=69 velocity=0 time=48 
note_on channel=9 note=69 velocity=75 time=0 
note_on channel=9 note=69 velocity=0 time=48 
note_on channel=9 note=69 velocity=66 time=0 
note_on channel=9 note=69 velocity=0 time=48 
note_on channel=9 note=54 velocity=0 time=0 
note_on channel=9 note=35 velocity=87 time=0 
note_on channel=9 note=69 velocity=77 time=0 
note_on channel=9 note=54 velocity=95 time=0 
note_on channel=9 note=69 velocity=0 time=48 
note_on channel=9 note=35 velocity=0 time=0 
note_on channel=9 note=69 velocity=64 time=0 
note_on channel=9 note=69 velocity=0 time=48 
note_on channel=9 note=69 velocity=81 time=0 
note_on channel=9 note=69 velocity=0 time=48 
note_on channel=9 note=69 velocity=70 time=0 
note_on channel=9 note=69 velocity=0 time=48 
note_on channel=9 note=54 velocity=0 time=0 
note_on channel=9 note=35 velocity=87 time=0 
note_on channel=9 note=69 velocity=83 time=0 
note_on channel=9 note=54 velocity=95 time=0 
note_on channel=9 note=69 velocity=0 time=48 
note_on channel=9 note=35 velocity=0 time=0 
note_on channel=9 note=69 velocity=71 time=0 
note_on channel=9 note=69 velocity=0 time=48 
note_on channel=9 note=69 velocity=88 time=0 
note_on channel=9 note=69 velocity=0 time=48 
note_on channel=9 note=69 velocity=72 time=0 
note_on channel=9 note=69 velocity=0 time=48 
note_on channel=9 note=35 velocity=87 time=0 
note_on channel=9 note=69 velocity=77 time=0 
note_on channel=9 note=54 velocity=0 time=4 
note_on channel=9 note=54 velocity=95 time=0 
note_on channel=9 note=69 velocity=0 time=44 
note_on channel=9 note=35 velocity=0 time=0 
note_on channel=9 note=69 velocity=59 time=0 
note_on channel=9 note=69 velocity=0 time=48 
note_on channel=9 note=69 velocity=75 time=0 
note_on channel=9 note=69 velocity=0 time=48 
note_on channel=9 note=69 velocity=62 time=0 
note_on channel=9 note=69 velocity=0 time=48 
note_on channel=9 note=54 velocity=0 time=0 
note_on channel=9 note=35 velocity=87 time=0 
note_on channel=9 note=69 velocity=73 time=0 
note_on channel=9 note=54 velocity=95 time=0 
note_on channel=9 note=69 velocity=0 time=48 
note_on channel=9 note=35 velocity=0 time=0 
note_on channel=9 note=69 velocity=66 time=4 
note_on channel=9 note=69 velocity=0 time=44 
note_on channel=9 note=69 velocity=75 time=0 
note_on channel=9 note=69 velocity=0 time=48 
note_on channel=9 note=69 velocity=66 time=0 
note_on channel=9 note=69 velocity=0 time=48 
note_on channel=9 note=54 velocity=0 time=0 
note_on channel=9 note=35 velocity=87 time=0 
note_on channel=9 note=69 velocity=77 time=0 
note_on channel=9 note=54 velocity=95 time=0 
note_on channel=9 note=69 velocity=0 time=48 
note_on channel=9 note=35 velocity=0 time=0 
note_on channel=9 note=69 velocity=64 time=0 
note_on channel=9 note=69 velocity=0 time=48 
note_on channel=9 note=69 velocity=81 time=0 
note_on channel=9 note=69 velocity=0 time=48 
note_on channel=9 note=69 velocity=70 time=0 
note_on channel=9 note=69 velocity=0 time=48 
note_on channel=9 note=54 velocity=0 time=0 
note_on channel=9 note=35 velocity=87 time=0 
note_on channel=9 note=69 velocity=83 time=0 
note_on channel=9 note=54 velocity=95 time=0 
note_on channel=9 note=69 velocity=0 time=48 
note_on channel=9 note=35 velocity=0 time=0 
note_on channel=9 note=69 velocity=71 time=0 
note_on channel=9 note=69 velocity=0 time=48 
note_on channel=9 note=69 velocity=88 time=0 
note_on channel=9 note=69 velocity=0 time=48 
note_on channel=9 note=69 velocity=72 time=0 
note_on channel=9 note=69 velocity=0 time=48 
note_on channel=9 note=35 velocity=87 time=0 
note_on channel=9 note=69 velocity=77 time=0 
note_on channel=9 note=54 velocity=0 time=4 
note_on channel=9 note=54 velocity=95 time=0 
note_on channel=9 note=69 velocity=0 time=44 
note_on channel=9 note=35 velocity=0 time=0 
note_on channel=9 note=69 velocity=59 time=0 
note_on channel=9 note=69 velocity=0 time=48 
note_on channel=9 note=69 velocity=75 time=0 
note_on channel=9 note=69 velocity=0 time=48 
note_on channel=9 note=69 velocity=62 time=0 
note_on channel=9 note=69 velocity=0 time=48 
note_on channel=9 note=35 velocity=87 time=0 
note_on channel=9 note=69 velocity=73 time=0 
note_on channel=9 note=54 velocity=0 time=4 
note_on channel=9 note=54 velocity=95 time=0 
note_on channel=9 note=69 velocity=0 time=44 
note_on channel=9 note=35 velocity=0 time=0 
note_on channel=9 note=69 velocity=66 time=0 
note_on channel=9 note=69 velocity=0 time=48 
note_on channel=9 note=69 velocity=75 time=0 
note_on channel=9 note=69 velocity=0 time=48 
note_on channel=9 note=69 velocity=66 time=0 
note_on channel=9 note=69 velocity=0 time=48 
note_on channel=9 note=54 velocity=0 time=0 
note_on channel=9 note=35 velocity=87 time=0 
note_on channel=9 note=69 velocity=77 time=0 
note_on channel=9 note=54 velocity=95 time=0 
note_on channel=9 note=69 velocity=0 time=48 
note_on channel=9 note=35 velocity=0 time=0 
note_on channel=9 note=69 velocity=64 time=0 
note_on channel=9 note=69 velocity=0 time=48 
note_on channel=9 note=69 velocity=81 time=0 
note_on channel=9 note=69 velocity=0 time=48 
note_on channel=9 note=69 velocity=70 time=0 
note_on channel=9 note=69 velocity=0 time=48 
note_on channel=9 note=54 velocity=0 time=0 
note_on channel=9 note=35 velocity=87 time=0 
note_on channel=9 note=69 velocity=83 time=0 
note_on channel=9 note=54 velocity=95 time=0 
note_on channel=9 note=69 velocity=0 time=48 
note_on channel=9 note=35 velocity=0 time=0 
note_on channel=9 note=69 velocity=71 time=0 
note_on channel=9 note=69 velocity=0 time=48 
note_on channel=9 note=69 velocity=88 time=0 
note_on channel=9 note=69 velocity=0 time=48 
note_on channel=9 note=69 velocity=72 time=0 
note_on channel=9 note=69 velocity=0 time=48 
note_on channel=9 note=35 velocity=87 time=0 
note_on channel=9 note=54 velocity=0 time=4 
note_on channel=9 note=54 velocity=95 time=0 
note_on channel=9 note=69 velocity=77 time=0 
note_on channel=9 note=69 velocity=0 time=44 
note_on channel=9 note=35 velocity=0 time=0 
note_on channel=9 note=69 velocity=59 time=0 
note_on channel=9 note=69 velocity=0 time=48 
note_on channel=9 note=69 velocity=75 time=0 
note_on channel=9 note=69 velocity=0 time=48 
note_on channel=9 note=69 velocity=62 time=0 
note_on channel=9 note=69 velocity=0 time=48 
note_on channel=9 note=54 velocity=0 time=0 
note_on channel=9 note=35 velocity=87 time=0 
note_on channel=9 note=69 velocity=73 time=0 
note_on channel=9 note=54 velocity=95 time=0 
note_on channel=9 note=69 velocity=0 time=48 
note_on channel=9 note=35 velocity=0 time=0 
note_on channel=9 note=69 velocity=66 time=0 
note_on channel=9 note=69 velocity=0 time=48 
note_on channel=9 note=69 velocity=75 time=0 
note_on channel=9 note=69 velocity=0 time=48 
note_on channel=9 note=69 velocity=66 time=0 
note_on channel=9 note=69 velocity=0 time=48 
note_on channel=9 note=54 velocity=0 time=0 
note_on channel=9 note=35 velocity=87 time=0 
note_on channel=9 note=69 velocity=77 time=0 
note_on channel=9 note=54 velocity=95 time=0 
note_on channel=9 note=69 velocity=0 time=48 
note_on channel=9 note=35 velocity=0 time=0 
note_on channel=9 note=69 velocity=64 time=0 
note_on channel=9 note=69 velocity=0 time=48 
note_on channel=9 note=69 velocity=81 time=0 
note_on channel=9 note=69 velocity=0 time=48 
note_on channel=9 note=69 velocity=70 time=0 
note_on channel=9 note=69 velocity=0 time=48 
note_on channel=9 note=54 velocity=0 time=0 
note_on channel=9 note=35 velocity=87 time=0 
note_on channel=9 note=69 velocity=83 time=0 
note_on channel=9 note=54 velocity=95 time=0 
note_on channel=9 note=69 velocity=0 time=48 
note_on channel=9 note=35 velocity=0 time=0 
note_on channel=9 note=69 velocity=71 time=0 
note_on channel=9 note=69 velocity=0 time=48 
note_on channel=9 note=69 velocity=88 time=0 
note_on channel=9 note=69 velocity=0 time=48 
note_on channel=9 note=69 velocity=72 time=0 
note_on channel=9 note=69 velocity=0 time=48 
note_on channel=9 note=54 velocity=0 time=0 
note_on channel=9 note=35 velocity=87 time=0 
note_on channel=9 note=69 velocity=77 time=0 
note_on channel=9 note=54 velocity=95 time=0 
note_on channel=9 note=69 velocity=0 time=48 
note_on channel=9 note=35 velocity=0 time=0 
note_on channel=9 note=69 velocity=59 time=0 
note_on channel=9 note=69 velocity=0 time=48 
note_on channel=9 note=69 velocity=75 time=0 
note_on channel=9 note=69 velocity=0 time=48 
note_on channel=9 note=69 velocity=62 time=0 
note_on channel=9 note=69 velocity=0 time=48 
note_on channel=9 note=54 velocity=0 time=0 
note_on channel=9 note=35 velocity=87 time=0 
note_on channel=9 note=69 velocity=73 time=0 
note_on channel=9 note=54 velocity=95 time=0 
note_on channel=9 note=69 velocity=0 time=48 
note_on channel=9 note=35 velocity=0 time=0 
note_on channel=9 note=69 velocity=66 time=0 
note_on channel=9 note=69 velocity=0 time=48 
note_on channel=9 note=69 velocity=75 time=0 
note_on channel=9 note=69 velocity=0 time=48 
note_on channel=9 note=69 velocity=66 time=0 
note_on channel=9 note=69 velocity=0 time=48 
note_on channel=9 note=54 velocity=0 time=0 
note_on channel=9 note=35 velocity=87 time=0 
note_on channel=9 note=69 velocity=77 time=0 
note_on channel=9 note=54 velocity=95 time=0 
note_on channel=9 note=69 velocity=0 time=48 
note_on channel=9 note=35 velocity=0 time=0 
note_on channel=9 note=69 velocity=64 time=0 
note_on channel=9 note=69 velocity=0 time=48 
note_on channel=9 note=69 velocity=81 time=0 
note_on channel=9 note=69 velocity=0 time=48 
note_on channel=9 note=69 velocity=70 time=0 
note_on channel=9 note=69 velocity=0 time=48 
note_on channel=9 note=54 velocity=0 time=0 
note_on channel=9 note=35 velocity=87 time=0 
note_on channel=9 note=69 velocity=83 time=0 
note_on channel=9 note=54 velocity=95 time=0 
note_on channel=9 note=69 velocity=0 time=48 
note_on channel=9 note=35 velocity=0 time=0 
note_on channel=9 note=69 velocity=71 time=0 
note_on channel=9 note=69 velocity=0 time=48 
note_on channel=9 note=69 velocity=88 time=0 
note_on channel=9 note=69 velocity=0 time=48 
note_on channel=9 note=69 velocity=72 time=0 
note_on channel=9 note=69 velocity=0 time=48 
note_on channel=9 note=35 velocity=87 time=0 
note_on channel=9 note=69 velocity=77 time=0 
note_on channel=9 note=54 velocity=0 time=4 
note_on channel=9 note=54 velocity=95 time=0 
note_on channel=9 note=69 velocity=0 time=44 
note_on channel=9 note=35 velocity=0 time=0 
note_on channel=9 note=69 velocity=59 time=0 
note_on channel=9 note=69 velocity=0 time=48 
note_on channel=9 note=69 velocity=75 time=0 
note_on channel=9 note=69 velocity=0 time=48 
note_on channel=9 note=69 velocity=62 time=0 
note_on channel=9 note=69 velocity=0 time=48 
note_on channel=9 note=54 velocity=0 time=0 
note_on channel=9 note=35 velocity=87 time=0 
note_on channel=9 note=69 velocity=73 time=0 
note_on channel=9 note=54 velocity=95 time=0 
note_on channel=9 note=69 velocity=0 time=48 
note_on channel=9 note=35 velocity=0 time=0 
note_on channel=9 note=69 velocity=66 time=0 
note_on channel=9 note=69 velocity=0 time=48 
note_on channel=9 note=69 velocity=75 time=0 
note_on channel=9 note=69 velocity=0 time=48 
note_on channel=9 note=69 velocity=66 time=0 
note_on channel=9 note=69 velocity=0 time=48 
note_on channel=9 note=54 velocity=0 time=0 
note_on channel=9 note=35 velocity=87 time=0 
note_on channel=9 note=69 velocity=77 time=0 
note_on channel=9 note=54 velocity=95 time=0 
note_on channel=9 note=69 velocity=0 time=48 
note_on channel=9 note=35 velocity=0 time=0 
note_on channel=9 note=69 velocity=64 time=0 
note_on channel=9 note=69 velocity=0 time=48 
note_on channel=9 note=69 velocity=81 time=0 
note_on channel=9 note=69 velocity=0 time=48 
note_on channel=9 note=69 velocity=70 time=0 
note_on channel=9 note=69 velocity=0 time=48 
note_on channel=9 note=54 velocity=0 time=0 
note_on channel=9 note=35 velocity=87 time=0 
note_on channel=9 note=69 velocity=83 time=0 
note_on channel=9 note=54 velocity=95 time=0 
note_on channel=9 note=69 velocity=0 time=48 
note_on channel=9 note=35 velocity=0 time=0 
note_on channel=9 note=69 velocity=71 time=0 
note_on channel=9 note=69 velocity=0 time=48 
note_on channel=9 note=69 velocity=88 time=0 
note_on channel=9 note=69 velocity=0 time=48 
note_on channel=9 note=69 velocity=72 time=0 
note_on channel=9 note=69 velocity=0 time=48 
note_on channel=9 note=35 velocity=87 time=0 
note_on channel=9 note=69 velocity=77 time=0 
note_on channel=9 note=54 velocity=0 time=4 
note_on channel=9 note=54 velocity=95 time=0 
note_on channel=9 note=69 velocity=0 time=44 
note_on channel=9 note=35 velocity=0 time=0 
note_on channel=9 note=69 velocity=59 time=0 
note_on channel=9 note=69 velocity=0 time=48 
note_on channel=9 note=69 velocity=75 time=0 
note_on channel=9 note=69 velocity=0 time=48 
note_on channel=9 note=69 velocity=62 time=0 
note_on channel=9 note=69 velocity=0 time=48 
note_on channel=9 note=54 velocity=0 time=0 
note_on channel=9 note=35 velocity=87 time=0 
note_on channel=9 note=69 velocity=73 time=0 
note_on channel=9 note=54 velocity=95 time=0 
note_on channel=9 note=69 velocity=0 time=48 
note_on channel=9 note=35 velocity=0 time=0 
note_on channel=9 note=69 velocity=66 time=0 
note_on channel=9 note=69 velocity=0 time=48 
note_on channel=9 note=69 velocity=75 time=0 
note_on channel=9 note=69 velocity=0 time=48 
note_on channel=9 note=69 velocity=66 time=0 
note_on channel=9 note=69 velocity=0 time=48 
note_on channel=9 note=54 velocity=0 time=0 
note_on channel=9 note=69 velocity=77 time=0 
note_on channel=9 note=54 velocity=95 time=0 
note_on channel=9 note=35 velocity=87 time=4 
note_on channel=9 note=35 velocity=0 time=44 
note_on channel=9 note=69 velocity=0 time=0 
note_on channel=9 note=69 velocity=64 time=0 
note_on channel=9 note=69 velocity=0 time=48 
note_on channel=9 note=69 velocity=81 time=0 
note_on channel=9 note=69 velocity=0 time=48 
note_on channel=9 note=69 velocity=70 time=0 
note_on channel=9 note=69 velocity=0 time=48 
note_on channel=9 note=35 velocity=87 time=0 
note_on channel=9 note=69 velocity=83 time=0 
note_on channel=9 note=54 velocity=0 time=4 
note_on channel=9 note=54 velocity=95 time=0 
note_on channel=9 note=69 velocity=0 time=44 
note_on channel=9 note=35 velocity=0 time=0 
note_on channel=9 note=69 velocity=71 time=0 
note_on channel=9 note=69 velocity=0 time=48 
note_on channel=9 note=69 velocity=88 time=0 
note_on channel=9 note=69 velocity=0 time=48 
note_on channel=9 note=69 velocity=72 time=0 
note_on channel=9 note=69 velocity=0 time=48 
note_on channel=9 note=54 velocity=0 time=4 
note_on channel=9 note=35 velocity=87 time=0 
note_on channel=9 note=54 velocity=95 time=0 
note_on channel=9 note=69 velocity=77 time=0 
note_on channel=9 note=69 velocity=0 time=44 
note_on channel=9 note=35 velocity=0 time=0 
note_on channel=9 note=69 velocity=59 time=0 
note_on channel=9 note=69 velocity=0 time=48 
note_on channel=9 note=69 velocity=75 time=0 
note_on channel=9 note=69 velocity=0 time=48 
note_on channel=9 note=69 velocity=62 time=0 
note_on channel=9 note=69 velocity=0 time=48 
note_on channel=9 note=54 velocity=0 time=0 
note_on channel=9 note=35 velocity=87 time=0 
note_on channel=9 note=69 velocity=73 time=0 
note_on channel=9 note=54 velocity=95 time=0 
note_on channel=9 note=69 velocity=0 time=48 
note_on channel=9 note=35 velocity=0 time=0 
note_on channel=9 note=69 velocity=66 time=0 
note_on channel=9 note=69 velocity=0 time=48 
note_on channel=9 note=69 velocity=75 time=0 
note_on channel=9 note=69 velocity=0 time=48 
note_on channel=9 note=69 velocity=66 time=0 
note_on channel=9 note=69 velocity=0 time=48 
note_on channel=9 note=54 velocity=0 time=0 
note_on channel=9 note=49 velocity=77 time=0 
note_on channel=9 note=35 velocity=87 time=0 
note_on channel=9 note=69 velocity=77 time=0 
note_on channel=9 note=54 velocity=95 time=0 
note_on channel=9 note=69 velocity=0 time=48 
note_on channel=9 note=49 velocity=0 time=0 
note_on channel=9 note=35 velocity=0 time=0 
note_on channel=9 note=69 velocity=64 time=0 
note_on channel=9 note=69 velocity=0 time=48 
note_on channel=9 note=69 velocity=81 time=0 
note_on channel=9 note=54 velocity=0 time=4 
note_on channel=9 note=38 velocity=87 time=0 
note_on channel=9 note=54 velocity=97 time=0 
note_on channel=9 note=38 velocity=0 time=44 
note_on channel=9 note=69 velocity=0 time=0 
note_on channel=9 note=69 velocity=70 time=0 
note_on channel=9 note=69 velocity=0 time=48 
note_on channel=9 note=35 velocity=87 time=0 
note_on channel=9 note=69 velocity=83 time=0 
note_on channel=9 note=54 velocity=0 time=4 
note_on channel=9 note=54 velocity=95 time=0 
note_on channel=9 note=69 velocity=0 time=44 
note_on channel=9 note=35 velocity=0 time=0 
note_on channel=9 note=69 velocity=71 time=0 
note_on channel=9 note=69 velocity=0 time=48 
note_on channel=9 note=54 velocity=0 time=0 
note_on channel=9 note=54 velocity=97 time=0 
note_on channel=9 note=69 velocity=88 time=0 
note_on channel=9 note=38 velocity=87 time=0 
note_on channel=9 note=38 velocity=0 time=48 
note_on channel=9 note=69 velocity=0 time=0 
note_on channel=9 note=69 velocity=72 time=0 
note_on channel=9 note=69 velocity=0 time=48 
note_on channel=9 note=35 velocity=87 time=0 
note_on channel=9 note=69 velocity=77 time=0 
note_on channel=9 note=54 velocity=0 time=1 
note_on channel=9 note=69 velocity=0 time=47 
note_on channel=9 note=35 velocity=0 time=0 
note_on channel=9 note=69 velocity=59 time=0 
note_on channel=9 note=69 velocity=0 time=48 
note_on channel=9 note=69 velocity=75 time=0 
note_on channel=9 note=54 velocity=97 time=0 
note_on channel=9 note=38 velocity=87 time=4 
note_on channel=9 note=38 velocity=0 time=44 
note_on channel=9 note=69 velocity=0 time=0 
note_on channel=9 note=69 velocity=62 time=0 
note_on channel=9 note=69 velocity=0 time=48 
note_on channel=9 note=54 velocity=0 time=0 
note_on channel=9 note=35 velocity=87 time=0 
note_on channel=9 note=69 velocity=73 time=0 
note_on channel=9 note=54 velocity=95 time=0 
note_on channel=9 note=69 velocity=0 time=48 
note_on channel=9 note=35 velocity=0 time=0 
note_on channel=9 note=69 velocity=66 time=0 
note_on channel=9 note=69 velocity=0 time=48 
note_on channel=9 note=69 velocity=75 time=0 
note_on channel=9 note=54 velocity=0 time=4 
note_on channel=9 note=38 velocity=87 time=0 
note_on channel=9 note=54 velocity=97 time=0 
note_on channel=9 note=38 velocity=0 time=44 
note_on channel=9 note=69 velocity=0 time=0 
note_on channel=9 note=69 velocity=66 time=0 
note_on channel=9 note=69 velocity=0 time=48 
note_on channel=9 note=54 velocity=0 time=0 
note_on channel=9 note=35 velocity=87 time=0 
note_on channel=9 note=69 velocity=77 time=0 
note_on channel=9 note=54 velocity=95 time=0 
note_on channel=9 note=69 velocity=0 time=48 
note_on channel=9 note=35 velocity=0 time=0 
note_on channel=9 note=69 velocity=64 time=0 
note_on channel=9 note=69 velocity=0 time=48 
note_on channel=9 note=54 velocity=0 time=0 
note_on channel=9 note=69 velocity=81 time=0 
note_on channel=9 note=54 velocity=97 time=0 
note_on channel=9 note=38 velocity=87 time=4 
note_on channel=9 note=38 velocity=0 time=44 
note_on channel=9 note=69 velocity=0 time=0 
note_on channel=9 note=69 velocity=70 time=0 
note_on channel=9 note=69 velocity=0 time=48 
note_on channel=9 note=54 velocity=0 time=0 
note_on channel=9 note=35 velocity=87 time=0 
note_on channel=9 note=69 velocity=83 time=0 
note_on channel=9 note=54 velocity=95 time=0 
note_on channel=9 note=69 velocity=0 time=48 
note_on channel=9 note=35 velocity=0 time=0 
note_on channel=9 note=69 velocity=71 time=0 
note_on channel=9 note=69 velocity=0 time=48 
note_on channel=9 note=69 velocity=88 time=0 
note_on channel=9 note=54 velocity=0 time=4 
note_on channel=9 note=38 velocity=87 time=0 
note_on channel=9 note=54 velocity=97 time=0 
note_on channel=9 note=38 velocity=0 time=44 
note_on channel=9 note=69 velocity=0 time=0 
note_on channel=9 note=69 velocity=72 time=0 
note_on channel=9 note=69 velocity=0 time=48 
note_on channel=9 note=35 velocity=87 time=0 
note_on channel=9 note=69 velocity=77 time=0 
note_on channel=9 note=54 velocity=0 time=4 
note_on channel=9 note=54 velocity=95 time=0 
note_on channel=9 note=69 velocity=0 time=44 
note_on channel=9 note=35 velocity=0 time=0 
note_on channel=9 note=69 velocity=59 time=0 
note_on channel=9 note=69 velocity=0 time=48 
note_on channel=9 note=54 velocity=0 time=0 
note_on channel=9 note=69 velocity=75 time=0 
note_on channel=9 note=54 velocity=97 time=0 
note_on channel=9 note=38 velocity=87 time=4 
note_on channel=9 note=38 velocity=0 time=44 
note_on channel=9 note=69 velocity=0 time=0 
note_on channel=9 note=69 velocity=62 time=0 
note_on channel=9 note=69 velocity=0 time=48 
note_on channel=9 note=54 velocity=0 time=0 
note_on channel=9 note=35 velocity=87 time=0 
note_on channel=9 note=69 velocity=73 time=0 
note_on channel=9 note=54 velocity=95 time=0 
note_on channel=9 note=69 velocity=0 time=48 
note_on channel=9 note=35 velocity=0 time=0 
note_on channel=9 note=69 velocity=66 time=0 
note_on channel=9 note=69 velocity=0 time=48 
note_on channel=9 note=54 velocity=0 time=0 
note_on channel=9 note=69 velocity=75 time=0 
note_on channel=9 note=54 velocity=97 time=0 
note_on channel=9 note=38 velocity=87 time=4 
note_on channel=9 note=38 velocity=0 time=44 
note_on channel=9 note=69 velocity=0 time=0 
note_on channel=9 note=69 velocity=66 time=0 
note_on channel=9 note=69 velocity=0 time=48 
note_on channel=9 note=54 velocity=0 time=0 
note_on channel=9 note=35 velocity=87 time=0 
note_on channel=9 note=69 velocity=77 time=0 
note_on channel=9 note=54 velocity=95 time=0 
note_on channel=9 note=69 velocity=0 time=48 
note_on channel=9 note=35 velocity=0 time=0 
note_on channel=9 note=69 velocity=64 time=0 
note_on channel=9 note=69 velocity=0 time=48 
note_on channel=9 note=54 velocity=0 time=0 
note_on channel=9 note=54 velocity=97 time=0 
note_on channel=9 note=38 velocity=87 time=0 
note_on channel=9 note=69 velocity=81 time=0 
note_on channel=9 note=69 velocity=0 time=48 
note_on channel=9 note=38 velocity=0 time=0 
note_on channel=9 note=69 velocity=70 time=0 
note_on channel=9 note=69 velocity=0 time=48 
note_on channel=9 note=54 velocity=0 time=0 
note_on channel=9 note=35 velocity=87 time=0 
note_on channel=9 note=69 velocity=83 time=0 
note_on channel=9 note=54 velocity=95 time=0 
note_on channel=9 note=69 velocity=0 time=48 
note_on channel=9 note=35 velocity=0 time=0 
note_on channel=9 note=69 velocity=71 time=0 
note_on channel=9 note=69 velocity=0 time=48 
note_on channel=9 note=69 velocity=88 time=0 
note_on channel=9 note=54 velocity=0 time=4 
note_on channel=9 note=38 velocity=87 time=0 
note_on channel=9 note=54 velocity=97 time=0 
note_on channel=9 note=38 velocity=0 time=44 
note_on channel=9 note=69 velocity=0 time=0 
note_on channel=9 note=69 velocity=72 time=0 
note_on channel=9 note=69 velocity=0 time=48 
note_on channel=9 note=35 velocity=87 time=0 
note_on channel=9 note=69 velocity=77 time=0 
note_on channel=9 note=54 velocity=0 time=4 
note_on channel=9 note=54 velocity=95 time=0 
note_on channel=9 note=69 velocity=0 time=44 
note_on channel=9 note=35 velocity=0 time=0 
note_on channel=9 note=69 velocity=59 time=0 
note_on channel=9 note=69 velocity=0 time=48 
note_on channel=9 note=54 velocity=0 time=0 
note_on channel=9 note=69 velocity=75 time=0 
note_on channel=9 note=54 velocity=97 time=0 
note_on channel=9 note=38 velocity=87 time=4 
note_on channel=9 note=38 velocity=0 time=44 
note_on channel=9 note=69 velocity=0 time=0 
note_on channel=9 note=69 velocity=62 time=0 
note_on channel=9 note=69 velocity=0 time=48 
note_on channel=9 note=54 velocity=0 time=0 
note_on channel=9 note=35 velocity=87 time=0 
note_on channel=9 note=69 velocity=73 time=0 
note_on channel=9 note=54 velocity=95 time=0 
note_on channel=9 note=69 velocity=0 time=48 
note_on channel=9 note=35 velocity=0 time=0 
note_on channel=9 note=69 velocity=66 time=0 
note_on channel=9 note=69 velocity=0 time=48 
note_on channel=9 note=69 velocity=75 time=0 
note_on channel=9 note=54 velocity=0 time=4 
note_on channel=9 note=38 velocity=87 time=0 
note_on channel=9 note=54 velocity=97 time=0 
note_on channel=9 note=38 velocity=0 time=44 
note_on channel=9 note=69 velocity=0 time=0 
note_on channel=9 note=69 velocity=66 time=0 
note_on channel=9 note=69 velocity=0 time=48 
note_on channel=9 note=54 velocity=0 time=0 
note_on channel=9 note=35 velocity=87 time=0 
note_on channel=9 note=69 velocity=77 time=0 
note_on channel=9 note=54 velocity=95 time=0 
note_on channel=9 note=69 velocity=0 time=48 
note_on channel=9 note=35 velocity=0 time=0 
note_on channel=9 note=69 velocity=64 time=0 
note_on channel=9 note=69 velocity=0 time=48 
note_on channel=9 note=69 velocity=81 time=0 
note_on channel=9 note=54 velocity=0 time=4 
note_on channel=9 note=38 velocity=87 time=0 
note_on channel=9 note=54 velocity=97 time=0 
note_on channel=9 note=38 velocity=0 time=44 
note_on channel=9 note=69 velocity=0 time=0 
note_on channel=9 note=69 velocity=70 time=0 
note_on channel=9 note=69 velocity=0 time=48 
note_on channel=9 note=35 velocity=87 time=0 
note_on channel=9 note=69 velocity=83 time=0 
note_on channel=9 note=54 velocity=0 time=4 
note_on channel=9 note=54 velocity=95 time=0 
note_on channel=9 note=69 velocity=0 time=44 
note_on channel=9 note=35 velocity=0 time=0 
note_on channel=9 note=69 velocity=71 time=0 
note_on channel=9 note=69 velocity=0 time=48 
note_on channel=9 note=54 velocity=0 time=4 
note_on channel=9 note=38 velocity=87 time=0 
note_on channel=9 note=54 velocity=97 time=0 
note_on channel=9 note=69 velocity=88 time=0 
note_on channel=9 note=69 velocity=0 time=44 
note_on channel=9 note=38 velocity=0 time=0 
note_on channel=9 note=69 velocity=72 time=0 
note_on channel=9 note=69 velocity=0 time=48 
note_on channel=9 note=35 velocity=87 time=0 
note_on channel=9 note=69 velocity=77 time=0 
note_on channel=9 note=54 velocity=0 time=4 
note_on channel=9 note=54 velocity=95 time=0 
note_on channel=9 note=69 velocity=0 time=44 
note_on channel=9 note=35 velocity=0 time=0 
note_on channel=9 note=69 velocity=59 time=0 
note_on channel=9 note=69 velocity=0 time=48 
note_on channel=9 note=54 velocity=0 time=0 
note_on channel=9 note=54 velocity=97 time=0 
note_on channel=9 note=38 velocity=87 time=0 
note_on channel=9 note=69 velocity=75 time=0 
note_on channel=9 note=69 velocity=0 time=48 
note_on channel=9 note=38 velocity=0 time=0 
note_on channel=9 note=69 velocity=62 time=0 
note_on channel=9 note=69 velocity=0 time=48 
note_on channel=9 note=54 velocity=0 time=0 
note_on channel=9 note=35 velocity=87 time=0 
note_on channel=9 note=69 velocity=73 time=0 
note_on channel=9 note=54 velocity=95 time=0 
note_on channel=9 note=69 velocity=0 time=48 
note_on channel=9 note=35 velocity=0 time=0 
note_on channel=9 note=69 velocity=66 time=0 
note_on channel=9 note=69 velocity=0 time=48 
note_on channel=9 note=69 velocity=75 time=0 
note_on channel=9 note=54 velocity=0 time=8 
note_on channel=9 note=38 velocity=87 time=0 
note_on channel=9 note=54 velocity=97 time=0 
note_on channel=9 note=38 velocity=0 time=40 
note_on channel=9 note=69 velocity=0 time=0 
note_on channel=9 note=69 velocity=66 time=0 
note_on channel=9 note=69 velocity=0 time=48 
note_on channel=9 note=54 velocity=0 time=0 
note_on channel=9 note=35 velocity=87 time=0 
note_on channel=9 note=69 velocity=77 time=0 
note_on channel=9 note=54 velocity=95 time=0 
note_on channel=9 note=69 velocity=0 time=48 
note_on channel=9 note=35 velocity=0 time=0 
note_on channel=9 note=69 velocity=64 time=0 
note_on channel=9 note=69 velocity=0 time=48 
note_on channel=9 note=69 velocity=81 time=0 
note_on channel=9 note=54 velocity=0 time=4 
note_on channel=9 note=54 velocity=97 time=0 
note_on channel=9 note=38 velocity=87 time=4 
note_on channel=9 note=38 velocity=0 time=40 
note_on channel=9 note=69 velocity=0 time=0 
note_on channel=9 note=69 velocity=70 time=0 
note_on channel=9 note=69 velocity=0 time=48 
note_on channel=9 note=54 velocity=0 time=0 
note_on channel=9 note=35 velocity=87 time=0 
note_on channel=9 note=69 velocity=83 time=0 
note_on channel=9 note=54 velocity=95 time=0 
note_on channel=9 note=69 velocity=0 time=48 
note_on channel=9 note=35 velocity=0 time=0 
note_on channel=9 note=69 velocity=71 time=0 
note_on channel=9 note=69 velocity=0 time=48 
note_on channel=9 note=69 velocity=88 time=0 
note_on channel=9 note=54 velocity=0 time=4 
note_on channel=9 note=38 velocity=87 time=0 
note_on channel=9 note=54 velocity=97 time=0 
note_on channel=9 note=38 velocity=0 time=44 
note_on channel=9 note=69 velocity=0 time=0 
note_on channel=9 note=69 velocity=72 time=0 
note_on channel=9 note=69 velocity=0 time=48 
note_on channel=9 note=35 velocity=87 time=0 
note_on channel=9 note=69 velocity=77 time=0 
note_on channel=9 note=54 velocity=0 time=4 
note_on channel=9 note=54 velocity=95 time=0 
note_on channel=9 note=69 velocity=0 time=44 
note_on channel=9 note=35 velocity=0 time=0 
note_on channel=9 note=69 velocity=59 time=0 
note_on channel=9 note=69 velocity=0 time=48 
note_on channel=9 note=54 velocity=0 time=0 
note_on channel=9 note=54 velocity=97 time=0 
note_on channel=9 note=69 velocity=75 time=0 
note_on channel=9 note=38 velocity=87 time=4 
note_on channel=9 note=38 velocity=0 time=44 
note_on channel=9 note=69 velocity=0 time=0 
note_on channel=9 note=69 velocity=62 time=0 
note_on channel=9 note=69 velocity=0 time=48 
note_on channel=9 note=54 velocity=0 time=0 
note_on channel=9 note=69 velocity=73 time=0 
note_on channel=9 note=54 velocity=95 time=0 
note_on channel=9 note=35 velocity=87 time=4 
note_on channel=9 note=35 velocity=0 time=44 
note_on channel=9 note=69 velocity=0 time=0 
note_on channel=9 note=69 velocity=66 time=0 
note_on channel=9 note=69 velocity=0 time=48 
note_on channel=9 note=69 velocity=75 time=0 
note_on channel=9 note=54 velocity=0 time=4 
note_on channel=9 note=38 velocity=87 time=0 
note_on channel=9 note=54 velocity=97 time=0 
note_on channel=9 note=38 velocity=0 time=44 
note_on channel=9 note=69 velocity=0 time=0 
note_on channel=9 note=69 velocity=66 time=0 
note_on channel=9 note=69 velocity=0 time=48 
note_on channel=9 note=54 velocity=0 time=0 
note_on channel=9 note=35 velocity=87 time=0 
note_on channel=9 note=69 velocity=77 time=0 
note_on channel=9 note=54 velocity=95 time=0 
note_on channel=9 note=69 velocity=0 time=48 
note_on channel=9 note=35 velocity=0 time=0 
note_on channel=9 note=69 velocity=64 time=0 
note_on channel=9 note=69 velocity=0 time=48 
note_on channel=9 note=69 velocity=81 time=0 
note_on channel=9 note=54 velocity=0 time=4 
note_on channel=9 note=38 velocity=87 time=0 
note_on channel=9 note=54 velocity=97 time=0 
note_on channel=9 note=38 velocity=0 time=44 
note_on channel=9 note=69 velocity=0 time=0 
note_on channel=9 note=69 velocity=70 time=0 
note_on channel=9 note=69 velocity=0 time=48 
note_on channel=9 note=35 velocity=87 time=0 
note_on channel=9 note=69 velocity=83 time=0 
note_on channel=9 note=54 velocity=0 time=4 
note_on channel=9 note=54 velocity=95 time=0 
note_on channel=9 note=69 velocity=0 time=44 
note_on channel=9 note=35 velocity=0 time=0 
note_on channel=9 note=69 velocity=71 time=0 
note_on channel=9 note=69 velocity=0 time=48 
note_on channel=9 note=54 velocity=0 time=0 
note_on channel=9 note=69 velocity=88 time=0 
note_on channel=9 note=54 velocity=97 time=0 
note_on channel=9 note=38 velocity=87 time=4 
note_on channel=9 note=38 velocity=0 time=44 
note_on channel=9 note=69 velocity=0 time=0 
note_on channel=9 note=69 velocity=72 time=0 
note_on channel=9 note=69 velocity=0 time=48 
note_on channel=9 note=35 velocity=87 time=0 
note_on channel=9 note=69 velocity=77 time=0 
note_on channel=9 note=54 velocity=0 time=1 
note_on channel=9 note=69 velocity=0 time=47 
note_on channel=9 note=35 velocity=0 time=0 
note_on channel=9 note=69 velocity=59 time=0 
note_on channel=9 note=69 velocity=0 time=48 
note_on channel=9 note=69 velocity=75 time=0 
note_on channel=9 note=54 velocity=97 time=4 
note_on channel=9 note=38 velocity=87 time=4 
note_on channel=9 note=38 velocity=0 time=40 
note_on channel=9 note=69 velocity=0 time=0 
note_on channel=9 note=69 velocity=62 time=0 
note_on channel=9 note=69 velocity=0 time=48 
note_on channel=9 note=54 velocity=0 time=0 
note_on channel=9 note=35 velocity=87 time=0 
note_on channel=9 note=69 velocity=73 time=0 
note_on channel=9 note=54 velocity=95 time=0 
note_on channel=9 note=69 velocity=0 time=48 
note_on channel=9 note=35 velocity=0 time=0 
note_on channel=9 note=69 velocity=66 time=0 
note_on channel=9 note=69 velocity=0 time=48 
note_on channel=9 note=69 velocity=75 time=0 
note_on channel=9 note=54 velocity=0 time=4 
note_on channel=9 note=38 velocity=87 time=0 
note_on channel=9 note=54 velocity=97 time=0 
note_on channel=9 note=38 velocity=0 time=44 
note_on channel=9 note=69 velocity=0 time=0 
note_on channel=9 note=69 velocity=66 time=0 
note_on channel=9 note=69 velocity=0 time=48 
note_on channel=9 note=54 velocity=0 time=0 
note_on channel=9 note=35 velocity=87 time=0 
note_on channel=9 note=69 velocity=77 time=0 
note_on channel=9 note=54 velocity=95 time=0 
note_on channel=9 note=69 velocity=0 time=48 
note_on channel=9 note=35 velocity=0 time=0 
note_on channel=9 note=69 velocity=64 time=0 
note_on channel=9 note=69 velocity=0 time=48 
note_on channel=9 note=54 velocity=0 time=0 
note_on channel=9 note=54 velocity=97 time=0 
note_on channel=9 note=69 velocity=81 time=0 
note_on channel=9 note=38 velocity=87 time=0 
note_on channel=9 note=38 velocity=0 time=48 
note_on channel=9 note=69 velocity=0 time=0 
note_on channel=9 note=69 velocity=70 time=0 
note_on channel=9 note=69 velocity=0 time=48 
note_on channel=9 note=54 velocity=0 time=0 
note_on channel=9 note=35 velocity=87 time=0 
note_on channel=9 note=69 velocity=83 time=0 
note_on channel=9 note=54 velocity=95 time=0 
note_on channel=9 note=69 velocity=0 time=48 
note_on channel=9 note=35 velocity=0 time=0 
note_on channel=9 note=69 velocity=71 time=0 
note_on channel=9 note=69 velocity=0 time=48 
note_on channel=9 note=54 velocity=0 time=0 
note_on channel=9 note=69 velocity=88 time=0 
note_on channel=9 note=54 velocity=97 time=0 
note_on channel=9 note=38 velocity=87 time=4 
note_on channel=9 note=38 velocity=0 time=44 
note_on channel=9 note=69 velocity=0 time=0 
note_on channel=9 note=69 velocity=72 time=0 
note_on channel=9 note=69 velocity=0 time=48 
note_on channel=9 note=35 velocity=87 time=0 
note_on channel=9 note=69 velocity=77 time=0 
note_on channel=9 note=54 velocity=0 time=4 
note_on channel=9 note=54 velocity=95 time=0 
note_on channel=9 note=69 velocity=0 time=44 
note_on channel=9 note=35 velocity=0 time=0 
note_on channel=9 note=69 velocity=59 time=0 
note_on channel=9 note=69 velocity=0 time=48 
note_on channel=9 note=54 velocity=0 time=0 
note_on channel=9 note=69 velocity=75 time=0 
note_on channel=9 note=54 velocity=97 time=0 
note_on channel=9 note=38 velocity=87 time=4 
note_on channel=9 note=38 velocity=0 time=44 
note_on channel=9 note=69 velocity=0 time=0 
note_on channel=9 note=69 velocity=62 time=0 
note_on channel=9 note=69 velocity=0 time=48 
note_on channel=9 note=54 velocity=0 time=0 
note_on channel=9 note=35 velocity=87 time=0 
note_on channel=9 note=69 velocity=73 time=0 
note_on channel=9 note=54 velocity=95 time=0 
note_on channel=9 note=69 velocity=0 time=48 
note_on channel=9 note=35 velocity=0 time=0 
note_on channel=9 note=69 velocity=66 time=0 
note_on channel=9 note=69 velocity=0 time=48 
note_on channel=9 note=69 velocity=75 time=0 
note_on channel=9 note=54 velocity=0 time=4 
note_on channel=9 note=38 velocity=87 time=0 
note_on channel=9 note=54 velocity=97 time=0 
note_on channel=9 note=38 velocity=0 time=44 
note_on channel=9 note=69 velocity=0 time=0 
note_on channel=9 note=69 velocity=66 time=0 
note_on channel=9 note=69 velocity=0 time=48 
note_on channel=9 note=54 velocity=0 time=0 
note_on channel=9 note=35 velocity=87 time=0 
note_on channel=9 note=69 velocity=77 time=0 
note_on channel=9 note=54 velocity=95 time=0 
note_on channel=9 note=69 velocity=0 time=48 
note_on channel=9 note=35 velocity=0 time=0 
note_on channel=9 note=69 velocity=64 time=0 
note_on channel=9 note=69 velocity=0 time=48 
note_on channel=9 note=54 velocity=0 time=0 
note_on channel=9 note=54 velocity=97 time=0 
note_on channel=9 note=38 velocity=87 time=0 
note_on channel=9 note=69 velocity=81 time=0 
note_on channel=9 note=69 velocity=0 time=48 
note_on channel=9 note=38 velocity=0 time=0 
note_on channel=9 note=69 velocity=70 time=0 
note_on channel=9 note=69 velocity=0 time=48 
note_on channel=9 note=54 velocity=0 time=0 
note_on channel=9 note=35 velocity=87 time=0 
note_on channel=9 note=69 velocity=83 time=0 
note_on channel=9 note=54 velocity=95 time=0 
note_on channel=9 note=69 velocity=0 time=48 
note_on channel=9 note=35 velocity=0 time=0 
note_on channel=9 note=69 velocity=71 time=0 
note_on channel=9 note=69 velocity=0 time=48 
note_on channel=9 note=69 velocity=88 time=0 
note_on channel=9 note=54 velocity=0 time=4 
note_on channel=9 note=38 velocity=87 time=0 
note_on channel=9 note=54 velocity=97 time=0 
note_on channel=9 note=38 velocity=0 time=44 
note_on channel=9 note=69 velocity=0 time=0 
note_on channel=9 note=69 velocity=72 time=0 
note_on channel=9 note=69 velocity=0 time=48 
note_on channel=9 note=35 velocity=87 time=0 
note_on channel=9 note=54 velocity=0 time=4 
note_on channel=9 note=54 velocity=95 time=0 
note_on channel=9 note=69 velocity=77 time=0 
note_on channel=9 note=69 velocity=0 time=44 
note_on channel=9 note=35 velocity=0 time=0 
note_on channel=9 note=69 velocity=59 time=0 
note_on channel=9 note=69 velocity=0 time=48 
note_on channel=9 note=54 velocity=0 time=0 
note_on channel=9 note=54 velocity=97 time=0 
note_on channel=9 note=38 velocity=87 time=0 
note_on channel=9 note=69 velocity=75 time=0 
note_on channel=9 note=69 velocity=0 time=48 
note_on channel=9 note=38 velocity=0 time=0 
note_on channel=9 note=69 velocity=62 time=0 
note_on channel=9 note=69 velocity=0 time=48 
note_on channel=9 note=54 velocity=0 time=0 
note_on channel=9 note=35 velocity=87 time=0 
note_on channel=9 note=69 velocity=73 time=0 
note_on channel=9 note=54 velocity=95 time=0 
note_on channel=9 note=69 velocity=0 time=48 
note_on channel=9 note=35 velocity=0 time=0 
note_on channel=9 note=69 velocity=66 time=0 
note_on channel=9 note=69 velocity=0 time=48 
note_on channel=9 note=54 velocity=0 time=0 
note_on channel=9 note=54 velocity=97 time=0 
note_on channel=9 note=38 velocity=87 time=0 
note_on channel=9 note=69 velocity=75 time=0 
note_on channel=9 note=69 velocity=0 time=48 
note_on channel=9 note=38 velocity=0 time=0 
note_on channel=9 note=69 velocity=66 time=0 
note_on channel=9 note=69 velocity=0 time=48 
note_on channel=9 note=54 velocity=0 time=0 
note_on channel=9 note=49 velocity=77 time=0 
note_on channel=9 note=35 velocity=87 time=0 
note_on channel=9 note=69 velocity=77 time=0 
note_on channel=9 note=54 velocity=95 time=0 
note_on channel=9 note=69 velocity=0 time=48 
note_on channel=9 note=49 velocity=0 time=0 
note_on channel=9 note=35 velocity=0 time=4 
note_on channel=9 note=69 velocity=64 time=0 
note_on channel=9 note=69 velocity=0 time=44 
note_on channel=9 note=54 velocity=0 time=0 
note_on channel=9 note=54 velocity=97 time=0 
note_on channel=9 note=38 velocity=87 time=0 
note_on channel=9 note=69 velocity=81 time=0 
note_on channel=9 note=69 velocity=0 time=48 
note_on channel=9 note=38 velocity=0 time=0 
note_on channel=9 note=69 velocity=70 time=0 
note_on channel=9 note=69 velocity=0 time=48 
note_on channel=9 note=54 velocity=0 time=0 
note_on channel=9 note=35 velocity=87 time=0 
note_on channel=9 note=69 velocity=83 time=0 
note_on channel=9 note=54 velocity=95 time=0 
note_on channel=9 note=69 velocity=0 time=48 
note_on channel=9 note=35 velocity=0 time=0 
note_on channel=9 note=69 velocity=71 time=0 
note_on channel=9 note=69 velocity=0 time=48 
note_on channel=9 note=54 velocity=0 time=0 
note_on channel=9 note=69 velocity=88 time=0 
note_on channel=9 note=54 velocity=97 time=0 
note_on channel=9 note=38 velocity=87 time=4 
note_on channel=9 note=38 velocity=0 time=44 
note_on channel=9 note=69 velocity=0 time=0 
note_on channel=9 note=69 velocity=72 time=0 
note_on channel=9 note=69 velocity=0 time=48 
note_on channel=9 note=35 velocity=87 time=0 
note_on channel=9 note=69 velocity=77 time=0 
note_on channel=9 note=54 velocity=0 time=4 
note_on channel=9 note=54 velocity=95 time=0 
note_on channel=9 note=69 velocity=0 time=44 
note_on channel=9 note=35 velocity=0 time=0 
note_on channel=9 note=69 velocity=59 time=0 
note_on channel=9 note=69 velocity=0 time=48 
note_on channel=9 note=54 velocity=0 time=0 
note_on channel=9 note=54 velocity=97 time=0 
note_on channel=9 note=69 velocity=75 time=0 
note_on channel=9 note=38 velocity=87 time=4 
note_on channel=9 note=38 velocity=0 time=44 
note_on channel=9 note=69 velocity=0 time=0 
note_on channel=9 note=69 velocity=62 time=0 
note_on channel=9 note=69 velocity=0 time=48 
note_on channel=9 note=35 velocity=87 time=0 
note_on channel=9 note=69 velocity=73 time=0 
note_on channel=9 note=54 velocity=0 time=4 
note_on channel=9 note=54 velocity=95 time=0 
note_on channel=9 note=69 velocity=0 time=44 
note_on channel=9 note=35 velocity=0 time=0 
note_on channel=9 note=69 velocity=66 time=0 
note_on channel=9 note=69 velocity=0 time=48 
note_on channel=9 note=54 velocity=0 time=0 
note_on channel=9 note=54 velocity=97 time=0 
note_on channel=9 note=69 velocity=75 time=0 
note_on channel=9 note=38 velocity=87 time=4 
note_on channel=9 note=38 velocity=0 time=44 
note_on channel=9 note=69 velocity=0 time=0 
note_on channel=9 note=69 velocity=66 time=0 
note_on channel=9 note=69 velocity=0 time=48 
note_on channel=9 note=54 velocity=0 time=0 
note_on channel=9 note=35 velocity=87 time=0 
note_on channel=9 note=69 velocity=77 time=0 
note_on channel=9 note=54 velocity=95 time=0 
note_on channel=9 note=69 velocity=0 time=48 
note_on channel=9 note=35 velocity=0 time=0 
note_on channel=9 note=69 velocity=64 time=0 
note_on channel=9 note=69 velocity=0 time=48 
note_on channel=9 note=54 velocity=0 time=0 
note_on channel=9 note=54 velocity=97 time=0 
note_on channel=9 note=69 velocity=81 time=0 
note_on channel=9 note=38 velocity=87 time=4 
note_on channel=9 note=38 velocity=0 time=44 
note_on channel=9 note=69 velocity=0 time=0 
note_on channel=9 note=69 velocity=70 time=0 
note_on channel=9 note=69 velocity=0 time=48 
note_on channel=9 note=54 velocity=0 time=0 
note_on channel=9 note=35 velocity=87 time=0 
note_on channel=9 note=69 velocity=83 time=0 
note_on channel=9 note=54 velocity=95 time=0 
note_on channel=9 note=69 velocity=0 time=48 
note_on channel=9 note=35 velocity=0 time=0 
note_on channel=9 note=69 velocity=71 time=0 
note_on channel=9 note=69 velocity=0 time=48 
note_on channel=9 note=54 velocity=0 time=0 
note_on channel=9 note=69 velocity=88 time=0 
note_on channel=9 note=54 velocity=97 time=0 
note_on channel=9 note=38 velocity=87 time=4 
note_on channel=9 note=38 velocity=0 time=44 
note_on channel=9 note=69 velocity=0 time=0 
note_on channel=9 note=69 velocity=72 time=0 
note_on channel=9 note=69 velocity=0 time=48 
note_on channel=9 note=35 velocity=87 time=0 
note_on channel=9 note=69 velocity=77 time=0 
note_on channel=9 note=54 velocity=0 time=1 
note_on channel=9 note=69 velocity=0 time=47 
note_on channel=9 note=35 velocity=0 time=0 
note_on channel=9 note=69 velocity=59 time=0 
note_on channel=9 note=69 velocity=0 time=48 
note_on channel=9 note=69 velocity=75 time=0 
note_on channel=9 note=54 velocity=97 time=0 
note_on channel=9 note=38 velocity=87 time=4 
note_on channel=9 note=38 velocity=0 time=44 
note_on channel=9 note=69 velocity=0 time=0 
note_on channel=9 note=69 velocity=62 time=0 
note_on channel=9 note=69 velocity=0 time=48 
note_on channel=9 note=54 velocity=0 time=0 
note_on channel=9 note=35 velocity=87 time=0 
note_on channel=9 note=69 velocity=73 time=0 
note_on channel=9 note=54 velocity=95 time=0 
note_on channel=9 note=69 velocity=0 time=48 
note_on channel=9 note=35 velocity=0 time=0 
note_on channel=9 note=69 velocity=66 time=0 
note_on channel=9 note=69 velocity=0 time=48 
note_on channel=9 note=54 velocity=0 time=0 
note_on channel=9 note=69 velocity=75 time=0 
note_on channel=9 note=54 velocity=97 time=0 
note_on channel=9 note=38 velocity=87 time=4 
note_on channel=9 note=38 velocity=0 time=44 
note_on channel=9 note=69 velocity=0 time=0 
note_on channel=9 note=69 velocity=66 time=0 
note_on channel=9 note=69 velocity=0 time=48 
note_on channel=9 note=54 velocity=0 time=0 
note_on channel=9 note=35 velocity=87 time=0 
note_on channel=9 note=69 velocity=77 time=0 
note_on channel=9 note=54 velocity=95 time=0 
note_on channel=9 note=69 velocity=0 time=48 
note_on channel=9 note=35 velocity=0 time=0 
note_on channel=9 note=69 velocity=64 time=0 
note_on channel=9 note=69 velocity=0 time=48 
note_on channel=9 note=54 velocity=0 time=0 
note_on channel=9 note=54 velocity=97 time=0 
note_on channel=9 note=38 velocity=87 time=0 
note_on channel=9 note=69 velocity=81 time=0 
note_on channel=9 note=69 velocity=0 time=48 
note_on channel=9 note=38 velocity=0 time=0 
note_on channel=9 note=69 velocity=70 time=0 
note_on channel=9 note=69 velocity=0 time=48 
note_on channel=9 note=54 velocity=0 time=0 
note_on channel=9 note=35 velocity=87 time=0 
note_on channel=9 note=69 velocity=83 time=0 
note_on channel=9 note=54 velocity=95 time=0 
note_on channel=9 note=69 velocity=0 time=48 
note_on channel=9 note=35 velocity=0 time=0 
note_on channel=9 note=69 velocity=71 time=0 
note_on channel=9 note=69 velocity=0 time=48 
note_on channel=9 note=54 velocity=0 time=0 
note_on channel=9 note=69 velocity=88 time=0 
note_on channel=9 note=54 velocity=97 time=0 
note_on channel=9 note=38 velocity=87 time=4 
note_on channel=9 note=38 velocity=0 time=44 
note_on channel=9 note=69 velocity=0 time=0 
note_on channel=9 note=69 velocity=72 time=0 
note_on channel=9 note=69 velocity=0 time=48 
note_on channel=9 note=35 velocity=87 time=0 
note_on channel=9 note=69 velocity=77 time=0 
note_on channel=9 note=54 velocity=0 time=1 
note_on channel=9 note=69 velocity=0 time=47 
note_on channel=9 note=35 velocity=0 time=0 
note_on channel=9 note=69 velocity=59 time=0 
note_on channel=9 note=69 velocity=0 time=48 
note_on channel=9 note=54 velocity=97 time=0 
note_on channel=9 note=38 velocity=87 time=0 
note_on channel=9 note=69 velocity=75 time=0 
note_on channel=9 note=69 velocity=0 time=48 
note_on channel=9 note=38 velocity=0 time=0 
note_on channel=9 note=69 velocity=62 time=0 
note_on channel=9 note=69 velocity=0 time=48 
note_on channel=9 note=69 velocity=73 time=0 
note_on channel=9 note=54 velocity=0 time=4 
note_on channel=9 note=35 velocity=87 time=0 
note_on channel=9 note=54 velocity=95 time=0 
note_on channel=9 note=35 velocity=0 time=44 
note_on channel=9 note=69 velocity=0 time=0 
note_on channel=9 note=69 velocity=66 time=0 
note_on channel=9 note=69 velocity=0 time=48 
note_on channel=9 note=54 velocity=0 time=4 
note_on channel=9 note=54 velocity=97 time=0 
note_on channel=9 note=38 velocity=87 time=0 
note_on channel=9 note=69 velocity=75 time=0 
note_on channel=9 note=69 velocity=0 time=44 
note_on channel=9 note=38 velocity=0 time=0 
note_on channel=9 note=69 velocity=66 time=0 
note_on channel=9 note=69 velocity=0 time=48 
note_on channel=9 note=69 velocity=77 time=0 
note_on channel=9 note=54 velocity=0 time=4 
note_on channel=9 note=35 velocity=87 time=0 
note_on channel=9 note=54 velocity=95 time=0 
note_on channel=9 note=35 velocity=0 time=44 
note_on channel=9 note=69 velocity=0 time=0 
note_on channel=9 note=69 velocity=64 time=0 
note_on channel=9 note=69 velocity=0 time=48 
note_on channel=9 note=69 velocity=81 time=0 
note_on channel=9 note=54 velocity=0 time=4 
note_on channel=9 note=38 velocity=87 time=0 
note_on channel=9 note=54 velocity=97 time=0 
note_on channel=9 note=38 velocity=0 time=44 
note_on channel=9 note=69 velocity=0 time=0 
note_on channel=9 note=69 velocity=70 time=0 
note_on channel=9 note=69 velocity=0 time=48 
note_on channel=9 note=54 velocity=0 time=0 
note_on channel=9 note=35 velocity=87 time=0 
note_on channel=9 note=69 velocity=83 time=0 
note_on channel=9 note=54 velocity=95 time=0 
note_on channel=9 note=69 velocity=0 time=48 
note_on channel=9 note=35 velocity=0 time=0 
note_on channel=9 note=69 velocity=71 time=0 
note_on channel=9 note=69 velocity=0 time=48 
note_on channel=9 note=69 velocity=88 time=0 
note_on channel=9 note=54 velocity=0 time=4 
note_on channel=9 note=38 velocity=87 time=0 
note_on channel=9 note=54 velocity=97 time=0 
note_on channel=9 note=38 velocity=0 time=44 
note_on channel=9 note=69 velocity=0 time=0 
note_on channel=9 note=69 velocity=72 time=0 
note_on channel=9 note=69 velocity=0 time=48 
note_on channel=9 note=35 velocity=87 time=0 
note_on channel=9 note=54 velocity=0 time=4 
note_on channel=9 note=54 velocity=95 time=0 
note_on channel=9 note=69 velocity=77 time=0 
note_on channel=9 note=69 velocity=0 time=44 
note_on channel=9 note=35 velocity=0 time=0 
note_on channel=9 note=69 velocity=59 time=0 
note_on channel=9 note=69 velocity=0 time=48 
note_on channel=9 note=54 velocity=0 time=0 
note_on channel=9 note=54 velocity=97 time=0 
note_on channel=9 note=69 velocity=75 time=0 
note_on channel=9 note=38 velocity=87 time=0 
note_on channel=9 note=38 velocity=0 time=48 
note_on channel=9 note=69 velocity=0 time=0 
note_on channel=9 note=69 velocity=62 time=0 
note_on channel=9 note=69 velocity=0 time=48 
note_on channel=9 note=54 velocity=0 time=0 
note_on channel=9 note=35 velocity=87 time=0 
note_on channel=9 note=69 velocity=73 time=0 
note_on channel=9 note=54 velocity=95 time=0 
note_on channel=9 note=69 velocity=0 time=48 
note_on channel=9 note=35 velocity=0 time=0 
note_on channel=9 note=69 velocity=66 time=0 
note_on channel=9 note=69 velocity=0 time=48 
note_on channel=9 note=54 velocity=0 time=0 
note_on channel=9 note=54 velocity=97 time=0 
note_on channel=9 note=69 velocity=75 time=0 
note_on channel=9 note=38 velocity=87 time=0 
note_on channel=9 note=38 velocity=0 time=48 
note_on channel=9 note=69 velocity=0 time=0 
note_on channel=9 note=69 velocity=66 time=0 
note_on channel=9 note=69 velocity=0 time=48 
note_on channel=9 note=54 velocity=0 time=0 
note_on channel=9 note=35 velocity=87 time=0 
note_on channel=9 note=69 velocity=77 time=0 
note_on channel=9 note=54 velocity=95 time=0 
note_on channel=9 note=69 velocity=0 time=48 
note_on channel=9 note=35 velocity=0 time=0 
note_on channel=9 note=69 velocity=64 time=0 
note_on channel=9 note=69 velocity=0 time=48 
note_on channel=9 note=54 velocity=0 time=0 
note_on channel=9 note=54 velocity=97 time=0 
note_on channel=9 note=38 velocity=87 time=0 
note_on channel=9 note=69 velocity=81 time=0 
note_on channel=9 note=69 velocity=0 time=48 
note_on channel=9 note=38 velocity=0 time=0 
note_on channel=9 note=69 velocity=70 time=0 
note_on channel=9 note=69 velocity=0 time=48 
note_on channel=9 note=54 velocity=0 time=0 
note_on channel=9 note=35 velocity=87 time=0 
note_on channel=9 note=69 velocity=83 time=0 
note_on channel=9 note=54 velocity=95 time=0 
note_on channel=9 note=69 velocity=0 time=48 
note_on channel=9 note=35 velocity=0 time=0 
note_on channel=9 note=69 velocity=71 time=0 
note_on channel=9 note=69 velocity=0 time=48 
note_on channel=9 note=54 velocity=0 time=0 
note_on channel=9 note=54 velocity=97 time=0 
note_on channel=9 note=38 velocity=87 time=0 
note_on channel=9 note=69 velocity=88 time=0 
note_on channel=9 note=69 velocity=0 time=48 
note_on channel=9 note=38 velocity=0 time=0 
note_on channel=9 note=69 velocity=72 time=0 
note_on channel=9 note=69 velocity=0 time=48 
note_on channel=9 note=35 velocity=87 time=0 
note_on channel=9 note=54 velocity=0 time=4 
note_on channel=9 note=54 velocity=95 time=0 
note_on channel=9 note=69 velocity=77 time=0 
note_on channel=9 note=69 velocity=0 time=44 
note_on channel=9 note=35 velocity=0 time=0 
note_on channel=9 note=69 velocity=59 time=0 
note_on channel=9 note=69 velocity=0 time=48 
note_on channel=9 note=54 velocity=0 time=0 
note_on channel=9 note=54 velocity=97 time=0 
note_on channel=9 note=38 velocity=87 time=0 
note_on channel=9 note=69 velocity=75 time=0 
note_on channel=9 note=69 velocity=0 time=48 
note_on channel=9 note=38 velocity=0 time=0 
note_on channel=9 note=69 velocity=62 time=0 
note_on channel=9 note=69 velocity=0 time=48 
note_on channel=9 note=54 velocity=0 time=0 
note_on channel=9 note=35 velocity=87 time=0 
note_on channel=9 note=69 velocity=73 time=0 
note_on channel=9 note=54 velocity=95 time=0 
note_on channel=9 note=69 velocity=0 time=48 
note_on channel=9 note=35 velocity=0 time=0 
note_on channel=9 note=69 velocity=66 time=0 
note_on channel=9 note=69 velocity=0 time=48 
note_on channel=9 note=54 velocity=0 time=0 
note_on channel=9 note=69 velocity=75 time=0 
note_on channel=9 note=54 velocity=97 time=0 
note_on channel=9 note=38 velocity=87 time=4 
note_on channel=9 note=38 velocity=0 time=44 
note_on channel=9 note=69 velocity=0 time=0 
note_on channel=9 note=69 velocity=66 time=0 
note_on channel=9 note=69 velocity=0 time=48 
note_on channel=9 note=54 velocity=0 time=0 
note_on channel=9 note=35 velocity=87 time=0 
note_on channel=9 note=69 velocity=77 time=0 
note_on channel=9 note=54 velocity=95 time=0 
note_on channel=9 note=69 velocity=0 time=48 
note_on channel=9 note=35 velocity=0 time=0 
note_on channel=9 note=69 velocity=64 time=0 
note_on channel=9 note=69 velocity=0 time=48 
note_on channel=9 note=54 velocity=0 time=0 
note_on channel=9 note=54 velocity=97 time=0 
note_on channel=9 note=38 velocity=87 time=0 
note_on channel=9 note=69 velocity=81 time=0 
note_on channel=9 note=69 velocity=0 time=48 
note_on channel=9 note=38 velocity=0 time=0 
note_on channel=9 note=69 velocity=70 time=0 
note_on channel=9 note=69 velocity=0 time=48 
note_on channel=9 note=54 velocity=0 time=0 
note_on channel=9 note=35 velocity=87 time=0 
note_on channel=9 note=69 velocity=83 time=0 
note_on channel=9 note=54 velocity=95 time=0 
note_on channel=9 note=69 velocity=0 time=48 
note_on channel=9 note=35 velocity=0 time=0 
note_on channel=9 note=69 velocity=71 time=0 
note_on channel=9 note=69 velocity=0 time=48 
note_on channel=9 note=69 velocity=88 time=0 
note_on channel=9 note=54 velocity=0 time=4 
note_on channel=9 note=38 velocity=87 time=0 
note_on channel=9 note=54 velocity=97 time=0 
note_on channel=9 note=38 velocity=0 time=44 
note_on channel=9 note=69 velocity=0 time=0 
note_on channel=9 note=69 velocity=72 time=0 
note_on channel=9 note=69 velocity=0 time=48 
note_on channel=9 note=35 velocity=87 time=0 
note_on channel=9 note=69 velocity=77 time=0 
note_on channel=9 note=54 velocity=0 time=4 
note_on channel=9 note=54 velocity=95 time=0 
note_on channel=9 note=69 velocity=0 time=44 
note_on channel=9 note=35 velocity=0 time=0 
note_on channel=9 note=69 velocity=59 time=0 
note_on channel=9 note=69 velocity=0 time=48 
note_on channel=9 note=54 velocity=0 time=0 
note_on channel=9 note=69 velocity=75 time=0 
note_on channel=9 note=54 velocity=97 time=0 
note_on channel=9 note=38 velocity=87 time=4 
note_on channel=9 note=38 velocity=0 time=44 
note_on channel=9 note=69 velocity=0 time=0 
note_on channel=9 note=69 velocity=62 time=0 
note_on channel=9 note=69 velocity=0 time=48 
note_on channel=9 note=54 velocity=0 time=0 
note_on channel=9 note=35 velocity=87 time=0 
note_on channel=9 note=69 velocity=73 time=0 
note_on channel=9 note=54 velocity=95 time=0 
note_on channel=9 note=69 velocity=0 time=48 
note_on channel=9 note=35 velocity=0 time=0 
note_on channel=9 note=69 velocity=66 time=0 
note_on channel=9 note=69 velocity=0 time=48 
note_on channel=9 note=69 velocity=75 time=0 
note_on channel=9 note=54 velocity=0 time=4 
note_on channel=9 note=38 velocity=87 time=0 
note_on channel=9 note=54 velocity=97 time=0 
note_on channel=9 note=38 velocity=0 time=44 
note_on channel=9 note=69 velocity=0 time=0 
note_on channel=9 note=69 velocity=66 time=0 
note_on channel=9 note=69 velocity=0 time=48 
note_on channel=9 note=54 velocity=0 time=0 
note_on channel=9 note=35 velocity=87 time=0 
note_on channel=9 note=69 velocity=77 time=0 
note_on channel=9 note=54 velocity=95 time=0 
note_on channel=9 note=69 velocity=0 time=48 
note_on channel=9 note=35 velocity=0 time=0 
note_on channel=9 note=69 velocity=64 time=0 
note_on channel=9 note=69 velocity=0 time=48 
note_on channel=9 note=54 velocity=0 time=0 
note_on channel=9 note=54 velocity=97 time=0 
note_on channel=9 note=69 velocity=81 time=0 
note_on channel=9 note=38 velocity=87 time=4 
note_on channel=9 note=38 velocity=0 time=44 
note_on channel=9 note=69 velocity=0 time=0 
note_on channel=9 note=69 velocity=70 time=0 
note_on channel=9 note=69 velocity=0 time=48 
note_on channel=9 note=54 velocity=0 time=0 
note_on channel=9 note=35 velocity=87 time=0 
note_on channel=9 note=69 velocity=83 time=0 
note_on channel=9 note=54 velocity=95 time=0 
note_on channel=9 note=69 velocity=0 time=48 
note_on channel=9 note=35 velocity=0 time=0 
note_on channel=9 note=69 velocity=71 time=0 
note_on channel=9 note=69 velocity=0 time=48 
note_on channel=9 note=54 velocity=0 time=0 
note_on channel=9 note=69 velocity=88 time=0 
note_on channel=9 note=54 velocity=97 time=0 
note_on channel=9 note=38 velocity=87 time=4 
note_on channel=9 note=38 velocity=0 time=44 
note_on channel=9 note=69 velocity=0 time=0 
note_on channel=9 note=69 velocity=72 time=0 
note_on channel=9 note=69 velocity=0 time=52 
note_on channel=9 note=54 velocity=0 time=0 
note_on channel=9 note=35 velocity=87 time=0 
note_on channel=9 note=54 velocity=95 time=0 
note_on channel=9 note=69 velocity=77 time=0 
note_on channel=9 note=69 velocity=0 time=44 
note_on channel=9 note=35 velocity=0 time=0 
note_on channel=9 note=69 velocity=59 time=0 
note_on channel=9 note=69 velocity=0 time=48 
note_on channel=9 note=69 velocity=75 time=0 
note_on channel=9 note=54 velocity=0 time=4 
note_on channel=9 note=38 velocity=87 time=0 
note_on channel=9 note=54 velocity=97 time=0 
note_on channel=9 note=38 velocity=0 time=44 
note_on channel=9 note=69 velocity=0 time=0 
note_on channel=9 note=69 velocity=62 time=0 
note_on channel=9 note=69 velocity=0 time=48 
note_on channel=9 note=54 velocity=0 time=0 
note_on channel=9 note=69 velocity=73 time=0 
note_on channel=9 note=54 velocity=95 time=0 
note_on channel=9 note=35 velocity=87 time=4 
note_on channel=9 note=35 velocity=0 time=44 
note_on channel=9 note=69 velocity=0 time=0 
note_on channel=9 note=69 velocity=66 time=0 
note_on channel=9 note=69 velocity=0 time=48 
note_on channel=9 note=54 velocity=0 time=0 
note_on channel=9 note=69 velocity=75 time=0 
note_on channel=9 note=54 velocity=97 time=0 
note_on channel=9 note=38 velocity=87 time=4 
note_on channel=9 note=38 velocity=0 time=44 
note_on channel=9 note=69 velocity=0 time=0 
note_on channel=9 note=69 velocity=66 time=0 
note_on channel=9 note=69 velocity=0 time=48 
note_on channel=9 note=54 velocity=0 time=0 
note_on channel=9 note=35 velocity=87 time=0 
note_on channel=9 note=69 velocity=77 time=0 
note_on channel=9 note=54 velocity=95 time=0 
note_on channel=9 note=35 velocity=0 time=48 
note_on channel=9 note=69 velocity=0 time=4 
note_on channel=9 note=69 velocity=64 time=0 
note_on channel=9 note=69 velocity=0 time=44 
note_on channel=9 note=54 velocity=0 time=0 
note_on channel=9 note=54 velocity=97 time=0 
note_on channel=9 note=38 velocity=87 time=0 
note_on channel=9 note=69 velocity=81 time=0 
note_on channel=9 note=69 velocity=0 time=48 
note_on channel=9 note=38 velocity=0 time=0 
note_on channel=9 note=69 velocity=70 time=0 
note_on channel=9 note=69 velocity=0 time=48 
note_on channel=9 note=54 velocity=0 time=0 
note_on channel=9 note=35 velocity=87 time=0 
note_on channel=9 note=69 velocity=83 time=0 
note_on channel=9 note=54 velocity=95 time=0 
note_on channel=9 note=69 velocity=0 time=48 
note_on channel=9 note=35 velocity=0 time=0 
note_on channel=9 note=69 velocity=71 time=0 
note_on channel=9 note=69 velocity=0 time=48 
note_on channel=9 note=54 velocity=0 time=0 
note_on channel=9 note=69 velocity=88 time=0 
note_on channel=9 note=54 velocity=97 time=0 
note_on channel=9 note=38 velocity=87 time=4 
note_on channel=9 note=38 velocity=0 time=44 
note_on channel=9 note=69 velocity=0 time=0 
note_on channel=9 note=69 velocity=72 time=0 
note_on channel=9 note=69 velocity=0 time=48 
note_on channel=9 note=69 velocity=77 time=0 
note_on channel=9 note=54 velocity=0 time=4 
note_on channel=9 note=35 velocity=87 time=0 
note_on channel=9 note=54 velocity=95 time=0 
note_on channel=9 note=35 velocity=0 time=44 
note_on channel=9 note=69 velocity=0 time=0 
note_on channel=9 note=69 velocity=59 time=0 
note_on channel=9 note=69 velocity=0 time=48 
note_on channel=9 note=54 velocity=0 time=0 
note_on channel=9 note=69 velocity=75 time=0 
note_on channel=9 note=54 velocity=97 time=0 
note_on channel=9 note=38 velocity=87 time=4 
note_on channel=9 note=38 velocity=0 time=44 
note_on channel=9 note=69 velocity=0 time=0 
note_on channel=9 note=69 velocity=62 time=0 
note_on channel=9 note=69 velocity=0 time=48 
note_on channel=9 note=54 velocity=0 time=0 
note_on channel=9 note=35 velocity=87 time=0 
note_on channel=9 note=69 velocity=73 time=0 
note_on channel=9 note=54 velocity=95 time=0 
note_on channel=9 note=69 velocity=0 time=48 
note_on channel=9 note=35 velocity=0 time=0 
note_on channel=9 note=69 velocity=66 time=0 
note_on channel=9 note=69 velocity=0 time=48 
note_on channel=9 note=69 velocity=75 time=0 
note_on channel=9 note=54 velocity=0 time=4 
note_on channel=9 note=38 velocity=87 time=0 
note_on channel=9 note=54 velocity=97 time=0 
note_on channel=9 note=38 velocity=0 time=44 
note_on channel=9 note=69 velocity=0 time=0 
note_on channel=9 note=69 velocity=66 time=0 
note_on channel=9 note=69 velocity=0 time=48 
note_on channel=9 note=54 velocity=0 time=0 
note_on channel=9 note=35 velocity=87 time=0 
note_on channel=9 note=69 velocity=77 time=0 
note_on channel=9 note=54 velocity=95 time=0 
note_on channel=9 note=69 velocity=0 time=48 
note_on channel=9 note=35 velocity=0 time=0 
note_on channel=9 note=69 velocity=64 time=0 
note_on channel=9 note=69 velocity=0 time=48 
note_on channel=9 note=54 velocity=0 time=0 
note_on channel=9 note=54 velocity=97 time=0 
note_on channel=9 note=38 velocity=87 time=0 
note_on channel=9 note=69 velocity=81 time=0 
note_on channel=9 note=69 velocity=0 time=48 
note_on channel=9 note=38 velocity=0 time=0 
note_on channel=9 note=69 velocity=70 time=0 
note_on channel=9 note=69 velocity=0 time=48 
note_on channel=9 note=54 velocity=0 time=0 
note_on channel=9 note=35 velocity=87 time=0 
note_on channel=9 note=69 velocity=83 time=0 
note_on channel=9 note=54 velocity=95 time=0 
note_on channel=9 note=69 velocity=0 time=48 
note_on channel=9 note=35 velocity=0 time=0 
note_on channel=9 note=69 velocity=71 time=0 
note_on channel=9 note=69 velocity=0 time=48 
note_on channel=9 note=69 velocity=88 time=0 
note_on channel=9 note=54 velocity=0 time=4 
note_on channel=9 note=38 velocity=87 time=0 
note_on channel=9 note=54 velocity=97 time=0 
note_on channel=9 note=38 velocity=0 time=44 
note_on channel=9 note=69 velocity=0 time=0 
note_on channel=9 note=69 velocity=72 time=0 
note_on channel=9 note=69 velocity=0 time=48 
note_on channel=9 note=49 velocity=77 time=0 
note_on channel=9 note=35 velocity=87 time=0 
note_on channel=9 note=69 velocity=77 time=0 
note_on channel=9 note=54 velocity=0 time=4 
note_on channel=9 note=54 velocity=95 time=0 
note_on channel=9 note=49 velocity=0 time=44 
note_on channel=9 note=69 velocity=0 time=0 
note_on channel=9 note=35 velocity=0 time=0 
note_on channel=9 note=69 velocity=59 time=0 
note_on channel=9 note=69 velocity=0 time=48 
note_on channel=9 note=54 velocity=0 time=0 
note_on channel=9 note=69 velocity=75 time=0 
note_on channel=9 note=54 velocity=97 time=0 
note_on channel=9 note=38 velocity=87 time=4 
note_on channel=9 note=38 velocity=0 time=44 
note_on channel=9 note=69 velocity=0 time=0 
note_on channel=9 note=69 velocity=62 time=0 
note_on channel=9 note=69 velocity=0 time=48 
note_on channel=9 note=35 velocity=87 time=0 
note_on channel=9 note=54 velocity=0 time=4 
note_on channel=9 note=54 velocity=95 time=0 
note_on channel=9 note=69 velocity=73 time=0 
note_on channel=9 note=69 velocity=0 time=44 
note_on channel=9 note=35 velocity=0 time=0 
note_on channel=9 note=69 velocity=66 time=0 
note_on channel=9 note=69 velocity=0 time=48 
note_on channel=9 note=54 velocity=0 time=0 
note_on channel=9 note=54 velocity=97 time=0 
note_on channel=9 note=69 velocity=75 time=0 
note_on channel=9 note=38 velocity=87 time=0 
note_on channel=9 note=38 velocity=0 time=48 
note_on channel=9 note=69 velocity=0 time=0 
note_on channel=9 note=69 velocity=66 time=0 
note_on channel=9 note=69 velocity=0 time=48 
note_on channel=9 note=54 velocity=0 time=0 
note_on channel=9 note=35 velocity=87 time=0 
note_on channel=9 note=69 velocity=77 time=0 
note_on channel=9 note=54 velocity=95 time=0 
note_on channel=9 note=69 velocity=0 time=48 
note_on channel=9 note=35 velocity=0 time=0 
note_on channel=9 note=69 velocity=64 time=0 
note_on channel=9 note=69 velocity=0 time=48 
note_on channel=9 note=54 velocity=0 time=0 
note_on channel=9 note=69 velocity=81 time=0 
note_on channel=9 note=54 velocity=97 time=0 
note_on channel=9 note=38 velocity=87 time=4 
note_on channel=9 note=38 velocity=0 time=44 
note_on channel=9 note=69 velocity=0 time=0 
note_on channel=9 note=69 velocity=70 time=0 
note_on channel=9 note=69 velocity=0 time=48 
note_on channel=9 note=54 velocity=0 time=0 
note_on channel=9 note=35 velocity=87 time=0 
note_on channel=9 note=69 velocity=83 time=0 
note_on channel=9 note=54 velocity=95 time=0 
note_on channel=9 note=69 velocity=0 time=48 
note_on channel=9 note=35 velocity=0 time=0 
note_on channel=9 note=69 velocity=71 time=0 
note_on channel=9 note=69 velocity=0 time=48 
note_on channel=9 note=54 velocity=0 time=4 
note_on channel=9 note=54 velocity=97 time=0 
note_on channel=9 note=38 velocity=87 time=0 
note_on channel=9 note=69 velocity=88 time=0 
note_on channel=9 note=69 velocity=0 time=44 
note_on channel=9 note=38 velocity=0 time=0 
note_on channel=9 note=69 velocity=72 time=0 
note_on channel=9 note=69 velocity=0 time=48 
note_on channel=9 note=35 velocity=87 time=0 
note_on channel=9 note=69 velocity=77 time=0 
note_on channel=9 note=54 velocity=0 time=4 
note_on channel=9 note=54 velocity=95 time=0 
note_on channel=9 note=69 velocity=0 time=44 
note_on channel=9 note=35 velocity=0 time=0 
note_on channel=9 note=69 velocity=59 time=0 
note_on channel=9 note=69 velocity=0 time=48 
note_on channel=9 note=54 velocity=0 time=0 
note_on channel=9 note=69 velocity=75 time=0 
note_on channel=9 note=54 velocity=97 time=0 
note_on channel=9 note=38 velocity=87 time=4 
note_on channel=9 note=38 velocity=0 time=44 
note_on channel=9 note=69 velocity=0 time=0 
note_on channel=9 note=69 velocity=62 time=0 
note_on channel=9 note=69 velocity=0 time=48 
note_on channel=9 note=54 velocity=0 time=0 
note_on channel=9 note=35 velocity=87 time=0 
note_on channel=9 note=69 velocity=73 time=0 
note_on channel=9 note=54 velocity=95 time=0 
note_on channel=9 note=69 velocity=0 time=48 
note_on channel=9 note=35 velocity=0 time=0 
note_on channel=9 note=69 velocity=66 time=0 
note_on channel=9 note=69 velocity=0 time=48 
note_on channel=9 note=54 velocity=0 time=0 
note_on channel=9 note=69 velocity=75 time=0 
note_on channel=9 note=54 velocity=97 time=0 
note_on channel=9 note=38 velocity=87 time=4 
note_on channel=9 note=38 velocity=0 time=44 
note_on channel=9 note=69 velocity=0 time=0 
note_on channel=9 note=69 velocity=66 time=0 
note_on channel=9 note=69 velocity=0 time=48 
note_on channel=9 note=54 velocity=0 time=0 
note_on channel=9 note=35 velocity=87 time=0 
note_on channel=9 note=69 velocity=77 time=0 
note_on channel=9 note=54 velocity=95 time=0 
note_on channel=9 note=69 velocity=0 time=48 
note_on channel=9 note=35 velocity=0 time=0 
note_on channel=9 note=69 velocity=64 time=0 
note_on channel=9 note=69 velocity=0 time=48 
note_on channel=9 note=54 velocity=0 time=0 
note_on channel=9 note=69 velocity=81 time=0 
note_on channel=9 note=54 velocity=97 time=0 
note_on channel=9 note=38 velocity=87 time=4 
note_on channel=9 note=38 velocity=0 time=44 
note_on channel=9 note=69 velocity=0 time=0 
note_on channel=9 note=69 velocity=70 time=0 
note_on channel=9 note=69 velocity=0 time=48 
note_on channel=9 note=54 velocity=0 time=0 
note_on channel=9 note=35 velocity=87 time=0 
note_on channel=9 note=69 velocity=83 time=0 
note_on channel=9 note=54 velocity=95 time=0 
note_on channel=9 note=69 velocity=0 time=48 
note_on channel=9 note=35 velocity=0 time=0 
note_on channel=9 note=69 velocity=71 time=0 
note_on channel=9 note=69 velocity=0 time=48 
note_on channel=9 note=69 velocity=88 time=0 
note_on channel=9 note=54 velocity=0 time=4 
note_on channel=9 note=38 velocity=87 time=0 
note_on channel=9 note=54 velocity=97 time=0 
note_on channel=9 note=38 velocity=0 time=44 
note_on channel=9 note=69 velocity=0 time=0 
note_on channel=9 note=69 velocity=72 time=0 
note_on channel=9 note=69 velocity=0 time=48 
note_on channel=9 note=54 velocity=0 time=4 
note_on channel=9 note=54 velocity=95 time=0 
note_on channel=9 note=35 velocity=87 time=0 
note_on channel=9 note=69 velocity=77 time=0 
note_on channel=9 note=69 velocity=0 time=44 
note_on channel=9 note=35 velocity=0 time=0 
note_on channel=9 note=69 velocity=59 time=0 
note_on channel=9 note=69 velocity=0 time=48 
note_on channel=9 note=54 velocity=0 time=0 
note_on channel=9 note=54 velocity=97 time=0 
note_on channel=9 note=38 velocity=87 time=0 
note_on channel=9 note=69 velocity=75 time=0 
note_on channel=9 note=69 velocity=0 time=48 
note_on channel=9 note=38 velocity=0 time=0 
note_on channel=9 note=69 velocity=62 time=0 
note_on channel=9 note=69 velocity=0 time=48 
note_on channel=9 note=54 velocity=0 time=0 
note_on channel=9 note=35 velocity=87 time=0 
note_on channel=9 note=69 velocity=73 time=0 
note_on channel=9 note=54 velocity=95 time=0 
note_on channel=9 note=69 velocity=0 time=48 
note_on channel=9 note=35 velocity=0 time=0 
note_on channel=9 note=69 velocity=66 time=0 
note_on channel=9 note=69 velocity=0 time=48 
note_on channel=9 note=69 velocity=75 time=0 
note_on channel=9 note=54 velocity=0 time=4 
note_on channel=9 note=38 velocity=87 time=0 
note_on channel=9 note=54 velocity=97 time=0 
note_on channel=9 note=38 velocity=0 time=44 
note_on channel=9 note=69 velocity=0 time=0 
note_on channel=9 note=69 velocity=66 time=0 
note_on channel=9 note=69 velocity=0 time=48 
note_on channel=9 note=54 velocity=0 time=0 
note_on channel=9 note=35 velocity=87 time=0 
note_on channel=9 note=69 velocity=77 time=0 
note_on channel=9 note=54 velocity=95 time=0 
note_on channel=9 note=69 velocity=0 time=48 
note_on channel=9 note=35 velocity=0 time=0 
note_on channel=9 note=69 velocity=64 time=0 
note_on channel=9 note=69 velocity=0 time=48 
note_on channel=9 note=54 velocity=0 time=4 
note_on channel=9 note=54 velocity=97 time=0 
note_on channel=9 note=38 velocity=87 time=0 
note_on channel=9 note=69 velocity=81 time=0 
note_on channel=9 note=69 velocity=0 time=44 
note_on channel=9 note=38 velocity=0 time=0 
note_on channel=9 note=69 velocity=70 time=0 
note_on channel=9 note=69 velocity=0 time=48 
note_on channel=9 note=54 velocity=0 time=0 
note_on channel=9 note=35 velocity=87 time=0 
note_on channel=9 note=69 velocity=83 time=0 
note_on channel=9 note=54 velocity=95 time=0 
note_on channel=9 note=69 velocity=0 time=48 
note_on channel=9 note=35 velocity=0 time=0 
note_on channel=9 note=69 velocity=71 time=0 
note_on channel=9 note=69 velocity=0 time=48 
note_on channel=9 note=69 velocity=88 time=0 
note_on channel=9 note=54 velocity=0 time=4 
note_on channel=9 note=38 velocity=87 time=0 
note_on channel=9 note=54 velocity=97 time=0 
note_on channel=9 note=38 velocity=0 time=44 
note_on channel=9 note=69 velocity=0 time=0 
note_on channel=9 note=69 velocity=72 time=0 
note_on channel=9 note=69 velocity=0 time=48 
note_on channel=9 note=35 velocity=87 time=0 
note_on channel=9 note=69 velocity=77 time=0 
note_on channel=9 note=54 velocity=0 time=1 
note_on channel=9 note=69 velocity=0 time=47 
note_on channel=9 note=35 velocity=0 time=0 
note_on channel=9 note=69 velocity=59 time=0 
note_on channel=9 note=69 velocity=0 time=48 
note_on channel=9 note=69 velocity=75 time=0 
note_on channel=9 note=38 velocity=87 time=4 
note_on channel=9 note=54 velocity=97 time=0 
note_on channel=9 note=38 velocity=0 time=44 
note_on channel=9 note=69 velocity=0 time=0 
note_on channel=9 note=69 velocity=62 time=0 
note_on channel=9 note=69 velocity=0 time=48 
note_on channel=9 note=54 velocity=0 time=0 
note_on channel=9 note=69 velocity=73 time=0 
note_on channel=9 note=54 velocity=95 time=0 
note_on channel=9 note=35 velocity=87 time=4 
note_on channel=9 note=35 velocity=0 time=44 
note_on channel=9 note=69 velocity=0 time=0 
note_on channel=9 note=69 velocity=66 time=0 
note_on channel=9 note=69 velocity=0 time=48 
note_on channel=9 note=54 velocity=0 time=4 
note_on channel=9 note=54 velocity=97 time=0 
note_on channel=9 note=38 velocity=87 time=0 
note_on channel=9 note=69 velocity=75 time=0 
note_on channel=9 note=69 velocity=0 time=44 
note_on channel=9 note=38 velocity=0 time=0 
note_on channel=9 note=69 velocity=66 time=0 
note_on channel=9 note=69 velocity=0 time=48 
note_on channel=9 note=54 velocity=0 time=0 
note_on channel=9 note=35 velocity=87 time=0 
note_on channel=9 note=69 velocity=77 time=0 
note_on channel=9 note=54 velocity=95 time=0 
note_on channel=9 note=69 velocity=0 time=48 
note_on channel=9 note=35 velocity=0 time=0 
note_on channel=9 note=69 velocity=64 time=0 
note_on channel=9 note=69 velocity=0 time=48 
note_on channel=9 note=54 velocity=0 time=0 
note_on channel=9 note=54 velocity=97 time=0 
note_on channel=9 note=69 velocity=81 time=0 
note_on channel=9 note=38 velocity=87 time=4 
note_on channel=9 note=38 velocity=0 time=44 
note_on channel=9 note=69 velocity=0 time=0 
note_on channel=9 note=69 velocity=70 time=0 
note_on channel=9 note=69 velocity=0 time=48 
note_on channel=9 note=54 velocity=0 time=0 
note_on channel=9 note=69 velocity=83 time=0 
note_on channel=9 note=54 velocity=95 time=0 
note_on channel=9 note=35 velocity=87 time=4 
note_on channel=9 note=35 velocity=0 time=44 
note_on channel=9 note=69 velocity=0 time=0 
note_on channel=9 note=69 velocity=71 time=4 
note_on channel=9 note=69 velocity=0 time=44 
note_on channel=9 note=69 velocity=88 time=0 
note_on channel=9 note=54 velocity=0 time=4 
note_on channel=9 note=54 velocity=97 time=0 
note_on channel=9 note=38 velocity=87 time=4 
note_on channel=9 note=38 velocity=0 time=40 
note_on channel=9 note=69 velocity=0 time=0 
note_on channel=9 note=69 velocity=72 time=0 
note_on channel=9 note=69 velocity=0 time=48 
note_on channel=9 note=35 velocity=87 time=0 
note_on channel=9 note=69 velocity=77 time=0 
note_on channel=9 note=54 velocity=0 time=4 
note_on channel=9 note=54 velocity=95 time=0 
note_on channel=9 note=69 velocity=0 time=44 
note_on channel=9 note=35 velocity=0 time=0 
note_on channel=9 note=69 velocity=59 time=0 
note_on channel=9 note=69 velocity=0 time=48 
note_on channel=9 note=69 velocity=75 time=0 
note_on channel=9 note=54 velocity=0 time=4 
note_on channel=9 note=38 velocity=87 time=0 
note_on channel=9 note=54 velocity=97 time=0 
note_on channel=9 note=69 velocity=0 time=40 
note_on channel=9 note=38 velocity=0 time=4 
note_on channel=9 note=69 velocity=62 time=0 
note_on channel=9 note=69 velocity=0 time=48 
note_on channel=9 note=54 velocity=0 time=0 
note_on channel=9 note=35 velocity=87 time=0 
note_on channel=9 note=69 velocity=73 time=0 
note_on channel=9 note=54 velocity=95 time=0 
note_on channel=9 note=69 velocity=0 time=48 
note_on channel=9 note=35 velocity=0 time=0 
note_on channel=9 note=69 velocity=66 time=0 
note_on channel=9 note=69 velocity=0 time=48 
note_on channel=9 note=54 velocity=0 time=0 
note_on channel=9 note=69 velocity=75 time=0 
note_on channel=9 note=54 velocity=97 time=0 
note_on channel=9 note=38 velocity=87 time=4 
note_on channel=9 note=38 velocity=0 time=44 
note_on channel=9 note=69 velocity=0 time=0 
note_on channel=9 note=69 velocity=66 time=0 
note_on channel=9 note=69 velocity=0 time=48 
note_on channel=9 note=54 velocity=0 time=0 
note_on channel=9 note=35 velocity=87 time=0 
note_on channel=9 note=69 velocity=77 time=0 
note_on channel=9 note=54 velocity=95 time=0 
note_on channel=9 note=69 velocity=0 time=48 
note_on channel=9 note=35 velocity=0 time=0 
note_on channel=9 note=69 velocity=64 time=0 
note_on channel=9 note=69 velocity=0 time=48 
note_on channel=9 note=54 velocity=0 time=0 
note_on channel=9 note=54 velocity=97 time=0 
note_on channel=9 note=38 velocity=87 time=0 
note_on channel=9 note=69 velocity=81 time=0 
note_on channel=9 note=69 velocity=0 time=48 
note_on channel=9 note=38 velocity=0 time=0 
note_on channel=9 note=69 velocity=70 time=0 
note_on channel=9 note=69 velocity=0 time=48 
note_on channel=9 note=35 velocity=87 time=0 
note_on channel=9 note=69 velocity=83 time=0 
note_on channel=9 note=54 velocity=0 time=4 
note_on channel=9 note=54 velocity=95 time=0 
note_on channel=9 note=69 velocity=0 time=44 
note_on channel=9 note=35 velocity=0 time=0 
note_on channel=9 note=69 velocity=71 time=0 
note_on channel=9 note=69 velocity=0 time=48 
note_on channel=9 note=69 velocity=88 time=0 
note_on channel=9 note=54 velocity=0 time=8 
note_on channel=9 note=38 velocity=87 time=0 
note_on channel=9 note=54 velocity=97 time=0 
note_on channel=9 note=38 velocity=0 time=40 
note_on channel=9 note=69 velocity=0 time=0 
note_on channel=9 note=69 velocity=72 time=0 
note_on channel=9 note=69 velocity=0 time=48 
note_on channel=9 note=35 velocity=87 time=0 
note_on channel=9 note=69 velocity=77 time=0 
note_on channel=9 note=54 velocity=0 time=4 
note_on channel=9 note=54 velocity=95 time=0 
note_on channel=9 note=69 velocity=0 time=44 
note_on channel=9 note=35 velocity=0 time=0 
note_on channel=9 note=69 velocity=59 time=0 
note_on channel=9 note=69 velocity=0 time=48 
note_on channel=9 note=69 velocity=75 time=0 
note_on channel=9 note=54 velocity=0 time=4 
note_on channel=9 note=38 velocity=87 time=0 
note_on channel=9 note=54 velocity=97 time=0 
note_on channel=9 note=38 velocity=0 time=44 
note_on channel=9 note=69 velocity=0 time=0 
note_on channel=9 note=69 velocity=62 time=0 
note_on channel=9 note=69 velocity=0 time=48 
note_on channel=9 note=35 velocity=87 time=0 
note_on channel=9 note=69 velocity=73 time=0 
note_on channel=9 note=54 velocity=0 time=4 
note_on channel=9 note=54 velocity=95 time=0 
note_on channel=9 note=69 velocity=0 time=44 
note_on channel=9 note=35 velocity=0 time=0 
note_on channel=9 note=69 velocity=66 time=0 
note_on channel=9 note=69 velocity=0 time=48 
note_on channel=9 note=69 velocity=75 time=0 
note_on channel=9 note=54 velocity=0 time=4 
note_on channel=9 note=38 velocity=87 time=0 
note_on channel=9 note=54 velocity=97 time=0 
note_on channel=9 note=38 velocity=0 time=44 
note_on channel=9 note=69 velocity=0 time=0 
note_on channel=9 note=69 velocity=66 time=0 
note_on channel=9 note=69 velocity=0 time=48 
note_on channel=9 note=54 velocity=0 time=0 
note_on channel=9 note=69 velocity=77 time=0 
note_on channel=9 note=54 velocity=95 time=0 
note_on channel=9 note=35 velocity=87 time=4 
note_on channel=9 note=35 velocity=0 time=44 
note_on channel=9 note=69 velocity=0 time=0 
note_on channel=9 note=69 velocity=64 time=0 
note_on channel=9 note=69 velocity=0 time=48 
note_on channel=9 note=54 velocity=0 time=0 
note_on channel=9 note=69 velocity=81 time=0 
note_on channel=9 note=54 velocity=97 time=0 
note_on channel=9 note=38 velocity=87 time=4 
note_on channel=9 note=38 velocity=0 time=44 
note_on channel=9 note=69 velocity=0 time=0 
note_on channel=9 note=69 velocity=70 time=0 
note_on channel=9 note=69 velocity=0 time=48 
note_on channel=9 note=54 velocity=0 time=0 
note_on channel=9 note=69 velocity=83 time=0 
note_on channel=9 note=54 velocity=95 time=0 
note_on channel=9 note=35 velocity=87 time=4 
note_on channel=9 note=35 velocity=0 time=44 
note_on channel=9 note=69 velocity=0 time=0 
note_on channel=9 note=69 velocity=71 time=0 
note_on channel=9 note=69 velocity=0 time=48 
note_on channel=9 note=69 velocity=88 time=0 
note_on channel=9 note=54 velocity=0 time=4 
note_on channel=9 note=38 velocity=87 time=0 
note_on channel=9 note=54 velocity=97 time=0 
note_on channel=9 note=38 velocity=0 time=44 
note_on channel=9 note=69 velocity=0 time=0 
note_on channel=9 note=69 velocity=72 time=0 
note_on channel=9 note=69 velocity=0 time=48 
note_on channel=9 note=54 velocity=0 time=4 
note_on channel=9 note=35 velocity=87 time=0 
note_on channel=9 note=54 velocity=95 time=0 
note_on channel=9 note=69 velocity=77 time=0 
note_on channel=9 note=69 velocity=0 time=44 
note_on channel=9 note=35 velocity=0 time=0 
note_on channel=9 note=69 velocity=59 time=0 
note_on channel=9 note=69 velocity=0 time=48 
note_on channel=9 note=54 velocity=0 time=0 
note_on channel=9 note=54 velocity=97 time=0 
note_on channel=9 note=69 velocity=75 time=0 
note_on channel=9 note=38 velocity=87 time=4 
note_on channel=9 note=38 velocity=0 time=44 
note_on channel=9 note=69 velocity=0 time=0 
note_on channel=9 note=69 velocity=62 time=0 
note_on channel=9 note=69 velocity=0 time=48 
note_on channel=9 note=54 velocity=0 time=0 
note_on channel=9 note=35 velocity=87 time=0 
note_on channel=9 note=69 velocity=73 time=0 
note_on channel=9 note=54 velocity=95 time=0 
note_on channel=9 note=69 velocity=0 time=48 
note_on channel=9 note=35 velocity=0 time=0 
note_on channel=9 note=69 velocity=66 time=0 
note_on channel=9 note=69 velocity=0 time=48 
note_on channel=9 note=69 velocity=75 time=0 
note_on channel=9 note=54 velocity=0 time=4 
note_on channel=9 note=38 velocity=87 time=0 
note_on channel=9 note=54 velocity=97 time=0 
note_on channel=9 note=38 velocity=0 time=44 
note_on channel=9 note=69 velocity=0 time=0 
note_on channel=9 note=69 velocity=66 time=0 
note_on channel=9 note=69 velocity=0 time=48 
note_on channel=9 note=54 velocity=0 time=0 
note_on channel=9 note=35 velocity=87 time=0 
note_on channel=9 note=69 velocity=77 time=0 
note_on channel=9 note=54 velocity=95 time=0 
note_on channel=9 note=69 velocity=0 time=48 
note_on channel=9 note=35 velocity=0 time=0 
note_on channel=9 note=69 velocity=64 time=0 
note_on channel=9 note=69 velocity=0 time=48 
note_on channel=9 note=54 velocity=0 time=0 
note_on channel=9 note=69 velocity=81 time=0 
note_on channel=9 note=54 velocity=97 time=0 
note_on channel=9 note=38 velocity=87 time=4 
note_on channel=9 note=38 velocity=0 time=44 
note_on channel=9 note=69 velocity=0 time=0 
note_on channel=9 note=69 velocity=70 time=0 
note_on channel=9 note=69 velocity=0 time=48 
note_on channel=9 note=54 velocity=0 time=0 
note_on channel=9 note=35 velocity=87 time=0 
note_on channel=9 note=69 velocity=83 time=0 
note_on channel=9 note=54 velocity=95 time=0 
note_on channel=9 note=69 velocity=0 time=48 
note_on channel=9 note=35 velocity=0 time=0 
note_on channel=9 note=69 velocity=71 time=0 
note_on channel=9 note=69 velocity=0 time=48 
note_on channel=9 note=69 velocity=88 time=0 
note_on channel=9 note=54 velocity=0 time=4 
note_on channel=9 note=54 velocity=97 time=0 
note_on channel=9 note=38 velocity=87 time=4 
note_on channel=9 note=38 velocity=0 time=40 
note_on channel=9 note=69 velocity=0 time=0 
note_on channel=9 note=69 velocity=72 time=0 
note_on channel=9 note=69 velocity=0 time=48 
note_on channel=9 note=35 velocity=87 time=0 
note_on channel=9 note=69 velocity=77 time=0 
note_on channel=9 note=54 velocity=0 time=4 
note_on channel=9 note=54 velocity=95 time=0 
note_on channel=9 note=69 velocity=0 time=44 
note_on channel=9 note=35 velocity=0 time=0 
note_on channel=9 note=69 velocity=59 time=0 
note_on channel=9 note=69 velocity=0 time=48 
note_on channel=9 note=54 velocity=0 time=0 
note_on channel=9 note=54 velocity=97 time=0 
note_on channel=9 note=38 velocity=87 time=0 
note_on channel=9 note=69 velocity=75 time=0 
note_on channel=9 note=69 velocity=0 time=48 
note_on channel=9 note=38 velocity=0 time=0 
note_on channel=9 note=69 velocity=62 time=0 
note_on channel=9 note=69 velocity=0 time=48 
note_on channel=9 note=54 velocity=0 time=0 
note_on channel=9 note=35 velocity=87 time=0 
note_on channel=9 note=69 velocity=73 time=0 
note_on channel=9 note=54 velocity=95 time=0 
note_on channel=9 note=69 velocity=0 time=48 
note_on channel=9 note=35 velocity=0 time=0 
note_on channel=9 note=69 velocity=66 time=0 
note_on channel=9 note=69 velocity=0 time=48 
note_on channel=9 note=69 velocity=75 time=0 
note_on channel=9 note=54 velocity=0 time=4 
note_on channel=9 note=38 velocity=87 time=0 
note_on channel=9 note=54 velocity=97 time=0 
note_on channel=9 note=38 velocity=0 time=44 
note_on channel=9 note=69 velocity=0 time=0 
note_on channel=9 note=69 velocity=66 time=0 
note_on channel=9 note=69 velocity=0 time=48 
note_on channel=9 note=54 velocity=0 time=0 
note_on channel=9 note=69 velocity=77 time=0 
note_on channel=9 note=54 velocity=95 time=0 
note_on channel=9 note=35 velocity=87 time=4 
note_on channel=9 note=35 velocity=0 time=44 
note_on channel=9 note=69 velocity=0 time=0 
note_on channel=9 note=69 velocity=64 time=0 
note_on channel=9 note=69 velocity=0 time=48 
note_on channel=9 note=54 velocity=0 time=0 
note_on channel=9 note=54 velocity=97 time=0 
note_on channel=9 note=38 velocity=87 time=0 
note_on channel=9 note=69 velocity=81 time=0 
note_on channel=9 note=69 velocity=0 time=48 
note_on channel=9 note=38 velocity=0 time=0 
note_on channel=9 note=69 velocity=70 time=0 
note_on channel=9 note=69 velocity=0 time=48 
note_on channel=9 note=54 velocity=0 time=0 
note_on channel=9 note=35 velocity=87 time=0 
note_on channel=9 note=69 velocity=83 time=0 
note_on channel=9 note=54 velocity=95 time=0 
note_on channel=9 note=69 velocity=0 time=48 
note_on channel=9 note=35 velocity=0 time=0 
note_on channel=9 note=69 velocity=71 time=0 
note_on channel=9 note=69 velocity=0 time=48 
note_on channel=9 note=54 velocity=0 time=0 
note_on channel=9 note=69 velocity=88 time=0 
note_on channel=9 note=54 velocity=97 time=0 
note_on channel=9 note=38 velocity=87 time=4 
note_on channel=9 note=38 velocity=0 time=44 
note_on channel=9 note=69 velocity=0 time=0 
note_on channel=9 note=69 velocity=72 time=0 
note_on channel=9 note=69 velocity=0 time=48 
note_on channel=9 note=49 velocity=77 time=0 
note_on channel=9 note=35 velocity=87 time=0 
note_on channel=9 note=69 velocity=77 time=0 
note_on channel=9 note=54 velocity=0 time=1 
note_on channel=9 note=49 velocity=0 time=47 
note_on channel=9 note=35 velocity=0 time=0 
note_on channel=9 note=69 velocity=0 time=0 
note_on channel=9 note=69 velocity=59 time=0 
note_on channel=9 note=69 velocity=0 time=48 
note_on channel=9 note=69 velocity=75 time=0 
note_on channel=9 note=54 velocity=97 time=0 
note_on channel=9 note=38 velocity=87 time=4 
note_on channel=9 note=38 velocity=0 time=44 
note_on channel=9 note=69 velocity=0 time=0 
note_on channel=9 note=69 velocity=62 time=0 
note_on channel=9 note=69 velocity=0 time=48 
note_on channel=9 note=54 velocity=0 time=0 
note_on channel=9 note=35 velocity=87 time=0 
note_on channel=9 note=69 velocity=73 time=0 
note_on channel=9 note=54 velocity=95 time=0 
note_on channel=9 note=69 velocity=0 time=48 
note_on channel=9 note=35 velocity=0 time=0 
note_on channel=9 note=69 velocity=66 time=0 
note_on channel=9 note=69 velocity=0 time=48 
note_on channel=9 note=69 velocity=75 time=0 
note_on channel=9 note=54 velocity=0 time=4 
note_on channel=9 note=38 velocity=87 time=0 
note_on channel=9 note=54 velocity=97 time=0 
note_on channel=9 note=38 velocity=0 time=44 
note_on channel=9 note=69 velocity=0 time=0 
note_on channel=9 note=69 velocity=66 time=0 
note_on channel=9 note=69 velocity=0 time=48 
note_on channel=9 note=54 velocity=0 time=0 
note_on channel=9 note=69 velocity=77 time=0 
note_on channel=9 note=54 velocity=95 time=0 
note_on channel=9 note=35 velocity=87 time=4 
note_on channel=9 note=35 velocity=0 time=44 
note_on channel=9 note=69 velocity=0 time=0 
note_on channel=9 note=69 velocity=64 time=0 
note_on channel=9 note=69 velocity=0 time=48 
note_on channel=9 note=54 velocity=0 time=0 
note_on channel=9 note=54 velocity=97 time=0 
note_on channel=9 note=69 velocity=81 time=0 
note_on channel=9 note=38 velocity=87 time=4 
note_on channel=9 note=38 velocity=0 time=44 
note_on channel=9 note=69 velocity=0 time=0 
note_on channel=9 note=69 velocity=70 time=0 
note_on channel=9 note=69 velocity=0 time=48 
note_on channel=9 note=54 velocity=0 time=0 
note_on channel=9 note=35 velocity=87 time=0 
note_on channel=9 note=69 velocity=83 time=0 
note_on channel=9 note=54 velocity=95 time=0 
note_on channel=9 note=69 velocity=0 time=48 
note_on channel=9 note=35 velocity=0 time=0 
note_on channel=9 note=69 velocity=71 time=0 
note_on channel=9 note=69 velocity=0 time=48 
note_on channel=9 note=54 velocity=0 time=0 
note_on channel=9 note=69 velocity=88 time=0 
note_on channel=9 note=54 velocity=97 time=0 
note_on channel=9 note=38 velocity=87 time=4 
note_on channel=9 note=38 velocity=0 time=44 
note_on channel=9 note=69 velocity=0 time=0 
note_on channel=9 note=69 velocity=72 time=0 
note_on channel=9 note=69 velocity=0 time=48 
note_on channel=9 note=35 velocity=87 time=0 
note_on channel=9 note=54 velocity=0 time=4 
note_on channel=9 note=54 velocity=95 time=0 
note_on channel=9 note=69 velocity=77 time=0 
note_on channel=9 note=69 velocity=0 time=44 
note_on channel=9 note=35 velocity=0 time=0 
note_on channel=9 note=69 velocity=59 time=0 
note_on channel=9 note=69 velocity=0 time=48 
note_on channel=9 note=54 velocity=0 time=0 
note_on channel=9 note=54 velocity=97 time=0 
note_on channel=9 note=69 velocity=75 time=0 
note_on channel=9 note=38 velocity=87 time=0 
note_on channel=9 note=38 velocity=0 time=48 
note_on channel=9 note=69 velocity=0 time=0 
note_on channel=9 note=69 velocity=62 time=0 
note_on channel=9 note=69 velocity=0 time=48 
note_on channel=9 note=54 velocity=0 time=0 
note_on channel=9 note=35 velocity=87 time=0 
note_on channel=9 note=69 velocity=73 time=0 
note_on channel=9 note=54 velocity=95 time=0 
note_on channel=9 note=69 velocity=0 time=48 
note_on channel=9 note=35 velocity=0 time=0 
note_on channel=9 note=69 velocity=66 time=0 
note_on channel=9 note=69 velocity=0 time=48 
note_on channel=9 note=54 velocity=0 time=0 
note_on channel=9 note=69 velocity=75 time=0 
note_on channel=9 note=54 velocity=97 time=0 
note_on channel=9 note=38 velocity=87 time=4 
note_on channel=9 note=38 velocity=0 time=44 
note_on channel=9 note=69 velocity=0 time=0 
note_on channel=9 note=69 velocity=66 time=0 
note_on channel=9 note=69 velocity=0 time=48 
note_on channel=9 note=54 velocity=0 time=0 
note_on channel=9 note=35 velocity=87 time=0 
note_on channel=9 note=69 velocity=77 time=0 
note_on channel=9 note=54 velocity=95 time=0 
note_on channel=9 note=69 velocity=0 time=48 
note_on channel=9 note=35 velocity=0 time=0 
note_on channel=9 note=69 velocity=64 time=0 
note_on channel=9 note=69 velocity=0 time=48 
note_on channel=9 note=54 velocity=0 time=0 
note_on channel=9 note=69 velocity=81 time=0 
note_on channel=9 note=54 velocity=97 time=0 
note_on channel=9 note=38 velocity=87 time=4 
note_on channel=9 note=38 velocity=0 time=44 
note_on channel=9 note=69 velocity=0 time=0 
note_on channel=9 note=69 velocity=70 time=0 
note_on channel=9 note=69 velocity=0 time=48 
note_on channel=9 note=54 velocity=0 time=0 
note_on channel=9 note=35 velocity=87 time=0 
note_on channel=9 note=69 velocity=83 time=0 
note_on channel=9 note=54 velocity=95 time=0 
note_on channel=9 note=69 velocity=0 time=48 
note_on channel=9 note=35 velocity=0 time=0 
note_on channel=9 note=69 velocity=71 time=0 
note_on channel=9 note=69 velocity=0 time=48 
note_on channel=9 note=54 velocity=0 time=0 
note_on channel=9 note=69 velocity=88 time=0 
note_on channel=9 note=54 velocity=97 time=0 
note_on channel=9 note=38 velocity=87 time=4 
note_on channel=9 note=38 velocity=0 time=44 
note_on channel=9 note=69 velocity=0 time=0 
note_on channel=9 note=69 velocity=72 time=0 
note_on channel=9 note=69 velocity=0 time=48 
note_on channel=9 note=35 velocity=87 time=0 
note_on channel=9 note=54 velocity=0 time=4 
note_on channel=9 note=54 velocity=95 time=0 
note_on channel=9 note=69 velocity=77 time=0 
note_on channel=9 note=69 velocity=0 time=44 
note_on channel=9 note=35 velocity=0 time=0 
note_on channel=9 note=69 velocity=59 time=0 
note_on channel=9 note=69 velocity=0 time=48 
note_on channel=9 note=54 velocity=0 time=0 
note_on channel=9 note=69 velocity=75 time=0 
note_on channel=9 note=54 velocity=97 time=0 
note_on channel=9 note=38 velocity=87 time=4 
note_on channel=9 note=38 velocity=0 time=44 
note_on channel=9 note=69 velocity=0 time=0 
note_on channel=9 note=69 velocity=62 time=0 
note_on channel=9 note=69 velocity=0 time=48 
note_on channel=9 note=54 velocity=0 time=0 
note_on channel=9 note=35 velocity=87 time=0 
note_on channel=9 note=69 velocity=73 time=0 
note_on channel=9 note=54 velocity=95 time=0 
note_on channel=9 note=69 velocity=0 time=48 
note_on channel=9 note=35 velocity=0 time=0 
note_on channel=9 note=69 velocity=66 time=0 
note_on channel=9 note=69 velocity=0 time=48 
note_on channel=9 note=54 velocity=0 time=0 
note_on channel=9 note=69 velocity=75 time=0 
note_on channel=9 note=54 velocity=97 time=0 
note_on channel=9 note=38 velocity=87 time=4 
note_on channel=9 note=38 velocity=0 time=44 
note_on channel=9 note=69 velocity=0 time=0 
note_on channel=9 note=69 velocity=66 time=0 
note_on channel=9 note=69 velocity=0 time=48 
note_on channel=9 note=54 velocity=0 time=0 
note_on channel=9 note=35 velocity=87 time=0 
note_on channel=9 note=69 velocity=77 time=0 
note_on channel=9 note=54 velocity=95 time=0 
note_on channel=9 note=69 velocity=0 time=48 
note_on channel=9 note=35 velocity=0 time=0 
note_on channel=9 note=69 velocity=64 time=0 
note_on channel=9 note=69 velocity=0 time=48 
note_on channel=9 note=69 velocity=81 time=0 
note_on channel=9 note=54 velocity=0 time=4 
note_on channel=9 note=38 velocity=87 time=0 
note_on channel=9 note=54 velocity=97 time=0 
note_on channel=9 note=38 velocity=0 time=44 
note_on channel=9 note=69 velocity=0 time=0 
note_on channel=9 note=69 velocity=70 time=0 
note_on channel=9 note=69 velocity=0 time=48 
note_on channel=9 note=54 velocity=0 time=0 
note_on channel=9 note=35 velocity=87 time=0 
note_on channel=9 note=69 velocity=83 time=0 
note_on channel=9 note=54 velocity=95 time=0 
note_on channel=9 note=69 velocity=0 time=48 
note_on channel=9 note=35 velocity=0 time=0 
note_on channel=9 note=69 velocity=71 time=0 
note_on channel=9 note=69 velocity=0 time=48 
note_on channel=9 note=69 velocity=88 time=0 
note_on channel=9 note=54 velocity=0 time=4 
note_on channel=9 note=54 velocity=97 time=0 
note_on channel=9 note=38 velocity=87 time=4 
note_on channel=9 note=38 velocity=0 time=40 
note_on channel=9 note=69 velocity=0 time=0 
note_on channel=9 note=69 velocity=72 time=0 
note_on channel=9 note=69 velocity=0 time=48 
note_on channel=9 note=54 velocity=0 time=4 
note_on channel=9 note=54 velocity=95 time=0 
note_on channel=9 note=35 velocity=87 time=0 
note_on channel=9 note=69 velocity=77 time=0 
note_on channel=9 note=69 velocity=0 time=44 
note_on channel=9 note=35 velocity=0 time=0 
note_on channel=9 note=69 velocity=59 time=0 
note_on channel=9 note=69 velocity=0 time=48 
note_on channel=9 note=54 velocity=0 time=0 
note_on channel=9 note=54 velocity=97 time=0 
note_on channel=9 note=38 velocity=87 time=0 
note_on channel=9 note=69 velocity=75 time=0 
note_on channel=9 note=69 velocity=0 time=48 
note_on channel=9 note=38 velocity=0 time=0 
note_on channel=9 note=69 velocity=62 time=0 
note_on channel=9 note=69 velocity=0 time=48 
note_on channel=9 note=54 velocity=0 time=0 
note_on channel=9 note=35 velocity=87 time=0 
note_on channel=9 note=69 velocity=73 time=0 
note_on channel=9 note=54 velocity=95 time=0 
note_on channel=9 note=69 velocity=0 time=48 
note_on channel=9 note=35 velocity=0 time=0 
note_on channel=9 note=69 velocity=66 time=0 
note_on channel=9 note=69 velocity=0 time=48 
note_on channel=9 note=54 velocity=0 time=0 
note_on channel=9 note=69 velocity=75 time=0 
note_on channel=9 note=54 velocity=97 time=0 
note_on channel=9 note=38 velocity=87 time=4 
note_on channel=9 note=38 velocity=0 time=44 
note_on channel=9 note=69 velocity=0 time=0 
note_on channel=9 note=69 velocity=66 time=0 
note_on channel=9 note=69 velocity=0 time=48 
note_on channel=9 note=54 velocity=0 time=0 
note_on channel=9 note=35 velocity=87 time=0 
note_on channel=9 note=69 velocity=77 time=0 
note_on channel=9 note=54 velocity=95 time=0 
note_on channel=9 note=69 velocity=0 time=48 
note_on channel=9 note=35 velocity=0 time=0 
note_on channel=9 note=69 velocity=64 time=0 
note_on channel=9 note=69 velocity=0 time=48 
note_on channel=9 note=54 velocity=0 time=0 
note_on channel=9 note=54 velocity=97 time=0 
note_on channel=9 note=69 velocity=81 time=0 
note_on channel=9 note=38 velocity=87 time=4 
note_on channel=9 note=38 velocity=0 time=44 
note_on channel=9 note=69 velocity=0 time=0 
note_on channel=9 note=69 velocity=70 time=0 
note_on channel=9 note=69 velocity=0 time=48 
note_on channel=9 note=54 velocity=0 time=0 
note_on channel=9 note=35 velocity=87 time=0 
note_on channel=9 note=69 velocity=83 time=0 
note_on channel=9 note=54 velocity=95 time=0 
note_on channel=9 note=69 velocity=0 time=48 
note_on channel=9 note=35 velocity=0 time=0 
note_on channel=9 note=69 velocity=71 time=0 
note_on channel=9 note=69 velocity=0 time=48 
note_on channel=9 note=54 velocity=0 time=0 
note_on channel=9 note=69 velocity=88 time=0 
note_on channel=9 note=54 velocity=97 time=0 
note_on channel=9 note=38 velocity=87 time=4 
note_on channel=9 note=38 velocity=0 time=44 
note_on channel=9 note=69 velocity=0 time=0 
note_on channel=9 note=69 velocity=72 time=0 
note_on channel=9 note=69 velocity=0 time=48 
note_on channel=9 note=54 velocity=0 time=4 
note_on channel=9 note=35 velocity=87 time=0 
note_on channel=9 note=54 velocity=95 time=0 
note_on channel=9 note=69 velocity=77 time=0 
note_on channel=9 note=69 velocity=0 time=44 
note_on channel=9 note=35 velocity=0 time=0 
note_on channel=9 note=69 velocity=59 time=0 
note_on channel=9 note=69 velocity=0 time=48 
note_on channel=9 note=69 velocity=75 time=0 
note_on channel=9 note=54 velocity=0 time=4 
note_on channel=9 note=38 velocity=87 time=0 
note_on channel=9 note=54 velocity=97 time=0 
note_on channel=9 note=38 velocity=0 time=44 
note_on channel=9 note=69 velocity=0 time=0 
note_on channel=9 note=69 velocity=62 time=0 
note_on channel=9 note=69 velocity=0 time=48 
note_on channel=9 note=54 velocity=0 time=0 
note_on channel=9 note=35 velocity=87 time=0 
note_on channel=9 note=69 velocity=73 time=0 
note_on channel=9 note=54 velocity=95 time=0 
note_on channel=9 note=69 velocity=0 time=48 
note_on channel=9 note=35 velocity=0 time=0 
note_on channel=9 note=69 velocity=66 time=0 
note_on channel=9 note=69 velocity=0 time=48 
note_on channel=9 note=54 velocity=0 time=0 
note_on channel=9 note=54 velocity=97 time=0 
note_on channel=9 note=69 velocity=75 time=0 
note_on channel=9 note=38 velocity=87 time=0 
note_on channel=9 note=38 velocity=0 time=48 
note_on channel=9 note=69 velocity=0 time=0 
note_on channel=9 note=69 velocity=66 time=0 
note_on channel=9 note=69 velocity=0 time=48 
note_on channel=9 note=54 velocity=0 time=0 
note_on channel=9 note=35 velocity=87 time=0 
note_on channel=9 note=69 velocity=77 time=0 
note_on channel=9 note=54 velocity=95 time=0 
note_on channel=9 note=69 velocity=0 time=48 
note_on channel=9 note=35 velocity=0 time=0 
note_on channel=9 note=69 velocity=64 time=0 
note_on channel=9 note=69 velocity=0 time=48 
note_on channel=9 note=54 velocity=0 time=0 
note_on channel=9 note=69 velocity=81 time=0 
note_on channel=9 note=54 velocity=97 time=0 
note_on channel=9 note=38 velocity=87 time=4 
note_on channel=9 note=38 velocity=0 time=44 
note_on channel=9 note=69 velocity=0 time=0 
note_on channel=9 note=69 velocity=70 time=0 
note_on channel=9 note=69 velocity=0 time=48 
note_on channel=9 note=35 velocity=87 time=0 
note_on channel=9 note=69 velocity=83 time=0 
note_on channel=9 note=54 velocity=0 time=4 
note_on channel=9 note=54 velocity=95 time=0 
note_on channel=9 note=69 velocity=0 time=44 
note_on channel=9 note=35 velocity=0 time=0 
note_on channel=9 note=69 velocity=71 time=0 
note_on channel=9 note=69 velocity=0 time=48 
note_on channel=9 note=54 velocity=0 time=4 
note_on channel=9 note=54 velocity=97 time=0 
note_on channel=9 note=38 velocity=87 time=0 
note_on channel=9 note=69 velocity=88 time=0 
note_on channel=9 note=69 velocity=0 time=44 
note_on channel=9 note=38 velocity=0 time=0 
note_on channel=9 note=69 velocity=72 time=0 
note_on channel=9 note=69 velocity=0 time=48 
note_on channel=9 note=35 velocity=87 time=0 
note_on channel=9 note=54 velocity=0 time=4 
note_on channel=9 note=54 velocity=95 time=0 
note_on channel=9 note=69 velocity=77 time=0 
note_on channel=9 note=69 velocity=0 time=44 
note_on channel=9 note=35 velocity=0 time=0 
note_on channel=9 note=69 velocity=59 time=0 
note_on channel=9 note=69 velocity=0 time=48 
note_on channel=9 note=54 velocity=0 time=0 
note_on channel=9 note=69 velocity=75 time=0 
note_on channel=9 note=54 velocity=97 time=0 
note_on channel=9 note=38 velocity=87 time=4 
note_on channel=9 note=38 velocity=0 time=44 
note_on channel=9 note=69 velocity=0 time=0 
note_on channel=9 note=69 velocity=62 time=0 
note_on channel=9 note=69 velocity=0 time=48 
note_on channel=9 note=54 velocity=0 time=0 
note_on channel=9 note=35 velocity=87 time=0 
note_on channel=9 note=69 velocity=73 time=0 
note_on channel=9 note=54 velocity=95 time=0 
note_on channel=9 note=69 velocity=0 time=48 
note_on channel=9 note=35 velocity=0 time=0 
note_on channel=9 note=69 velocity=66 time=0 
note_on channel=9 note=69 velocity=0 time=48 
note_on channel=9 note=54 velocity=0 time=0 
note_on channel=9 note=69 velocity=75 time=0 
note_on channel=9 note=54 velocity=97 time=0 
note_on channel=9 note=38 velocity=87 time=4 
note_on channel=9 note=38 velocity=0 time=44 
note_on channel=9 note=69 velocity=0 time=0 
note_on channel=9 note=69 velocity=66 time=0 
note_on channel=9 note=69 velocity=0 time=48 
note_on channel=9 note=54 velocity=0 time=0 
note_on channel=9 note=35 velocity=87 time=0 
note_on channel=9 note=69 velocity=77 time=0 
note_on channel=9 note=54 velocity=95 time=0 
note_on channel=9 note=69 velocity=0 time=48 
note_on channel=9 note=35 velocity=0 time=0 
note_on channel=9 note=69 velocity=64 time=0 
note_on channel=9 note=69 velocity=0 time=48 
note_on channel=9 note=54 velocity=0 time=0 
note_on channel=9 note=69 velocity=81 time=0 
note_on channel=9 note=54 velocity=97 time=0 
note_on channel=9 note=38 velocity=87 time=4 
note_on channel=9 note=38 velocity=0 time=44 
note_on channel=9 note=69 velocity=0 time=0 
note_on channel=9 note=69 velocity=70 time=0 
note_on channel=9 note=69 velocity=0 time=48 
note_on channel=9 note=54 velocity=0 time=0 
note_on channel=9 note=35 velocity=87 time=0 
note_on channel=9 note=69 velocity=83 time=0 
note_on channel=9 note=54 velocity=95 time=0 
note_on channel=9 note=69 velocity=0 time=48 
note_on channel=9 note=35 velocity=0 time=0 
note_on channel=9 note=69 velocity=71 time=0 
note_on channel=9 note=69 velocity=0 time=48 
note_on channel=9 note=54 velocity=0 time=0 
note_on channel=9 note=54 velocity=97 time=0 
note_on channel=9 note=38 velocity=87 time=0 
note_on channel=9 note=69 velocity=88 time=0 
note_on channel=9 note=69 velocity=0 time=48 
note_on channel=9 note=38 velocity=0 time=0 
note_on channel=9 note=69 velocity=72 time=0 
note_on channel=9 note=69 velocity=0 time=48 
note_on channel=9 note=35 velocity=87 time=0 
note_on channel=9 note=54 velocity=0 time=4 
note_on channel=9 note=54 velocity=95 time=0 
note_on channel=9 note=69 velocity=77 time=0 
note_on channel=9 note=69 velocity=0 time=44 
note_on channel=9 note=35 velocity=0 time=0 
note_on channel=9 note=69 velocity=59 time=0 
note_on channel=9 note=69 velocity=0 time=48 
note_on channel=9 note=54 velocity=0 time=0 
note_on channel=9 note=69 velocity=75 time=0 
note_on channel=9 note=54 velocity=97 time=0 
note_on channel=9 note=38 velocity=87 time=4 
note_on channel=9 note=38 velocity=0 time=44 
note_on channel=9 note=69 velocity=0 time=0 
note_on channel=9 note=69 velocity=62 time=0 
note_on channel=9 note=69 velocity=0 time=48 
note_on channel=9 note=54 velocity=0 time=0 
note_on channel=9 note=35 velocity=87 time=0 
note_on channel=9 note=69 velocity=73 time=0 
note_on channel=9 note=54 velocity=95 time=0 
note_on channel=9 note=69 velocity=0 time=48 
note_on channel=9 note=35 velocity=0 time=0 
note_on channel=9 note=69 velocity=66 time=0 
note_on channel=9 note=69 velocity=0 time=48 
note_on channel=9 note=54 velocity=0 time=0 
note_on channel=9 note=54 velocity=97 time=0 
note_on channel=9 note=69 velocity=75 time=0 
note_on channel=9 note=38 velocity=87 time=0 
note_on channel=9 note=38 velocity=0 time=48 
note_on channel=9 note=69 velocity=0 time=0 
note_on channel=9 note=69 velocity=66 time=0 
note_on channel=9 note=69 velocity=0 time=48 
note_on channel=9 note=54 velocity=0 time=0 
note_on channel=9 note=35 velocity=87 time=0 
note_on channel=9 note=69 velocity=77 time=0 
note_on channel=9 note=54 velocity=95 time=0 
note_on channel=9 note=69 velocity=0 time=48 
note_on channel=9 note=35 velocity=0 time=0 
note_on channel=9 note=69 velocity=64 time=0 
note_on channel=9 note=69 velocity=0 time=48 
note_on channel=9 note=54 velocity=0 time=0 
note_on channel=9 note=54 velocity=97 time=0 
note_on channel=9 note=69 velocity=81 time=0 
note_on channel=9 note=38 velocity=87 time=0 
note_on channel=9 note=38 velocity=0 time=48 
note_on channel=9 note=69 velocity=0 time=0 
note_on channel=9 note=69 velocity=70 time=0 
note_on channel=9 note=69 velocity=0 time=48 
note_on channel=9 note=54 velocity=0 time=0 
note_on channel=9 note=35 velocity=87 time=0 
note_on channel=9 note=69 velocity=83 time=0 
note_on channel=9 note=54 velocity=95 time=0 
note_on channel=9 note=69 velocity=0 time=48 
note_on channel=9 note=35 velocity=0 time=0 
note_on channel=9 note=69 velocity=71 time=0 
note_on channel=9 note=69 velocity=0 time=48 
note_on channel=9 note=69 velocity=88 time=0 
note_on channel=9 note=54 velocity=0 time=4 
note_on channel=9 note=38 velocity=87 time=0 
note_on channel=9 note=54 velocity=97 time=0 
note_on channel=9 note=38 velocity=0 time=44 
note_on channel=9 note=69 velocity=0 time=0 
note_on channel=9 note=69 velocity=72 time=0 
note_on channel=9 note=69 velocity=0 time=48 
note_on channel=9 note=35 velocity=87 time=0 
note_on channel=9 note=69 velocity=77 time=0 
note_on channel=9 note=54 velocity=0 time=4 
note_on channel=9 note=54 velocity=95 time=0 
note_on channel=9 note=69 velocity=0 time=44 
note_on channel=9 note=35 velocity=0 time=0 
note_on channel=9 note=69 velocity=59 time=0 
note_on channel=9 note=69 velocity=0 time=48 
note_on channel=9 note=54 velocity=0 time=0 
note_on channel=9 note=54 velocity=97 time=0 
note_on channel=9 note=38 velocity=87 time=0 
note_on channel=9 note=69 velocity=75 time=0 
note_on channel=9 note=69 velocity=0 time=48 
note_on channel=9 note=38 velocity=0 time=0 
note_on channel=9 note=69 velocity=62 time=0 
note_on channel=9 note=69 velocity=0 time=48 
note_on channel=9 note=54 velocity=0 time=0 
note_on channel=9 note=35 velocity=87 time=0 
note_on channel=9 note=69 velocity=73 time=0 
note_on channel=9 note=54 velocity=95 time=0 
note_on channel=9 note=69 velocity=0 time=48 
note_on channel=9 note=35 velocity=0 time=0 
note_on channel=9 note=69 velocity=66 time=0 
note_on channel=9 note=69 velocity=0 time=48 
note_on channel=9 note=54 velocity=0 time=0 
note_on channel=9 note=54 velocity=97 time=0 
note_on channel=9 note=38 velocity=87 time=0 
note_on channel=9 note=69 velocity=75 time=0 
note_on channel=9 note=69 velocity=0 time=48 
note_on channel=9 note=38 velocity=0 time=0 
note_on channel=9 note=69 velocity=66 time=0 
note_on channel=9 note=69 velocity=0 time=48 
note_on channel=9 note=54 velocity=0 time=0 
note_on channel=9 note=46 velocity=97 time=0 
note_on channel=9 note=35 velocity=87 time=0 
note_on channel=9 note=69 velocity=77 time=0 
note_on channel=9 note=54 velocity=95 time=0 
note_on channel=9 note=69 velocity=0 time=48 
note_on channel=9 note=46 velocity=0 time=0 
note_on channel=9 note=35 velocity=0 time=0 
note_on channel=9 note=69 velocity=64 time=0 
note_on channel=9 note=69 velocity=0 time=48 
note_on channel=9 note=49 velocity=77 time=0 
note_on channel=9 note=38 velocity=87 time=0 
note_on channel=9 note=69 velocity=81 time=0 
note_on channel=9 note=35 velocity=87 time=4 
note_on channel=9 note=35 velocity=0 time=44 
note_on channel=9 note=38 velocity=0 time=0 
note_on channel=9 note=69 velocity=0 time=0 
note_on channel=9 note=49 velocity=0 time=0 
note_on channel=9 note=69 velocity=70 time=0 
note_on channel=9 note=69 velocity=0 time=48 
note_on channel=9 note=54 velocity=0 time=0 
note_on channel=9 note=69 velocity=83 time=0 
note_on channel=9 note=54 velocity=95 time=0 
note_on channel=9 note=69 velocity=0 time=48 
note_on channel=9 note=69 velocity=71 time=0 
note_on channel=9 note=69 velocity=0 time=48 
note_on channel=9 note=69 velocity=88 time=0 
note_on channel=9 note=69 velocity=0 time=48 
note_on channel=9 note=69 velocity=72 time=0 
note_on channel=9 note=69 velocity=0 time=48 
note_on channel=9 note=49 velocity=77 time=0 
note_on channel=9 note=35 velocity=87 time=0 
note_on channel=9 note=69 velocity=77 time=0 
note_on channel=9 note=54 velocity=0 time=4 
note_on channel=9 note=54 velocity=95 time=0 
note_on channel=9 note=49 velocity=0 time=44 
note_on channel=9 note=69 velocity=0 time=0 
note_on channel=9 note=35 velocity=0 time=0 
note_on channel=9 note=69 velocity=59 time=0 
note_on channel=9 note=69 velocity=0 time=48 
note_on channel=9 note=54 velocity=0 time=0 
note_on channel=9 note=69 velocity=75 time=0 
note_on channel=9 note=54 velocity=97 time=0 
note_on channel=9 note=38 velocity=87 time=4 
note_on channel=9 note=38 velocity=0 time=44 
note_on channel=9 note=69 velocity=0 time=0 
note_on channel=9 note=69 velocity=62 time=0 
note_on channel=9 note=69 velocity=0 time=48 
note_on channel=9 note=54 velocity=0 time=0 
note_on channel=9 note=35 velocity=87 time=0 
note_on channel=9 note=69 velocity=73 time=0 
note_on channel=9 note=54 velocity=95 time=0 
note_on channel=9 note=69 velocity=0 time=48 
note_on channel=9 note=35 velocity=0 time=0 
note_on channel=9 note=69 velocity=66 time=0 
note_on channel=9 note=69 velocity=0 time=48 
note_on channel=9 note=54 velocity=0 time=0 
note_on channel=9 note=54 velocity=97 time=0 
note_on channel=9 note=38 velocity=87 time=0 
note_on channel=9 note=69 velocity=75 time=0 
note_on channel=9 note=69 velocity=0 time=48 
note_on channel=9 note=38 velocity=0 time=0 
note_on channel=9 note=69 velocity=66 time=0 
note_on channel=9 note=69 velocity=0 time=48 
note_on channel=9 note=54 velocity=0 time=0 
note_on channel=9 note=35 velocity=87 time=0 
note_on channel=9 note=69 velocity=77 time=0 
note_on channel=9 note=54 velocity=95 time=0 
note_on channel=9 note=69 velocity=0 time=48 
note_on channel=9 note=35 velocity=0 time=0 
note_on channel=9 note=69 velocity=64 time=0 
note_on channel=9 note=69 velocity=0 time=48 
note_on channel=9 note=54 velocity=0 time=0 
note_on channel=9 note=69 velocity=81 time=0 
note_on channel=9 note=54 velocity=97 time=0 
note_on channel=9 note=38 velocity=87 time=4 
note_on channel=9 note=38 velocity=0 time=44 
note_on channel=9 note=69 velocity=0 time=0 
note_on channel=9 note=69 velocity=70 time=0 
note_on channel=9 note=69 velocity=0 time=48 
note_on channel=9 note=54 velocity=0 time=0 
note_on channel=9 note=35 velocity=87 time=0 
note_on channel=9 note=69 velocity=83 time=0 
note_on channel=9 note=54 velocity=95 time=0 
note_on channel=9 note=69 velocity=0 time=48 
note_on channel=9 note=35 velocity=0 time=0 
note_on channel=9 note=69 velocity=71 time=0 
note_on channel=9 note=69 velocity=0 time=48 
note_on channel=9 note=54 velocity=0 time=4 
note_on channel=9 note=54 velocity=97 time=0 
note_on channel=9 note=38 velocity=87 time=0 
note_on channel=9 note=69 velocity=88 time=0 
note_on channel=9 note=69 velocity=0 time=44 
note_on channel=9 note=38 velocity=0 time=0 
note_on channel=9 note=69 velocity=72 time=0 
note_on channel=9 note=69 velocity=0 time=48 
note_on channel=9 note=35 velocity=87 time=0 
note_on channel=9 note=69 velocity=77 time=0 
note_on channel=9 note=54 velocity=0 time=4 
note_on channel=9 note=54 velocity=95 time=0 
note_on channel=9 note=69 velocity=0 time=44 
note_on channel=9 note=35 velocity=0 time=0 
note_on channel=9 note=69 velocity=59 time=0 
note_on channel=9 note=69 velocity=0 time=48 
note_on channel=9 note=54 velocity=0 time=0 
note_on channel=9 note=69 velocity=75 time=0 
note_on channel=9 note=54 velocity=97 time=0 
note_on channel=9 note=38 velocity=87 time=4 
note_on channel=9 note=38 velocity=0 time=44 
note_on channel=9 note=69 velocity=0 time=0 
note_on channel=9 note=69 velocity=62 time=0 
note_on channel=9 note=69 velocity=0 time=48 
note_on channel=9 note=54 velocity=0 time=0 
note_on channel=9 note=35 velocity=87 time=0 
note_on channel=9 note=69 velocity=73 time=0 
note_on channel=9 note=54 velocity=95 time=0 
note_on channel=9 note=69 velocity=0 time=48 
note_on channel=9 note=35 velocity=0 time=0 
note_on channel=9 note=69 velocity=66 time=0 
note_on channel=9 note=69 velocity=0 time=48 
note_on channel=9 note=54 velocity=0 time=0 
note_on channel=9 note=69 velocity=75 time=0 
note_on channel=9 note=54 velocity=97 time=0 
note_on channel=9 note=38 velocity=87 time=4 
note_on channel=9 note=38 velocity=0 time=44 
note_on channel=9 note=69 velocity=0 time=0 
note_on channel=9 note=69 velocity=66 time=0 
note_on channel=9 note=69 velocity=0 time=48 
note_on channel=9 note=54 velocity=0 time=0 
note_on channel=9 note=35 velocity=87 time=0 
note_on channel=9 note=69 velocity=77 time=0 
note_on channel=9 note=54 velocity=95 time=0 
note_on channel=9 note=69 velocity=0 time=48 
note_on channel=9 note=35 velocity=0 time=0 
note_on channel=9 note=69 velocity=64 time=0 
note_on channel=9 note=69 velocity=0 time=48 
note_on channel=9 note=54 velocity=0 time=0 
note_on channel=9 note=69 velocity=81 time=0 
note_on channel=9 note=54 velocity=97 time=0 
note_on channel=9 note=38 velocity=87 time=4 
note_on channel=9 note=38 velocity=0 time=44 
note_on channel=9 note=69 velocity=0 time=0 
note_on channel=9 note=69 velocity=70 time=0 
note_on channel=9 note=69 velocity=0 time=48 
note_on channel=9 note=54 velocity=0 time=0 
note_on channel=9 note=69 velocity=83 time=0 
note_on channel=9 note=54 velocity=95 time=0 
note_on channel=9 note=35 velocity=87 time=4 
note_on channel=9 note=35 velocity=0 time=44 
note_on channel=9 note=69 velocity=0 time=0 
note_on channel=9 note=69 velocity=71 time=0 
note_on channel=9 note=69 velocity=0 time=48 
note_on channel=9 note=69 velocity=88 time=0 
note_on channel=9 note=54 velocity=0 time=4 
note_on channel=9 note=38 velocity=87 time=0 
note_on channel=9 note=54 velocity=97 time=0 
note_on channel=9 note=38 velocity=0 time=44 
note_on channel=9 note=69 velocity=0 time=0 
note_on channel=9 note=69 velocity=72 time=0 
note_on channel=9 note=69 velocity=0 time=48 
note_on channel=9 note=35 velocity=87 time=0 
note_on channel=9 note=69 velocity=77 time=0 
note_on channel=9 note=54 velocity=0 time=4 
note_on channel=9 note=54 velocity=95 time=0 
note_on channel=9 note=69 velocity=0 time=44 
note_on channel=9 note=35 velocity=0 time=0 
note_on channel=9 note=69 velocity=59 time=0 
note_on channel=9 note=69 velocity=0 time=48 
note_on channel=9 note=54 velocity=0 time=0 
note_on channel=9 note=54 velocity=97 time=0 
note_on channel=9 note=38 velocity=87 time=0 
note_on channel=9 note=69 velocity=75 time=0 
note_on channel=9 note=69 velocity=0 time=48 
note_on channel=9 note=38 velocity=0 time=0 
note_on channel=9 note=69 velocity=62 time=0 
note_on channel=9 note=69 velocity=0 time=48 
note_on channel=9 note=54 velocity=0 time=0 
note_on channel=9 note=35 velocity=87 time=0 
note_on channel=9 note=69 velocity=73 time=0 
note_on channel=9 note=54 velocity=95 time=0 
note_on channel=9 note=69 velocity=0 time=48 
note_on channel=9 note=35 velocity=0 time=0 
note_on channel=9 note=69 velocity=66 time=0 
note_on channel=9 note=69 velocity=0 time=48 
note_on channel=9 note=69 velocity=75 time=0 
note_on channel=9 note=54 velocity=0 time=4 
note_on channel=9 note=38 velocity=87 time=0 
note_on channel=9 note=54 velocity=97 time=0 
note_on channel=9 note=38 velocity=0 time=44 
note_on channel=9 note=69 velocity=0 time=0 
note_on channel=9 note=69 velocity=66 time=0 
note_on channel=9 note=69 velocity=0 time=48 
note_on channel=9 note=54 velocity=0 time=0 
note_on channel=9 note=35 velocity=87 time=0 
note_on channel=9 note=69 velocity=77 time=0 
note_on channel=9 note=54 velocity=95 time=0 
note_on channel=9 note=69 velocity=0 time=48 
note_on channel=9 note=35 velocity=0 time=0 
note_on channel=9 note=69 velocity=64 time=0 
note_on channel=9 note=69 velocity=0 time=48 
note_on channel=9 note=54 velocity=0 time=4 
note_on channel=9 note=38 velocity=87 time=0 
note_on channel=9 note=54 velocity=97 time=0 
note_on channel=9 note=69 velocity=81 time=0 
note_on channel=9 note=69 velocity=0 time=44 
note_on channel=9 note=38 velocity=0 time=0 
note_on channel=9 note=69 velocity=70 time=4 
note_on channel=9 note=69 velocity=0 time=44 
note_on channel=9 note=54 velocity=0 time=0 
note_on channel=9 note=35 velocity=87 time=0 
note_on channel=9 note=69 velocity=83 time=0 
note_on channel=9 note=54 velocity=95 time=0 
note_on channel=9 note=69 velocity=0 time=48 
note_on channel=9 note=35 velocity=0 time=0 
note_on channel=9 note=69 velocity=71 time=0 
note_on channel=9 note=69 velocity=0 time=48 
note_on channel=9 note=54 velocity=0 time=4 
note_on channel=9 note=54 velocity=97 time=0 
note_on channel=9 note=38 velocity=87 time=0 
note_on channel=9 note=69 velocity=88 time=0 
note_on channel=9 note=69 velocity=0 time=44 
note_on channel=9 note=38 velocity=0 time=0 
note_on channel=9 note=69 velocity=72 time=0 
note_on channel=9 note=69 velocity=0 time=48 
note_on channel=9 note=35 velocity=87 time=0 
note_on channel=9 note=69 velocity=77 time=0 
note_on channel=9 note=54 velocity=0 time=4 
note_on channel=9 note=54 velocity=95 time=0 
note_on channel=9 note=69 velocity=0 time=44 
note_on channel=9 note=35 velocity=0 time=0 
note_on channel=9 note=69 velocity=59 time=0 
note_on channel=9 note=69 velocity=0 time=48 
note_on channel=9 note=69 velocity=75 time=0 
note_on channel=9 note=54 velocity=0 time=4 
note_on channel=9 note=38 velocity=87 time=0 
note_on channel=9 note=54 velocity=97 time=0 
note_on channel=9 note=38 velocity=0 time=44 
note_on channel=9 note=69 velocity=0 time=0 
note_on channel=9 note=69 velocity=62 time=0 
note_on channel=9 note=69 velocity=0 time=48 
note_on channel=9 note=35 velocity=87 time=0 
note_on channel=9 note=54 velocity=0 time=4 
note_on channel=9 note=54 velocity=95 time=0 
note_on channel=9 note=69 velocity=73 time=0 
note_on channel=9 note=69 velocity=0 time=44 
note_on channel=9 note=35 velocity=0 time=0 
note_on channel=9 note=69 velocity=66 time=0 
note_on channel=9 note=69 velocity=0 time=48 
note_on channel=9 note=54 velocity=0 time=4 
note_on channel=9 note=54 velocity=97 time=0 
note_on channel=9 note=38 velocity=87 time=0 
note_on channel=9 note=69 velocity=75 time=0 
note_on channel=9 note=69 velocity=0 time=44 
note_on channel=9 note=38 velocity=0 time=0 
note_on channel=9 note=69 velocity=66 time=0 
note_on channel=9 note=69 velocity=0 time=48 
note_on channel=9 note=54 velocity=0 time=0 
note_on channel=9 note=35 velocity=87 time=0 
note_on channel=9 note=69 velocity=77 time=0 
note_on channel=9 note=54 velocity=95 time=0 
note_on channel=9 note=69 velocity=0 time=48 
note_on channel=9 note=35 velocity=0 time=0 
note_on channel=9 note=69 velocity=64 time=0 
note_on channel=9 note=69 velocity=0 time=48 
note_on channel=9 note=54 velocity=0 time=0 
note_on channel=9 note=54 velocity=97 time=0 
note_on channel=9 note=38 velocity=87 time=0 
note_on channel=9 note=69 velocity=81 time=4 
note_on channel=9 note=69 velocity=0 time=44 
note_on channel=9 note=38 velocity=0 time=0 
note_on channel=9 note=69 velocity=70 time=0 
note_on channel=9 note=69 velocity=0 time=48 
note_on channel=9 note=54 velocity=0 time=0 
note_on channel=9 note=69 velocity=83 time=0 
note_on channel=9 note=54 velocity=95 time=0 
note_on channel=9 note=35 velocity=87 time=4 
note_on channel=9 note=35 velocity=0 time=44 
note_on channel=9 note=69 velocity=0 time=0 
note_on channel=9 note=69 velocity=71 time=0 
note_on channel=9 note=69 velocity=0 time=48 
note_on channel=9 note=69 velocity=88 time=0 
note_on channel=9 note=54 velocity=0 time=8 
note_on channel=9 note=38 velocity=87 time=0 
note_on channel=9 note=54 velocity=97 time=0 
note_on channel=9 note=38 velocity=0 time=40 
note_on channel=9 note=69 velocity=0 time=0 
note_on channel=9 note=69 velocity=72 time=0 
note_on channel=9 note=69 velocity=0 time=48 
note_on channel=9 note=35 velocity=87 time=0 
note_on channel=9 note=69 velocity=77 time=0 
note_on channel=9 note=54 velocity=0 time=4 
note_on channel=9 note=54 velocity=95 time=0 
note_on channel=9 note=69 velocity=0 time=44 
note_on channel=9 note=35 velocity=0 time=0 
note_on channel=9 note=69 velocity=59 time=0 
note_on channel=9 note=69 velocity=0 time=48 
note_on channel=9 note=69 velocity=75 time=0 
note_on channel=9 note=54 velocity=0 time=4 
note_on channel=9 note=38 velocity=87 time=0 
note_on channel=9 note=54 velocity=97 time=0 
note_on channel=9 note=38 velocity=0 time=44 
note_on channel=9 note=69 velocity=0 time=0 
note_on channel=9 note=69 velocity=62 time=0 
note_on channel=9 note=69 velocity=0 time=48 
note_on channel=9 note=54 velocity=0 time=0 
note_on channel=9 note=35 velocity=87 time=0 
note_on channel=9 note=69 velocity=73 time=0 
note_on channel=9 note=54 velocity=95 time=0 
note_on channel=9 note=69 velocity=0 time=48 
note_on channel=9 note=35 velocity=0 time=0 
note_on channel=9 note=69 velocity=66 time=0 
note_on channel=9 note=69 velocity=0 time=48 
note_on channel=9 note=54 velocity=0 time=0 
note_on channel=9 note=69 velocity=75 time=0 
note_on channel=9 note=54 velocity=97 time=0 
note_on channel=9 note=38 velocity=87 time=4 
note_on channel=9 note=38 velocity=0 time=44 
note_on channel=9 note=69 velocity=0 time=0 
note_on channel=9 note=69 velocity=66 time=0 
note_on channel=9 note=69 velocity=0 time=48 
note_on channel=9 note=54 velocity=0 time=0 
note_on channel=9 note=35 velocity=87 time=0 
note_on channel=9 note=69 velocity=77 time=0 
note_on channel=9 note=54 velocity=95 time=0 
note_on channel=9 note=69 velocity=0 time=48 
note_on channel=9 note=35 velocity=0 time=0 
note_on channel=9 note=69 velocity=64 time=0 
note_on channel=9 note=69 velocity=0 time=48 
note_on channel=9 note=54 velocity=0 time=0 
note_on channel=9 note=54 velocity=97 time=0 
note_on channel=9 note=69 velocity=81 time=0 
note_on channel=9 note=38 velocity=87 time=0 
note_on channel=9 note=38 velocity=0 time=48 
note_on channel=9 note=69 velocity=0 time=0 
note_on channel=9 note=69 velocity=70 time=0 
note_on channel=9 note=69 velocity=0 time=48 
note_on channel=9 note=54 velocity=0 time=0 
note_on channel=9 note=35 velocity=87 time=0 
note_on channel=9 note=69 velocity=83 time=0 
note_on channel=9 note=54 velocity=95 time=0 
note_on channel=9 note=69 velocity=0 time=48 
note_on channel=9 note=35 velocity=0 time=0 
note_on channel=9 note=69 velocity=71 time=0 
note_on channel=9 note=69 velocity=0 time=48 
note_on channel=9 note=69 velocity=88 time=0 
note_on channel=9 note=54 velocity=0 time=8 
note_on channel=9 note=38 velocity=87 time=0 
note_on channel=9 note=54 velocity=97 time=0 
note_on channel=9 note=38 velocity=0 time=40 
note_on channel=9 note=69 velocity=0 time=0 
note_on channel=9 note=69 velocity=72 time=0 
note_on channel=9 note=69 velocity=0 time=48 
note_on channel=9 note=35 velocity=87 time=0 
note_on channel=9 note=69 velocity=77 time=0 
note_on channel=9 note=54 velocity=0 time=4 
note_on channel=9 note=54 velocity=95 time=0 
note_on channel=9 note=69 velocity=0 time=44 
note_on channel=9 note=35 velocity=0 time=0 
note_on channel=9 note=69 velocity=59 time=0 
note_on channel=9 note=69 velocity=0 time=48 
note_on channel=9 note=69 velocity=75 time=0 
note_on channel=9 note=54 velocity=0 time=4 
note_on channel=9 note=38 velocity=87 time=0 
note_on channel=9 note=54 velocity=97 time=0 
note_on channel=9 note=38 velocity=0 time=44 
note_on channel=9 note=69 velocity=0 time=0 
note_on channel=9 note=69 velocity=62 time=0 
note_on channel=9 note=69 velocity=0 time=48 
note_on channel=9 note=35 velocity=87 time=0 
note_on channel=9 note=54 velocity=0 time=4 
note_on channel=9 note=54 velocity=95 time=0 
note_on channel=9 note=69 velocity=73 time=0 
note_on channel=9 note=69 velocity=0 time=44 
note_on channel=9 note=35 velocity=0 time=0 
note_on channel=9 note=69 velocity=66 time=0 
note_on channel=9 note=69 velocity=0 time=48 
note_on channel=9 note=69 velocity=75 time=0 
note_on channel=9 note=54 velocity=0 time=4 
note_on channel=9 note=38 velocity=87 time=0 
note_on channel=9 note=54 velocity=97 time=0 
note_on channel=9 note=38 velocity=0 time=44 
note_on channel=9 note=69 velocity=0 time=0 
note_on channel=9 note=69 velocity=66 time=0 
note_on channel=9 note=69 velocity=0 time=48 
note_on channel=9 note=54 velocity=0 time=0 
note_on channel=9 note=35 velocity=87 time=0 
note_on channel=9 note=69 velocity=77 time=0 
note_on channel=9 note=54 velocity=95 time=0 
note_on channel=9 note=69 velocity=0 time=48 
note_on channel=9 note=35 velocity=0 time=0 
note_on channel=9 note=69 velocity=64 time=0 
note_on channel=9 note=69 velocity=0 time=48 
note_on channel=9 note=54 velocity=0 time=0 
note_on channel=9 note=69 velocity=81 time=0 
note_on channel=9 note=54 velocity=97 time=0 
note_on channel=9 note=38 velocity=87 time=4 
note_on channel=9 note=38 velocity=0 time=44 
note_on channel=9 note=69 velocity=0 time=0 
note_on channel=9 note=69 velocity=70 time=0 
note_on channel=9 note=69 velocity=0 time=48 
note_on channel=9 note=54 velocity=0 time=0 
note_on channel=9 note=35 velocity=87 time=0 
note_on channel=9 note=69 velocity=83 time=0 
note_on channel=9 note=54 velocity=95 time=0 
note_on channel=9 note=69 velocity=0 time=48 
note_on channel=9 note=35 velocity=0 time=0 
note_on channel=9 note=69 velocity=71 time=0 
note_on channel=9 note=69 velocity=0 time=48 
note_on channel=9 note=69 velocity=88 time=0 
note_on channel=9 note=54 velocity=0 time=4 
note_on channel=9 note=38 velocity=87 time=0 
note_on channel=9 note=54 velocity=97 time=0 
note_on channel=9 note=38 velocity=0 time=44 
note_on channel=9 note=69 velocity=0 time=0 
note_on channel=9 note=69 velocity=72 time=0 
note_on channel=9 note=69 velocity=0 time=48 
note_on channel=9 note=54 velocity=0 time=4 
note_on channel=9 note=54 velocity=95 time=0 
note_on channel=9 note=35 velocity=87 time=0 
note_on channel=9 note=69 velocity=77 time=0 
note_on channel=9 note=69 velocity=0 time=44 
note_on channel=9 note=35 velocity=0 time=0 
note_on channel=9 note=69 velocity=59 time=0 
note_on channel=9 note=69 velocity=0 time=48 
note_on channel=9 note=54 velocity=0 time=0 
note_on channel=9 note=54 velocity=97 time=0 
note_on channel=9 note=38 velocity=87 time=0 
note_on channel=9 note=69 velocity=75 time=0 
note_on channel=9 note=69 velocity=0 time=48 
note_on channel=9 note=38 velocity=0 time=0 
note_on channel=9 note=69 velocity=62 time=0 
note_on channel=9 note=69 velocity=0 time=48 
note_on channel=9 note=54 velocity=0 time=0 
note_on channel=9 note=35 velocity=87 time=0 
note_on channel=9 note=69 velocity=73 time=0 
note_on channel=9 note=54 velocity=95 time=0 
note_on channel=9 note=69 velocity=0 time=48 
note_on channel=9 note=35 velocity=0 time=0 
note_on channel=9 note=69 velocity=66 time=0 
note_on channel=9 note=69 velocity=0 time=48 
note_on channel=9 note=54 velocity=0 time=0 
note_on channel=9 note=69 velocity=75 time=0 
note_on channel=9 note=54 velocity=97 time=0 
note_on channel=9 note=38 velocity=87 time=4 
note_on channel=9 note=38 velocity=0 time=44 
note_on channel=9 note=69 velocity=0 time=0 
note_on channel=9 note=69 velocity=66 time=0 
note_on channel=9 note=69 velocity=0 time=48 
note_on channel=9 note=54 velocity=0 time=0 
note_on channel=9 note=35 velocity=87 time=0 
note_on channel=9 note=69 velocity=77 time=0 
note_on channel=9 note=54 velocity=95 time=0 
note_on channel=9 note=69 velocity=0 time=48 
note_on channel=9 note=35 velocity=0 time=0 
note_on channel=9 note=69 velocity=64 time=0 
note_on channel=9 note=69 velocity=0 time=48 
note_on channel=9 note=54 velocity=0 time=0 
note_on channel=9 note=69 velocity=81 time=0 
note_on channel=9 note=54 velocity=97 time=0 
note_on channel=9 note=38 velocity=87 time=4 
note_on channel=9 note=38 velocity=0 time=44 
note_on channel=9 note=69 velocity=0 time=0 
note_on channel=9 note=69 velocity=70 time=0 
note_on channel=9 note=69 velocity=0 time=48 
note_on channel=9 note=54 velocity=0 time=0 
note_on channel=9 note=35 velocity=87 time=0 
note_on channel=9 note=69 velocity=83 time=0 
note_on channel=9 note=54 velocity=95 time=0 
note_on channel=9 note=69 velocity=0 time=48 
note_on channel=9 note=35 velocity=0 time=0 
note_on channel=9 note=69 velocity=71 time=0 
note_on channel=9 note=69 velocity=0 time=48 
note_on channel=9 note=69 velocity=88 time=0 
note_on channel=9 note=54 velocity=0 time=4 
note_on channel=9 note=54 velocity=97 time=0 
note_on channel=9 note=38 velocity=87 time=4 
note_on channel=9 note=38 velocity=0 time=40 
note_on channel=9 note=69 velocity=0 time=0 
note_on channel=9 note=69 velocity=72 time=0 
note_on channel=9 note=69 velocity=0 time=48 
note_on channel=9 note=35 velocity=87 time=0 
note_on channel=9 note=69 velocity=77 time=0 
note_on channel=9 note=54 velocity=0 time=1 
note_on channel=9 note=69 velocity=0 time=47 
note_on channel=9 note=35 velocity=0 time=0 
note_on channel=9 note=69 velocity=59 time=0 
note_on channel=9 note=69 velocity=0 time=48 
note_on channel=9 note=54 velocity=97 time=0 
note_on channel=9 note=69 velocity=75 time=0 
note_on channel=9 note=38 velocity=87 time=0 
note_on channel=9 note=38 velocity=0 time=48 
note_on channel=9 note=69 velocity=0 time=0 
note_on channel=9 note=69 velocity=62 time=0 
note_on channel=9 note=69 velocity=0 time=48 
note_on channel=9 note=54 velocity=0 time=0 
note_on channel=9 note=35 velocity=87 time=0 
note_on channel=9 note=69 velocity=73 time=0 
note_on channel=9 note=54 velocity=95 time=0 
note_on channel=9 note=69 velocity=0 time=48 
note_on channel=9 note=35 velocity=0 time=0 
note_on channel=9 note=69 velocity=66 time=0 
note_on channel=9 note=69 velocity=0 time=48 
note_on channel=9 note=69 velocity=75 time=0 
note_on channel=9 note=54 velocity=0 time=4 
note_on channel=9 note=38 velocity=87 time=0 
note_on channel=9 note=54 velocity=97 time=0 
note_on channel=9 note=38 velocity=0 time=44 
note_on channel=9 note=69 velocity=0 time=0 
note_on channel=9 note=69 velocity=66 time=0 
note_on channel=9 note=69 velocity=0 time=48 
note_on channel=9 note=54 velocity=0 time=0 
note_on channel=9 note=35 velocity=87 time=0 
note_on channel=9 note=69 velocity=77 time=0 
note_on channel=9 note=54 velocity=95 time=0 
note_on channel=9 note=69 velocity=0 time=48 
note_on channel=9 note=35 velocity=0 time=0 
note_on channel=9 note=69 velocity=64 time=0 
note_on channel=9 note=69 velocity=0 time=48 
note_on channel=9 note=54 velocity=0 time=0 
note_on channel=9 note=54 velocity=97 time=0 
note_on channel=9 note=69 velocity=81 time=0 
note_on channel=9 note=38 velocity=87 time=4 
note_on channel=9 note=38 velocity=0 time=44 
note_on channel=9 note=69 velocity=0 time=0 
note_on channel=9 note=69 velocity=70 time=0 
note_on channel=9 note=69 velocity=0 time=48 
note_on channel=9 note=54 velocity=0 time=0 
note_on channel=9 note=35 velocity=87 time=0 
note_on channel=9 note=69 velocity=83 time=0 
note_on channel=9 note=54 velocity=95 time=0 
note_on channel=9 note=69 velocity=0 time=48 
note_on channel=9 note=35 velocity=0 time=0 
note_on channel=9 note=69 velocity=71 time=0 
note_on channel=9 note=69 velocity=0 time=48 
note_on channel=9 note=54 velocity=0 time=0 
note_on channel=9 note=69 velocity=88 time=0 
note_on channel=9 note=54 velocity=97 time=0 
note_on channel=9 note=38 velocity=87 time=4 
note_on channel=9 note=38 velocity=0 time=44 
note_on channel=9 note=69 velocity=0 time=0 
note_on channel=9 note=69 velocity=72 time=0 
note_on channel=9 note=69 velocity=0 time=48 
note_on channel=9 note=49 velocity=77 time=0 
note_on channel=9 note=35 velocity=87 time=0 
note_on channel=9 note=69 velocity=77 time=0 
note_on channel=9 note=54 velocity=0 time=4 
note_on channel=9 note=54 velocity=95 time=0 
note_on channel=9 note=49 velocity=0 time=44 
note_on channel=9 note=69 velocity=0 time=0 
note_on channel=9 note=35 velocity=0 time=0 
note_on channel=9 note=69 velocity=59 time=0 
note_on channel=9 note=69 velocity=0 time=48 
note_on channel=9 note=54 velocity=0 time=0 
note_on channel=9 note=69 velocity=75 time=0 
note_on channel=9 note=54 velocity=97 time=0 
note_on channel=9 note=38 velocity=87 time=4 
note_on channel=9 note=38 velocity=0 time=44 
note_on channel=9 note=69 velocity=0 time=0 
note_on channel=9 note=69 velocity=62 time=0 
note_on channel=9 note=69 velocity=0 time=48 
note_on channel=9 note=35 velocity=87 time=0 
note_on channel=9 note=54 velocity=0 time=4 
note_on channel=9 note=54 velocity=95 time=0 
note_on channel=9 note=69 velocity=73 time=0 
note_on channel=9 note=69 velocity=0 time=44 
note_on channel=9 note=35 velocity=0 time=0 
note_on channel=9 note=69 velocity=66 time=0 
note_on channel=9 note=69 velocity=0 time=48 
note_on channel=9 note=54 velocity=0 time=0 
note_on channel=9 note=54 velocity=97 time=0 
note_on channel=9 note=38 velocity=87 time=0 
note_on channel=9 note=69 velocity=75 time=4 
note_on channel=9 note=69 velocity=0 time=44 
note_on channel=9 note=38 velocity=0 time=0 
note_on channel=9 note=69 velocity=66 time=0 
note_on channel=9 note=69 velocity=0 time=48 
note_on channel=9 note=54 velocity=0 time=0 
note_on channel=9 note=35 velocity=87 time=0 
note_on channel=9 note=69 velocity=77 time=0 
note_on channel=9 note=54 velocity=95 time=0 
note_on channel=9 note=69 velocity=0 time=48 
note_on channel=9 note=35 velocity=0 time=0 
note_on channel=9 note=69 velocity=64 time=0 
note_on channel=9 note=69 velocity=0 time=48 
note_on channel=9 note=54 velocity=0 time=0 
note_on channel=9 note=69 velocity=81 time=0 
note_on channel=9 note=54 velocity=97 time=0 
note_on channel=9 note=38 velocity=87 time=4 
note_on channel=9 note=38 velocity=0 time=44 
note_on channel=9 note=69 velocity=0 time=0 
note_on channel=9 note=69 velocity=70 time=0 
note_on channel=9 note=69 velocity=0 time=48 
note_on channel=9 note=54 velocity=0 time=0 
note_on channel=9 note=35 velocity=87 time=0 
note_on channel=9 note=69 velocity=83 time=0 
note_on channel=9 note=54 velocity=95 time=0 
note_on channel=9 note=69 velocity=0 time=48 
note_on channel=9 note=35 velocity=0 time=0 
note_on channel=9 note=69 velocity=71 time=0 
note_on channel=9 note=69 velocity=0 time=48 
note_on channel=9 note=69 velocity=88 time=0 
note_on channel=9 note=54 velocity=0 time=4 
note_on channel=9 note=38 velocity=87 time=0 
note_on channel=9 note=54 velocity=97 time=0 
note_on channel=9 note=38 velocity=0 time=44 
note_on channel=9 note=69 velocity=0 time=0 
note_on channel=9 note=69 velocity=72 time=0 
note_on channel=9 note=69 velocity=0 time=48 
note_on channel=9 note=35 velocity=87 time=0 
note_on channel=9 note=69 velocity=77 time=0 
note_on channel=9 note=54 velocity=0 time=4 
note_on channel=9 note=54 velocity=95 time=0 
note_on channel=9 note=69 velocity=0 time=44 
note_on channel=9 note=35 velocity=0 time=0 
note_on channel=9 note=69 velocity=59 time=0 
note_on channel=9 note=69 velocity=0 time=48 
note_on channel=9 note=69 velocity=75 time=0 
note_on channel=9 note=54 velocity=0 time=4 
note_on channel=9 note=38 velocity=87 time=0 
note_on channel=9 note=54 velocity=97 time=0 
note_on channel=9 note=38 velocity=0 time=44 
note_on channel=9 note=69 velocity=0 time=0 
note_on channel=9 note=69 velocity=62 time=0 
note_on channel=9 note=69 velocity=0 time=48 
note_on channel=9 note=54 velocity=0 time=0 
note_on channel=9 note=69 velocity=73 time=0 
note_on channel=9 note=54 velocity=95 time=0 
note_on channel=9 note=35 velocity=87 time=4 
note_on channel=9 note=35 velocity=0 time=44 
note_on channel=9 note=69 velocity=0 time=0 
note_on channel=9 note=69 velocity=66 time=0 
note_on channel=9 note=69 velocity=0 time=48 
note_on channel=9 note=54 velocity=0 time=0 
note_on channel=9 note=69 velocity=75 time=0 
note_on channel=9 note=54 velocity=97 time=0 
note_on channel=9 note=38 velocity=87 time=4 
note_on channel=9 note=38 velocity=0 time=44 
note_on channel=9 note=69 velocity=0 time=0 
note_on channel=9 note=69 velocity=66 time=0 
note_on channel=9 note=69 velocity=0 time=48 
note_on channel=9 note=54 velocity=0 time=0 
note_on channel=9 note=35 velocity=87 time=0 
note_on channel=9 note=69 velocity=77 time=0 
note_on channel=9 note=54 velocity=95 time=0 
note_on channel=9 note=69 velocity=0 time=48 
note_on channel=9 note=35 velocity=0 time=0 
note_on channel=9 note=69 velocity=64 time=0 
note_on channel=9 note=69 velocity=0 time=48 
note_on channel=9 note=54 velocity=0 time=0 
note_on channel=9 note=69 velocity=81 time=0 
note_on channel=9 note=54 velocity=97 time=0 
note_on channel=9 note=38 velocity=87 time=4 
note_on channel=9 note=38 velocity=0 time=44 
note_on channel=9 note=69 velocity=0 time=0 
note_on channel=9 note=69 velocity=70 time=0 
note_on channel=9 note=69 velocity=0 time=48 
note_on channel=9 note=54 velocity=0 time=0 
note_on channel=9 note=35 velocity=87 time=0 
note_on channel=9 note=69 velocity=83 time=0 
note_on channel=9 note=54 velocity=95 time=0 
note_on channel=9 note=69 velocity=0 time=48 
note_on channel=9 note=35 velocity=0 time=0 
note_on channel=9 note=69 velocity=71 time=0 
note_on channel=9 note=69 velocity=0 time=48 
note_on channel=9 note=54 velocity=0 time=0 
note_on channel=9 note=69 velocity=88 time=0 
note_on channel=9 note=54 velocity=97 time=0 
note_on channel=9 note=38 velocity=87 time=4 
note_on channel=9 note=38 velocity=0 time=44 
note_on channel=9 note=69 velocity=0 time=0 
note_on channel=9 note=69 velocity=72 time=0 
note_on channel=9 note=69 velocity=0 time=48 
note_on channel=9 note=35 velocity=87 time=0 
note_on channel=9 note=69 velocity=77 time=0 
note_on channel=9 note=54 velocity=0 time=1 
note_on channel=9 note=69 velocity=0 time=47 
note_on channel=9 note=35 velocity=0 time=0 
note_on channel=9 note=69 velocity=59 time=0 
note_on channel=9 note=69 velocity=0 time=48 
note_on channel=9 note=54 velocity=97 time=0 
note_on channel=9 note=69 velocity=75 time=0 
note_on channel=9 note=38 velocity=87 time=0 
note_on channel=9 note=38 velocity=0 time=48 
note_on channel=9 note=69 velocity=0 time=0 
note_on channel=9 note=69 velocity=62 time=0 
note_on channel=9 note=69 velocity=0 time=48 
note_on channel=9 note=69 velocity=73 time=0 
note_on channel=9 note=54 velocity=0 time=4 
note_on channel=9 note=35 velocity=87 time=0 
note_on channel=9 note=54 velocity=95 time=0 
note_on channel=9 note=35 velocity=0 time=44 
note_on channel=9 note=69 velocity=0 time=0 
note_on channel=9 note=69 velocity=66 time=0 
note_on channel=9 note=69 velocity=0 time=48 
note_on channel=9 note=69 velocity=75 time=0 
note_on channel=9 note=54 velocity=0 time=4 
note_on channel=9 note=38 velocity=87 time=0 
note_on channel=9 note=54 velocity=97 time=0 
note_on channel=9 note=38 velocity=0 time=44 
note_on channel=9 note=69 velocity=0 time=0 
note_on channel=9 note=69 velocity=66 time=0 
note_on channel=9 note=69 velocity=0 time=48 
note_on channel=9 note=69 velocity=77 time=0 
note_on channel=9 note=54 velocity=0 time=4 
note_on channel=9 note=35 velocity=87 time=0 
note_on channel=9 note=54 velocity=95 time=0 
note_on channel=9 note=35 velocity=0 time=44 
note_on channel=9 note=69 velocity=0 time=0 
note_on channel=9 note=69 velocity=64 time=0 
note_on channel=9 note=69 velocity=0 time=48 
note_on channel=9 note=54 velocity=0 time=4 
note_on channel=9 note=54 velocity=97 time=0 
note_on channel=9 note=38 velocity=87 time=0 
note_on channel=9 note=69 velocity=81 time=0 
note_on channel=9 note=69 velocity=0 time=44 
note_on channel=9 note=38 velocity=0 time=0 
note_on channel=9 note=69 velocity=70 time=0 
note_on channel=9 note=69 velocity=0 time=48 
note_on channel=9 note=54 velocity=0 time=0 
note_on channel=9 note=35 velocity=87 time=0 
note_on channel=9 note=69 velocity=83 time=0 
note_on channel=9 note=54 velocity=95 time=0 
note_on channel=9 note=69 velocity=0 time=48 
note_on channel=9 note=35 velocity=0 time=0 
note_on channel=9 note=69 velocity=71 time=0 
note_on channel=9 note=69 velocity=0 time=48 
note_on channel=9 note=69 velocity=88 time=0 
note_on channel=9 note=54 velocity=0 time=4 
note_on channel=9 note=38 velocity=87 time=0 
note_on channel=9 note=54 velocity=97 time=0 
note_on channel=9 note=38 velocity=0 time=44 
note_on channel=9 note=69 velocity=0 time=0 
note_on channel=9 note=69 velocity=72 time=0 
note_on channel=9 note=69 velocity=0 time=48 
note_on channel=9 note=35 velocity=87 time=0 
note_on channel=9 note=69 velocity=77 time=0 
note_on channel=9 note=54 velocity=0 time=1 
note_on channel=9 note=69 velocity=0 time=47 
note_on channel=9 note=35 velocity=0 time=0 
note_on channel=9 note=69 velocity=59 time=0 
note_on channel=9 note=69 velocity=0 time=48 
note_on channel=9 note=69 velocity=75 time=0 
note_on channel=9 note=38 velocity=87 time=4 
note_on channel=9 note=54 velocity=97 time=0 
note_on channel=9 note=38 velocity=0 time=44 
note_on channel=9 note=69 velocity=0 time=0 
note_on channel=9 note=69 velocity=62 time=0 
note_on channel=9 note=69 velocity=0 time=48 
note_on channel=9 note=35 velocity=87 time=0 
note_on channel=9 note=54 velocity=0 time=4 
note_on channel=9 note=54 velocity=95 time=0 
note_on channel=9 note=69 velocity=73 time=0 
note_on channel=9 note=69 velocity=0 time=44 
note_on channel=9 note=35 velocity=0 time=0 
note_on channel=9 note=69 velocity=66 time=0 
note_on channel=9 note=69 velocity=0 time=48 
note_on channel=9 note=69 velocity=75 time=0 
note_on channel=9 note=54 velocity=0 time=4 
note_on channel=9 note=38 velocity=87 time=0 
note_on channel=9 note=54 velocity=97 time=0 
note_on channel=9 note=38 velocity=0 time=44 
note_on channel=9 note=69 velocity=0 time=0 
note_on channel=9 note=69 velocity=66 time=0 
note_on channel=9 note=69 velocity=0 time=48 
note_on channel=9 note=54 velocity=0 time=0 
note_on channel=9 note=35 velocity=87 time=0 
note_on channel=9 note=69 velocity=77 time=0 
note_on channel=9 note=54 velocity=95 time=0 
note_on channel=9 note=69 velocity=0 time=48 
note_on channel=9 note=35 velocity=0 time=0 
note_on channel=9 note=69 velocity=64 time=0 
note_on channel=9 note=69 velocity=0 time=48 
note_on channel=9 note=69 velocity=81 time=0 
note_on channel=9 note=54 velocity=0 time=4 
note_on channel=9 note=38 velocity=87 time=0 
note_on channel=9 note=54 velocity=97 time=0 
note_on channel=9 note=38 velocity=0 time=44 
note_on channel=9 note=69 velocity=0 time=0 
note_on channel=9 note=69 velocity=70 time=0 
note_on channel=9 note=69 velocity=0 time=48 
note_on channel=9 note=54 velocity=0 time=0 
note_on channel=9 note=35 velocity=87 time=0 
note_on channel=9 note=69 velocity=83 time=0 
note_on channel=9 note=54 velocity=95 time=0 
note_on channel=9 note=69 velocity=0 time=48 
note_on channel=9 note=35 velocity=0 time=0 
note_on channel=9 note=69 velocity=71 time=0 
note_on channel=9 note=69 velocity=0 time=48 
note_on channel=9 note=69 velocity=88 time=0 
note_on channel=9 note=54 velocity=0 time=4 
note_on channel=9 note=38 velocity=87 time=0 
note_on channel=9 note=54 velocity=97 time=0 
note_on channel=9 note=38 velocity=0 time=44 
note_on channel=9 note=69 velocity=0 time=0 
note_on channel=9 note=69 velocity=72 time=0 
note_on channel=9 note=69 velocity=0 time=48 
note_on channel=9 note=35 velocity=87 time=0 
note_on channel=9 note=69 velocity=77 time=0 
note_on channel=9 note=54 velocity=0 time=1 
note_on channel=9 note=69 velocity=0 time=47 
note_on channel=9 note=35 velocity=0 time=0 
note_on channel=9 note=69 velocity=59 time=0 
note_on channel=9 note=69 velocity=0 time=48 
note_on channel=9 note=69 velocity=75 time=0 
note_on channel=9 note=38 velocity=87 time=4 
note_on channel=9 note=54 velocity=97 time=0 
note_on channel=9 note=38 velocity=0 time=44 
note_on channel=9 note=69 velocity=0 time=0 
note_on channel=9 note=69 velocity=62 time=0 
note_on channel=9 note=69 velocity=0 time=48 
note_on channel=9 note=54 velocity=0 time=0 
note_on channel=9 note=35 velocity=87 time=0 
note_on channel=9 note=69 velocity=73 time=0 
note_on channel=9 note=54 velocity=95 time=0 
note_on channel=9 note=69 velocity=0 time=48 
note_on channel=9 note=35 velocity=0 time=0 
note_on channel=9 note=69 velocity=66 time=0 
note_on channel=9 note=69 velocity=0 time=48 
note_on channel=9 note=54 velocity=0 time=0 
note_on channel=9 note=69 velocity=75 time=0 
note_on channel=9 note=54 velocity=97 time=0 
note_on channel=9 note=38 velocity=87 time=4 
note_on channel=9 note=38 velocity=0 time=44 
note_on channel=9 note=69 velocity=0 time=0 
note_on channel=9 note=69 velocity=66 time=0 
note_on channel=9 note=69 velocity=0 time=48 
note_on channel=9 note=54 velocity=0 time=0 
note_on channel=9 note=35 velocity=87 time=0 
note_on channel=9 note=69 velocity=77 time=0 
note_on channel=9 note=54 velocity=95 time=0 
note_on channel=9 note=69 velocity=0 time=48 
note_on channel=9 note=35 velocity=0 time=0 
note_on channel=9 note=69 velocity=64 time=0 
note_on channel=9 note=69 velocity=0 time=48 
note_on channel=9 note=54 velocity=0 time=0 
note_on channel=9 note=54 velocity=97 time=0 
note_on channel=9 note=69 velocity=81 time=0 
note_on channel=9 note=38 velocity=87 time=0 
note_on channel=9 note=38 velocity=0 time=48 
note_on channel=9 note=69 velocity=0 time=0 
note_on channel=9 note=69 velocity=70 time=0 
note_on channel=9 note=69 velocity=0 time=48 
note_on channel=9 note=54 velocity=0 time=0 
note_on channel=9 note=35 velocity=87 time=0 
note_on channel=9 note=69 velocity=83 time=0 
note_on channel=9 note=54 velocity=95 time=0 
note_on channel=9 note=69 velocity=0 time=48 
note_on channel=9 note=35 velocity=0 time=0 
note_on channel=9 note=69 velocity=71 time=0 
note_on channel=9 note=69 velocity=0 time=48 
note_on channel=9 note=69 velocity=88 time=0 
note_on channel=9 note=54 velocity=0 time=4 
note_on channel=9 note=38 velocity=87 time=0 
note_on channel=9 note=54 velocity=97 time=0 
note_on channel=9 note=38 velocity=0 time=44 
note_on channel=9 note=69 velocity=0 time=0 
note_on channel=9 note=69 velocity=72 time=0 
note_on channel=9 note=69 velocity=0 time=48 
note_on channel=9 note=35 velocity=87 time=0 
note_on channel=9 note=69 velocity=77 time=0 
note_on channel=9 note=54 velocity=0 time=4 
note_on channel=9 note=54 velocity=95 time=0 
note_on channel=9 note=69 velocity=0 time=44 
note_on channel=9 note=35 velocity=0 time=0 
note_on channel=9 note=69 velocity=59 time=0 
note_on channel=9 note=69 velocity=0 time=48 
note_on channel=9 note=69 velocity=75 time=0 
note_on channel=9 note=54 velocity=0 time=4 
note_on channel=9 note=38 velocity=87 time=0 
note_on channel=9 note=54 velocity=97 time=0 
note_on channel=9 note=38 velocity=0 time=44 
note_on channel=9 note=69 velocity=0 time=0 
note_on channel=9 note=69 velocity=62 time=0 
note_on channel=9 note=69 velocity=0 time=48 
note_on channel=9 note=35 velocity=87 time=0 
note_on channel=9 note=54 velocity=0 time=4 
note_on channel=9 note=54 velocity=95 time=0 
note_on channel=9 note=69 velocity=73 time=0 
note_on channel=9 note=69 velocity=0 time=44 
note_on channel=9 note=35 velocity=0 time=0 
note_on channel=9 note=69 velocity=66 time=0 
note_on channel=9 note=69 velocity=0 time=48 
note_on channel=9 note=69 velocity=75 time=0 
note_on channel=9 note=54 velocity=0 time=4 
note_on channel=9 note=38 velocity=87 time=0 
note_on channel=9 note=54 velocity=97 time=0 
note_on channel=9 note=38 velocity=0 time=44 
note_on channel=9 note=69 velocity=0 time=0 
note_on channel=9 note=69 velocity=66 time=0 
note_on channel=9 note=69 velocity=0 time=48 
note_on channel=9 note=35 velocity=87 time=0 
note_on channel=9 note=54 velocity=0 time=4 
note_on channel=9 note=54 velocity=95 time=0 
note_on channel=9 note=69 velocity=77 time=0 
note_on channel=9 note=69 velocity=0 time=44 
note_on channel=9 note=35 velocity=0 time=0 
note_on channel=9 note=69 velocity=64 time=0 
note_on channel=9 note=69 velocity=0 time=48 
note_on channel=9 note=54 velocity=0 time=0 
note_on channel=9 note=69 velocity=81 time=0 
note_on channel=9 note=54 velocity=97 time=0 
note_on channel=9 note=38 velocity=87 time=4 
note_on channel=9 note=38 velocity=0 time=44 
note_on channel=9 note=69 velocity=0 time=0 
note_on channel=9 note=69 velocity=70 time=0 
note_on channel=9 note=69 velocity=0 time=48 
note_on channel=9 note=54 velocity=0 time=0 
note_on channel=9 note=35 velocity=87 time=0 
note_on channel=9 note=69 velocity=83 time=0 
note_on channel=9 note=54 velocity=95 time=0 
note_on channel=9 note=69 velocity=0 time=48 
note_on channel=9 note=35 velocity=0 time=0 
note_on channel=9 note=69 velocity=71 time=0 
note_on channel=9 note=69 velocity=0 time=48 
note_on channel=9 note=69 velocity=88 time=0 
note_on channel=9 note=54 velocity=0 time=4 
note_on channel=9 note=54 velocity=97 time=0 
note_on channel=9 note=38 velocity=87 time=4 
note_on channel=9 note=38 velocity=0 time=40 
note_on channel=9 note=69 velocity=0 time=0 
note_on channel=9 note=69 velocity=72 time=0 
note_on channel=9 note=69 velocity=0 time=48 
note_on channel=9 note=35 velocity=87 time=0 
note_on channel=9 note=69 velocity=77 time=0 
note_on channel=9 note=54 velocity=0 time=4 
note_on channel=9 note=54 velocity=95 time=0 
note_on channel=9 note=69 velocity=0 time=44 
note_on channel=9 note=35 velocity=0 time=0 
note_on channel=9 note=69 velocity=59 time=0 
note_on channel=9 note=69 velocity=0 time=48 
note_on channel=9 note=54 velocity=0 time=0 
note_on channel=9 note=54 velocity=97 time=0 
note_on channel=9 note=69 velocity=75 time=0 
note_on channel=9 note=38 velocity=87 time=4 
note_on channel=9 note=38 velocity=0 time=44 
note_on channel=9 note=69 velocity=0 time=0 
note_on channel=9 note=69 velocity=62 time=0 
note_on channel=9 note=69 velocity=0 time=48 
note_on channel=9 note=54 velocity=0 time=0 
note_on channel=9 note=69 velocity=73 time=0 
note_on channel=9 note=54 velocity=95 time=0 
note_on channel=9 note=35 velocity=87 time=4 
note_on channel=9 note=35 velocity=0 time=44 
note_on channel=9 note=69 velocity=0 time=0 
note_on channel=9 note=69 velocity=66 time=0 
note_on channel=9 note=69 velocity=0 time=48 
note_on channel=9 note=69 velocity=75 time=0 
note_on channel=9 note=54 velocity=0 time=4 
note_on channel=9 note=38 velocity=87 time=0 
note_on channel=9 note=54 velocity=97 time=0 
note_on channel=9 note=38 velocity=0 time=44 
note_on channel=9 note=69 velocity=0 time=0 
note_on channel=9 note=69 velocity=66 time=0 
note_on channel=9 note=69 velocity=0 time=48 
note_on channel=9 note=54 velocity=0 time=0 
note_on channel=9 note=69 velocity=77 time=0 
note_on channel=9 note=54 velocity=95 time=0 
note_on channel=9 note=35 velocity=87 time=4 
note_on channel=9 note=69 velocity=0 time=44 
note_on channel=9 note=69 velocity=64 time=0 
note_on channel=9 note=35 velocity=0 time=4 
note_on channel=9 note=69 velocity=0 time=44 
note_on channel=9 note=69 velocity=81 time=0 
note_on channel=9 note=54 velocity=0 time=4 
note_on channel=9 note=38 velocity=87 time=0 
note_on channel=9 note=54 velocity=97 time=0 
note_on channel=9 note=38 velocity=0 time=44 
note_on channel=9 note=69 velocity=0 time=0 
note_on channel=9 note=69 velocity=70 time=0 
note_on channel=9 note=69 velocity=0 time=48 
note_on channel=9 note=54 velocity=0 time=0 
note_on channel=9 note=35 velocity=87 time=0 
note_on channel=9 note=69 velocity=83 time=0 
note_on channel=9 note=54 velocity=95 time=0 
note_on channel=9 note=69 velocity=0 time=48 
note_on channel=9 note=35 velocity=0 time=0 
note_on channel=9 note=69 velocity=71 time=0 
note_on channel=9 note=69 velocity=0 time=48 
note_on channel=9 note=69 velocity=88 time=0 
note_on channel=9 note=54 velocity=0 time=4 
note_on channel=9 note=54 velocity=97 time=0 
note_on channel=9 note=38 velocity=87 time=4 
note_on channel=9 note=38 velocity=0 time=40 
note_on channel=9 note=69 velocity=0 time=0 
note_on channel=9 note=69 velocity=72 time=0 
note_on channel=9 note=69 velocity=0 time=48 
note_on channel=9 note=35 velocity=87 time=0 
note_on channel=9 note=69 velocity=77 time=0 
note_on channel=9 note=54 velocity=0 time=1 
note_on channel=9 note=69 velocity=0 time=47 
note_on channel=9 note=35 velocity=0 time=0 
note_on channel=9 note=69 velocity=59 time=0 
note_on channel=9 note=69 velocity=0 time=48 
note_on channel=9 note=54 velocity=97 time=0 
note_on channel=9 note=38 velocity=87 time=0 
note_on channel=9 note=69 velocity=75 time=0 
note_on channel=9 note=69 velocity=0 time=48 
note_on channel=9 note=38 velocity=0 time=0 
note_on channel=9 note=69 velocity=62 time=0 
note_on channel=9 note=69 velocity=0 time=48 
note_on channel=9 note=54 velocity=0 time=0 
note_on channel=9 note=35 velocity=87 time=0 
note_on channel=9 note=69 velocity=73 time=0 
note_on channel=9 note=54 velocity=95 time=0 
note_on channel=9 note=69 velocity=0 time=48 
note_on channel=9 note=35 velocity=0 time=0 
note_on channel=9 note=69 velocity=66 time=0 
note_on channel=9 note=69 velocity=0 time=48 
note_on channel=9 note=69 velocity=75 time=0 
note_on channel=9 note=54 velocity=0 time=4 
note_on channel=9 note=38 velocity=87 time=0 
note_on channel=9 note=54 velocity=97 time=0 
note_on channel=9 note=38 velocity=0 time=44 
note_on channel=9 note=69 velocity=0 time=0 
note_on channel=9 note=69 velocity=66 time=0 
note_on channel=9 note=69 velocity=0 time=48 
note_on channel=9 note=54 velocity=0 time=0 
note_on channel=9 note=35 velocity=87 time=0 
note_on channel=9 note=69 velocity=77 time=0 
note_on channel=9 note=54 velocity=95 time=0 
note_on channel=9 note=69 velocity=0 time=48 
note_on channel=9 note=35 velocity=0 time=0 
note_on channel=9 note=69 velocity=64 time=0 
note_on channel=9 note=69 velocity=0 time=48 
note_on channel=9 note=54 velocity=0 time=0 
note_on channel=9 note=69 velocity=81 time=0 
note_on channel=9 note=54 velocity=97 time=0 
note_on channel=9 note=38 velocity=87 time=4 
note_on channel=9 note=38 velocity=0 time=44 
note_on channel=9 note=69 velocity=0 time=0 
note_on channel=9 note=69 velocity=70 time=0 
note_on channel=9 note=69 velocity=0 time=48 
note_on channel=9 note=54 velocity=0 time=0 
note_on channel=9 note=69 velocity=83 time=0 
note_on channel=9 note=54 velocity=95 time=0 
note_on channel=9 note=35 velocity=87 time=4 
note_on channel=9 note=35 velocity=0 time=44 
note_on channel=9 note=69 velocity=0 time=0 
note_on channel=9 note=69 velocity=71 time=0 
note_on channel=9 note=69 velocity=0 time=48 
note_on channel=9 note=69 velocity=88 time=4 
note_on channel=9 note=54 velocity=0 time=4 
note_on channel=9 note=38 velocity=87 time=0 
note_on channel=9 note=54 velocity=97 time=0 
note_on channel=9 note=38 velocity=0 time=40 
note_on channel=9 note=69 velocity=0 time=0 
note_on channel=9 note=69 velocity=72 time=0 
note_on channel=9 note=69 velocity=0 time=48 
note_on channel=9 note=35 velocity=87 time=0 
note_on channel=9 note=69 velocity=77 time=0 
note_on channel=9 note=54 velocity=0 time=4 
note_on channel=9 note=54 velocity=95 time=0 
note_on channel=9 note=69 velocity=0 time=44 
note_on channel=9 note=35 velocity=0 time=0 
note_on channel=9 note=69 velocity=59 time=0 
note_on channel=9 note=69 velocity=0 time=48 
note_on channel=9 note=54 velocity=0 time=0 
note_on channel=9 note=54 velocity=97 time=0 
note_on channel=9 note=69 velocity=75 time=0 
note_on channel=9 note=38 velocity=87 time=0 
note_on channel=9 note=38 velocity=0 time=48 
note_on channel=9 note=69 velocity=0 time=0 
note_on channel=9 note=69 velocity=62 time=0 
note_on channel=9 note=69 velocity=0 time=48 
note_on channel=9 note=54 velocity=0 time=0 
note_on channel=9 note=35 velocity=87 time=0 
note_on channel=9 note=69 velocity=73 time=0 
note_on channel=9 note=54 velocity=95 time=0 
note_on channel=9 note=69 velocity=0 time=48 
note_on channel=9 note=35 velocity=0 time=0 
note_on channel=9 note=69 velocity=66 time=0 
note_on channel=9 note=69 velocity=0 time=48 
note_on channel=9 note=54 velocity=0 time=0 
note_on channel=9 note=54 velocity=97 time=0 
note_on channel=9 note=38 velocity=87 time=0 
note_on channel=9 note=69 velocity=75 time=4 
note_on channel=9 note=69 velocity=0 time=44 
note_on channel=9 note=38 velocity=0 time=0 
note_on channel=9 note=69 velocity=66 time=0 
note_on channel=9 note=69 velocity=0 time=48 
note_on channel=9 note=54 velocity=0 time=0 
note_on channel=9 note=35 velocity=87 time=0 
note_on channel=9 note=69 velocity=77 time=0 
note_on channel=9 note=54 velocity=95 time=0 
note_on channel=9 note=69 velocity=0 time=48 
note_on channel=9 note=35 velocity=0 time=0 
note_on channel=9 note=69 velocity=64 time=0 
note_on channel=9 note=69 velocity=0 time=48 
note_on channel=9 note=54 velocity=0 time=0 
note_on channel=9 note=69 velocity=81 time=0 
note_on channel=9 note=54 velocity=97 time=0 
note_on channel=9 note=38 velocity=87 time=4 
note_on channel=9 note=38 velocity=0 time=44 
note_on channel=9 note=69 velocity=0 time=0 
note_on channel=9 note=69 velocity=70 time=0 
note_on channel=9 note=69 velocity=0 time=48 
note_on channel=9 note=54 velocity=0 time=0 
note_on channel=9 note=35 velocity=87 time=0 
note_on channel=9 note=69 velocity=83 time=0 
note_on channel=9 note=54 velocity=95 time=0 
note_on channel=9 note=69 velocity=0 time=48 
note_on channel=9 note=35 velocity=0 time=0 
note_on channel=9 note=69 velocity=71 time=0 
note_on channel=9 note=69 velocity=0 time=48 
note_on channel=9 note=69 velocity=88 time=0 
note_on channel=9 note=54 velocity=0 time=4 
note_on channel=9 note=38 velocity=87 time=0 
note_on channel=9 note=54 velocity=97 time=0 
note_on channel=9 note=38 velocity=0 time=44 
note_on channel=9 note=69 velocity=0 time=0 
note_on channel=9 note=69 velocity=72 time=0 
note_on channel=9 note=69 velocity=0 time=48 
note_on channel=9 note=35 velocity=87 time=0 
note_on channel=9 note=69 velocity=77 time=0 
note_on channel=9 note=54 velocity=0 time=1 
note_on channel=9 note=69 velocity=0 time=47 
note_on channel=9 note=35 velocity=0 time=0 
note_on channel=9 note=69 velocity=59 time=0 
